G04 #@! TF.GenerationSoftware,KiCad,Pcbnew,(5.1.7)-1*
G04 #@! TF.CreationDate,2020-12-30T12:14:20+00:00*
G04 #@! TF.ProjectId,Panel,50616e65-6c2e-46b6-9963-61645f706362,rev?*
G04 #@! TF.SameCoordinates,Original*
G04 #@! TF.FileFunction,Soldermask,Bot*
G04 #@! TF.FilePolarity,Negative*
%FSLAX46Y46*%
G04 Gerber Fmt 4.6, Leading zero omitted, Abs format (unit mm)*
G04 Created by KiCad (PCBNEW (5.1.7)-1) date 2020-12-30 12:14:20*
%MOMM*%
%LPD*%
G01*
G04 APERTURE LIST*
%ADD10C,0.010000*%
%ADD11C,5.702000*%
%ADD12C,7.102000*%
%ADD13C,8.602000*%
%ADD14C,14.102000*%
G04 APERTURE END LIST*
D10*
G36*
X114023248Y-19202605D02*
G01*
X113859932Y-19046982D01*
X113711258Y-18877190D01*
X113539188Y-18669561D01*
X113774573Y-18877190D01*
X113893777Y-18980367D01*
X113954991Y-19021725D01*
X113955049Y-18988385D01*
X113890785Y-18867470D01*
X113759035Y-18646102D01*
X113689512Y-18531141D01*
X113464824Y-18135699D01*
X113252173Y-17707794D01*
X113047175Y-17234393D01*
X112845446Y-16702466D01*
X112642603Y-16098982D01*
X112434261Y-15410911D01*
X112216036Y-14625222D01*
X111983544Y-13728884D01*
X111736607Y-12726294D01*
X111555031Y-12024028D01*
X111377295Y-11436188D01*
X111205645Y-10969071D01*
X111042326Y-10628973D01*
X110930385Y-10465382D01*
X110821773Y-10360672D01*
X110652113Y-10219062D01*
X110568051Y-10153938D01*
X110425082Y-10053682D01*
X110295685Y-9993448D01*
X110138395Y-9963771D01*
X109911748Y-9955188D01*
X109702928Y-9956496D01*
X109388669Y-9968915D01*
X109115225Y-10004318D01*
X108830453Y-10073037D01*
X108482212Y-10185408D01*
X108396462Y-10215404D01*
X108076337Y-10325650D01*
X107857708Y-10391428D01*
X107712791Y-10417733D01*
X107613801Y-10409555D01*
X107532953Y-10371890D01*
X107531339Y-10370876D01*
X107386954Y-10300515D01*
X107161103Y-10212059D01*
X106929148Y-10133269D01*
X106254572Y-9919277D01*
X105700614Y-9738220D01*
X105255094Y-9583986D01*
X104905832Y-9450463D01*
X104640649Y-9331536D01*
X104447366Y-9221093D01*
X104313802Y-9113021D01*
X104227777Y-9001207D01*
X104177113Y-8879538D01*
X104149630Y-8741901D01*
X104149101Y-8737953D01*
X104150411Y-8634943D01*
X104207229Y-8561475D01*
X104348760Y-8492999D01*
X104506805Y-8437257D01*
X104703354Y-8383011D01*
X105004704Y-8314244D01*
X105378865Y-8237600D01*
X105793846Y-8159723D01*
X106093712Y-8107662D01*
X106485531Y-8040556D01*
X106828058Y-7979009D01*
X107098707Y-7927316D01*
X107274892Y-7889768D01*
X107333721Y-7871981D01*
X107295156Y-7850779D01*
X107157707Y-7839048D01*
X107099866Y-7838225D01*
X106937662Y-7824974D01*
X106888660Y-7789147D01*
X106898004Y-7775691D01*
X106982076Y-7757750D01*
X107182098Y-7739727D01*
X107475602Y-7722225D01*
X107840120Y-7705849D01*
X108253185Y-7691205D01*
X108692329Y-7678898D01*
X109135083Y-7669532D01*
X109558979Y-7663711D01*
X109941551Y-7662041D01*
X110260330Y-7665127D01*
X110492848Y-7673573D01*
X110545361Y-7677507D01*
X110736990Y-7705687D01*
X110855474Y-7743836D01*
X110874107Y-7764411D01*
X110931192Y-7827285D01*
X111069728Y-7902377D01*
X111080990Y-7907126D01*
X111303294Y-8048673D01*
X111541274Y-8278971D01*
X111759251Y-8558233D01*
X111919651Y-8842369D01*
X111973271Y-8992135D01*
X112053441Y-9253497D01*
X112153721Y-9603621D01*
X112267669Y-10019672D01*
X112388848Y-10478815D01*
X112465365Y-10777399D01*
X112611196Y-11343234D01*
X112734767Y-11796848D01*
X112843533Y-12161212D01*
X112944953Y-12459296D01*
X113046481Y-12714072D01*
X113155576Y-12948511D01*
X113196031Y-13028276D01*
X113435764Y-13438637D01*
X113693340Y-13786315D01*
X113955136Y-14060503D01*
X114207527Y-14250393D01*
X114436890Y-14345179D01*
X114629601Y-14334054D01*
X114739493Y-14252620D01*
X114757796Y-14165128D01*
X114777314Y-13956110D01*
X114797501Y-13642445D01*
X114817812Y-13241015D01*
X114837699Y-12768701D01*
X114856617Y-12242385D01*
X114874018Y-11678948D01*
X114889358Y-11095270D01*
X114902088Y-10508232D01*
X114911664Y-9934717D01*
X114917538Y-9391605D01*
X114919164Y-8895777D01*
X114918539Y-8720650D01*
X114918136Y-8392253D01*
X114924530Y-8177995D01*
X114942233Y-8053618D01*
X114975760Y-7994859D01*
X115029623Y-7977459D01*
X115056959Y-7976645D01*
X115094220Y-7979455D01*
X115124370Y-7996733D01*
X115148174Y-8041750D01*
X115166398Y-8127780D01*
X115179807Y-8268093D01*
X115189166Y-8475962D01*
X115195239Y-8764658D01*
X115198793Y-9147454D01*
X115200591Y-9637621D01*
X115201400Y-10248432D01*
X115201585Y-10485501D01*
X115208091Y-11417072D01*
X115225724Y-12287093D01*
X115253793Y-13084007D01*
X115291610Y-13796261D01*
X115338483Y-14412302D01*
X115393722Y-14920574D01*
X115456637Y-15309525D01*
X115500576Y-15490374D01*
X115540411Y-15783212D01*
X115524499Y-16166286D01*
X115459852Y-16606458D01*
X115353483Y-17070590D01*
X115345154Y-17097451D01*
X114391672Y-17097451D01*
X114391636Y-16899825D01*
X114280041Y-16713971D01*
X114067578Y-16565054D01*
X113944941Y-16517731D01*
X113681503Y-16445416D01*
X113534480Y-16427158D01*
X113504080Y-16446901D01*
X113544010Y-16581441D01*
X113646550Y-16777626D01*
X113785820Y-16990654D01*
X113906106Y-17142888D01*
X114044942Y-17293963D01*
X114131759Y-17353548D01*
X114203862Y-17335893D01*
X114269458Y-17281681D01*
X114391672Y-17097451D01*
X115345154Y-17097451D01*
X115212407Y-17525546D01*
X115043635Y-17938187D01*
X114940430Y-18137052D01*
X114823309Y-18327519D01*
X114672220Y-18553884D01*
X114507746Y-18787790D01*
X114350473Y-19000878D01*
X114220985Y-19164792D01*
X114139866Y-19251173D01*
X114126848Y-19257844D01*
X114023248Y-19202605D01*
G37*
X114023248Y-19202605D02*
X113859932Y-19046982D01*
X113711258Y-18877190D01*
X113539188Y-18669561D01*
X113774573Y-18877190D01*
X113893777Y-18980367D01*
X113954991Y-19021725D01*
X113955049Y-18988385D01*
X113890785Y-18867470D01*
X113759035Y-18646102D01*
X113689512Y-18531141D01*
X113464824Y-18135699D01*
X113252173Y-17707794D01*
X113047175Y-17234393D01*
X112845446Y-16702466D01*
X112642603Y-16098982D01*
X112434261Y-15410911D01*
X112216036Y-14625222D01*
X111983544Y-13728884D01*
X111736607Y-12726294D01*
X111555031Y-12024028D01*
X111377295Y-11436188D01*
X111205645Y-10969071D01*
X111042326Y-10628973D01*
X110930385Y-10465382D01*
X110821773Y-10360672D01*
X110652113Y-10219062D01*
X110568051Y-10153938D01*
X110425082Y-10053682D01*
X110295685Y-9993448D01*
X110138395Y-9963771D01*
X109911748Y-9955188D01*
X109702928Y-9956496D01*
X109388669Y-9968915D01*
X109115225Y-10004318D01*
X108830453Y-10073037D01*
X108482212Y-10185408D01*
X108396462Y-10215404D01*
X108076337Y-10325650D01*
X107857708Y-10391428D01*
X107712791Y-10417733D01*
X107613801Y-10409555D01*
X107532953Y-10371890D01*
X107531339Y-10370876D01*
X107386954Y-10300515D01*
X107161103Y-10212059D01*
X106929148Y-10133269D01*
X106254572Y-9919277D01*
X105700614Y-9738220D01*
X105255094Y-9583986D01*
X104905832Y-9450463D01*
X104640649Y-9331536D01*
X104447366Y-9221093D01*
X104313802Y-9113021D01*
X104227777Y-9001207D01*
X104177113Y-8879538D01*
X104149630Y-8741901D01*
X104149101Y-8737953D01*
X104150411Y-8634943D01*
X104207229Y-8561475D01*
X104348760Y-8492999D01*
X104506805Y-8437257D01*
X104703354Y-8383011D01*
X105004704Y-8314244D01*
X105378865Y-8237600D01*
X105793846Y-8159723D01*
X106093712Y-8107662D01*
X106485531Y-8040556D01*
X106828058Y-7979009D01*
X107098707Y-7927316D01*
X107274892Y-7889768D01*
X107333721Y-7871981D01*
X107295156Y-7850779D01*
X107157707Y-7839048D01*
X107099866Y-7838225D01*
X106937662Y-7824974D01*
X106888660Y-7789147D01*
X106898004Y-7775691D01*
X106982076Y-7757750D01*
X107182098Y-7739727D01*
X107475602Y-7722225D01*
X107840120Y-7705849D01*
X108253185Y-7691205D01*
X108692329Y-7678898D01*
X109135083Y-7669532D01*
X109558979Y-7663711D01*
X109941551Y-7662041D01*
X110260330Y-7665127D01*
X110492848Y-7673573D01*
X110545361Y-7677507D01*
X110736990Y-7705687D01*
X110855474Y-7743836D01*
X110874107Y-7764411D01*
X110931192Y-7827285D01*
X111069728Y-7902377D01*
X111080990Y-7907126D01*
X111303294Y-8048673D01*
X111541274Y-8278971D01*
X111759251Y-8558233D01*
X111919651Y-8842369D01*
X111973271Y-8992135D01*
X112053441Y-9253497D01*
X112153721Y-9603621D01*
X112267669Y-10019672D01*
X112388848Y-10478815D01*
X112465365Y-10777399D01*
X112611196Y-11343234D01*
X112734767Y-11796848D01*
X112843533Y-12161212D01*
X112944953Y-12459296D01*
X113046481Y-12714072D01*
X113155576Y-12948511D01*
X113196031Y-13028276D01*
X113435764Y-13438637D01*
X113693340Y-13786315D01*
X113955136Y-14060503D01*
X114207527Y-14250393D01*
X114436890Y-14345179D01*
X114629601Y-14334054D01*
X114739493Y-14252620D01*
X114757796Y-14165128D01*
X114777314Y-13956110D01*
X114797501Y-13642445D01*
X114817812Y-13241015D01*
X114837699Y-12768701D01*
X114856617Y-12242385D01*
X114874018Y-11678948D01*
X114889358Y-11095270D01*
X114902088Y-10508232D01*
X114911664Y-9934717D01*
X114917538Y-9391605D01*
X114919164Y-8895777D01*
X114918539Y-8720650D01*
X114918136Y-8392253D01*
X114924530Y-8177995D01*
X114942233Y-8053618D01*
X114975760Y-7994859D01*
X115029623Y-7977459D01*
X115056959Y-7976645D01*
X115094220Y-7979455D01*
X115124370Y-7996733D01*
X115148174Y-8041750D01*
X115166398Y-8127780D01*
X115179807Y-8268093D01*
X115189166Y-8475962D01*
X115195239Y-8764658D01*
X115198793Y-9147454D01*
X115200591Y-9637621D01*
X115201400Y-10248432D01*
X115201585Y-10485501D01*
X115208091Y-11417072D01*
X115225724Y-12287093D01*
X115253793Y-13084007D01*
X115291610Y-13796261D01*
X115338483Y-14412302D01*
X115393722Y-14920574D01*
X115456637Y-15309525D01*
X115500576Y-15490374D01*
X115540411Y-15783212D01*
X115524499Y-16166286D01*
X115459852Y-16606458D01*
X115353483Y-17070590D01*
X115345154Y-17097451D01*
X114391672Y-17097451D01*
X114391636Y-16899825D01*
X114280041Y-16713971D01*
X114067578Y-16565054D01*
X113944941Y-16517731D01*
X113681503Y-16445416D01*
X113534480Y-16427158D01*
X113504080Y-16446901D01*
X113544010Y-16581441D01*
X113646550Y-16777626D01*
X113785820Y-16990654D01*
X113906106Y-17142888D01*
X114044942Y-17293963D01*
X114131759Y-17353548D01*
X114203862Y-17335893D01*
X114269458Y-17281681D01*
X114391672Y-17097451D01*
X115345154Y-17097451D01*
X115212407Y-17525546D01*
X115043635Y-17938187D01*
X114940430Y-18137052D01*
X114823309Y-18327519D01*
X114672220Y-18553884D01*
X114507746Y-18787790D01*
X114350473Y-19000878D01*
X114220985Y-19164792D01*
X114139866Y-19251173D01*
X114126848Y-19257844D01*
X114023248Y-19202605D01*
G36*
X107856971Y-10588851D02*
G01*
X107847722Y-10587917D01*
X107782232Y-10575084D01*
X107841527Y-10565349D01*
X108011980Y-10560407D01*
X108071110Y-10560118D01*
X108273147Y-10563168D01*
X108373094Y-10571752D01*
X108354650Y-10584170D01*
X108332191Y-10587359D01*
X108103322Y-10598978D01*
X107856971Y-10588851D01*
G37*
X107856971Y-10588851D02*
X107847722Y-10587917D01*
X107782232Y-10575084D01*
X107841527Y-10565349D01*
X108011980Y-10560407D01*
X108071110Y-10560118D01*
X108273147Y-10563168D01*
X108373094Y-10571752D01*
X108354650Y-10584170D01*
X108332191Y-10587359D01*
X108103322Y-10598978D01*
X107856971Y-10588851D01*
G36*
X109351492Y-10641223D02*
G01*
X109386097Y-10606618D01*
X109420701Y-10641223D01*
X109386097Y-10675828D01*
X109351492Y-10641223D01*
G37*
X109351492Y-10641223D02*
X109386097Y-10606618D01*
X109420701Y-10641223D01*
X109386097Y-10675828D01*
X109351492Y-10641223D01*
G36*
X111358576Y-14378552D02*
G01*
X111393181Y-14343947D01*
X111427786Y-14378552D01*
X111393181Y-14413157D01*
X111358576Y-14378552D01*
G37*
X111358576Y-14378552D02*
X111393181Y-14343947D01*
X111427786Y-14378552D01*
X111393181Y-14413157D01*
X111358576Y-14378552D01*
G36*
X111566206Y-14932231D02*
G01*
X111600810Y-14897626D01*
X111635415Y-14932231D01*
X111600810Y-14966836D01*
X111566206Y-14932231D01*
G37*
X111566206Y-14932231D02*
X111600810Y-14897626D01*
X111635415Y-14932231D01*
X111600810Y-14966836D01*
X111566206Y-14932231D01*
G36*
X111635415Y-15070650D02*
G01*
X111670020Y-15036046D01*
X111704625Y-15070650D01*
X111670020Y-15105255D01*
X111635415Y-15070650D01*
G37*
X111635415Y-15070650D02*
X111670020Y-15036046D01*
X111704625Y-15070650D01*
X111670020Y-15105255D01*
X111635415Y-15070650D01*
G36*
X111727695Y-15289815D02*
G01*
X111719412Y-15207679D01*
X111727695Y-15197535D01*
X111768840Y-15207035D01*
X111773835Y-15243675D01*
X111748512Y-15300642D01*
X111727695Y-15289815D01*
G37*
X111727695Y-15289815D02*
X111719412Y-15207679D01*
X111727695Y-15197535D01*
X111768840Y-15207035D01*
X111773835Y-15243675D01*
X111748512Y-15300642D01*
X111727695Y-15289815D01*
G36*
X111773835Y-15416699D02*
G01*
X111808440Y-15382095D01*
X111843045Y-15416699D01*
X111808440Y-15451304D01*
X111773835Y-15416699D01*
G37*
X111773835Y-15416699D02*
X111808440Y-15382095D01*
X111843045Y-15416699D01*
X111808440Y-15451304D01*
X111773835Y-15416699D01*
G36*
X111843045Y-15555119D02*
G01*
X111877650Y-15520514D01*
X111912255Y-15555119D01*
X111877650Y-15589724D01*
X111843045Y-15555119D01*
G37*
X111843045Y-15555119D02*
X111877650Y-15520514D01*
X111912255Y-15555119D01*
X111877650Y-15589724D01*
X111843045Y-15555119D01*
G36*
X111935324Y-15774283D02*
G01*
X111927041Y-15692148D01*
X111935324Y-15682004D01*
X111976470Y-15691504D01*
X111981464Y-15728144D01*
X111956142Y-15785111D01*
X111935324Y-15774283D01*
G37*
X111935324Y-15774283D02*
X111927041Y-15692148D01*
X111935324Y-15682004D01*
X111976470Y-15691504D01*
X111981464Y-15728144D01*
X111956142Y-15785111D01*
X111935324Y-15774283D01*
G36*
X111981464Y-15901168D02*
G01*
X112016069Y-15866563D01*
X112050674Y-15901168D01*
X112016069Y-15935773D01*
X111981464Y-15901168D01*
G37*
X111981464Y-15901168D02*
X112016069Y-15866563D01*
X112050674Y-15901168D01*
X112016069Y-15935773D01*
X111981464Y-15901168D01*
G36*
X112050674Y-16039588D02*
G01*
X112085279Y-16004983D01*
X112119884Y-16039588D01*
X112085279Y-16074193D01*
X112050674Y-16039588D01*
G37*
X112050674Y-16039588D02*
X112085279Y-16004983D01*
X112119884Y-16039588D01*
X112085279Y-16074193D01*
X112050674Y-16039588D01*
G36*
X112327513Y-16662476D02*
G01*
X112362118Y-16627871D01*
X112396723Y-16662476D01*
X112362118Y-16697081D01*
X112327513Y-16662476D01*
G37*
X112327513Y-16662476D02*
X112362118Y-16627871D01*
X112396723Y-16662476D01*
X112362118Y-16697081D01*
X112327513Y-16662476D01*
G36*
X112396723Y-16800896D02*
G01*
X112431328Y-16766291D01*
X112465933Y-16800896D01*
X112431328Y-16835501D01*
X112396723Y-16800896D01*
G37*
X112396723Y-16800896D02*
X112431328Y-16766291D01*
X112465933Y-16800896D01*
X112431328Y-16835501D01*
X112396723Y-16800896D01*
G36*
X112465933Y-16939315D02*
G01*
X112500538Y-16904710D01*
X112535143Y-16939315D01*
X112500538Y-16973920D01*
X112465933Y-16939315D01*
G37*
X112465933Y-16939315D02*
X112500538Y-16904710D01*
X112535143Y-16939315D01*
X112500538Y-16973920D01*
X112465933Y-16939315D01*
G36*
X112535143Y-17077735D02*
G01*
X112569748Y-17043130D01*
X112604353Y-17077735D01*
X112569748Y-17112340D01*
X112535143Y-17077735D01*
G37*
X112535143Y-17077735D02*
X112569748Y-17043130D01*
X112604353Y-17077735D01*
X112569748Y-17112340D01*
X112535143Y-17077735D01*
G36*
X112604353Y-17216155D02*
G01*
X112638958Y-17181550D01*
X112673562Y-17216155D01*
X112638958Y-17250759D01*
X112604353Y-17216155D01*
G37*
X112604353Y-17216155D02*
X112638958Y-17181550D01*
X112673562Y-17216155D01*
X112638958Y-17250759D01*
X112604353Y-17216155D01*
G36*
X113291704Y-18303885D02*
G01*
X113190557Y-18160690D01*
X113058409Y-17957786D01*
X113038148Y-17925555D01*
X112868654Y-17654130D01*
X112761006Y-17478907D01*
X112703404Y-17378883D01*
X112684048Y-17333058D01*
X112691137Y-17320432D01*
X112697879Y-17319969D01*
X112747519Y-17374201D01*
X112848666Y-17517395D01*
X112980814Y-17720300D01*
X113001075Y-17752531D01*
X113170569Y-18023955D01*
X113278217Y-18199179D01*
X113335819Y-18299203D01*
X113355175Y-18345027D01*
X113348086Y-18357654D01*
X113341344Y-18358116D01*
X113291704Y-18303885D01*
G37*
X113291704Y-18303885D02*
X113190557Y-18160690D01*
X113058409Y-17957786D01*
X113038148Y-17925555D01*
X112868654Y-17654130D01*
X112761006Y-17478907D01*
X112703404Y-17378883D01*
X112684048Y-17333058D01*
X112691137Y-17320432D01*
X112697879Y-17319969D01*
X112747519Y-17374201D01*
X112848666Y-17517395D01*
X112980814Y-17720300D01*
X113001075Y-17752531D01*
X113170569Y-18023955D01*
X113278217Y-18199179D01*
X113335819Y-18299203D01*
X113355175Y-18345027D01*
X113348086Y-18357654D01*
X113341344Y-18358116D01*
X113291704Y-18303885D01*
G36*
X113514774Y-18606960D02*
G01*
X113441057Y-18542623D01*
X113434870Y-18527056D01*
X113467716Y-18498610D01*
X113536099Y-18562351D01*
X113545294Y-18576439D01*
X113553451Y-18623799D01*
X113514774Y-18606960D01*
G37*
X113514774Y-18606960D02*
X113441057Y-18542623D01*
X113434870Y-18527056D01*
X113467716Y-18498610D01*
X113536099Y-18562351D01*
X113545294Y-18576439D01*
X113553451Y-18623799D01*
X113514774Y-18606960D01*
G36*
X114023248Y-19202605D02*
G01*
X113859932Y-19046982D01*
X113711258Y-18877190D01*
X113539188Y-18669561D01*
X113774573Y-18877190D01*
X113893777Y-18980367D01*
X113954991Y-19021725D01*
X113955049Y-18988385D01*
X113890785Y-18867470D01*
X113759035Y-18646102D01*
X113689512Y-18531141D01*
X113464824Y-18135699D01*
X113252173Y-17707794D01*
X113047175Y-17234393D01*
X112845446Y-16702466D01*
X112642603Y-16098982D01*
X112434261Y-15410911D01*
X112216036Y-14625222D01*
X111983544Y-13728884D01*
X111736607Y-12726294D01*
X111555031Y-12024028D01*
X111377295Y-11436188D01*
X111205645Y-10969071D01*
X111042326Y-10628973D01*
X110930385Y-10465382D01*
X110821773Y-10360672D01*
X110652113Y-10219062D01*
X110568051Y-10153938D01*
X110425082Y-10053682D01*
X110295685Y-9993448D01*
X110138395Y-9963771D01*
X109911748Y-9955188D01*
X109702928Y-9956496D01*
X109388669Y-9968915D01*
X109115225Y-10004318D01*
X108830453Y-10073037D01*
X108482212Y-10185408D01*
X108396462Y-10215404D01*
X108076337Y-10325650D01*
X107857708Y-10391428D01*
X107712791Y-10417733D01*
X107613801Y-10409555D01*
X107532953Y-10371890D01*
X107531339Y-10370876D01*
X107386954Y-10300515D01*
X107161103Y-10212059D01*
X106929148Y-10133269D01*
X106254572Y-9919277D01*
X105700614Y-9738220D01*
X105255094Y-9583986D01*
X104905832Y-9450463D01*
X104640649Y-9331536D01*
X104447366Y-9221093D01*
X104313802Y-9113021D01*
X104227777Y-9001207D01*
X104177113Y-8879538D01*
X104149630Y-8741901D01*
X104149101Y-8737953D01*
X104150411Y-8634943D01*
X104207229Y-8561475D01*
X104348760Y-8492999D01*
X104506805Y-8437257D01*
X104703354Y-8383011D01*
X105004704Y-8314244D01*
X105378865Y-8237600D01*
X105793846Y-8159723D01*
X106093712Y-8107662D01*
X106485531Y-8040556D01*
X106828058Y-7979009D01*
X107098707Y-7927316D01*
X107274892Y-7889768D01*
X107333721Y-7871981D01*
X107295156Y-7850779D01*
X107157707Y-7839048D01*
X107099866Y-7838225D01*
X106937662Y-7824974D01*
X106888660Y-7789147D01*
X106898004Y-7775691D01*
X106982076Y-7757750D01*
X107182098Y-7739727D01*
X107475602Y-7722225D01*
X107840120Y-7705849D01*
X108253185Y-7691205D01*
X108692329Y-7678898D01*
X109135083Y-7669532D01*
X109558979Y-7663711D01*
X109941551Y-7662041D01*
X110260330Y-7665127D01*
X110492848Y-7673573D01*
X110545361Y-7677507D01*
X110736990Y-7705687D01*
X110855474Y-7743836D01*
X110874107Y-7764411D01*
X110931192Y-7827285D01*
X111069728Y-7902377D01*
X111080990Y-7907126D01*
X111303294Y-8048673D01*
X111541274Y-8278971D01*
X111759251Y-8558233D01*
X111919651Y-8842369D01*
X111973271Y-8992135D01*
X112053441Y-9253497D01*
X112153721Y-9603621D01*
X112267669Y-10019672D01*
X112388848Y-10478815D01*
X112465365Y-10777399D01*
X112611196Y-11343234D01*
X112734767Y-11796848D01*
X112843533Y-12161212D01*
X112944953Y-12459296D01*
X113046481Y-12714072D01*
X113155576Y-12948511D01*
X113196031Y-13028276D01*
X113435764Y-13438637D01*
X113693340Y-13786315D01*
X113955136Y-14060503D01*
X114207527Y-14250393D01*
X114436890Y-14345179D01*
X114629601Y-14334054D01*
X114739493Y-14252620D01*
X114757796Y-14165128D01*
X114777314Y-13956110D01*
X114797501Y-13642445D01*
X114817812Y-13241015D01*
X114837699Y-12768701D01*
X114856617Y-12242385D01*
X114874018Y-11678948D01*
X114889358Y-11095270D01*
X114902088Y-10508232D01*
X114911664Y-9934717D01*
X114917538Y-9391605D01*
X114919164Y-8895777D01*
X114918539Y-8720650D01*
X114918136Y-8392253D01*
X114924530Y-8177995D01*
X114942233Y-8053618D01*
X114975760Y-7994859D01*
X115029623Y-7977459D01*
X115056959Y-7976645D01*
X115094220Y-7979455D01*
X115124370Y-7996733D01*
X115148174Y-8041750D01*
X115166398Y-8127780D01*
X115179807Y-8268093D01*
X115189166Y-8475962D01*
X115195239Y-8764658D01*
X115198793Y-9147454D01*
X115200591Y-9637621D01*
X115201400Y-10248432D01*
X115201585Y-10485501D01*
X115208091Y-11417072D01*
X115225724Y-12287093D01*
X115253793Y-13084007D01*
X115291610Y-13796261D01*
X115338483Y-14412302D01*
X115393722Y-14920574D01*
X115456637Y-15309525D01*
X115500576Y-15490374D01*
X115540411Y-15783212D01*
X115524499Y-16166286D01*
X115459852Y-16606458D01*
X115353483Y-17070590D01*
X115345154Y-17097451D01*
X114391672Y-17097451D01*
X114391636Y-16899825D01*
X114280041Y-16713971D01*
X114067578Y-16565054D01*
X113944941Y-16517731D01*
X113681503Y-16445416D01*
X113534480Y-16427158D01*
X113504080Y-16446901D01*
X113544010Y-16581441D01*
X113646550Y-16777626D01*
X113785820Y-16990654D01*
X113906106Y-17142888D01*
X114044942Y-17293963D01*
X114131759Y-17353548D01*
X114203862Y-17335893D01*
X114269458Y-17281681D01*
X114391672Y-17097451D01*
X115345154Y-17097451D01*
X115212407Y-17525546D01*
X115043635Y-17938187D01*
X114940430Y-18137052D01*
X114823309Y-18327519D01*
X114672220Y-18553884D01*
X114507746Y-18787790D01*
X114350473Y-19000878D01*
X114220985Y-19164792D01*
X114139866Y-19251173D01*
X114126848Y-19257844D01*
X114023248Y-19202605D01*
G37*
X114023248Y-19202605D02*
X113859932Y-19046982D01*
X113711258Y-18877190D01*
X113539188Y-18669561D01*
X113774573Y-18877190D01*
X113893777Y-18980367D01*
X113954991Y-19021725D01*
X113955049Y-18988385D01*
X113890785Y-18867470D01*
X113759035Y-18646102D01*
X113689512Y-18531141D01*
X113464824Y-18135699D01*
X113252173Y-17707794D01*
X113047175Y-17234393D01*
X112845446Y-16702466D01*
X112642603Y-16098982D01*
X112434261Y-15410911D01*
X112216036Y-14625222D01*
X111983544Y-13728884D01*
X111736607Y-12726294D01*
X111555031Y-12024028D01*
X111377295Y-11436188D01*
X111205645Y-10969071D01*
X111042326Y-10628973D01*
X110930385Y-10465382D01*
X110821773Y-10360672D01*
X110652113Y-10219062D01*
X110568051Y-10153938D01*
X110425082Y-10053682D01*
X110295685Y-9993448D01*
X110138395Y-9963771D01*
X109911748Y-9955188D01*
X109702928Y-9956496D01*
X109388669Y-9968915D01*
X109115225Y-10004318D01*
X108830453Y-10073037D01*
X108482212Y-10185408D01*
X108396462Y-10215404D01*
X108076337Y-10325650D01*
X107857708Y-10391428D01*
X107712791Y-10417733D01*
X107613801Y-10409555D01*
X107532953Y-10371890D01*
X107531339Y-10370876D01*
X107386954Y-10300515D01*
X107161103Y-10212059D01*
X106929148Y-10133269D01*
X106254572Y-9919277D01*
X105700614Y-9738220D01*
X105255094Y-9583986D01*
X104905832Y-9450463D01*
X104640649Y-9331536D01*
X104447366Y-9221093D01*
X104313802Y-9113021D01*
X104227777Y-9001207D01*
X104177113Y-8879538D01*
X104149630Y-8741901D01*
X104149101Y-8737953D01*
X104150411Y-8634943D01*
X104207229Y-8561475D01*
X104348760Y-8492999D01*
X104506805Y-8437257D01*
X104703354Y-8383011D01*
X105004704Y-8314244D01*
X105378865Y-8237600D01*
X105793846Y-8159723D01*
X106093712Y-8107662D01*
X106485531Y-8040556D01*
X106828058Y-7979009D01*
X107098707Y-7927316D01*
X107274892Y-7889768D01*
X107333721Y-7871981D01*
X107295156Y-7850779D01*
X107157707Y-7839048D01*
X107099866Y-7838225D01*
X106937662Y-7824974D01*
X106888660Y-7789147D01*
X106898004Y-7775691D01*
X106982076Y-7757750D01*
X107182098Y-7739727D01*
X107475602Y-7722225D01*
X107840120Y-7705849D01*
X108253185Y-7691205D01*
X108692329Y-7678898D01*
X109135083Y-7669532D01*
X109558979Y-7663711D01*
X109941551Y-7662041D01*
X110260330Y-7665127D01*
X110492848Y-7673573D01*
X110545361Y-7677507D01*
X110736990Y-7705687D01*
X110855474Y-7743836D01*
X110874107Y-7764411D01*
X110931192Y-7827285D01*
X111069728Y-7902377D01*
X111080990Y-7907126D01*
X111303294Y-8048673D01*
X111541274Y-8278971D01*
X111759251Y-8558233D01*
X111919651Y-8842369D01*
X111973271Y-8992135D01*
X112053441Y-9253497D01*
X112153721Y-9603621D01*
X112267669Y-10019672D01*
X112388848Y-10478815D01*
X112465365Y-10777399D01*
X112611196Y-11343234D01*
X112734767Y-11796848D01*
X112843533Y-12161212D01*
X112944953Y-12459296D01*
X113046481Y-12714072D01*
X113155576Y-12948511D01*
X113196031Y-13028276D01*
X113435764Y-13438637D01*
X113693340Y-13786315D01*
X113955136Y-14060503D01*
X114207527Y-14250393D01*
X114436890Y-14345179D01*
X114629601Y-14334054D01*
X114739493Y-14252620D01*
X114757796Y-14165128D01*
X114777314Y-13956110D01*
X114797501Y-13642445D01*
X114817812Y-13241015D01*
X114837699Y-12768701D01*
X114856617Y-12242385D01*
X114874018Y-11678948D01*
X114889358Y-11095270D01*
X114902088Y-10508232D01*
X114911664Y-9934717D01*
X114917538Y-9391605D01*
X114919164Y-8895777D01*
X114918539Y-8720650D01*
X114918136Y-8392253D01*
X114924530Y-8177995D01*
X114942233Y-8053618D01*
X114975760Y-7994859D01*
X115029623Y-7977459D01*
X115056959Y-7976645D01*
X115094220Y-7979455D01*
X115124370Y-7996733D01*
X115148174Y-8041750D01*
X115166398Y-8127780D01*
X115179807Y-8268093D01*
X115189166Y-8475962D01*
X115195239Y-8764658D01*
X115198793Y-9147454D01*
X115200591Y-9637621D01*
X115201400Y-10248432D01*
X115201585Y-10485501D01*
X115208091Y-11417072D01*
X115225724Y-12287093D01*
X115253793Y-13084007D01*
X115291610Y-13796261D01*
X115338483Y-14412302D01*
X115393722Y-14920574D01*
X115456637Y-15309525D01*
X115500576Y-15490374D01*
X115540411Y-15783212D01*
X115524499Y-16166286D01*
X115459852Y-16606458D01*
X115353483Y-17070590D01*
X115345154Y-17097451D01*
X114391672Y-17097451D01*
X114391636Y-16899825D01*
X114280041Y-16713971D01*
X114067578Y-16565054D01*
X113944941Y-16517731D01*
X113681503Y-16445416D01*
X113534480Y-16427158D01*
X113504080Y-16446901D01*
X113544010Y-16581441D01*
X113646550Y-16777626D01*
X113785820Y-16990654D01*
X113906106Y-17142888D01*
X114044942Y-17293963D01*
X114131759Y-17353548D01*
X114203862Y-17335893D01*
X114269458Y-17281681D01*
X114391672Y-17097451D01*
X115345154Y-17097451D01*
X115212407Y-17525546D01*
X115043635Y-17938187D01*
X114940430Y-18137052D01*
X114823309Y-18327519D01*
X114672220Y-18553884D01*
X114507746Y-18787790D01*
X114350473Y-19000878D01*
X114220985Y-19164792D01*
X114139866Y-19251173D01*
X114126848Y-19257844D01*
X114023248Y-19202605D01*
G36*
X107856971Y-10588851D02*
G01*
X107847722Y-10587917D01*
X107782232Y-10575084D01*
X107841527Y-10565349D01*
X108011980Y-10560407D01*
X108071110Y-10560118D01*
X108273147Y-10563168D01*
X108373094Y-10571752D01*
X108354650Y-10584170D01*
X108332191Y-10587359D01*
X108103322Y-10598978D01*
X107856971Y-10588851D01*
G37*
X107856971Y-10588851D02*
X107847722Y-10587917D01*
X107782232Y-10575084D01*
X107841527Y-10565349D01*
X108011980Y-10560407D01*
X108071110Y-10560118D01*
X108273147Y-10563168D01*
X108373094Y-10571752D01*
X108354650Y-10584170D01*
X108332191Y-10587359D01*
X108103322Y-10598978D01*
X107856971Y-10588851D01*
G36*
X109351492Y-10641223D02*
G01*
X109386097Y-10606618D01*
X109420701Y-10641223D01*
X109386097Y-10675828D01*
X109351492Y-10641223D01*
G37*
X109351492Y-10641223D02*
X109386097Y-10606618D01*
X109420701Y-10641223D01*
X109386097Y-10675828D01*
X109351492Y-10641223D01*
G36*
X111358576Y-14378552D02*
G01*
X111393181Y-14343947D01*
X111427786Y-14378552D01*
X111393181Y-14413157D01*
X111358576Y-14378552D01*
G37*
X111358576Y-14378552D02*
X111393181Y-14343947D01*
X111427786Y-14378552D01*
X111393181Y-14413157D01*
X111358576Y-14378552D01*
G36*
X111566206Y-14932231D02*
G01*
X111600810Y-14897626D01*
X111635415Y-14932231D01*
X111600810Y-14966836D01*
X111566206Y-14932231D01*
G37*
X111566206Y-14932231D02*
X111600810Y-14897626D01*
X111635415Y-14932231D01*
X111600810Y-14966836D01*
X111566206Y-14932231D01*
G36*
X111635415Y-15070650D02*
G01*
X111670020Y-15036046D01*
X111704625Y-15070650D01*
X111670020Y-15105255D01*
X111635415Y-15070650D01*
G37*
X111635415Y-15070650D02*
X111670020Y-15036046D01*
X111704625Y-15070650D01*
X111670020Y-15105255D01*
X111635415Y-15070650D01*
G36*
X111727695Y-15289815D02*
G01*
X111719412Y-15207679D01*
X111727695Y-15197535D01*
X111768840Y-15207035D01*
X111773835Y-15243675D01*
X111748512Y-15300642D01*
X111727695Y-15289815D01*
G37*
X111727695Y-15289815D02*
X111719412Y-15207679D01*
X111727695Y-15197535D01*
X111768840Y-15207035D01*
X111773835Y-15243675D01*
X111748512Y-15300642D01*
X111727695Y-15289815D01*
G36*
X111773835Y-15416699D02*
G01*
X111808440Y-15382095D01*
X111843045Y-15416699D01*
X111808440Y-15451304D01*
X111773835Y-15416699D01*
G37*
X111773835Y-15416699D02*
X111808440Y-15382095D01*
X111843045Y-15416699D01*
X111808440Y-15451304D01*
X111773835Y-15416699D01*
G36*
X111843045Y-15555119D02*
G01*
X111877650Y-15520514D01*
X111912255Y-15555119D01*
X111877650Y-15589724D01*
X111843045Y-15555119D01*
G37*
X111843045Y-15555119D02*
X111877650Y-15520514D01*
X111912255Y-15555119D01*
X111877650Y-15589724D01*
X111843045Y-15555119D01*
G36*
X111935324Y-15774283D02*
G01*
X111927041Y-15692148D01*
X111935324Y-15682004D01*
X111976470Y-15691504D01*
X111981464Y-15728144D01*
X111956142Y-15785111D01*
X111935324Y-15774283D01*
G37*
X111935324Y-15774283D02*
X111927041Y-15692148D01*
X111935324Y-15682004D01*
X111976470Y-15691504D01*
X111981464Y-15728144D01*
X111956142Y-15785111D01*
X111935324Y-15774283D01*
G36*
X111981464Y-15901168D02*
G01*
X112016069Y-15866563D01*
X112050674Y-15901168D01*
X112016069Y-15935773D01*
X111981464Y-15901168D01*
G37*
X111981464Y-15901168D02*
X112016069Y-15866563D01*
X112050674Y-15901168D01*
X112016069Y-15935773D01*
X111981464Y-15901168D01*
G36*
X112050674Y-16039588D02*
G01*
X112085279Y-16004983D01*
X112119884Y-16039588D01*
X112085279Y-16074193D01*
X112050674Y-16039588D01*
G37*
X112050674Y-16039588D02*
X112085279Y-16004983D01*
X112119884Y-16039588D01*
X112085279Y-16074193D01*
X112050674Y-16039588D01*
G36*
X112327513Y-16662476D02*
G01*
X112362118Y-16627871D01*
X112396723Y-16662476D01*
X112362118Y-16697081D01*
X112327513Y-16662476D01*
G37*
X112327513Y-16662476D02*
X112362118Y-16627871D01*
X112396723Y-16662476D01*
X112362118Y-16697081D01*
X112327513Y-16662476D01*
G36*
X112396723Y-16800896D02*
G01*
X112431328Y-16766291D01*
X112465933Y-16800896D01*
X112431328Y-16835501D01*
X112396723Y-16800896D01*
G37*
X112396723Y-16800896D02*
X112431328Y-16766291D01*
X112465933Y-16800896D01*
X112431328Y-16835501D01*
X112396723Y-16800896D01*
G36*
X112465933Y-16939315D02*
G01*
X112500538Y-16904710D01*
X112535143Y-16939315D01*
X112500538Y-16973920D01*
X112465933Y-16939315D01*
G37*
X112465933Y-16939315D02*
X112500538Y-16904710D01*
X112535143Y-16939315D01*
X112500538Y-16973920D01*
X112465933Y-16939315D01*
G36*
X112535143Y-17077735D02*
G01*
X112569748Y-17043130D01*
X112604353Y-17077735D01*
X112569748Y-17112340D01*
X112535143Y-17077735D01*
G37*
X112535143Y-17077735D02*
X112569748Y-17043130D01*
X112604353Y-17077735D01*
X112569748Y-17112340D01*
X112535143Y-17077735D01*
G36*
X112604353Y-17216155D02*
G01*
X112638958Y-17181550D01*
X112673562Y-17216155D01*
X112638958Y-17250759D01*
X112604353Y-17216155D01*
G37*
X112604353Y-17216155D02*
X112638958Y-17181550D01*
X112673562Y-17216155D01*
X112638958Y-17250759D01*
X112604353Y-17216155D01*
G36*
X113291704Y-18303885D02*
G01*
X113190557Y-18160690D01*
X113058409Y-17957786D01*
X113038148Y-17925555D01*
X112868654Y-17654130D01*
X112761006Y-17478907D01*
X112703404Y-17378883D01*
X112684048Y-17333058D01*
X112691137Y-17320432D01*
X112697879Y-17319969D01*
X112747519Y-17374201D01*
X112848666Y-17517395D01*
X112980814Y-17720300D01*
X113001075Y-17752531D01*
X113170569Y-18023955D01*
X113278217Y-18199179D01*
X113335819Y-18299203D01*
X113355175Y-18345027D01*
X113348086Y-18357654D01*
X113341344Y-18358116D01*
X113291704Y-18303885D01*
G37*
X113291704Y-18303885D02*
X113190557Y-18160690D01*
X113058409Y-17957786D01*
X113038148Y-17925555D01*
X112868654Y-17654130D01*
X112761006Y-17478907D01*
X112703404Y-17378883D01*
X112684048Y-17333058D01*
X112691137Y-17320432D01*
X112697879Y-17319969D01*
X112747519Y-17374201D01*
X112848666Y-17517395D01*
X112980814Y-17720300D01*
X113001075Y-17752531D01*
X113170569Y-18023955D01*
X113278217Y-18199179D01*
X113335819Y-18299203D01*
X113355175Y-18345027D01*
X113348086Y-18357654D01*
X113341344Y-18358116D01*
X113291704Y-18303885D01*
G36*
X113514774Y-18606960D02*
G01*
X113441057Y-18542623D01*
X113434870Y-18527056D01*
X113467716Y-18498610D01*
X113536099Y-18562351D01*
X113545294Y-18576439D01*
X113553451Y-18623799D01*
X113514774Y-18606960D01*
G37*
X113514774Y-18606960D02*
X113441057Y-18542623D01*
X113434870Y-18527056D01*
X113467716Y-18498610D01*
X113536099Y-18562351D01*
X113545294Y-18576439D01*
X113553451Y-18623799D01*
X113514774Y-18606960D01*
D11*
X115158640Y-159492200D03*
X97158640Y-159492200D03*
X115158640Y33507800D03*
X97158640Y33507800D03*
D12*
X106377860Y-86128080D03*
D13*
X106463560Y-56257880D03*
X106463560Y-71257880D03*
X106463560Y-41257880D03*
X106463560Y-26257880D03*
D14*
X105905600Y15532200D03*
X105910680Y-1704240D03*
X105846640Y-141124200D03*
X105846640Y-123124200D03*
X105846640Y-105124200D03*
M02*
