G04 #@! TF.GenerationSoftware,KiCad,Pcbnew,(5.1.7)-1*
G04 #@! TF.CreationDate,2020-12-30T12:14:20+00:00*
G04 #@! TF.ProjectId,Panel,50616e65-6c2e-46b6-9963-61645f706362,rev?*
G04 #@! TF.SameCoordinates,Original*
G04 #@! TF.FileFunction,Legend,Top*
G04 #@! TF.FilePolarity,Positive*
%FSLAX46Y46*%
G04 Gerber Fmt 4.6, Leading zero omitted, Abs format (unit mm)*
G04 Created by KiCad (PCBNEW (5.1.7)-1) date 2020-12-30 12:14:20*
%MOMM*%
%LPD*%
G01*
G04 APERTURE LIST*
%ADD10C,0.250000*%
%ADD11C,1.500000*%
%ADD12C,0.500000*%
%ADD13C,0.300000*%
%ADD14C,0.150000*%
G04 APERTURE END LIST*
D10*
X97152857Y-21531666D02*
X97867142Y-21531666D01*
X97010000Y-21817380D02*
X97510000Y-20817380D01*
X98010000Y-21817380D01*
X97081428Y-22567380D02*
X97938571Y-22567380D01*
X97510000Y-23567380D02*
X97510000Y-22567380D01*
X97081428Y-24317380D02*
X97938571Y-24317380D01*
X97510000Y-25317380D02*
X97510000Y-24317380D01*
X97152857Y-26781666D02*
X97867142Y-26781666D01*
X97010000Y-27067380D02*
X97510000Y-26067380D01*
X98010000Y-27067380D01*
X97974285Y-28722142D02*
X97902857Y-28769761D01*
X97688571Y-28817380D01*
X97545714Y-28817380D01*
X97331428Y-28769761D01*
X97188571Y-28674523D01*
X97117142Y-28579285D01*
X97045714Y-28388809D01*
X97045714Y-28245952D01*
X97117142Y-28055476D01*
X97188571Y-27960238D01*
X97331428Y-27865000D01*
X97545714Y-27817380D01*
X97688571Y-27817380D01*
X97902857Y-27865000D01*
X97974285Y-27912619D01*
X97117142Y-30567380D02*
X97117142Y-29567380D01*
X97974285Y-30567380D02*
X97331428Y-29995952D01*
X97974285Y-29567380D02*
X97117142Y-30138809D01*
X103816666Y-11497142D02*
X103769047Y-11544761D01*
X103626190Y-11592380D01*
X103530952Y-11592380D01*
X103388095Y-11544761D01*
X103292857Y-11449523D01*
X103245238Y-11354285D01*
X103197619Y-11163809D01*
X103197619Y-11020952D01*
X103245238Y-10830476D01*
X103292857Y-10735238D01*
X103388095Y-10640000D01*
X103530952Y-10592380D01*
X103626190Y-10592380D01*
X103769047Y-10640000D01*
X103816666Y-10687619D01*
X104721428Y-11592380D02*
X104245238Y-11592380D01*
X104245238Y-10592380D01*
X105007142Y-11306666D02*
X105483333Y-11306666D01*
X104911904Y-11592380D02*
X105245238Y-10592380D01*
X105578571Y-11592380D01*
X106102380Y-11116190D02*
X106102380Y-11592380D01*
X105769047Y-10592380D02*
X106102380Y-11116190D01*
X106435714Y-10592380D01*
X106626190Y-10592380D02*
X107197619Y-10592380D01*
X106911904Y-11592380D02*
X106911904Y-10592380D01*
X107530952Y-10592380D02*
X107530952Y-11401904D01*
X107578571Y-11497142D01*
X107626190Y-11544761D01*
X107721428Y-11592380D01*
X107911904Y-11592380D01*
X108007142Y-11544761D01*
X108054761Y-11497142D01*
X108102380Y-11401904D01*
X108102380Y-10592380D01*
X108578571Y-11592380D02*
X108578571Y-10592380D01*
X109150000Y-11592380D01*
X109150000Y-10592380D01*
X109626190Y-11068571D02*
X109959523Y-11068571D01*
X110102380Y-11592380D02*
X109626190Y-11592380D01*
X109626190Y-10592380D01*
X110102380Y-10592380D01*
X100007142Y-13294761D02*
X100150000Y-13342380D01*
X100388095Y-13342380D01*
X100483333Y-13294761D01*
X100530952Y-13247142D01*
X100578571Y-13151904D01*
X100578571Y-13056666D01*
X100530952Y-12961428D01*
X100483333Y-12913809D01*
X100388095Y-12866190D01*
X100197619Y-12818571D01*
X100102380Y-12770952D01*
X100054761Y-12723333D01*
X100007142Y-12628095D01*
X100007142Y-12532857D01*
X100054761Y-12437619D01*
X100102380Y-12390000D01*
X100197619Y-12342380D01*
X100435714Y-12342380D01*
X100578571Y-12390000D01*
X101007142Y-13342380D02*
X101007142Y-12675714D01*
X101007142Y-12342380D02*
X100959523Y-12390000D01*
X101007142Y-12437619D01*
X101054761Y-12390000D01*
X101007142Y-12342380D01*
X101007142Y-12437619D01*
X101483333Y-12675714D02*
X101483333Y-13675714D01*
X101483333Y-12723333D02*
X101578571Y-12675714D01*
X101769047Y-12675714D01*
X101864285Y-12723333D01*
X101911904Y-12770952D01*
X101959523Y-12866190D01*
X101959523Y-13151904D01*
X101911904Y-13247142D01*
X101864285Y-13294761D01*
X101769047Y-13342380D01*
X101578571Y-13342380D01*
X101483333Y-13294761D01*
X102388095Y-13342380D02*
X102388095Y-12675714D01*
X102388095Y-12770952D02*
X102435714Y-12723333D01*
X102530952Y-12675714D01*
X102673809Y-12675714D01*
X102769047Y-12723333D01*
X102816666Y-12818571D01*
X102816666Y-13342380D01*
X102816666Y-12818571D02*
X102864285Y-12723333D01*
X102959523Y-12675714D01*
X103102380Y-12675714D01*
X103197619Y-12723333D01*
X103245238Y-12818571D01*
X103245238Y-13342380D01*
X104102380Y-13294761D02*
X104007142Y-13342380D01*
X103816666Y-13342380D01*
X103721428Y-13294761D01*
X103673809Y-13199523D01*
X103673809Y-12818571D01*
X103721428Y-12723333D01*
X103816666Y-12675714D01*
X104007142Y-12675714D01*
X104102380Y-12723333D01*
X104150000Y-12818571D01*
X104150000Y-12913809D01*
X103673809Y-13009047D01*
X105245238Y-12342380D02*
X105864285Y-12342380D01*
X105530952Y-12723333D01*
X105673809Y-12723333D01*
X105769047Y-12770952D01*
X105816666Y-12818571D01*
X105864285Y-12913809D01*
X105864285Y-13151904D01*
X105816666Y-13247142D01*
X105769047Y-13294761D01*
X105673809Y-13342380D01*
X105388095Y-13342380D01*
X105292857Y-13294761D01*
X105245238Y-13247142D01*
X106197619Y-12342380D02*
X106816666Y-12342380D01*
X106483333Y-12723333D01*
X106626190Y-12723333D01*
X106721428Y-12770952D01*
X106769047Y-12818571D01*
X106816666Y-12913809D01*
X106816666Y-13151904D01*
X106769047Y-13247142D01*
X106721428Y-13294761D01*
X106626190Y-13342380D01*
X106340476Y-13342380D01*
X106245238Y-13294761D01*
X106197619Y-13247142D01*
X107769047Y-13342380D02*
X107197619Y-13342380D01*
X107483333Y-13342380D02*
X107483333Y-12342380D01*
X107388095Y-12485238D01*
X107292857Y-12580476D01*
X107197619Y-12628095D01*
X108388095Y-12342380D02*
X108483333Y-12342380D01*
X108578571Y-12390000D01*
X108626190Y-12437619D01*
X108673809Y-12532857D01*
X108721428Y-12723333D01*
X108721428Y-12961428D01*
X108673809Y-13151904D01*
X108626190Y-13247142D01*
X108578571Y-13294761D01*
X108483333Y-13342380D01*
X108388095Y-13342380D01*
X108292857Y-13294761D01*
X108245238Y-13247142D01*
X108197619Y-13151904D01*
X108150000Y-12961428D01*
X108150000Y-12723333D01*
X108197619Y-12532857D01*
X108245238Y-12437619D01*
X108292857Y-12390000D01*
X108388095Y-12342380D01*
X109864285Y-13056666D02*
X110340476Y-13056666D01*
X109769047Y-13342380D02*
X110102380Y-12342380D01*
X110435714Y-13342380D01*
X110769047Y-13342380D02*
X110769047Y-12342380D01*
X111007142Y-12342380D01*
X111150000Y-12390000D01*
X111245238Y-12485238D01*
X111292857Y-12580476D01*
X111340476Y-12770952D01*
X111340476Y-12913809D01*
X111292857Y-13104285D01*
X111245238Y-13199523D01*
X111150000Y-13294761D01*
X111007142Y-13342380D01*
X110769047Y-13342380D01*
X111721428Y-13294761D02*
X111864285Y-13342380D01*
X112102380Y-13342380D01*
X112197619Y-13294761D01*
X112245238Y-13247142D01*
X112292857Y-13151904D01*
X112292857Y-13056666D01*
X112245238Y-12961428D01*
X112197619Y-12913809D01*
X112102380Y-12866190D01*
X111911904Y-12818571D01*
X111816666Y-12770952D01*
X111769047Y-12723333D01*
X111721428Y-12628095D01*
X111721428Y-12532857D01*
X111769047Y-12437619D01*
X111816666Y-12390000D01*
X111911904Y-12342380D01*
X112150000Y-12342380D01*
X112292857Y-12390000D01*
X113292857Y-13342380D02*
X112959523Y-12866190D01*
X112721428Y-13342380D02*
X112721428Y-12342380D01*
X113102380Y-12342380D01*
X113197619Y-12390000D01*
X113245238Y-12437619D01*
X113292857Y-12532857D01*
X113292857Y-12675714D01*
X113245238Y-12770952D01*
X113197619Y-12818571D01*
X113102380Y-12866190D01*
X112721428Y-12866190D01*
X102316666Y-14568571D02*
X102459523Y-14616190D01*
X102507142Y-14663809D01*
X102554761Y-14759047D01*
X102554761Y-14901904D01*
X102507142Y-14997142D01*
X102459523Y-15044761D01*
X102364285Y-15092380D01*
X101983333Y-15092380D01*
X101983333Y-14092380D01*
X102316666Y-14092380D01*
X102411904Y-14140000D01*
X102459523Y-14187619D01*
X102507142Y-14282857D01*
X102507142Y-14378095D01*
X102459523Y-14473333D01*
X102411904Y-14520952D01*
X102316666Y-14568571D01*
X101983333Y-14568571D01*
X102888095Y-14425714D02*
X103126190Y-15092380D01*
X103364285Y-14425714D02*
X103126190Y-15092380D01*
X103030952Y-15330476D01*
X102983333Y-15378095D01*
X102888095Y-15425714D01*
X104364285Y-14092380D02*
X104935714Y-14092380D01*
X104650000Y-15092380D02*
X104650000Y-14092380D01*
X105173809Y-14425714D02*
X105364285Y-15092380D01*
X105554761Y-14616190D01*
X105745238Y-15092380D01*
X105935714Y-14425714D01*
X106316666Y-15092380D02*
X106316666Y-14425714D01*
X106316666Y-14092380D02*
X106269047Y-14140000D01*
X106316666Y-14187619D01*
X106364285Y-14140000D01*
X106316666Y-14092380D01*
X106316666Y-14187619D01*
X106792857Y-14425714D02*
X106792857Y-15092380D01*
X106792857Y-14520952D02*
X106840476Y-14473333D01*
X106935714Y-14425714D01*
X107078571Y-14425714D01*
X107173809Y-14473333D01*
X107221428Y-14568571D01*
X107221428Y-15092380D01*
X107554761Y-14092380D02*
X108126190Y-14092380D01*
X107840476Y-15092380D02*
X107840476Y-14092380D01*
X108888095Y-14425714D02*
X108888095Y-15092380D01*
X108459523Y-14425714D02*
X108459523Y-14949523D01*
X108507142Y-15044761D01*
X108602380Y-15092380D01*
X108745238Y-15092380D01*
X108840476Y-15044761D01*
X108888095Y-14997142D01*
X109364285Y-15092380D02*
X109364285Y-14425714D01*
X109364285Y-14616190D02*
X109411904Y-14520952D01*
X109459523Y-14473333D01*
X109554761Y-14425714D01*
X109650000Y-14425714D01*
X109983333Y-15092380D02*
X109983333Y-14092380D01*
X109983333Y-14473333D02*
X110078571Y-14425714D01*
X110269047Y-14425714D01*
X110364285Y-14473333D01*
X110411904Y-14520952D01*
X110459523Y-14616190D01*
X110459523Y-14901904D01*
X110411904Y-14997142D01*
X110364285Y-15044761D01*
X110269047Y-15092380D01*
X110078571Y-15092380D01*
X109983333Y-15044761D01*
X111030952Y-15092380D02*
X110935714Y-15044761D01*
X110888095Y-14997142D01*
X110840476Y-14901904D01*
X110840476Y-14616190D01*
X110888095Y-14520952D01*
X110935714Y-14473333D01*
X111030952Y-14425714D01*
X111173809Y-14425714D01*
X111269047Y-14473333D01*
X111316666Y-14520952D01*
X111364285Y-14616190D01*
X111364285Y-14901904D01*
X111316666Y-14997142D01*
X111269047Y-15044761D01*
X111173809Y-15092380D01*
X111030952Y-15092380D01*
D11*
X93510000Y-16220000D02*
X118656000Y-16220000D01*
X93534000Y-9500000D02*
X118680000Y-9500000D01*
D12*
X93670000Y-77380000D02*
X118816000Y-77380000D01*
X93404000Y-32070000D02*
X118550000Y-32070000D01*
X93584000Y-47190000D02*
X118730000Y-47190000D01*
X93650000Y-62000000D02*
X118796000Y-62000000D01*
D10*
X97153809Y2055000D02*
X96963333Y2102619D01*
X96677619Y2102619D01*
X96391904Y2055000D01*
X96201428Y1959761D01*
X96106190Y1864523D01*
X96010952Y1674047D01*
X96010952Y1531190D01*
X96106190Y1340714D01*
X96201428Y1245476D01*
X96391904Y1150238D01*
X96677619Y1102619D01*
X96868095Y1102619D01*
X97153809Y1150238D01*
X97249047Y1197857D01*
X97249047Y1531190D01*
X96868095Y1531190D01*
X96153809Y-361666D02*
X97106190Y-361666D01*
X95963333Y-647380D02*
X96630000Y352619D01*
X97296666Y-647380D01*
X96058571Y-1397380D02*
X97201428Y-1397380D01*
X96630000Y-2397380D02*
X96630000Y-1397380D01*
X96201428Y-3623571D02*
X96868095Y-3623571D01*
X97153809Y-4147380D02*
X96201428Y-4147380D01*
X96201428Y-3147380D01*
X97153809Y-3147380D01*
X96258571Y21577619D02*
X97401428Y21577619D01*
X96830000Y20577619D02*
X96830000Y21577619D01*
X97449047Y18827619D02*
X96782380Y19303809D01*
X96306190Y18827619D02*
X96306190Y19827619D01*
X97068095Y19827619D01*
X97258571Y19780000D01*
X97353809Y19732380D01*
X97449047Y19637142D01*
X97449047Y19494285D01*
X97353809Y19399047D01*
X97258571Y19351428D01*
X97068095Y19303809D01*
X96306190Y19303809D01*
X96830000Y17077619D02*
X96830000Y18077619D01*
X97353809Y16280000D02*
X97163333Y16327619D01*
X96877619Y16327619D01*
X96591904Y16280000D01*
X96401428Y16184761D01*
X96306190Y16089523D01*
X96210952Y15899047D01*
X96210952Y15756190D01*
X96306190Y15565714D01*
X96401428Y15470476D01*
X96591904Y15375238D01*
X96877619Y15327619D01*
X97068095Y15327619D01*
X97353809Y15375238D01*
X97449047Y15422857D01*
X97449047Y15756190D01*
X97068095Y15756190D01*
X97353809Y14530000D02*
X97163333Y14577619D01*
X96877619Y14577619D01*
X96591904Y14530000D01*
X96401428Y14434761D01*
X96306190Y14339523D01*
X96210952Y14149047D01*
X96210952Y14006190D01*
X96306190Y13815714D01*
X96401428Y13720476D01*
X96591904Y13625238D01*
X96877619Y13577619D01*
X97068095Y13577619D01*
X97353809Y13625238D01*
X97449047Y13672857D01*
X97449047Y14006190D01*
X97068095Y14006190D01*
X96401428Y12351428D02*
X97068095Y12351428D01*
X97353809Y11827619D02*
X96401428Y11827619D01*
X96401428Y12827619D01*
X97353809Y12827619D01*
X97449047Y10077619D02*
X96782380Y10553809D01*
X96306190Y10077619D02*
X96306190Y11077619D01*
X97068095Y11077619D01*
X97258571Y11030000D01*
X97353809Y10982380D01*
X97449047Y10887142D01*
X97449047Y10744285D01*
X97353809Y10649047D01*
X97258571Y10601428D01*
X97068095Y10553809D01*
X96306190Y10553809D01*
X97944285Y-64782380D02*
X97444285Y-64306190D01*
X97087142Y-64782380D02*
X97087142Y-63782380D01*
X97658571Y-63782380D01*
X97801428Y-63830000D01*
X97872857Y-63877619D01*
X97944285Y-63972857D01*
X97944285Y-64115714D01*
X97872857Y-64210952D01*
X97801428Y-64258571D01*
X97658571Y-64306190D01*
X97087142Y-64306190D01*
X97158571Y-66008571D02*
X97658571Y-66008571D01*
X97872857Y-66532380D02*
X97158571Y-66532380D01*
X97158571Y-65532380D01*
X97872857Y-65532380D01*
X97944285Y-68282380D02*
X97230000Y-68282380D01*
X97230000Y-67282380D01*
X97158571Y-69508571D02*
X97658571Y-69508571D01*
X97872857Y-70032380D02*
X97158571Y-70032380D01*
X97158571Y-69032380D01*
X97872857Y-69032380D01*
X97122857Y-71496666D02*
X97837142Y-71496666D01*
X96980000Y-71782380D02*
X97480000Y-70782380D01*
X97980000Y-71782380D01*
X97051428Y-73484761D02*
X97265714Y-73532380D01*
X97622857Y-73532380D01*
X97765714Y-73484761D01*
X97837142Y-73437142D01*
X97908571Y-73341904D01*
X97908571Y-73246666D01*
X97837142Y-73151428D01*
X97765714Y-73103809D01*
X97622857Y-73056190D01*
X97337142Y-73008571D01*
X97194285Y-72960952D01*
X97122857Y-72913333D01*
X97051428Y-72818095D01*
X97051428Y-72722857D01*
X97122857Y-72627619D01*
X97194285Y-72580000D01*
X97337142Y-72532380D01*
X97694285Y-72532380D01*
X97908571Y-72580000D01*
X97158571Y-74758571D02*
X97658571Y-74758571D01*
X97872857Y-75282380D02*
X97158571Y-75282380D01*
X97158571Y-74282380D01*
X97872857Y-74282380D01*
X96971428Y-49744761D02*
X97185714Y-49792380D01*
X97542857Y-49792380D01*
X97685714Y-49744761D01*
X97757142Y-49697142D01*
X97828571Y-49601904D01*
X97828571Y-49506666D01*
X97757142Y-49411428D01*
X97685714Y-49363809D01*
X97542857Y-49316190D01*
X97257142Y-49268571D01*
X97114285Y-49220952D01*
X97042857Y-49173333D01*
X96971428Y-49078095D01*
X96971428Y-48982857D01*
X97042857Y-48887619D01*
X97114285Y-48840000D01*
X97257142Y-48792380D01*
X97614285Y-48792380D01*
X97828571Y-48840000D01*
X96971428Y-50542380D02*
X96971428Y-51351904D01*
X97042857Y-51447142D01*
X97114285Y-51494761D01*
X97257142Y-51542380D01*
X97542857Y-51542380D01*
X97685714Y-51494761D01*
X97757142Y-51447142D01*
X97828571Y-51351904D01*
X97828571Y-50542380D01*
X96971428Y-53244761D02*
X97185714Y-53292380D01*
X97542857Y-53292380D01*
X97685714Y-53244761D01*
X97757142Y-53197142D01*
X97828571Y-53101904D01*
X97828571Y-53006666D01*
X97757142Y-52911428D01*
X97685714Y-52863809D01*
X97542857Y-52816190D01*
X97257142Y-52768571D01*
X97114285Y-52720952D01*
X97042857Y-52673333D01*
X96971428Y-52578095D01*
X96971428Y-52482857D01*
X97042857Y-52387619D01*
X97114285Y-52340000D01*
X97257142Y-52292380D01*
X97614285Y-52292380D01*
X97828571Y-52340000D01*
X96971428Y-54042380D02*
X97828571Y-54042380D01*
X97400000Y-55042380D02*
X97400000Y-54042380D01*
X97042857Y-56506666D02*
X97757142Y-56506666D01*
X96900000Y-56792380D02*
X97400000Y-55792380D01*
X97900000Y-56792380D01*
X97400000Y-58542380D02*
X97400000Y-57542380D01*
X96971428Y-60292380D02*
X96971428Y-59292380D01*
X97828571Y-60292380D01*
X97828571Y-59292380D01*
X97007142Y-37002380D02*
X97007142Y-36002380D01*
X97364285Y-36002380D01*
X97578571Y-36050000D01*
X97721428Y-36145238D01*
X97792857Y-36240476D01*
X97864285Y-36430952D01*
X97864285Y-36573809D01*
X97792857Y-36764285D01*
X97721428Y-36859523D01*
X97578571Y-36954761D01*
X97364285Y-37002380D01*
X97007142Y-37002380D01*
X97078571Y-38228571D02*
X97578571Y-38228571D01*
X97792857Y-38752380D02*
X97078571Y-38752380D01*
X97078571Y-37752380D01*
X97792857Y-37752380D01*
X97864285Y-40407142D02*
X97792857Y-40454761D01*
X97578571Y-40502380D01*
X97435714Y-40502380D01*
X97221428Y-40454761D01*
X97078571Y-40359523D01*
X97007142Y-40264285D01*
X96935714Y-40073809D01*
X96935714Y-39930952D01*
X97007142Y-39740476D01*
X97078571Y-39645238D01*
X97221428Y-39550000D01*
X97435714Y-39502380D01*
X97578571Y-39502380D01*
X97792857Y-39550000D01*
X97864285Y-39597619D01*
X97042857Y-41966666D02*
X97757142Y-41966666D01*
X96900000Y-42252380D02*
X97400000Y-41252380D01*
X97900000Y-42252380D01*
X97400000Y-43526190D02*
X97400000Y-44002380D01*
X96900000Y-43002380D02*
X97400000Y-43526190D01*
X97900000Y-43002380D01*
X99250000Y-18278571D02*
X99916666Y-18278571D01*
X100202380Y-18802380D02*
X99250000Y-18802380D01*
X99250000Y-17802380D01*
X100202380Y-17802380D01*
X101059523Y-18802380D02*
X101059523Y-17802380D01*
X102202380Y-18802380D01*
X102202380Y-17802380D01*
X102869047Y-17802380D02*
X103535714Y-18802380D01*
X104202380Y-17802380D01*
X104869047Y-18278571D02*
X105535714Y-18278571D01*
X105821428Y-18802380D02*
X104869047Y-18802380D01*
X104869047Y-17802380D01*
X105821428Y-17802380D01*
X107630952Y-18802380D02*
X106678571Y-18802380D01*
X106678571Y-17802380D01*
X108678571Y-17802380D02*
X109059523Y-17802380D01*
X109250000Y-17850000D01*
X109440476Y-17945238D01*
X109535714Y-18135714D01*
X109535714Y-18469047D01*
X109440476Y-18659523D01*
X109250000Y-18754761D01*
X109059523Y-18802380D01*
X108678571Y-18802380D01*
X108488095Y-18754761D01*
X108297619Y-18659523D01*
X108202380Y-18469047D01*
X108202380Y-18135714D01*
X108297619Y-17945238D01*
X108488095Y-17850000D01*
X108678571Y-17802380D01*
X110392857Y-18802380D02*
X110392857Y-17802380D01*
X111154761Y-17802380D01*
X111345238Y-17850000D01*
X111440476Y-17897619D01*
X111535714Y-17992857D01*
X111535714Y-18135714D01*
X111440476Y-18230952D01*
X111345238Y-18278571D01*
X111154761Y-18326190D01*
X110392857Y-18326190D01*
X112392857Y-18278571D02*
X113059523Y-18278571D01*
X113345238Y-18802380D02*
X112392857Y-18802380D01*
X112392857Y-17802380D01*
X113345238Y-17802380D01*
D13*
X101292685Y-82189721D02*
X101292685Y-80189721D01*
X101959352Y-81618293D01*
X102626019Y-80189721D01*
X102626019Y-82189721D01*
X103483161Y-81618293D02*
X104435542Y-81618293D01*
X103292685Y-82189721D02*
X103959352Y-80189721D01*
X104626019Y-82189721D01*
X105292685Y-82189721D02*
X105292685Y-80189721D01*
X106435542Y-82189721D01*
X106435542Y-80189721D01*
X107387923Y-80189721D02*
X107387923Y-81808769D01*
X107483161Y-81999245D01*
X107578400Y-82094483D01*
X107768876Y-82189721D01*
X108149828Y-82189721D01*
X108340304Y-82094483D01*
X108435542Y-81999245D01*
X108530780Y-81808769D01*
X108530780Y-80189721D01*
X109387923Y-81618293D02*
X110340304Y-81618293D01*
X109197447Y-82189721D02*
X109864114Y-80189721D01*
X110530780Y-82189721D01*
X112149828Y-82189721D02*
X111197447Y-82189721D01*
X111197447Y-80189721D01*
D10*
X95946190Y-101277380D02*
X95946190Y-100277380D01*
X96422380Y-100277380D01*
X96708095Y-100325000D01*
X96898571Y-100420238D01*
X96993809Y-100515476D01*
X97089047Y-100705952D01*
X97089047Y-100848809D01*
X96993809Y-101039285D01*
X96898571Y-101134523D01*
X96708095Y-101229761D01*
X96422380Y-101277380D01*
X95946190Y-101277380D01*
X96279523Y-102027380D02*
X96660476Y-102027380D01*
X96850952Y-102075000D01*
X97041428Y-102170238D01*
X97136666Y-102360714D01*
X97136666Y-102694047D01*
X97041428Y-102884523D01*
X96850952Y-102979761D01*
X96660476Y-103027380D01*
X96279523Y-103027380D01*
X96089047Y-102979761D01*
X95898571Y-102884523D01*
X95803333Y-102694047D01*
X95803333Y-102360714D01*
X95898571Y-102170238D01*
X96089047Y-102075000D01*
X96279523Y-102027380D01*
X95898571Y-103777380D02*
X95898571Y-104586904D01*
X95993809Y-104682142D01*
X96089047Y-104729761D01*
X96279523Y-104777380D01*
X96660476Y-104777380D01*
X96850952Y-104729761D01*
X96946190Y-104682142D01*
X97041428Y-104586904D01*
X97041428Y-103777380D01*
X96612857Y-106003571D02*
X96898571Y-106051190D01*
X96993809Y-106098809D01*
X97089047Y-106194047D01*
X97089047Y-106336904D01*
X96993809Y-106432142D01*
X96898571Y-106479761D01*
X96708095Y-106527380D01*
X95946190Y-106527380D01*
X95946190Y-105527380D01*
X96612857Y-105527380D01*
X96803333Y-105575000D01*
X96898571Y-105622619D01*
X96993809Y-105717857D01*
X96993809Y-105813095D01*
X96898571Y-105908333D01*
X96803333Y-105955952D01*
X96612857Y-106003571D01*
X95946190Y-106003571D01*
X97089047Y-108277380D02*
X96136666Y-108277380D01*
X96136666Y-107277380D01*
X96041428Y-109503571D02*
X96708095Y-109503571D01*
X96993809Y-110027380D02*
X96041428Y-110027380D01*
X96041428Y-109027380D01*
X96993809Y-109027380D01*
X96470000Y-116977380D02*
X96470000Y-115977380D01*
X95898571Y-118727380D02*
X95898571Y-117727380D01*
X97041428Y-118727380D01*
X97041428Y-117727380D01*
X95803333Y-119477380D02*
X96470000Y-120477380D01*
X97136666Y-119477380D01*
X95946190Y-123977380D02*
X95946190Y-122977380D01*
X96422380Y-122977380D01*
X96708095Y-123025000D01*
X96898571Y-123120238D01*
X96993809Y-123215476D01*
X97089047Y-123405952D01*
X97089047Y-123548809D01*
X96993809Y-123739285D01*
X96898571Y-123834523D01*
X96708095Y-123929761D01*
X96422380Y-123977380D01*
X95946190Y-123977380D01*
X96279523Y-124727380D02*
X96660476Y-124727380D01*
X96850952Y-124775000D01*
X97041428Y-124870238D01*
X97136666Y-125060714D01*
X97136666Y-125394047D01*
X97041428Y-125584523D01*
X96850952Y-125679761D01*
X96660476Y-125727380D01*
X96279523Y-125727380D01*
X96089047Y-125679761D01*
X95898571Y-125584523D01*
X95803333Y-125394047D01*
X95803333Y-125060714D01*
X95898571Y-124870238D01*
X96089047Y-124775000D01*
X96279523Y-124727380D01*
X95898571Y-126477380D02*
X95898571Y-127286904D01*
X95993809Y-127382142D01*
X96089047Y-127429761D01*
X96279523Y-127477380D01*
X96660476Y-127477380D01*
X96850952Y-127429761D01*
X96946190Y-127382142D01*
X97041428Y-127286904D01*
X97041428Y-126477380D01*
X96612857Y-128703571D02*
X96898571Y-128751190D01*
X96993809Y-128798809D01*
X97089047Y-128894047D01*
X97089047Y-129036904D01*
X96993809Y-129132142D01*
X96898571Y-129179761D01*
X96708095Y-129227380D01*
X95946190Y-129227380D01*
X95946190Y-128227380D01*
X96612857Y-128227380D01*
X96803333Y-128275000D01*
X96898571Y-128322619D01*
X96993809Y-128417857D01*
X96993809Y-128513095D01*
X96898571Y-128608333D01*
X96803333Y-128655952D01*
X96612857Y-128703571D01*
X95946190Y-128703571D01*
D13*
X101552857Y24405238D02*
X101552857Y26405238D01*
X102505238Y24405238D02*
X102505238Y26405238D01*
X103648095Y24405238D01*
X103648095Y26405238D01*
X104600476Y24405238D02*
X104600476Y26405238D01*
X105362380Y26405238D01*
X105552857Y26310000D01*
X105648095Y26214761D01*
X105743333Y26024285D01*
X105743333Y25738571D01*
X105648095Y25548095D01*
X105552857Y25452857D01*
X105362380Y25357619D01*
X104600476Y25357619D01*
X106600476Y26405238D02*
X106600476Y24786190D01*
X106695714Y24595714D01*
X106790952Y24500476D01*
X106981428Y24405238D01*
X107362380Y24405238D01*
X107552857Y24500476D01*
X107648095Y24595714D01*
X107743333Y24786190D01*
X107743333Y26405238D01*
X108410000Y26405238D02*
X109552857Y26405238D01*
X108981428Y24405238D02*
X108981428Y26405238D01*
D11*
X93570000Y-19900000D02*
X118716000Y-19900000D01*
X93430000Y-91870000D02*
X118576000Y-91870000D01*
D13*
X101306596Y-94200361D02*
X101687548Y-94200361D01*
X101878024Y-94295600D01*
X102068500Y-94486076D01*
X102163739Y-94867028D01*
X102163739Y-95533695D01*
X102068500Y-95914647D01*
X101878024Y-96105123D01*
X101687548Y-96200361D01*
X101306596Y-96200361D01*
X101116120Y-96105123D01*
X100925643Y-95914647D01*
X100830405Y-95533695D01*
X100830405Y-94867028D01*
X100925643Y-94486076D01*
X101116120Y-94295600D01*
X101306596Y-94200361D01*
X103020881Y-94200361D02*
X103020881Y-95819409D01*
X103116120Y-96009885D01*
X103211358Y-96105123D01*
X103401834Y-96200361D01*
X103782786Y-96200361D01*
X103973262Y-96105123D01*
X104068500Y-96009885D01*
X104163739Y-95819409D01*
X104163739Y-94200361D01*
X104830405Y-94200361D02*
X105973262Y-94200361D01*
X105401834Y-96200361D02*
X105401834Y-94200361D01*
X106639929Y-96200361D02*
X106639929Y-94200361D01*
X107401834Y-94200361D01*
X107592310Y-94295600D01*
X107687548Y-94390838D01*
X107782786Y-94581314D01*
X107782786Y-94867028D01*
X107687548Y-95057504D01*
X107592310Y-95152742D01*
X107401834Y-95247980D01*
X106639929Y-95247980D01*
X108639929Y-94200361D02*
X108639929Y-95819409D01*
X108735167Y-96009885D01*
X108830405Y-96105123D01*
X109020881Y-96200361D01*
X109401834Y-96200361D01*
X109592310Y-96105123D01*
X109687548Y-96009885D01*
X109782786Y-95819409D01*
X109782786Y-94200361D01*
X110449453Y-94200361D02*
X111592310Y-94200361D01*
X111020881Y-96200361D02*
X111020881Y-94200361D01*
D10*
X95898571Y-137867380D02*
X95898571Y-136867380D01*
X97041428Y-137867380D01*
X97041428Y-136867380D01*
X96279523Y-138617380D02*
X96660476Y-138617380D01*
X96850952Y-138665000D01*
X97041428Y-138760238D01*
X97136666Y-138950714D01*
X97136666Y-139284047D01*
X97041428Y-139474523D01*
X96850952Y-139569761D01*
X96660476Y-139617380D01*
X96279523Y-139617380D01*
X96089047Y-139569761D01*
X95898571Y-139474523D01*
X95803333Y-139284047D01*
X95803333Y-138950714D01*
X95898571Y-138760238D01*
X96089047Y-138665000D01*
X96279523Y-138617380D01*
X97089047Y-141367380D02*
X96422380Y-140891190D01*
X95946190Y-141367380D02*
X95946190Y-140367380D01*
X96708095Y-140367380D01*
X96898571Y-140415000D01*
X96993809Y-140462619D01*
X97089047Y-140557857D01*
X97089047Y-140700714D01*
X96993809Y-140795952D01*
X96898571Y-140843571D01*
X96708095Y-140891190D01*
X95946190Y-140891190D01*
X95803333Y-143117380D02*
X95803333Y-142117380D01*
X96470000Y-142831666D01*
X97136666Y-142117380D01*
X97136666Y-143117380D01*
X95993809Y-144581666D02*
X96946190Y-144581666D01*
X95803333Y-144867380D02*
X96470000Y-143867380D01*
X97136666Y-144867380D01*
X97089047Y-146617380D02*
X96136666Y-146617380D01*
X96136666Y-145617380D01*
D14*
X127501281Y-83273613D02*
X127548900Y-83130756D01*
X127548900Y-82892660D01*
X127501281Y-82797422D01*
X127453662Y-82749803D01*
X127358424Y-82702184D01*
X127263186Y-82702184D01*
X127167948Y-82749803D01*
X127120329Y-82797422D01*
X127072710Y-82892660D01*
X127025091Y-83083137D01*
X126977472Y-83178375D01*
X126929853Y-83225994D01*
X126834615Y-83273613D01*
X126739377Y-83273613D01*
X126644139Y-83225994D01*
X126596520Y-83178375D01*
X126548900Y-83083137D01*
X126548900Y-82845041D01*
X126596520Y-82702184D01*
X126548900Y-82368851D02*
X127548900Y-82130756D01*
X126834615Y-81940280D01*
X127548900Y-81749803D01*
X126548900Y-81511708D01*
X127548900Y-80606946D02*
X127548900Y-81178375D01*
X127548900Y-80892660D02*
X126548900Y-80892660D01*
X126691758Y-80987899D01*
X126786996Y-81083137D01*
X126834615Y-81178375D01*
X126461780Y-54552338D02*
X125985590Y-54885671D01*
X126461780Y-55123766D02*
X125461780Y-55123766D01*
X125461780Y-54742814D01*
X125509400Y-54647576D01*
X125557019Y-54599957D01*
X125652257Y-54552338D01*
X125795114Y-54552338D01*
X125890352Y-54599957D01*
X125937971Y-54647576D01*
X125985590Y-54742814D01*
X125985590Y-55123766D01*
X125461780Y-54266623D02*
X126461780Y-53933290D01*
X125461780Y-53599957D01*
X125795114Y-52838052D02*
X126461780Y-52838052D01*
X125414161Y-53076147D02*
X126128447Y-53314242D01*
X126128447Y-52695195D01*
X122265700Y-66193158D02*
X121789510Y-66526491D01*
X122265700Y-66764586D02*
X121265700Y-66764586D01*
X121265700Y-66383634D01*
X121313320Y-66288396D01*
X121360939Y-66240777D01*
X121456177Y-66193158D01*
X121599034Y-66193158D01*
X121694272Y-66240777D01*
X121741891Y-66288396D01*
X121789510Y-66383634D01*
X121789510Y-66764586D01*
X121265700Y-65907443D02*
X122265700Y-65574110D01*
X121265700Y-65240777D01*
X121360939Y-64955062D02*
X121313320Y-64907443D01*
X121265700Y-64812205D01*
X121265700Y-64574110D01*
X121313320Y-64478872D01*
X121360939Y-64431253D01*
X121456177Y-64383634D01*
X121551415Y-64383634D01*
X121694272Y-64431253D01*
X122265700Y-65002681D01*
X122265700Y-64383634D01*
X127073920Y-33378898D02*
X126597730Y-33712231D01*
X127073920Y-33950326D02*
X126073920Y-33950326D01*
X126073920Y-33569374D01*
X126121540Y-33474136D01*
X126169159Y-33426517D01*
X126264397Y-33378898D01*
X126407254Y-33378898D01*
X126502492Y-33426517D01*
X126550111Y-33474136D01*
X126597730Y-33569374D01*
X126597730Y-33950326D01*
X126073920Y-33093183D02*
X127073920Y-32759850D01*
X126073920Y-32426517D01*
X126073920Y-32188421D02*
X126073920Y-31569374D01*
X126454873Y-31902707D01*
X126454873Y-31759850D01*
X126502492Y-31664612D01*
X126550111Y-31616993D01*
X126645349Y-31569374D01*
X126883444Y-31569374D01*
X126978682Y-31616993D01*
X127026301Y-31664612D01*
X127073920Y-31759850D01*
X127073920Y-32045564D01*
X127026301Y-32140802D01*
X126978682Y-32188421D01*
X127129800Y-23127458D02*
X126653610Y-23460791D01*
X127129800Y-23698886D02*
X126129800Y-23698886D01*
X126129800Y-23317934D01*
X126177420Y-23222696D01*
X126225039Y-23175077D01*
X126320277Y-23127458D01*
X126463134Y-23127458D01*
X126558372Y-23175077D01*
X126605991Y-23222696D01*
X126653610Y-23317934D01*
X126653610Y-23698886D01*
X126129800Y-22841743D02*
X127129800Y-22508410D01*
X126129800Y-22175077D01*
X127129800Y-21317934D02*
X127129800Y-21889362D01*
X127129800Y-21603648D02*
X126129800Y-21603648D01*
X126272658Y-21698886D01*
X126367896Y-21794124D01*
X126415515Y-21889362D01*
M02*
