G04 #@! TF.GenerationSoftware,KiCad,Pcbnew,(5.1.7)-1*
G04 #@! TF.CreationDate,2020-12-30T12:14:20+00:00*
G04 #@! TF.ProjectId,Panel,50616e65-6c2e-46b6-9963-61645f706362,rev?*
G04 #@! TF.SameCoordinates,Original*
G04 #@! TF.FileFunction,Copper,L1,Top*
G04 #@! TF.FilePolarity,Positive*
%FSLAX46Y46*%
G04 Gerber Fmt 4.6, Leading zero omitted, Abs format (unit mm)*
G04 Created by KiCad (PCBNEW (5.1.7)-1) date 2020-12-30 12:14:20*
%MOMM*%
%LPD*%
G01*
G04 APERTURE LIST*
G04 #@! TA.AperFunction,NonConductor*
%ADD10C,0.300000*%
G04 #@! TD*
G04 #@! TA.AperFunction,ComponentPad*
%ADD11C,5.600000*%
G04 #@! TD*
G04 #@! TA.AperFunction,ComponentPad*
%ADD12C,7.000000*%
G04 #@! TD*
G04 #@! TA.AperFunction,ComponentPad*
%ADD13C,8.500000*%
G04 #@! TD*
G04 #@! TA.AperFunction,ComponentPad*
%ADD14C,14.000000*%
G04 #@! TD*
G04 #@! TA.AperFunction,Conductor*
%ADD15C,0.450000*%
G04 #@! TD*
G04 #@! TA.AperFunction,Conductor*
%ADD16C,0.254000*%
G04 #@! TD*
G04 #@! TA.AperFunction,Conductor*
%ADD17C,0.100000*%
G04 #@! TD*
G04 APERTURE END LIST*
D10*
X126753085Y-189476474D02*
X126681657Y-189547902D01*
X126467371Y-189619331D01*
X126324514Y-189619331D01*
X126110228Y-189547902D01*
X125967371Y-189405045D01*
X125895942Y-189262188D01*
X125824514Y-188976474D01*
X125824514Y-188762188D01*
X125895942Y-188476474D01*
X125967371Y-188333617D01*
X126110228Y-188190760D01*
X126324514Y-188119331D01*
X126467371Y-188119331D01*
X126681657Y-188190760D01*
X126753085Y-188262188D01*
X125860228Y-192169331D02*
X125860228Y-190669331D01*
X125860228Y-191383617D02*
X126717371Y-191383617D01*
X126717371Y-192169331D02*
X126717371Y-190669331D01*
X125860228Y-194719331D02*
X125860228Y-193219331D01*
X126717371Y-194719331D01*
X126717371Y-193219331D01*
X125788800Y-198319331D02*
X126717371Y-198319331D01*
X126217371Y-198890760D01*
X126431657Y-198890760D01*
X126574514Y-198962188D01*
X126645942Y-199033617D01*
X126717371Y-199176474D01*
X126717371Y-199533617D01*
X126645942Y-199676474D01*
X126574514Y-199747902D01*
X126431657Y-199819331D01*
X126003085Y-199819331D01*
X125860228Y-199747902D01*
X125788800Y-199676474D01*
X97372586Y-155115628D02*
X97211872Y-155258485D01*
X96765443Y-155401342D01*
X96479729Y-155401342D01*
X96069015Y-155258485D01*
X95819015Y-154972771D01*
X95711872Y-154687057D01*
X95640443Y-154115628D01*
X95694015Y-153687057D01*
X95908300Y-153115628D01*
X96086872Y-152829914D01*
X96408300Y-152544200D01*
X96854729Y-152401342D01*
X97140443Y-152401342D01*
X97551157Y-152544200D01*
X97676157Y-152687057D01*
X100051157Y-155401342D02*
X98622586Y-155401342D01*
X98997586Y-152401342D01*
X101015443Y-154544200D02*
X102444015Y-154544200D01*
X100622586Y-155401342D02*
X101997586Y-152401342D01*
X102622586Y-155401342D01*
X104372586Y-153972771D02*
X104194015Y-155401342D01*
X103569015Y-152401342D02*
X104372586Y-153972771D01*
X105569015Y-152401342D01*
X106140443Y-152401342D02*
X107854729Y-152401342D01*
X106622586Y-155401342D02*
X106997586Y-152401342D01*
X108854729Y-152401342D02*
X108551157Y-154829914D01*
X108658300Y-155115628D01*
X108783300Y-155258485D01*
X109051157Y-155401342D01*
X109622586Y-155401342D01*
X109926157Y-155258485D01*
X110086872Y-155115628D01*
X110265443Y-154829914D01*
X110569015Y-152401342D01*
X111622586Y-155401342D02*
X111997586Y-152401342D01*
X113336872Y-155401342D01*
X113711872Y-152401342D01*
X114961872Y-153829914D02*
X115961872Y-153829914D01*
X116194015Y-155401342D02*
X114765443Y-155401342D01*
X115140443Y-152401342D01*
X116569015Y-152401342D01*
D11*
X115158640Y-159492200D03*
X97158640Y-159492200D03*
X115158640Y33507800D03*
X97158640Y33507800D03*
D12*
X106377860Y-86128080D03*
D13*
X106463560Y-56257880D03*
X106463560Y-71257880D03*
X106463560Y-41257880D03*
X106463560Y-26257880D03*
D14*
X105905600Y15532200D03*
X105910680Y-1704240D03*
X105846640Y-141124200D03*
X105846640Y-123124200D03*
X105846640Y-105124200D03*
D15*
X108561060Y-6951080D02*
X108561060Y-6031480D01*
X111236360Y-6031480D02*
X108561060Y-6031480D01*
D16*
X117998640Y-162332200D02*
X94318640Y-162332200D01*
X94318640Y-151174200D01*
X94411069Y-151174200D01*
X94411069Y-157244200D01*
X117838212Y-157244200D01*
X117838212Y-151174200D01*
X94411069Y-151174200D01*
X94318640Y-151174200D01*
X94318640Y36347800D01*
X117998641Y36347800D01*
X117998640Y-162332200D01*
G04 #@! TA.AperFunction,Conductor*
D17*
G36*
X117998640Y-162332200D02*
G01*
X94318640Y-162332200D01*
X94318640Y-151174200D01*
X94411069Y-151174200D01*
X94411069Y-157244200D01*
X117838212Y-157244200D01*
X117838212Y-151174200D01*
X94411069Y-151174200D01*
X94318640Y-151174200D01*
X94318640Y36347800D01*
X117998641Y36347800D01*
X117998640Y-162332200D01*
G37*
G04 #@! TD.AperFunction*
M02*
