M48
; DRILL file {KiCad (5.1.7)-1} date 12/29/20 17:02:48
; FORMAT={-:-/ absolute / inch / decimal}
; #@! TF.CreationDate,2020-12-29T17:02:48+00:00
; #@! TF.GenerationSoftware,Kicad,Pcbnew,(5.1.7)-1
; #@! TF.FileFunction,Plated,1,2,PTH
FMAT,2
INCH
T1C0.0276
T2C0.0354
T3C0.0394
T4C0.0933
T5C0.1260
%
G90
G05
T1
X4.7637Y-6.1605
X4.9637Y-6.1605
X4.7437Y-5.4405
X4.9437Y-5.4405
T2
X5.1031Y-6.0805
X5.2031Y-6.0805
X5.1031Y-5.5005
X5.2031Y-5.5005
T3
X5.7213Y-5.5953
X5.7213Y-5.6953
X5.7213Y-5.7953
X5.7213Y-5.8953
X5.7213Y-5.9953
X5.8213Y-5.5953
X5.8213Y-5.6953
X5.8213Y-5.7953
X5.8213Y-5.8953
X5.8213Y-5.9953
X8.4378Y-5.5953
X8.4378Y-5.6953
X8.4378Y-5.7953
X8.4378Y-5.8953
X8.4378Y-5.9953
X8.5378Y-5.5953
X8.5378Y-5.6953
X8.5378Y-5.7953
X8.5378Y-5.8953
X8.5378Y-5.9953
X9.3433Y-5.5953
X9.3433Y-5.6953
X9.3433Y-5.7953
X9.3433Y-5.8953
X9.3433Y-5.9953
X9.4433Y-5.5953
X9.4433Y-5.6953
X9.4433Y-5.7953
X9.4433Y-5.8953
X9.4433Y-5.9953
X6.6268Y-5.5953
X6.6268Y-5.6953
X6.6268Y-5.7953
X6.6268Y-5.8953
X6.6268Y-5.9953
X6.7268Y-5.5953
X6.7268Y-5.6953
X6.7268Y-5.7953
X6.7268Y-5.8953
X6.7268Y-5.9953
X7.5323Y-5.5953
X7.5323Y-5.6953
X7.5323Y-5.7953
X7.5323Y-5.8953
X7.5323Y-5.9953
X7.6323Y-5.5953
X7.6323Y-5.6953
X7.6323Y-5.7953
X7.6323Y-5.8953
X7.6323Y-5.9953
X10.2488Y-5.5953
X10.2488Y-5.6953
X10.2488Y-5.7953
X10.2488Y-5.8953
X10.2488Y-5.9953
X10.3488Y-5.5953
X10.3488Y-5.6953
X10.3488Y-5.7953
X10.3488Y-5.8953
X10.3488Y-5.9953
X4.1437Y-5.5953
X4.1437Y-5.6953
X4.1437Y-5.7953
X4.1437Y-5.8953
X4.1437Y-5.9953
X4.2437Y-5.5953
X4.2437Y-5.6953
X4.2437Y-5.7953
X4.2437Y-5.8953
X4.2437Y-5.9953
T4
X4.5336Y-5.702
X4.5336Y-5.8922
X4.7187Y-5.702
X4.7187Y-5.8922
X4.9037Y-5.702
X4.9037Y-5.8922
T5
X9.8362Y-5.7953
X7.1398Y-5.7945
T0
M30
