%TF.GenerationSoftware,KiCad,Pcbnew,(5.1.7)-1*%
%TF.CreationDate,2020-12-29T17:02:45+00:00*%
%TF.ProjectId,BussBar,42757373-4261-4722-9e6b-696361645f70,rev?*%
%TF.SameCoordinates,Original*%
%TF.FileFunction,Soldermask,Top*%
%TF.FilePolarity,Negative*%
%FSLAX46Y46*%
G04 Gerber Fmt 4.6, Leading zero omitted, Abs format (unit mm)*
G04 Created by KiCad (PCBNEW (5.1.7)-1) date 2020-12-29 17:02:45*
%MOMM*%
%LPD*%
G01*
G04 APERTURE LIST*
%ADD10C,5.600000*%
%ADD11R,1.800000X1.800000*%
%ADD12C,1.800000*%
%ADD13C,1.700000*%
%ADD14R,2.670000X3.900000*%
%ADD15O,2.670000X3.900000*%
%ADD16C,1.400000*%
%ADD17O,1.400000X1.400000*%
G04 APERTURE END LIST*
D10*
%TO.C,H2*%
X181350000Y-147180000D03*
%TD*%
%TO.C,H1*%
X249840000Y-147200000D03*
%TD*%
D11*
%TO.C,D1*%
X129620000Y-154444000D03*
D12*
X132160000Y-154444000D03*
%TD*%
%TO.C,D2*%
X132160000Y-139712000D03*
D11*
X129620000Y-139712000D03*
%TD*%
%TO.C,J1*%
G36*
G01*
X108640000Y-151680000D02*
X108640000Y-152880000D01*
G75*
G02*
X108390000Y-153130000I-250000J0D01*
G01*
X107190000Y-153130000D01*
G75*
G02*
X106940000Y-152880000I0J250000D01*
G01*
X106940000Y-151680000D01*
G75*
G02*
X107190000Y-151430000I250000J0D01*
G01*
X108390000Y-151430000D01*
G75*
G02*
X108640000Y-151680000I0J-250000D01*
G01*
G37*
D13*
X107790000Y-149740000D03*
X107790000Y-147200000D03*
X107790000Y-144660000D03*
X107790000Y-142120000D03*
X105250000Y-152280000D03*
X105250000Y-149740000D03*
X105250000Y-147200000D03*
X105250000Y-144660000D03*
X105250000Y-142120000D03*
%TD*%
%TO.C,J2*%
X262860000Y-152280000D03*
X262860000Y-149740000D03*
X262860000Y-147200000D03*
X262860000Y-144660000D03*
X262860000Y-142120000D03*
X260320000Y-152280000D03*
X260320000Y-149740000D03*
X260320000Y-147200000D03*
X260320000Y-144660000D03*
G36*
G01*
X259470000Y-142720000D02*
X259470000Y-141520000D01*
G75*
G02*
X259720000Y-141270000I250000J0D01*
G01*
X260920000Y-141270000D01*
G75*
G02*
X261170000Y-141520000I0J-250000D01*
G01*
X261170000Y-142720000D01*
G75*
G02*
X260920000Y-142970000I-250000J0D01*
G01*
X259720000Y-142970000D01*
G75*
G02*
X259470000Y-142720000I0J250000D01*
G01*
G37*
%TD*%
%TO.C,J3*%
G36*
G01*
X144470000Y-142720000D02*
X144470000Y-141520000D01*
G75*
G02*
X144720000Y-141270000I250000J0D01*
G01*
X145920000Y-141270000D01*
G75*
G02*
X146170000Y-141520000I0J-250000D01*
G01*
X146170000Y-142720000D01*
G75*
G02*
X145920000Y-142970000I-250000J0D01*
G01*
X144720000Y-142970000D01*
G75*
G02*
X144470000Y-142720000I0J250000D01*
G01*
G37*
X145320000Y-144660000D03*
X145320000Y-147200000D03*
X145320000Y-149740000D03*
X145320000Y-152280000D03*
X147860000Y-142120000D03*
X147860000Y-144660000D03*
X147860000Y-147200000D03*
X147860000Y-149740000D03*
X147860000Y-152280000D03*
%TD*%
%TO.C,J4*%
X170860000Y-152280000D03*
X170860000Y-149740000D03*
X170860000Y-147200000D03*
X170860000Y-144660000D03*
X170860000Y-142120000D03*
X168320000Y-152280000D03*
X168320000Y-149740000D03*
X168320000Y-147200000D03*
X168320000Y-144660000D03*
G36*
G01*
X167470000Y-142720000D02*
X167470000Y-141520000D01*
G75*
G02*
X167720000Y-141270000I250000J0D01*
G01*
X168920000Y-141270000D01*
G75*
G02*
X169170000Y-141520000I0J-250000D01*
G01*
X169170000Y-142720000D01*
G75*
G02*
X168920000Y-142970000I-250000J0D01*
G01*
X167720000Y-142970000D01*
G75*
G02*
X167470000Y-142720000I0J250000D01*
G01*
G37*
%TD*%
%TO.C,J5*%
G36*
G01*
X190470000Y-142720000D02*
X190470000Y-141520000D01*
G75*
G02*
X190720000Y-141270000I250000J0D01*
G01*
X191920000Y-141270000D01*
G75*
G02*
X192170000Y-141520000I0J-250000D01*
G01*
X192170000Y-142720000D01*
G75*
G02*
X191920000Y-142970000I-250000J0D01*
G01*
X190720000Y-142970000D01*
G75*
G02*
X190470000Y-142720000I0J250000D01*
G01*
G37*
X191320000Y-144660000D03*
X191320000Y-147200000D03*
X191320000Y-149740000D03*
X191320000Y-152280000D03*
X193860000Y-142120000D03*
X193860000Y-144660000D03*
X193860000Y-147200000D03*
X193860000Y-149740000D03*
X193860000Y-152280000D03*
%TD*%
%TO.C,J6*%
X239860000Y-152280000D03*
X239860000Y-149740000D03*
X239860000Y-147200000D03*
X239860000Y-144660000D03*
X239860000Y-142120000D03*
X237320000Y-152280000D03*
X237320000Y-149740000D03*
X237320000Y-147200000D03*
X237320000Y-144660000D03*
G36*
G01*
X236470000Y-142720000D02*
X236470000Y-141520000D01*
G75*
G02*
X236720000Y-141270000I250000J0D01*
G01*
X237920000Y-141270000D01*
G75*
G02*
X238170000Y-141520000I0J-250000D01*
G01*
X238170000Y-142720000D01*
G75*
G02*
X237920000Y-142970000I-250000J0D01*
G01*
X236720000Y-142970000D01*
G75*
G02*
X236470000Y-142720000I0J250000D01*
G01*
G37*
%TD*%
%TO.C,J7*%
G36*
G01*
X213470000Y-142720000D02*
X213470000Y-141520000D01*
G75*
G02*
X213720000Y-141270000I250000J0D01*
G01*
X214920000Y-141270000D01*
G75*
G02*
X215170000Y-141520000I0J-250000D01*
G01*
X215170000Y-142720000D01*
G75*
G02*
X214920000Y-142970000I-250000J0D01*
G01*
X213720000Y-142970000D01*
G75*
G02*
X213470000Y-142720000I0J250000D01*
G01*
G37*
X214320000Y-144660000D03*
X214320000Y-147200000D03*
X214320000Y-149740000D03*
X214320000Y-152280000D03*
X216860000Y-142120000D03*
X216860000Y-144660000D03*
X216860000Y-147200000D03*
X216860000Y-149740000D03*
X216860000Y-152280000D03*
%TD*%
D14*
%TO.C,ON/OFF1*%
X124554000Y-149662000D03*
D15*
X119854000Y-149662000D03*
X115154000Y-149662000D03*
X119854000Y-144832000D03*
X115154000Y-144832000D03*
X124554000Y-144832000D03*
%TD*%
D16*
%TO.C,R1*%
X120998000Y-156476000D03*
D17*
X126078000Y-156476000D03*
%TD*%
%TO.C,R2*%
X120490000Y-138188000D03*
D16*
X125570000Y-138188000D03*
%TD*%
M02*
