%TF.GenerationSoftware,KiCad,Pcbnew,(5.1.7)-1*%
%TF.CreationDate,2020-12-29T17:02:45+00:00*%
%TF.ProjectId,BussBar,42757373-4261-4722-9e6b-696361645f70,rev?*%
%TF.SameCoordinates,Original*%
%TF.FileFunction,Copper,L1,Top*%
%TF.FilePolarity,Positive*%
%FSLAX46Y46*%
G04 Gerber Fmt 4.6, Leading zero omitted, Abs format (unit mm)*
G04 Created by KiCad (PCBNEW (5.1.7)-1) date 2020-12-29 17:02:45*
%MOMM*%
%LPD*%
G01*
G04 APERTURE LIST*
%TA.AperFunction,ComponentPad*%
%ADD10C,5.600000*%
%TD*%
%TA.AperFunction,ComponentPad*%
%ADD11R,1.800000X1.800000*%
%TD*%
%TA.AperFunction,ComponentPad*%
%ADD12C,1.800000*%
%TD*%
%TA.AperFunction,ComponentPad*%
%ADD13C,1.700000*%
%TD*%
%TA.AperFunction,ComponentPad*%
%ADD14R,2.670000X3.900000*%
%TD*%
%TA.AperFunction,ComponentPad*%
%ADD15O,2.670000X3.900000*%
%TD*%
%TA.AperFunction,ComponentPad*%
%ADD16C,1.400000*%
%TD*%
%TA.AperFunction,ComponentPad*%
%ADD17O,1.400000X1.400000*%
%TD*%
%TA.AperFunction,Conductor*%
%ADD18C,2.000000*%
%TD*%
%TA.AperFunction,Conductor*%
%ADD19C,0.254000*%
%TD*%
%TA.AperFunction,Conductor*%
%ADD20C,0.100000*%
%TD*%
G04 APERTURE END LIST*
D10*
%TO.P,H2,1*%
%TO.N,GND*%
X181350000Y-147180000D03*
%TD*%
%TO.P,H1,1*%
%TO.N,GND*%
X249840000Y-147200000D03*
%TD*%
D11*
%TO.P,D1,1*%
%TO.N,Net-(D1-Pad1)*%
X129620000Y-154444000D03*
D12*
%TO.P,D1,2*%
%TO.N,GND*%
X132160000Y-154444000D03*
%TD*%
%TO.P,D2,2*%
%TO.N,Net-(D2-Pad2)*%
X132160000Y-139712000D03*
D11*
%TO.P,D2,1*%
%TO.N,GND*%
X129620000Y-139712000D03*
%TD*%
%TO.P,J1,1*%
%TO.N,-12*%
%TA.AperFunction,ComponentPad*%
G36*
G01*
X108640000Y-151680000D02*
X108640000Y-152880000D01*
G75*
G02*
X108390000Y-153130000I-250000J0D01*
G01*
X107190000Y-153130000D01*
G75*
G02*
X106940000Y-152880000I0J250000D01*
G01*
X106940000Y-151680000D01*
G75*
G02*
X107190000Y-151430000I250000J0D01*
G01*
X108390000Y-151430000D01*
G75*
G02*
X108640000Y-151680000I0J-250000D01*
G01*
G37*
%TD.AperFunction*%
D13*
%TO.P,J1,3*%
%TO.N,GND*%
X107790000Y-149740000D03*
%TO.P,J1,5*%
X107790000Y-147200000D03*
%TO.P,J1,7*%
X107790000Y-144660000D03*
%TO.P,J1,9*%
%TO.N,+12*%
X107790000Y-142120000D03*
%TO.P,J1,2*%
%TO.N,-12*%
X105250000Y-152280000D03*
%TO.P,J1,4*%
%TO.N,GND*%
X105250000Y-149740000D03*
%TO.P,J1,6*%
X105250000Y-147200000D03*
%TO.P,J1,8*%
X105250000Y-144660000D03*
%TO.P,J1,10*%
%TO.N,+12*%
X105250000Y-142120000D03*
%TD*%
%TO.P,J2,10*%
%TO.N,+12s*%
X262860000Y-152280000D03*
%TO.P,J2,8*%
%TO.N,GND*%
X262860000Y-149740000D03*
%TO.P,J2,6*%
X262860000Y-147200000D03*
%TO.P,J2,4*%
X262860000Y-144660000D03*
%TO.P,J2,2*%
%TO.N,-12s*%
X262860000Y-142120000D03*
%TO.P,J2,9*%
%TO.N,+12s*%
X260320000Y-152280000D03*
%TO.P,J2,7*%
%TO.N,GND*%
X260320000Y-149740000D03*
%TO.P,J2,5*%
X260320000Y-147200000D03*
%TO.P,J2,3*%
X260320000Y-144660000D03*
%TO.P,J2,1*%
%TO.N,-12s*%
%TA.AperFunction,ComponentPad*%
G36*
G01*
X259470000Y-142720000D02*
X259470000Y-141520000D01*
G75*
G02*
X259720000Y-141270000I250000J0D01*
G01*
X260920000Y-141270000D01*
G75*
G02*
X261170000Y-141520000I0J-250000D01*
G01*
X261170000Y-142720000D01*
G75*
G02*
X260920000Y-142970000I-250000J0D01*
G01*
X259720000Y-142970000D01*
G75*
G02*
X259470000Y-142720000I0J250000D01*
G01*
G37*
%TD.AperFunction*%
%TD*%
%TO.P,J3,1*%
%TO.N,-12s*%
%TA.AperFunction,ComponentPad*%
G36*
G01*
X144470000Y-142720000D02*
X144470000Y-141520000D01*
G75*
G02*
X144720000Y-141270000I250000J0D01*
G01*
X145920000Y-141270000D01*
G75*
G02*
X146170000Y-141520000I0J-250000D01*
G01*
X146170000Y-142720000D01*
G75*
G02*
X145920000Y-142970000I-250000J0D01*
G01*
X144720000Y-142970000D01*
G75*
G02*
X144470000Y-142720000I0J250000D01*
G01*
G37*
%TD.AperFunction*%
%TO.P,J3,3*%
%TO.N,GND*%
X145320000Y-144660000D03*
%TO.P,J3,5*%
X145320000Y-147200000D03*
%TO.P,J3,7*%
X145320000Y-149740000D03*
%TO.P,J3,9*%
%TO.N,+12s*%
X145320000Y-152280000D03*
%TO.P,J3,2*%
%TO.N,-12s*%
X147860000Y-142120000D03*
%TO.P,J3,4*%
%TO.N,GND*%
X147860000Y-144660000D03*
%TO.P,J3,6*%
X147860000Y-147200000D03*
%TO.P,J3,8*%
X147860000Y-149740000D03*
%TO.P,J3,10*%
%TO.N,+12s*%
X147860000Y-152280000D03*
%TD*%
%TO.P,J4,10*%
%TO.N,+12s*%
X170860000Y-152280000D03*
%TO.P,J4,8*%
%TO.N,GND*%
X170860000Y-149740000D03*
%TO.P,J4,6*%
X170860000Y-147200000D03*
%TO.P,J4,4*%
X170860000Y-144660000D03*
%TO.P,J4,2*%
%TO.N,-12s*%
X170860000Y-142120000D03*
%TO.P,J4,9*%
%TO.N,+12s*%
X168320000Y-152280000D03*
%TO.P,J4,7*%
%TO.N,GND*%
X168320000Y-149740000D03*
%TO.P,J4,5*%
X168320000Y-147200000D03*
%TO.P,J4,3*%
X168320000Y-144660000D03*
%TO.P,J4,1*%
%TO.N,-12s*%
%TA.AperFunction,ComponentPad*%
G36*
G01*
X167470000Y-142720000D02*
X167470000Y-141520000D01*
G75*
G02*
X167720000Y-141270000I250000J0D01*
G01*
X168920000Y-141270000D01*
G75*
G02*
X169170000Y-141520000I0J-250000D01*
G01*
X169170000Y-142720000D01*
G75*
G02*
X168920000Y-142970000I-250000J0D01*
G01*
X167720000Y-142970000D01*
G75*
G02*
X167470000Y-142720000I0J250000D01*
G01*
G37*
%TD.AperFunction*%
%TD*%
%TO.P,J5,1*%
%TO.N,-12s*%
%TA.AperFunction,ComponentPad*%
G36*
G01*
X190470000Y-142720000D02*
X190470000Y-141520000D01*
G75*
G02*
X190720000Y-141270000I250000J0D01*
G01*
X191920000Y-141270000D01*
G75*
G02*
X192170000Y-141520000I0J-250000D01*
G01*
X192170000Y-142720000D01*
G75*
G02*
X191920000Y-142970000I-250000J0D01*
G01*
X190720000Y-142970000D01*
G75*
G02*
X190470000Y-142720000I0J250000D01*
G01*
G37*
%TD.AperFunction*%
%TO.P,J5,3*%
%TO.N,GND*%
X191320000Y-144660000D03*
%TO.P,J5,5*%
X191320000Y-147200000D03*
%TO.P,J5,7*%
X191320000Y-149740000D03*
%TO.P,J5,9*%
%TO.N,+12s*%
X191320000Y-152280000D03*
%TO.P,J5,2*%
%TO.N,-12s*%
X193860000Y-142120000D03*
%TO.P,J5,4*%
%TO.N,GND*%
X193860000Y-144660000D03*
%TO.P,J5,6*%
X193860000Y-147200000D03*
%TO.P,J5,8*%
X193860000Y-149740000D03*
%TO.P,J5,10*%
%TO.N,+12s*%
X193860000Y-152280000D03*
%TD*%
%TO.P,J6,10*%
%TO.N,+12s*%
X239860000Y-152280000D03*
%TO.P,J6,8*%
%TO.N,GND*%
X239860000Y-149740000D03*
%TO.P,J6,6*%
X239860000Y-147200000D03*
%TO.P,J6,4*%
X239860000Y-144660000D03*
%TO.P,J6,2*%
%TO.N,-12s*%
X239860000Y-142120000D03*
%TO.P,J6,9*%
%TO.N,+12s*%
X237320000Y-152280000D03*
%TO.P,J6,7*%
%TO.N,GND*%
X237320000Y-149740000D03*
%TO.P,J6,5*%
X237320000Y-147200000D03*
%TO.P,J6,3*%
X237320000Y-144660000D03*
%TO.P,J6,1*%
%TO.N,-12s*%
%TA.AperFunction,ComponentPad*%
G36*
G01*
X236470000Y-142720000D02*
X236470000Y-141520000D01*
G75*
G02*
X236720000Y-141270000I250000J0D01*
G01*
X237920000Y-141270000D01*
G75*
G02*
X238170000Y-141520000I0J-250000D01*
G01*
X238170000Y-142720000D01*
G75*
G02*
X237920000Y-142970000I-250000J0D01*
G01*
X236720000Y-142970000D01*
G75*
G02*
X236470000Y-142720000I0J250000D01*
G01*
G37*
%TD.AperFunction*%
%TD*%
%TO.P,J7,1*%
%TO.N,-12s*%
%TA.AperFunction,ComponentPad*%
G36*
G01*
X213470000Y-142720000D02*
X213470000Y-141520000D01*
G75*
G02*
X213720000Y-141270000I250000J0D01*
G01*
X214920000Y-141270000D01*
G75*
G02*
X215170000Y-141520000I0J-250000D01*
G01*
X215170000Y-142720000D01*
G75*
G02*
X214920000Y-142970000I-250000J0D01*
G01*
X213720000Y-142970000D01*
G75*
G02*
X213470000Y-142720000I0J250000D01*
G01*
G37*
%TD.AperFunction*%
%TO.P,J7,3*%
%TO.N,GND*%
X214320000Y-144660000D03*
%TO.P,J7,5*%
X214320000Y-147200000D03*
%TO.P,J7,7*%
X214320000Y-149740000D03*
%TO.P,J7,9*%
%TO.N,+12s*%
X214320000Y-152280000D03*
%TO.P,J7,2*%
%TO.N,-12s*%
X216860000Y-142120000D03*
%TO.P,J7,4*%
%TO.N,GND*%
X216860000Y-144660000D03*
%TO.P,J7,6*%
X216860000Y-147200000D03*
%TO.P,J7,8*%
X216860000Y-149740000D03*
%TO.P,J7,10*%
%TO.N,+12s*%
X216860000Y-152280000D03*
%TD*%
D14*
%TO.P,ON/OFF1,1*%
%TO.N,-12s*%
X124554000Y-149662000D03*
D15*
%TO.P,ON/OFF1,2*%
%TO.N,-12*%
X119854000Y-149662000D03*
%TO.P,ON/OFF1,3*%
%TO.N,Net-(ON/OFF1-Pad3)*%
X115154000Y-149662000D03*
%TO.P,ON/OFF1,5*%
%TO.N,+12*%
X119854000Y-144832000D03*
%TO.P,ON/OFF1,6*%
%TO.N,Net-(ON/OFF1-Pad6)*%
X115154000Y-144832000D03*
%TO.P,ON/OFF1,4*%
%TO.N,+12s*%
X124554000Y-144832000D03*
%TD*%
D16*
%TO.P,R1,1*%
%TO.N,-12s*%
X120998000Y-156476000D03*
D17*
%TO.P,R1,2*%
%TO.N,Net-(D1-Pad1)*%
X126078000Y-156476000D03*
%TD*%
%TO.P,R2,2*%
%TO.N,+12s*%
X120490000Y-138188000D03*
D16*
%TO.P,R2,1*%
%TO.N,Net-(D2-Pad2)*%
X125570000Y-138188000D03*
%TD*%
D18*
%TO.N,-12*%
X107790000Y-152280000D02*
X105250000Y-152280000D01*
%TO.N,+12*%
X107790000Y-142120000D02*
X105250000Y-142120000D01*
%TO.N,+12s*%
X145320000Y-152280000D02*
X147860000Y-152280000D01*
X170860000Y-152280000D02*
X191320000Y-152280000D01*
X170860000Y-152280000D02*
X168320000Y-152280000D01*
X191320000Y-152280000D02*
X193860000Y-152280000D01*
X193860000Y-152280000D02*
X214320000Y-152280000D01*
X214320000Y-152280000D02*
X216860000Y-152280000D01*
X239860000Y-152280000D02*
X260320000Y-152280000D01*
X239860000Y-152280000D02*
X237320000Y-152280000D01*
X262860000Y-152280000D02*
X260320000Y-152280000D01*
X147860000Y-152280000D02*
X168320000Y-152280000D01*
X216860000Y-152280000D02*
X237320000Y-152280000D01*
%TO.N,-12s*%
X145320000Y-142120000D02*
X147860000Y-142120000D01*
X170860000Y-142120000D02*
X191320000Y-142120000D01*
X170860000Y-142120000D02*
X168320000Y-142120000D01*
X191320000Y-142120000D02*
X193860000Y-142120000D01*
X193860000Y-142120000D02*
X214320000Y-142120000D01*
X214320000Y-142120000D02*
X216860000Y-142120000D01*
X239860000Y-142120000D02*
X260320000Y-142120000D01*
X239860000Y-142120000D02*
X237320000Y-142120000D01*
X262860000Y-142120000D02*
X260320000Y-142120000D01*
X147860000Y-142120000D02*
X168320000Y-142120000D01*
X216860000Y-142120000D02*
X237320000Y-142120000D01*
X124554000Y-149047000D02*
X124554000Y-149662000D01*
X145320000Y-142120000D02*
X124554000Y-149662000D01*
%TD*%
D19*
%TO.N,GND*%
X120100595Y-136904304D02*
X119857641Y-137004939D01*
X119638987Y-137151038D01*
X119453038Y-137336987D01*
X119306939Y-137555641D01*
X119206304Y-137798595D01*
X119155000Y-138056514D01*
X119155000Y-138319486D01*
X119206304Y-138577405D01*
X119306939Y-138820359D01*
X119453038Y-139039013D01*
X119638987Y-139224962D01*
X119857641Y-139371061D01*
X120100595Y-139471696D01*
X120358514Y-139523000D01*
X120621486Y-139523000D01*
X120879405Y-139471696D01*
X121122359Y-139371061D01*
X121341013Y-139224962D01*
X121526962Y-139039013D01*
X121673061Y-138820359D01*
X121773696Y-138577405D01*
X121825000Y-138319486D01*
X121825000Y-138056514D01*
X121773696Y-137798595D01*
X121673061Y-137555641D01*
X121526962Y-137336987D01*
X121341013Y-137151038D01*
X121122359Y-137004939D01*
X120879405Y-136904304D01*
X120706950Y-136870000D01*
X125353050Y-136870000D01*
X125180595Y-136904304D01*
X124937641Y-137004939D01*
X124718987Y-137151038D01*
X124533038Y-137336987D01*
X124386939Y-137555641D01*
X124286304Y-137798595D01*
X124235000Y-138056514D01*
X124235000Y-138319486D01*
X124286304Y-138577405D01*
X124386939Y-138820359D01*
X124533038Y-139039013D01*
X124718987Y-139224962D01*
X124937641Y-139371061D01*
X125180595Y-139471696D01*
X125438514Y-139523000D01*
X125701486Y-139523000D01*
X125959405Y-139471696D01*
X126202359Y-139371061D01*
X126421013Y-139224962D01*
X126606962Y-139039013D01*
X126753061Y-138820359D01*
X126756523Y-138812000D01*
X128081928Y-138812000D01*
X128085000Y-139426250D01*
X128243750Y-139585000D01*
X129493000Y-139585000D01*
X129493000Y-138335750D01*
X129747000Y-138335750D01*
X129747000Y-139585000D01*
X129767000Y-139585000D01*
X129767000Y-139839000D01*
X129747000Y-139839000D01*
X129747000Y-141088250D01*
X129905750Y-141247000D01*
X130520000Y-141250072D01*
X130644482Y-141237812D01*
X130764180Y-141201502D01*
X130874494Y-141142537D01*
X130971185Y-141063185D01*
X131050537Y-140966494D01*
X131109502Y-140856180D01*
X131115056Y-140837873D01*
X131181495Y-140904312D01*
X131432905Y-141072299D01*
X131712257Y-141188011D01*
X132008816Y-141247000D01*
X132311184Y-141247000D01*
X132607743Y-141188011D01*
X132887095Y-141072299D01*
X133138505Y-140904312D01*
X133352312Y-140690505D01*
X133520299Y-140439095D01*
X133636011Y-140159743D01*
X133695000Y-139863184D01*
X133695000Y-139560816D01*
X133636011Y-139264257D01*
X133520299Y-138984905D01*
X133352312Y-138733495D01*
X133138505Y-138519688D01*
X132887095Y-138351701D01*
X132607743Y-138235989D01*
X132311184Y-138177000D01*
X132008816Y-138177000D01*
X131712257Y-138235989D01*
X131432905Y-138351701D01*
X131181495Y-138519688D01*
X131115056Y-138586127D01*
X131109502Y-138567820D01*
X131050537Y-138457506D01*
X130971185Y-138360815D01*
X130874494Y-138281463D01*
X130764180Y-138222498D01*
X130644482Y-138186188D01*
X130520000Y-138173928D01*
X129905750Y-138177000D01*
X129747000Y-138335750D01*
X129493000Y-138335750D01*
X129334250Y-138177000D01*
X128720000Y-138173928D01*
X128595518Y-138186188D01*
X128475820Y-138222498D01*
X128365506Y-138281463D01*
X128268815Y-138360815D01*
X128189463Y-138457506D01*
X128130498Y-138567820D01*
X128094188Y-138687518D01*
X128081928Y-138812000D01*
X126756523Y-138812000D01*
X126853696Y-138577405D01*
X126905000Y-138319486D01*
X126905000Y-138056514D01*
X126853696Y-137798595D01*
X126753061Y-137555641D01*
X126606962Y-137336987D01*
X126421013Y-137151038D01*
X126202359Y-137004939D01*
X125959405Y-136904304D01*
X125786950Y-136870000D01*
X270780000Y-136870000D01*
X270780001Y-157550000D01*
X126873581Y-157550000D01*
X126929013Y-157512962D01*
X127114962Y-157327013D01*
X127261061Y-157108359D01*
X127361696Y-156865405D01*
X127413000Y-156607486D01*
X127413000Y-156344514D01*
X127361696Y-156086595D01*
X127261061Y-155843641D01*
X127114962Y-155624987D01*
X126929013Y-155439038D01*
X126710359Y-155292939D01*
X126467405Y-155192304D01*
X126209486Y-155141000D01*
X125946514Y-155141000D01*
X125688595Y-155192304D01*
X125445641Y-155292939D01*
X125226987Y-155439038D01*
X125041038Y-155624987D01*
X124894939Y-155843641D01*
X124794304Y-156086595D01*
X124743000Y-156344514D01*
X124743000Y-156607486D01*
X124794304Y-156865405D01*
X124894939Y-157108359D01*
X125041038Y-157327013D01*
X125226987Y-157512962D01*
X125282419Y-157550000D01*
X121793581Y-157550000D01*
X121849013Y-157512962D01*
X122034962Y-157327013D01*
X122181061Y-157108359D01*
X122281696Y-156865405D01*
X122333000Y-156607486D01*
X122333000Y-156344514D01*
X122281696Y-156086595D01*
X122181061Y-155843641D01*
X122034962Y-155624987D01*
X121849013Y-155439038D01*
X121630359Y-155292939D01*
X121387405Y-155192304D01*
X121129486Y-155141000D01*
X120866514Y-155141000D01*
X120608595Y-155192304D01*
X120365641Y-155292939D01*
X120146987Y-155439038D01*
X119961038Y-155624987D01*
X119814939Y-155843641D01*
X119714304Y-156086595D01*
X119663000Y-156344514D01*
X119663000Y-156607486D01*
X119714304Y-156865405D01*
X119814939Y-157108359D01*
X119961038Y-157327013D01*
X120146987Y-157512962D01*
X120202419Y-157550000D01*
X97100000Y-157550000D01*
X97100000Y-152280000D01*
X103607089Y-152280000D01*
X103638657Y-152600516D01*
X103732148Y-152908715D01*
X103883969Y-153192752D01*
X104088286Y-153441714D01*
X104337248Y-153646031D01*
X104621285Y-153797852D01*
X104929484Y-153891343D01*
X105169678Y-153915000D01*
X107870322Y-153915000D01*
X108110516Y-153891343D01*
X108418715Y-153797852D01*
X108493501Y-153757878D01*
X108563254Y-153751008D01*
X108729850Y-153700472D01*
X108883386Y-153618405D01*
X108974049Y-153544000D01*
X128081928Y-153544000D01*
X128081928Y-155344000D01*
X128094188Y-155468482D01*
X128130498Y-155588180D01*
X128189463Y-155698494D01*
X128268815Y-155795185D01*
X128365506Y-155874537D01*
X128475820Y-155933502D01*
X128595518Y-155969812D01*
X128720000Y-155982072D01*
X130520000Y-155982072D01*
X130644482Y-155969812D01*
X130764180Y-155933502D01*
X130874494Y-155874537D01*
X130971185Y-155795185D01*
X131050537Y-155698494D01*
X131109502Y-155588180D01*
X131112813Y-155577265D01*
X131159578Y-155624030D01*
X131275526Y-155508082D01*
X131359208Y-155762261D01*
X131631775Y-155893158D01*
X131924642Y-155968365D01*
X132226553Y-155984991D01*
X132525907Y-155942397D01*
X132811199Y-155842222D01*
X132960792Y-155762261D01*
X133044475Y-155508080D01*
X132160000Y-154623605D01*
X132145858Y-154637748D01*
X131966253Y-154458143D01*
X131980395Y-154444000D01*
X132339605Y-154444000D01*
X133224080Y-155328475D01*
X133478261Y-155244792D01*
X133609158Y-154972225D01*
X133684365Y-154679358D01*
X133700991Y-154377447D01*
X133658397Y-154078093D01*
X133558222Y-153792801D01*
X133478261Y-153643208D01*
X133224080Y-153559525D01*
X132339605Y-154444000D01*
X131980395Y-154444000D01*
X131966253Y-154429858D01*
X132145858Y-154250253D01*
X132160000Y-154264395D01*
X133044475Y-153379920D01*
X132960792Y-153125739D01*
X132688225Y-152994842D01*
X132395358Y-152919635D01*
X132093447Y-152903009D01*
X131794093Y-152945603D01*
X131508801Y-153045778D01*
X131359208Y-153125739D01*
X131275526Y-153379918D01*
X131159578Y-153263970D01*
X131112813Y-153310735D01*
X131109502Y-153299820D01*
X131050537Y-153189506D01*
X130971185Y-153092815D01*
X130874494Y-153013463D01*
X130764180Y-152954498D01*
X130644482Y-152918188D01*
X130520000Y-152905928D01*
X128720000Y-152905928D01*
X128595518Y-152918188D01*
X128475820Y-152954498D01*
X128365506Y-153013463D01*
X128268815Y-153092815D01*
X128189463Y-153189506D01*
X128130498Y-153299820D01*
X128094188Y-153419518D01*
X128081928Y-153544000D01*
X108974049Y-153544000D01*
X109017962Y-153507962D01*
X109128405Y-153373386D01*
X109210472Y-153219850D01*
X109261008Y-153053254D01*
X109267878Y-152983501D01*
X109307852Y-152908715D01*
X109401343Y-152600516D01*
X109432911Y-152280000D01*
X143677089Y-152280000D01*
X143708657Y-152600516D01*
X143802148Y-152908715D01*
X143953969Y-153192752D01*
X144158286Y-153441714D01*
X144407248Y-153646031D01*
X144691285Y-153797852D01*
X144999484Y-153891343D01*
X145239678Y-153915000D01*
X262940322Y-153915000D01*
X263180516Y-153891343D01*
X263488715Y-153797852D01*
X263772752Y-153646031D01*
X264021714Y-153441714D01*
X264226031Y-153192752D01*
X264377852Y-152908715D01*
X264471343Y-152600516D01*
X264502911Y-152280000D01*
X264471343Y-151959484D01*
X264377852Y-151651285D01*
X264226031Y-151367248D01*
X264021714Y-151118286D01*
X263772752Y-150913969D01*
X263679032Y-150863875D01*
X263708792Y-150768397D01*
X262860000Y-149919605D01*
X262845858Y-149933748D01*
X262666253Y-149754143D01*
X262680395Y-149740000D01*
X263039605Y-149740000D01*
X263888397Y-150588792D01*
X264137472Y-150511157D01*
X264263371Y-150247117D01*
X264335339Y-149963589D01*
X264350611Y-149671469D01*
X264308599Y-149381981D01*
X264210919Y-149106253D01*
X264137472Y-148968843D01*
X263888397Y-148891208D01*
X263039605Y-149740000D01*
X262680395Y-149740000D01*
X261831603Y-148891208D01*
X261590000Y-148966514D01*
X261348397Y-148891208D01*
X260499605Y-149740000D01*
X260513748Y-149754143D01*
X260334143Y-149933748D01*
X260320000Y-149919605D01*
X260305858Y-149933748D01*
X260126253Y-149754143D01*
X260140395Y-149740000D01*
X259291603Y-148891208D01*
X259042528Y-148968843D01*
X258916629Y-149232883D01*
X258844661Y-149516411D01*
X258829389Y-149808531D01*
X258871401Y-150098019D01*
X258969081Y-150373747D01*
X259042528Y-150511157D01*
X259291601Y-150588791D01*
X259235392Y-150645000D01*
X249900337Y-150645000D01*
X250505023Y-150586949D01*
X251153006Y-150392130D01*
X251750530Y-150074639D01*
X251764692Y-150065177D01*
X252076876Y-149616481D01*
X249840000Y-147379605D01*
X247603124Y-149616481D01*
X247915308Y-150065177D01*
X248511259Y-150385612D01*
X249158273Y-150583626D01*
X249766029Y-150645000D01*
X240944608Y-150645000D01*
X240888399Y-150588791D01*
X241137472Y-150511157D01*
X241263371Y-150247117D01*
X241335339Y-149963589D01*
X241350611Y-149671469D01*
X241308599Y-149381981D01*
X241210919Y-149106253D01*
X241137472Y-148968843D01*
X240888397Y-148891208D01*
X240039605Y-149740000D01*
X240053748Y-149754143D01*
X239874143Y-149933748D01*
X239860000Y-149919605D01*
X239845858Y-149933748D01*
X239666253Y-149754143D01*
X239680395Y-149740000D01*
X238831603Y-148891208D01*
X238590000Y-148966514D01*
X238348397Y-148891208D01*
X237499605Y-149740000D01*
X237513748Y-149754143D01*
X237334143Y-149933748D01*
X237320000Y-149919605D01*
X237305858Y-149933748D01*
X237126253Y-149754143D01*
X237140395Y-149740000D01*
X236291603Y-148891208D01*
X236042528Y-148968843D01*
X235916629Y-149232883D01*
X235844661Y-149516411D01*
X235829389Y-149808531D01*
X235871401Y-150098019D01*
X235969081Y-150373747D01*
X236042528Y-150511157D01*
X236291601Y-150588791D01*
X236235392Y-150645000D01*
X217944608Y-150645000D01*
X217888399Y-150588791D01*
X218137472Y-150511157D01*
X218263371Y-150247117D01*
X218335339Y-149963589D01*
X218350611Y-149671469D01*
X218308599Y-149381981D01*
X218210919Y-149106253D01*
X218137472Y-148968843D01*
X217888397Y-148891208D01*
X217039605Y-149740000D01*
X217053748Y-149754143D01*
X216874143Y-149933748D01*
X216860000Y-149919605D01*
X216845858Y-149933748D01*
X216666253Y-149754143D01*
X216680395Y-149740000D01*
X215831603Y-148891208D01*
X215590000Y-148966514D01*
X215348397Y-148891208D01*
X214499605Y-149740000D01*
X214513748Y-149754143D01*
X214334143Y-149933748D01*
X214320000Y-149919605D01*
X214305858Y-149933748D01*
X214126253Y-149754143D01*
X214140395Y-149740000D01*
X213291603Y-148891208D01*
X213042528Y-148968843D01*
X212916629Y-149232883D01*
X212844661Y-149516411D01*
X212829389Y-149808531D01*
X212871401Y-150098019D01*
X212969081Y-150373747D01*
X213042528Y-150511157D01*
X213291601Y-150588791D01*
X213235392Y-150645000D01*
X194944608Y-150645000D01*
X194888399Y-150588791D01*
X195137472Y-150511157D01*
X195263371Y-150247117D01*
X195335339Y-149963589D01*
X195350611Y-149671469D01*
X195308599Y-149381981D01*
X195210919Y-149106253D01*
X195137472Y-148968843D01*
X194888397Y-148891208D01*
X194039605Y-149740000D01*
X194053748Y-149754143D01*
X193874143Y-149933748D01*
X193860000Y-149919605D01*
X193845858Y-149933748D01*
X193666253Y-149754143D01*
X193680395Y-149740000D01*
X192831603Y-148891208D01*
X192590000Y-148966514D01*
X192348397Y-148891208D01*
X191499605Y-149740000D01*
X191513748Y-149754143D01*
X191334143Y-149933748D01*
X191320000Y-149919605D01*
X191305858Y-149933748D01*
X191126253Y-149754143D01*
X191140395Y-149740000D01*
X190291603Y-148891208D01*
X190042528Y-148968843D01*
X189916629Y-149232883D01*
X189844661Y-149516411D01*
X189829389Y-149808531D01*
X189871401Y-150098019D01*
X189969081Y-150373747D01*
X190042528Y-150511157D01*
X190291601Y-150588791D01*
X190235392Y-150645000D01*
X171944608Y-150645000D01*
X171888399Y-150588791D01*
X172137472Y-150511157D01*
X172263371Y-150247117D01*
X172335339Y-149963589D01*
X172350611Y-149671469D01*
X172339729Y-149596481D01*
X179113124Y-149596481D01*
X179425308Y-150045177D01*
X180021259Y-150365612D01*
X180668273Y-150563626D01*
X181341484Y-150631610D01*
X182015023Y-150566949D01*
X182663006Y-150372130D01*
X183260530Y-150054639D01*
X183274692Y-150045177D01*
X183586876Y-149596481D01*
X181350000Y-147359605D01*
X179113124Y-149596481D01*
X172339729Y-149596481D01*
X172308599Y-149381981D01*
X172210919Y-149106253D01*
X172137472Y-148968843D01*
X171888397Y-148891208D01*
X171039605Y-149740000D01*
X171053748Y-149754143D01*
X170874143Y-149933748D01*
X170860000Y-149919605D01*
X170845858Y-149933748D01*
X170666253Y-149754143D01*
X170680395Y-149740000D01*
X169831603Y-148891208D01*
X169590000Y-148966514D01*
X169348397Y-148891208D01*
X168499605Y-149740000D01*
X168513748Y-149754143D01*
X168334143Y-149933748D01*
X168320000Y-149919605D01*
X168305858Y-149933748D01*
X168126253Y-149754143D01*
X168140395Y-149740000D01*
X167291603Y-148891208D01*
X167042528Y-148968843D01*
X166916629Y-149232883D01*
X166844661Y-149516411D01*
X166829389Y-149808531D01*
X166871401Y-150098019D01*
X166969081Y-150373747D01*
X167042528Y-150511157D01*
X167291601Y-150588791D01*
X167235392Y-150645000D01*
X148944608Y-150645000D01*
X148888399Y-150588791D01*
X149137472Y-150511157D01*
X149263371Y-150247117D01*
X149335339Y-149963589D01*
X149350611Y-149671469D01*
X149308599Y-149381981D01*
X149210919Y-149106253D01*
X149137472Y-148968843D01*
X148888397Y-148891208D01*
X148039605Y-149740000D01*
X148053748Y-149754143D01*
X147874143Y-149933748D01*
X147860000Y-149919605D01*
X147845858Y-149933748D01*
X147666253Y-149754143D01*
X147680395Y-149740000D01*
X146831603Y-148891208D01*
X146590000Y-148966514D01*
X146348397Y-148891208D01*
X145499605Y-149740000D01*
X145513748Y-149754143D01*
X145334143Y-149933748D01*
X145320000Y-149919605D01*
X144471208Y-150768397D01*
X144500968Y-150863875D01*
X144407248Y-150913969D01*
X144158286Y-151118286D01*
X143953969Y-151367248D01*
X143802148Y-151651285D01*
X143708657Y-151959484D01*
X143677089Y-152280000D01*
X109432911Y-152280000D01*
X109401343Y-151959484D01*
X109307852Y-151651285D01*
X109267878Y-151576499D01*
X109261008Y-151506746D01*
X109210472Y-151340150D01*
X109128405Y-151186614D01*
X109017962Y-151052038D01*
X108883386Y-150941595D01*
X108729850Y-150859528D01*
X108620707Y-150826420D01*
X108638792Y-150768397D01*
X107790000Y-149919605D01*
X107775858Y-149933748D01*
X107596253Y-149754143D01*
X107610395Y-149740000D01*
X107969605Y-149740000D01*
X108818397Y-150588792D01*
X109067472Y-150511157D01*
X109193371Y-150247117D01*
X109265339Y-149963589D01*
X109280611Y-149671469D01*
X109238599Y-149381981D01*
X109140919Y-149106253D01*
X109067472Y-148968843D01*
X108818397Y-148891208D01*
X107969605Y-149740000D01*
X107610395Y-149740000D01*
X106761603Y-148891208D01*
X106520000Y-148966514D01*
X106278397Y-148891208D01*
X105429605Y-149740000D01*
X105443748Y-149754143D01*
X105264143Y-149933748D01*
X105250000Y-149919605D01*
X104401208Y-150768397D01*
X104430968Y-150863875D01*
X104337248Y-150913969D01*
X104088286Y-151118286D01*
X103883969Y-151367248D01*
X103732148Y-151651285D01*
X103638657Y-151959484D01*
X103607089Y-152280000D01*
X97100000Y-152280000D01*
X97100000Y-149808531D01*
X103759389Y-149808531D01*
X103801401Y-150098019D01*
X103899081Y-150373747D01*
X103972528Y-150511157D01*
X104221603Y-150588792D01*
X105070395Y-149740000D01*
X104221603Y-148891208D01*
X103972528Y-148968843D01*
X103846629Y-149232883D01*
X103774661Y-149516411D01*
X103759389Y-149808531D01*
X97100000Y-149808531D01*
X97100000Y-148228397D01*
X104401208Y-148228397D01*
X104476514Y-148470000D01*
X104401208Y-148711603D01*
X105250000Y-149560395D01*
X106098792Y-148711603D01*
X106023486Y-148470000D01*
X106098792Y-148228397D01*
X106941208Y-148228397D01*
X107016514Y-148470000D01*
X106941208Y-148711603D01*
X107790000Y-149560395D01*
X108638792Y-148711603D01*
X108563486Y-148470000D01*
X108638792Y-148228397D01*
X107790000Y-147379605D01*
X106941208Y-148228397D01*
X106098792Y-148228397D01*
X105250000Y-147379605D01*
X104401208Y-148228397D01*
X97100000Y-148228397D01*
X97100000Y-147268531D01*
X103759389Y-147268531D01*
X103801401Y-147558019D01*
X103899081Y-147833747D01*
X103972528Y-147971157D01*
X104221603Y-148048792D01*
X105070395Y-147200000D01*
X105429605Y-147200000D01*
X106278397Y-148048792D01*
X106520000Y-147973486D01*
X106761603Y-148048792D01*
X107610395Y-147200000D01*
X107969605Y-147200000D01*
X108818397Y-148048792D01*
X109067472Y-147971157D01*
X109193371Y-147707117D01*
X109265339Y-147423589D01*
X109280611Y-147131469D01*
X109238599Y-146841981D01*
X109140919Y-146566253D01*
X109067472Y-146428843D01*
X108818397Y-146351208D01*
X107969605Y-147200000D01*
X107610395Y-147200000D01*
X106761603Y-146351208D01*
X106520000Y-146426514D01*
X106278397Y-146351208D01*
X105429605Y-147200000D01*
X105070395Y-147200000D01*
X104221603Y-146351208D01*
X103972528Y-146428843D01*
X103846629Y-146692883D01*
X103774661Y-146976411D01*
X103759389Y-147268531D01*
X97100000Y-147268531D01*
X97100000Y-145688397D01*
X104401208Y-145688397D01*
X104476514Y-145930000D01*
X104401208Y-146171603D01*
X105250000Y-147020395D01*
X106098792Y-146171603D01*
X106023486Y-145930000D01*
X106098792Y-145688397D01*
X106941208Y-145688397D01*
X107016514Y-145930000D01*
X106941208Y-146171603D01*
X107790000Y-147020395D01*
X108638792Y-146171603D01*
X108563486Y-145930000D01*
X108638792Y-145688397D01*
X107790000Y-144839605D01*
X106941208Y-145688397D01*
X106098792Y-145688397D01*
X105250000Y-144839605D01*
X104401208Y-145688397D01*
X97100000Y-145688397D01*
X97100000Y-144728531D01*
X103759389Y-144728531D01*
X103801401Y-145018019D01*
X103899081Y-145293747D01*
X103972528Y-145431157D01*
X104221603Y-145508792D01*
X105070395Y-144660000D01*
X104221603Y-143811208D01*
X103972528Y-143888843D01*
X103846629Y-144152883D01*
X103774661Y-144436411D01*
X103759389Y-144728531D01*
X97100000Y-144728531D01*
X97100000Y-142120000D01*
X103607089Y-142120000D01*
X103638657Y-142440516D01*
X103732148Y-142748715D01*
X103883969Y-143032752D01*
X104088286Y-143281714D01*
X104337248Y-143486031D01*
X104430968Y-143536125D01*
X104401208Y-143631603D01*
X105250000Y-144480395D01*
X105264143Y-144466253D01*
X105443748Y-144645858D01*
X105429605Y-144660000D01*
X106278397Y-145508792D01*
X106520000Y-145433486D01*
X106761603Y-145508792D01*
X107610395Y-144660000D01*
X107969605Y-144660000D01*
X108818397Y-145508792D01*
X109067472Y-145431157D01*
X109193371Y-145167117D01*
X109265339Y-144883589D01*
X109280611Y-144591469D01*
X109238599Y-144301981D01*
X109174212Y-144120231D01*
X113184000Y-144120231D01*
X113184000Y-145543770D01*
X113212505Y-145833187D01*
X113325153Y-146204534D01*
X113508081Y-146546768D01*
X113754261Y-146846740D01*
X114054233Y-147092920D01*
X114342496Y-147247000D01*
X114054232Y-147401080D01*
X113754260Y-147647260D01*
X113508080Y-147947232D01*
X113325152Y-148289467D01*
X113212505Y-148660814D01*
X113184000Y-148950231D01*
X113184000Y-150373770D01*
X113212505Y-150663187D01*
X113325153Y-151034534D01*
X113508081Y-151376768D01*
X113754261Y-151676740D01*
X114054233Y-151922920D01*
X114396467Y-152105848D01*
X114767814Y-152218495D01*
X115154000Y-152256531D01*
X115540187Y-152218495D01*
X115911534Y-152105848D01*
X116253768Y-151922920D01*
X116553740Y-151676740D01*
X116799920Y-151376768D01*
X116982848Y-151034534D01*
X117095495Y-150663186D01*
X117124000Y-150373769D01*
X117124000Y-148950230D01*
X117095495Y-148660813D01*
X116982848Y-148289466D01*
X116799920Y-147947232D01*
X116553740Y-147647260D01*
X116253768Y-147401080D01*
X115965504Y-147247000D01*
X116253768Y-147092920D01*
X116553740Y-146846740D01*
X116799920Y-146546768D01*
X116982848Y-146204534D01*
X117095495Y-145833186D01*
X117124000Y-145543769D01*
X117124000Y-144120231D01*
X117884000Y-144120231D01*
X117884000Y-145543770D01*
X117912505Y-145833187D01*
X118025153Y-146204534D01*
X118208081Y-146546768D01*
X118454261Y-146846740D01*
X118754233Y-147092920D01*
X119042496Y-147247000D01*
X118754232Y-147401080D01*
X118454260Y-147647260D01*
X118208080Y-147947232D01*
X118025152Y-148289467D01*
X117912505Y-148660814D01*
X117884000Y-148950231D01*
X117884000Y-150373770D01*
X117912505Y-150663187D01*
X118025153Y-151034534D01*
X118208081Y-151376768D01*
X118454261Y-151676740D01*
X118754233Y-151922920D01*
X119096467Y-152105848D01*
X119467814Y-152218495D01*
X119854000Y-152256531D01*
X120240187Y-152218495D01*
X120611534Y-152105848D01*
X120953768Y-151922920D01*
X121253740Y-151676740D01*
X121499920Y-151376768D01*
X121682848Y-151034534D01*
X121795495Y-150663186D01*
X121824000Y-150373769D01*
X121824000Y-148950230D01*
X121795495Y-148660813D01*
X121682848Y-148289466D01*
X121499920Y-147947232D01*
X121306871Y-147712000D01*
X122580928Y-147712000D01*
X122580928Y-151612000D01*
X122593188Y-151736482D01*
X122629498Y-151856180D01*
X122688463Y-151966494D01*
X122767815Y-152063185D01*
X122864506Y-152142537D01*
X122974820Y-152201502D01*
X123094518Y-152237812D01*
X123219000Y-152250072D01*
X125889000Y-152250072D01*
X126013482Y-152237812D01*
X126133180Y-152201502D01*
X126243494Y-152142537D01*
X126340185Y-152063185D01*
X126419537Y-151966494D01*
X126478502Y-151856180D01*
X126514812Y-151736482D01*
X126527072Y-151612000D01*
X126527072Y-150684894D01*
X128940033Y-149808531D01*
X143829389Y-149808531D01*
X143871401Y-150098019D01*
X143969081Y-150373747D01*
X144042528Y-150511157D01*
X144291603Y-150588792D01*
X145140395Y-149740000D01*
X144291603Y-148891208D01*
X144042528Y-148968843D01*
X143916629Y-149232883D01*
X143844661Y-149516411D01*
X143829389Y-149808531D01*
X128940033Y-149808531D01*
X133290744Y-148228397D01*
X144471208Y-148228397D01*
X144546514Y-148470000D01*
X144471208Y-148711603D01*
X145320000Y-149560395D01*
X146168792Y-148711603D01*
X146093486Y-148470000D01*
X146168792Y-148228397D01*
X147011208Y-148228397D01*
X147086514Y-148470000D01*
X147011208Y-148711603D01*
X147860000Y-149560395D01*
X148708792Y-148711603D01*
X148633486Y-148470000D01*
X148708792Y-148228397D01*
X167471208Y-148228397D01*
X167546514Y-148470000D01*
X167471208Y-148711603D01*
X168320000Y-149560395D01*
X169168792Y-148711603D01*
X169093486Y-148470000D01*
X169168792Y-148228397D01*
X170011208Y-148228397D01*
X170086514Y-148470000D01*
X170011208Y-148711603D01*
X170860000Y-149560395D01*
X171708792Y-148711603D01*
X171633486Y-148470000D01*
X171708792Y-148228397D01*
X170860000Y-147379605D01*
X170011208Y-148228397D01*
X169168792Y-148228397D01*
X168320000Y-147379605D01*
X167471208Y-148228397D01*
X148708792Y-148228397D01*
X147860000Y-147379605D01*
X147011208Y-148228397D01*
X146168792Y-148228397D01*
X145320000Y-147379605D01*
X144471208Y-148228397D01*
X133290744Y-148228397D01*
X135933622Y-147268531D01*
X143829389Y-147268531D01*
X143871401Y-147558019D01*
X143969081Y-147833747D01*
X144042528Y-147971157D01*
X144291603Y-148048792D01*
X145140395Y-147200000D01*
X145499605Y-147200000D01*
X146348397Y-148048792D01*
X146590000Y-147973486D01*
X146831603Y-148048792D01*
X147680395Y-147200000D01*
X148039605Y-147200000D01*
X148888397Y-148048792D01*
X149137472Y-147971157D01*
X149263371Y-147707117D01*
X149335339Y-147423589D01*
X149343445Y-147268531D01*
X166829389Y-147268531D01*
X166871401Y-147558019D01*
X166969081Y-147833747D01*
X167042528Y-147971157D01*
X167291603Y-148048792D01*
X168140395Y-147200000D01*
X168499605Y-147200000D01*
X169348397Y-148048792D01*
X169590000Y-147973486D01*
X169831603Y-148048792D01*
X170680395Y-147200000D01*
X171039605Y-147200000D01*
X171888397Y-148048792D01*
X172137472Y-147971157D01*
X172263371Y-147707117D01*
X172335339Y-147423589D01*
X172348519Y-147171484D01*
X177898390Y-147171484D01*
X177963051Y-147845023D01*
X178157870Y-148493006D01*
X178475361Y-149090530D01*
X178484823Y-149104692D01*
X178933519Y-149416876D01*
X181170395Y-147180000D01*
X181529605Y-147180000D01*
X183766481Y-149416876D01*
X184215177Y-149104692D01*
X184535612Y-148508741D01*
X184621409Y-148228397D01*
X190471208Y-148228397D01*
X190546514Y-148470000D01*
X190471208Y-148711603D01*
X191320000Y-149560395D01*
X192168792Y-148711603D01*
X192093486Y-148470000D01*
X192168792Y-148228397D01*
X193011208Y-148228397D01*
X193086514Y-148470000D01*
X193011208Y-148711603D01*
X193860000Y-149560395D01*
X194708792Y-148711603D01*
X194633486Y-148470000D01*
X194708792Y-148228397D01*
X213471208Y-148228397D01*
X213546514Y-148470000D01*
X213471208Y-148711603D01*
X214320000Y-149560395D01*
X215168792Y-148711603D01*
X215093486Y-148470000D01*
X215168792Y-148228397D01*
X216011208Y-148228397D01*
X216086514Y-148470000D01*
X216011208Y-148711603D01*
X216860000Y-149560395D01*
X217708792Y-148711603D01*
X217633486Y-148470000D01*
X217708792Y-148228397D01*
X236471208Y-148228397D01*
X236546514Y-148470000D01*
X236471208Y-148711603D01*
X237320000Y-149560395D01*
X238168792Y-148711603D01*
X238093486Y-148470000D01*
X238168792Y-148228397D01*
X239011208Y-148228397D01*
X239086514Y-148470000D01*
X239011208Y-148711603D01*
X239860000Y-149560395D01*
X240708792Y-148711603D01*
X240633486Y-148470000D01*
X240708792Y-148228397D01*
X239860000Y-147379605D01*
X239011208Y-148228397D01*
X238168792Y-148228397D01*
X237320000Y-147379605D01*
X236471208Y-148228397D01*
X217708792Y-148228397D01*
X216860000Y-147379605D01*
X216011208Y-148228397D01*
X215168792Y-148228397D01*
X214320000Y-147379605D01*
X213471208Y-148228397D01*
X194708792Y-148228397D01*
X193860000Y-147379605D01*
X193011208Y-148228397D01*
X192168792Y-148228397D01*
X191320000Y-147379605D01*
X190471208Y-148228397D01*
X184621409Y-148228397D01*
X184733626Y-147861727D01*
X184793529Y-147268531D01*
X189829389Y-147268531D01*
X189871401Y-147558019D01*
X189969081Y-147833747D01*
X190042528Y-147971157D01*
X190291603Y-148048792D01*
X191140395Y-147200000D01*
X191499605Y-147200000D01*
X192348397Y-148048792D01*
X192590000Y-147973486D01*
X192831603Y-148048792D01*
X193680395Y-147200000D01*
X194039605Y-147200000D01*
X194888397Y-148048792D01*
X195137472Y-147971157D01*
X195263371Y-147707117D01*
X195335339Y-147423589D01*
X195343445Y-147268531D01*
X212829389Y-147268531D01*
X212871401Y-147558019D01*
X212969081Y-147833747D01*
X213042528Y-147971157D01*
X213291603Y-148048792D01*
X214140395Y-147200000D01*
X214499605Y-147200000D01*
X215348397Y-148048792D01*
X215590000Y-147973486D01*
X215831603Y-148048792D01*
X216680395Y-147200000D01*
X217039605Y-147200000D01*
X217888397Y-148048792D01*
X218137472Y-147971157D01*
X218263371Y-147707117D01*
X218335339Y-147423589D01*
X218343445Y-147268531D01*
X235829389Y-147268531D01*
X235871401Y-147558019D01*
X235969081Y-147833747D01*
X236042528Y-147971157D01*
X236291603Y-148048792D01*
X237140395Y-147200000D01*
X237499605Y-147200000D01*
X238348397Y-148048792D01*
X238590000Y-147973486D01*
X238831603Y-148048792D01*
X239680395Y-147200000D01*
X240039605Y-147200000D01*
X240888397Y-148048792D01*
X241137472Y-147971157D01*
X241263371Y-147707117D01*
X241335339Y-147423589D01*
X241347473Y-147191484D01*
X246388390Y-147191484D01*
X246453051Y-147865023D01*
X246647870Y-148513006D01*
X246965361Y-149110530D01*
X246974823Y-149124692D01*
X247423519Y-149436876D01*
X249660395Y-147200000D01*
X250019605Y-147200000D01*
X252256481Y-149436876D01*
X252705177Y-149124692D01*
X253025612Y-148528741D01*
X253117530Y-148228397D01*
X259471208Y-148228397D01*
X259546514Y-148470000D01*
X259471208Y-148711603D01*
X260320000Y-149560395D01*
X261168792Y-148711603D01*
X261093486Y-148470000D01*
X261168792Y-148228397D01*
X262011208Y-148228397D01*
X262086514Y-148470000D01*
X262011208Y-148711603D01*
X262860000Y-149560395D01*
X263708792Y-148711603D01*
X263633486Y-148470000D01*
X263708792Y-148228397D01*
X262860000Y-147379605D01*
X262011208Y-148228397D01*
X261168792Y-148228397D01*
X260320000Y-147379605D01*
X259471208Y-148228397D01*
X253117530Y-148228397D01*
X253223626Y-147881727D01*
X253285549Y-147268531D01*
X258829389Y-147268531D01*
X258871401Y-147558019D01*
X258969081Y-147833747D01*
X259042528Y-147971157D01*
X259291603Y-148048792D01*
X260140395Y-147200000D01*
X260499605Y-147200000D01*
X261348397Y-148048792D01*
X261590000Y-147973486D01*
X261831603Y-148048792D01*
X262680395Y-147200000D01*
X263039605Y-147200000D01*
X263888397Y-148048792D01*
X264137472Y-147971157D01*
X264263371Y-147707117D01*
X264335339Y-147423589D01*
X264350611Y-147131469D01*
X264308599Y-146841981D01*
X264210919Y-146566253D01*
X264137472Y-146428843D01*
X263888397Y-146351208D01*
X263039605Y-147200000D01*
X262680395Y-147200000D01*
X261831603Y-146351208D01*
X261590000Y-146426514D01*
X261348397Y-146351208D01*
X260499605Y-147200000D01*
X260140395Y-147200000D01*
X259291603Y-146351208D01*
X259042528Y-146428843D01*
X258916629Y-146692883D01*
X258844661Y-146976411D01*
X258829389Y-147268531D01*
X253285549Y-147268531D01*
X253291610Y-147208516D01*
X253226949Y-146534977D01*
X253032130Y-145886994D01*
X252926607Y-145688397D01*
X259471208Y-145688397D01*
X259546514Y-145930000D01*
X259471208Y-146171603D01*
X260320000Y-147020395D01*
X261168792Y-146171603D01*
X261093486Y-145930000D01*
X261168792Y-145688397D01*
X262011208Y-145688397D01*
X262086514Y-145930000D01*
X262011208Y-146171603D01*
X262860000Y-147020395D01*
X263708792Y-146171603D01*
X263633486Y-145930000D01*
X263708792Y-145688397D01*
X262860000Y-144839605D01*
X262011208Y-145688397D01*
X261168792Y-145688397D01*
X260320000Y-144839605D01*
X259471208Y-145688397D01*
X252926607Y-145688397D01*
X252714639Y-145289470D01*
X252705177Y-145275308D01*
X252256481Y-144963124D01*
X250019605Y-147200000D01*
X249660395Y-147200000D01*
X247423519Y-144963124D01*
X246974823Y-145275308D01*
X246654388Y-145871259D01*
X246456374Y-146518273D01*
X246388390Y-147191484D01*
X241347473Y-147191484D01*
X241350611Y-147131469D01*
X241308599Y-146841981D01*
X241210919Y-146566253D01*
X241137472Y-146428843D01*
X240888397Y-146351208D01*
X240039605Y-147200000D01*
X239680395Y-147200000D01*
X238831603Y-146351208D01*
X238590000Y-146426514D01*
X238348397Y-146351208D01*
X237499605Y-147200000D01*
X237140395Y-147200000D01*
X236291603Y-146351208D01*
X236042528Y-146428843D01*
X235916629Y-146692883D01*
X235844661Y-146976411D01*
X235829389Y-147268531D01*
X218343445Y-147268531D01*
X218350611Y-147131469D01*
X218308599Y-146841981D01*
X218210919Y-146566253D01*
X218137472Y-146428843D01*
X217888397Y-146351208D01*
X217039605Y-147200000D01*
X216680395Y-147200000D01*
X215831603Y-146351208D01*
X215590000Y-146426514D01*
X215348397Y-146351208D01*
X214499605Y-147200000D01*
X214140395Y-147200000D01*
X213291603Y-146351208D01*
X213042528Y-146428843D01*
X212916629Y-146692883D01*
X212844661Y-146976411D01*
X212829389Y-147268531D01*
X195343445Y-147268531D01*
X195350611Y-147131469D01*
X195308599Y-146841981D01*
X195210919Y-146566253D01*
X195137472Y-146428843D01*
X194888397Y-146351208D01*
X194039605Y-147200000D01*
X193680395Y-147200000D01*
X192831603Y-146351208D01*
X192590000Y-146426514D01*
X192348397Y-146351208D01*
X191499605Y-147200000D01*
X191140395Y-147200000D01*
X190291603Y-146351208D01*
X190042528Y-146428843D01*
X189916629Y-146692883D01*
X189844661Y-146976411D01*
X189829389Y-147268531D01*
X184793529Y-147268531D01*
X184801610Y-147188516D01*
X184736949Y-146514977D01*
X184542130Y-145866994D01*
X184447234Y-145688397D01*
X190471208Y-145688397D01*
X190546514Y-145930000D01*
X190471208Y-146171603D01*
X191320000Y-147020395D01*
X192168792Y-146171603D01*
X192093486Y-145930000D01*
X192168792Y-145688397D01*
X193011208Y-145688397D01*
X193086514Y-145930000D01*
X193011208Y-146171603D01*
X193860000Y-147020395D01*
X194708792Y-146171603D01*
X194633486Y-145930000D01*
X194708792Y-145688397D01*
X213471208Y-145688397D01*
X213546514Y-145930000D01*
X213471208Y-146171603D01*
X214320000Y-147020395D01*
X215168792Y-146171603D01*
X215093486Y-145930000D01*
X215168792Y-145688397D01*
X216011208Y-145688397D01*
X216086514Y-145930000D01*
X216011208Y-146171603D01*
X216860000Y-147020395D01*
X217708792Y-146171603D01*
X217633486Y-145930000D01*
X217708792Y-145688397D01*
X236471208Y-145688397D01*
X236546514Y-145930000D01*
X236471208Y-146171603D01*
X237320000Y-147020395D01*
X238168792Y-146171603D01*
X238093486Y-145930000D01*
X238168792Y-145688397D01*
X239011208Y-145688397D01*
X239086514Y-145930000D01*
X239011208Y-146171603D01*
X239860000Y-147020395D01*
X240708792Y-146171603D01*
X240633486Y-145930000D01*
X240708792Y-145688397D01*
X239860000Y-144839605D01*
X239011208Y-145688397D01*
X238168792Y-145688397D01*
X237320000Y-144839605D01*
X236471208Y-145688397D01*
X217708792Y-145688397D01*
X216860000Y-144839605D01*
X216011208Y-145688397D01*
X215168792Y-145688397D01*
X214320000Y-144839605D01*
X213471208Y-145688397D01*
X194708792Y-145688397D01*
X193860000Y-144839605D01*
X193011208Y-145688397D01*
X192168792Y-145688397D01*
X191320000Y-144839605D01*
X190471208Y-145688397D01*
X184447234Y-145688397D01*
X184224639Y-145269470D01*
X184215177Y-145255308D01*
X183766481Y-144943124D01*
X181529605Y-147180000D01*
X181170395Y-147180000D01*
X178933519Y-144943124D01*
X178484823Y-145255308D01*
X178164388Y-145851259D01*
X177966374Y-146498273D01*
X177898390Y-147171484D01*
X172348519Y-147171484D01*
X172350611Y-147131469D01*
X172308599Y-146841981D01*
X172210919Y-146566253D01*
X172137472Y-146428843D01*
X171888397Y-146351208D01*
X171039605Y-147200000D01*
X170680395Y-147200000D01*
X169831603Y-146351208D01*
X169590000Y-146426514D01*
X169348397Y-146351208D01*
X168499605Y-147200000D01*
X168140395Y-147200000D01*
X167291603Y-146351208D01*
X167042528Y-146428843D01*
X166916629Y-146692883D01*
X166844661Y-146976411D01*
X166829389Y-147268531D01*
X149343445Y-147268531D01*
X149350611Y-147131469D01*
X149308599Y-146841981D01*
X149210919Y-146566253D01*
X149137472Y-146428843D01*
X148888397Y-146351208D01*
X148039605Y-147200000D01*
X147680395Y-147200000D01*
X146831603Y-146351208D01*
X146590000Y-146426514D01*
X146348397Y-146351208D01*
X145499605Y-147200000D01*
X145140395Y-147200000D01*
X144291603Y-146351208D01*
X144042528Y-146428843D01*
X143916629Y-146692883D01*
X143844661Y-146976411D01*
X143829389Y-147268531D01*
X135933622Y-147268531D01*
X140284333Y-145688397D01*
X144471208Y-145688397D01*
X144546514Y-145930000D01*
X144471208Y-146171603D01*
X145320000Y-147020395D01*
X146168792Y-146171603D01*
X146093486Y-145930000D01*
X146168792Y-145688397D01*
X147011208Y-145688397D01*
X147086514Y-145930000D01*
X147011208Y-146171603D01*
X147860000Y-147020395D01*
X148708792Y-146171603D01*
X148633486Y-145930000D01*
X148708792Y-145688397D01*
X167471208Y-145688397D01*
X167546514Y-145930000D01*
X167471208Y-146171603D01*
X168320000Y-147020395D01*
X169168792Y-146171603D01*
X169093486Y-145930000D01*
X169168792Y-145688397D01*
X170011208Y-145688397D01*
X170086514Y-145930000D01*
X170011208Y-146171603D01*
X170860000Y-147020395D01*
X171708792Y-146171603D01*
X171633486Y-145930000D01*
X171708792Y-145688397D01*
X170860000Y-144839605D01*
X170011208Y-145688397D01*
X169168792Y-145688397D01*
X168320000Y-144839605D01*
X167471208Y-145688397D01*
X148708792Y-145688397D01*
X147860000Y-144839605D01*
X147011208Y-145688397D01*
X146168792Y-145688397D01*
X145320000Y-144839605D01*
X144471208Y-145688397D01*
X140284333Y-145688397D01*
X143856150Y-144391150D01*
X143844661Y-144436411D01*
X143829389Y-144728531D01*
X143871401Y-145018019D01*
X143969081Y-145293747D01*
X144042528Y-145431157D01*
X144291603Y-145508792D01*
X145140395Y-144660000D01*
X145126253Y-144645858D01*
X145305858Y-144466253D01*
X145320000Y-144480395D01*
X145334143Y-144466253D01*
X145513748Y-144645858D01*
X145499605Y-144660000D01*
X146348397Y-145508792D01*
X146590000Y-145433486D01*
X146831603Y-145508792D01*
X147680395Y-144660000D01*
X147666253Y-144645858D01*
X147845858Y-144466253D01*
X147860000Y-144480395D01*
X147874143Y-144466253D01*
X148053748Y-144645858D01*
X148039605Y-144660000D01*
X148888397Y-145508792D01*
X149137472Y-145431157D01*
X149263371Y-145167117D01*
X149335339Y-144883589D01*
X149350611Y-144591469D01*
X149308599Y-144301981D01*
X149210919Y-144026253D01*
X149137472Y-143888843D01*
X148888399Y-143811209D01*
X148944608Y-143755000D01*
X167235392Y-143755000D01*
X167291601Y-143811209D01*
X167042528Y-143888843D01*
X166916629Y-144152883D01*
X166844661Y-144436411D01*
X166829389Y-144728531D01*
X166871401Y-145018019D01*
X166969081Y-145293747D01*
X167042528Y-145431157D01*
X167291603Y-145508792D01*
X168140395Y-144660000D01*
X168126253Y-144645858D01*
X168305858Y-144466253D01*
X168320000Y-144480395D01*
X168334143Y-144466253D01*
X168513748Y-144645858D01*
X168499605Y-144660000D01*
X169348397Y-145508792D01*
X169590000Y-145433486D01*
X169831603Y-145508792D01*
X170680395Y-144660000D01*
X170666253Y-144645858D01*
X170845858Y-144466253D01*
X170860000Y-144480395D01*
X170874143Y-144466253D01*
X171053748Y-144645858D01*
X171039605Y-144660000D01*
X171888397Y-145508792D01*
X172137472Y-145431157D01*
X172263371Y-145167117D01*
X172335339Y-144883589D01*
X172350611Y-144591469D01*
X172308599Y-144301981D01*
X172210919Y-144026253D01*
X172137472Y-143888843D01*
X171888399Y-143811209D01*
X171944608Y-143755000D01*
X181081334Y-143755000D01*
X180684977Y-143793051D01*
X180036994Y-143987870D01*
X179439470Y-144305361D01*
X179425308Y-144314823D01*
X179113124Y-144763519D01*
X181350000Y-147000395D01*
X183586876Y-144763519D01*
X183274692Y-144314823D01*
X182678741Y-143994388D01*
X182031727Y-143796374D01*
X181622021Y-143755000D01*
X190235392Y-143755000D01*
X190291601Y-143811209D01*
X190042528Y-143888843D01*
X189916629Y-144152883D01*
X189844661Y-144436411D01*
X189829389Y-144728531D01*
X189871401Y-145018019D01*
X189969081Y-145293747D01*
X190042528Y-145431157D01*
X190291603Y-145508792D01*
X191140395Y-144660000D01*
X191126253Y-144645858D01*
X191305858Y-144466253D01*
X191320000Y-144480395D01*
X191334143Y-144466253D01*
X191513748Y-144645858D01*
X191499605Y-144660000D01*
X192348397Y-145508792D01*
X192590000Y-145433486D01*
X192831603Y-145508792D01*
X193680395Y-144660000D01*
X193666253Y-144645858D01*
X193845858Y-144466253D01*
X193860000Y-144480395D01*
X193874143Y-144466253D01*
X194053748Y-144645858D01*
X194039605Y-144660000D01*
X194888397Y-145508792D01*
X195137472Y-145431157D01*
X195263371Y-145167117D01*
X195335339Y-144883589D01*
X195350611Y-144591469D01*
X195308599Y-144301981D01*
X195210919Y-144026253D01*
X195137472Y-143888843D01*
X194888399Y-143811209D01*
X194944608Y-143755000D01*
X213235392Y-143755000D01*
X213291601Y-143811209D01*
X213042528Y-143888843D01*
X212916629Y-144152883D01*
X212844661Y-144436411D01*
X212829389Y-144728531D01*
X212871401Y-145018019D01*
X212969081Y-145293747D01*
X213042528Y-145431157D01*
X213291603Y-145508792D01*
X214140395Y-144660000D01*
X214126253Y-144645858D01*
X214305858Y-144466253D01*
X214320000Y-144480395D01*
X214334143Y-144466253D01*
X214513748Y-144645858D01*
X214499605Y-144660000D01*
X215348397Y-145508792D01*
X215590000Y-145433486D01*
X215831603Y-145508792D01*
X216680395Y-144660000D01*
X216666253Y-144645858D01*
X216845858Y-144466253D01*
X216860000Y-144480395D01*
X216874143Y-144466253D01*
X217053748Y-144645858D01*
X217039605Y-144660000D01*
X217888397Y-145508792D01*
X218137472Y-145431157D01*
X218263371Y-145167117D01*
X218335339Y-144883589D01*
X218350611Y-144591469D01*
X218308599Y-144301981D01*
X218210919Y-144026253D01*
X218137472Y-143888843D01*
X217888399Y-143811209D01*
X217944608Y-143755000D01*
X236235392Y-143755000D01*
X236291601Y-143811209D01*
X236042528Y-143888843D01*
X235916629Y-144152883D01*
X235844661Y-144436411D01*
X235829389Y-144728531D01*
X235871401Y-145018019D01*
X235969081Y-145293747D01*
X236042528Y-145431157D01*
X236291603Y-145508792D01*
X237140395Y-144660000D01*
X237126253Y-144645858D01*
X237305858Y-144466253D01*
X237320000Y-144480395D01*
X237334143Y-144466253D01*
X237513748Y-144645858D01*
X237499605Y-144660000D01*
X238348397Y-145508792D01*
X238590000Y-145433486D01*
X238831603Y-145508792D01*
X239680395Y-144660000D01*
X239666253Y-144645858D01*
X239845858Y-144466253D01*
X239860000Y-144480395D01*
X239874143Y-144466253D01*
X240053748Y-144645858D01*
X240039605Y-144660000D01*
X240888397Y-145508792D01*
X241137472Y-145431157D01*
X241263371Y-145167117D01*
X241335339Y-144883589D01*
X241350611Y-144591469D01*
X241308599Y-144301981D01*
X241210919Y-144026253D01*
X241137472Y-143888843D01*
X240888399Y-143811209D01*
X240944608Y-143755000D01*
X249779663Y-143755000D01*
X249174977Y-143813051D01*
X248526994Y-144007870D01*
X247929470Y-144325361D01*
X247915308Y-144334823D01*
X247603124Y-144783519D01*
X249840000Y-147020395D01*
X252076876Y-144783519D01*
X251764692Y-144334823D01*
X251168741Y-144014388D01*
X250521727Y-143816374D01*
X249913971Y-143755000D01*
X259235392Y-143755000D01*
X259291601Y-143811209D01*
X259042528Y-143888843D01*
X258916629Y-144152883D01*
X258844661Y-144436411D01*
X258829389Y-144728531D01*
X258871401Y-145018019D01*
X258969081Y-145293747D01*
X259042528Y-145431157D01*
X259291603Y-145508792D01*
X260140395Y-144660000D01*
X260126253Y-144645858D01*
X260305858Y-144466253D01*
X260320000Y-144480395D01*
X260334143Y-144466253D01*
X260513748Y-144645858D01*
X260499605Y-144660000D01*
X261348397Y-145508792D01*
X261590000Y-145433486D01*
X261831603Y-145508792D01*
X262680395Y-144660000D01*
X263039605Y-144660000D01*
X263888397Y-145508792D01*
X264137472Y-145431157D01*
X264263371Y-145167117D01*
X264335339Y-144883589D01*
X264350611Y-144591469D01*
X264308599Y-144301981D01*
X264210919Y-144026253D01*
X264137472Y-143888843D01*
X263888397Y-143811208D01*
X263039605Y-144660000D01*
X262680395Y-144660000D01*
X262666253Y-144645858D01*
X262845858Y-144466253D01*
X262860000Y-144480395D01*
X263708792Y-143631603D01*
X263679032Y-143536125D01*
X263772752Y-143486031D01*
X264021714Y-143281714D01*
X264226031Y-143032752D01*
X264377852Y-142748715D01*
X264471343Y-142440516D01*
X264502911Y-142120000D01*
X264471343Y-141799484D01*
X264377852Y-141491285D01*
X264226031Y-141207248D01*
X264021714Y-140958286D01*
X263772752Y-140753969D01*
X263488715Y-140602148D01*
X263180516Y-140508657D01*
X262940322Y-140485000D01*
X145436685Y-140485000D01*
X145392794Y-140478703D01*
X145275978Y-140485000D01*
X145239678Y-140485000D01*
X145195790Y-140489323D01*
X145071193Y-140496039D01*
X145035823Y-140505078D01*
X144999484Y-140508657D01*
X144880056Y-140544885D01*
X144837353Y-140555798D01*
X144803250Y-140568184D01*
X144691285Y-140602148D01*
X144652175Y-140623053D01*
X144593409Y-140644396D01*
X144546746Y-140648992D01*
X144380150Y-140699528D01*
X144249861Y-140769169D01*
X126348383Y-147270805D01*
X126340185Y-147260815D01*
X126243494Y-147181463D01*
X126133180Y-147122498D01*
X126013482Y-147086188D01*
X125889000Y-147073928D01*
X125676910Y-147073928D01*
X125953740Y-146846740D01*
X126199920Y-146546768D01*
X126382848Y-146204534D01*
X126495495Y-145833186D01*
X126524000Y-145543769D01*
X126524000Y-144120230D01*
X126495495Y-143830813D01*
X126382848Y-143459466D01*
X126199920Y-143117232D01*
X125953740Y-142817260D01*
X125653768Y-142571080D01*
X125311533Y-142388152D01*
X124940186Y-142275505D01*
X124554000Y-142237469D01*
X124167813Y-142275505D01*
X123796466Y-142388152D01*
X123454232Y-142571080D01*
X123154260Y-142817260D01*
X122908080Y-143117232D01*
X122725152Y-143459467D01*
X122612505Y-143830814D01*
X122584000Y-144120231D01*
X122584000Y-145543770D01*
X122612505Y-145833187D01*
X122725153Y-146204534D01*
X122908081Y-146546768D01*
X123154261Y-146846740D01*
X123431091Y-147073928D01*
X123219000Y-147073928D01*
X123094518Y-147086188D01*
X122974820Y-147122498D01*
X122864506Y-147181463D01*
X122767815Y-147260815D01*
X122688463Y-147357506D01*
X122629498Y-147467820D01*
X122593188Y-147587518D01*
X122580928Y-147712000D01*
X121306871Y-147712000D01*
X121253740Y-147647260D01*
X120953768Y-147401080D01*
X120665504Y-147247000D01*
X120953768Y-147092920D01*
X121253740Y-146846740D01*
X121499920Y-146546768D01*
X121682848Y-146204534D01*
X121795495Y-145833186D01*
X121824000Y-145543769D01*
X121824000Y-144120230D01*
X121795495Y-143830813D01*
X121682848Y-143459466D01*
X121499920Y-143117232D01*
X121253740Y-142817260D01*
X120953768Y-142571080D01*
X120611533Y-142388152D01*
X120240186Y-142275505D01*
X119854000Y-142237469D01*
X119467813Y-142275505D01*
X119096466Y-142388152D01*
X118754232Y-142571080D01*
X118454260Y-142817260D01*
X118208080Y-143117232D01*
X118025152Y-143459467D01*
X117912505Y-143830814D01*
X117884000Y-144120231D01*
X117124000Y-144120231D01*
X117124000Y-144120230D01*
X117095495Y-143830813D01*
X116982848Y-143459466D01*
X116799920Y-143117232D01*
X116553740Y-142817260D01*
X116253768Y-142571080D01*
X115911533Y-142388152D01*
X115540186Y-142275505D01*
X115154000Y-142237469D01*
X114767813Y-142275505D01*
X114396466Y-142388152D01*
X114054232Y-142571080D01*
X113754260Y-142817260D01*
X113508080Y-143117232D01*
X113325152Y-143459467D01*
X113212505Y-143830814D01*
X113184000Y-144120231D01*
X109174212Y-144120231D01*
X109140919Y-144026253D01*
X109067472Y-143888843D01*
X108818397Y-143811208D01*
X107969605Y-144660000D01*
X107610395Y-144660000D01*
X107596253Y-144645858D01*
X107775858Y-144466253D01*
X107790000Y-144480395D01*
X108638792Y-143631603D01*
X108609032Y-143536125D01*
X108702752Y-143486031D01*
X108951714Y-143281714D01*
X109156031Y-143032752D01*
X109307852Y-142748715D01*
X109401343Y-142440516D01*
X109432911Y-142120000D01*
X109401343Y-141799484D01*
X109307852Y-141491285D01*
X109156031Y-141207248D01*
X108951714Y-140958286D01*
X108702752Y-140753969D01*
X108437147Y-140612000D01*
X128081928Y-140612000D01*
X128094188Y-140736482D01*
X128130498Y-140856180D01*
X128189463Y-140966494D01*
X128268815Y-141063185D01*
X128365506Y-141142537D01*
X128475820Y-141201502D01*
X128595518Y-141237812D01*
X128720000Y-141250072D01*
X129334250Y-141247000D01*
X129493000Y-141088250D01*
X129493000Y-139839000D01*
X128243750Y-139839000D01*
X128085000Y-139997750D01*
X128081928Y-140612000D01*
X108437147Y-140612000D01*
X108418715Y-140602148D01*
X108110516Y-140508657D01*
X107870322Y-140485000D01*
X105169678Y-140485000D01*
X104929484Y-140508657D01*
X104621285Y-140602148D01*
X104337248Y-140753969D01*
X104088286Y-140958286D01*
X103883969Y-141207248D01*
X103732148Y-141491285D01*
X103638657Y-141799484D01*
X103607089Y-142120000D01*
X97100000Y-142120000D01*
X97100000Y-136870000D01*
X120273050Y-136870000D01*
X120100595Y-136904304D01*
%TA.AperFunction,Conductor*%
D20*
G36*
X120100595Y-136904304D02*
G01*
X119857641Y-137004939D01*
X119638987Y-137151038D01*
X119453038Y-137336987D01*
X119306939Y-137555641D01*
X119206304Y-137798595D01*
X119155000Y-138056514D01*
X119155000Y-138319486D01*
X119206304Y-138577405D01*
X119306939Y-138820359D01*
X119453038Y-139039013D01*
X119638987Y-139224962D01*
X119857641Y-139371061D01*
X120100595Y-139471696D01*
X120358514Y-139523000D01*
X120621486Y-139523000D01*
X120879405Y-139471696D01*
X121122359Y-139371061D01*
X121341013Y-139224962D01*
X121526962Y-139039013D01*
X121673061Y-138820359D01*
X121773696Y-138577405D01*
X121825000Y-138319486D01*
X121825000Y-138056514D01*
X121773696Y-137798595D01*
X121673061Y-137555641D01*
X121526962Y-137336987D01*
X121341013Y-137151038D01*
X121122359Y-137004939D01*
X120879405Y-136904304D01*
X120706950Y-136870000D01*
X125353050Y-136870000D01*
X125180595Y-136904304D01*
X124937641Y-137004939D01*
X124718987Y-137151038D01*
X124533038Y-137336987D01*
X124386939Y-137555641D01*
X124286304Y-137798595D01*
X124235000Y-138056514D01*
X124235000Y-138319486D01*
X124286304Y-138577405D01*
X124386939Y-138820359D01*
X124533038Y-139039013D01*
X124718987Y-139224962D01*
X124937641Y-139371061D01*
X125180595Y-139471696D01*
X125438514Y-139523000D01*
X125701486Y-139523000D01*
X125959405Y-139471696D01*
X126202359Y-139371061D01*
X126421013Y-139224962D01*
X126606962Y-139039013D01*
X126753061Y-138820359D01*
X126756523Y-138812000D01*
X128081928Y-138812000D01*
X128085000Y-139426250D01*
X128243750Y-139585000D01*
X129493000Y-139585000D01*
X129493000Y-138335750D01*
X129747000Y-138335750D01*
X129747000Y-139585000D01*
X129767000Y-139585000D01*
X129767000Y-139839000D01*
X129747000Y-139839000D01*
X129747000Y-141088250D01*
X129905750Y-141247000D01*
X130520000Y-141250072D01*
X130644482Y-141237812D01*
X130764180Y-141201502D01*
X130874494Y-141142537D01*
X130971185Y-141063185D01*
X131050537Y-140966494D01*
X131109502Y-140856180D01*
X131115056Y-140837873D01*
X131181495Y-140904312D01*
X131432905Y-141072299D01*
X131712257Y-141188011D01*
X132008816Y-141247000D01*
X132311184Y-141247000D01*
X132607743Y-141188011D01*
X132887095Y-141072299D01*
X133138505Y-140904312D01*
X133352312Y-140690505D01*
X133520299Y-140439095D01*
X133636011Y-140159743D01*
X133695000Y-139863184D01*
X133695000Y-139560816D01*
X133636011Y-139264257D01*
X133520299Y-138984905D01*
X133352312Y-138733495D01*
X133138505Y-138519688D01*
X132887095Y-138351701D01*
X132607743Y-138235989D01*
X132311184Y-138177000D01*
X132008816Y-138177000D01*
X131712257Y-138235989D01*
X131432905Y-138351701D01*
X131181495Y-138519688D01*
X131115056Y-138586127D01*
X131109502Y-138567820D01*
X131050537Y-138457506D01*
X130971185Y-138360815D01*
X130874494Y-138281463D01*
X130764180Y-138222498D01*
X130644482Y-138186188D01*
X130520000Y-138173928D01*
X129905750Y-138177000D01*
X129747000Y-138335750D01*
X129493000Y-138335750D01*
X129334250Y-138177000D01*
X128720000Y-138173928D01*
X128595518Y-138186188D01*
X128475820Y-138222498D01*
X128365506Y-138281463D01*
X128268815Y-138360815D01*
X128189463Y-138457506D01*
X128130498Y-138567820D01*
X128094188Y-138687518D01*
X128081928Y-138812000D01*
X126756523Y-138812000D01*
X126853696Y-138577405D01*
X126905000Y-138319486D01*
X126905000Y-138056514D01*
X126853696Y-137798595D01*
X126753061Y-137555641D01*
X126606962Y-137336987D01*
X126421013Y-137151038D01*
X126202359Y-137004939D01*
X125959405Y-136904304D01*
X125786950Y-136870000D01*
X270780000Y-136870000D01*
X270780001Y-157550000D01*
X126873581Y-157550000D01*
X126929013Y-157512962D01*
X127114962Y-157327013D01*
X127261061Y-157108359D01*
X127361696Y-156865405D01*
X127413000Y-156607486D01*
X127413000Y-156344514D01*
X127361696Y-156086595D01*
X127261061Y-155843641D01*
X127114962Y-155624987D01*
X126929013Y-155439038D01*
X126710359Y-155292939D01*
X126467405Y-155192304D01*
X126209486Y-155141000D01*
X125946514Y-155141000D01*
X125688595Y-155192304D01*
X125445641Y-155292939D01*
X125226987Y-155439038D01*
X125041038Y-155624987D01*
X124894939Y-155843641D01*
X124794304Y-156086595D01*
X124743000Y-156344514D01*
X124743000Y-156607486D01*
X124794304Y-156865405D01*
X124894939Y-157108359D01*
X125041038Y-157327013D01*
X125226987Y-157512962D01*
X125282419Y-157550000D01*
X121793581Y-157550000D01*
X121849013Y-157512962D01*
X122034962Y-157327013D01*
X122181061Y-157108359D01*
X122281696Y-156865405D01*
X122333000Y-156607486D01*
X122333000Y-156344514D01*
X122281696Y-156086595D01*
X122181061Y-155843641D01*
X122034962Y-155624987D01*
X121849013Y-155439038D01*
X121630359Y-155292939D01*
X121387405Y-155192304D01*
X121129486Y-155141000D01*
X120866514Y-155141000D01*
X120608595Y-155192304D01*
X120365641Y-155292939D01*
X120146987Y-155439038D01*
X119961038Y-155624987D01*
X119814939Y-155843641D01*
X119714304Y-156086595D01*
X119663000Y-156344514D01*
X119663000Y-156607486D01*
X119714304Y-156865405D01*
X119814939Y-157108359D01*
X119961038Y-157327013D01*
X120146987Y-157512962D01*
X120202419Y-157550000D01*
X97100000Y-157550000D01*
X97100000Y-152280000D01*
X103607089Y-152280000D01*
X103638657Y-152600516D01*
X103732148Y-152908715D01*
X103883969Y-153192752D01*
X104088286Y-153441714D01*
X104337248Y-153646031D01*
X104621285Y-153797852D01*
X104929484Y-153891343D01*
X105169678Y-153915000D01*
X107870322Y-153915000D01*
X108110516Y-153891343D01*
X108418715Y-153797852D01*
X108493501Y-153757878D01*
X108563254Y-153751008D01*
X108729850Y-153700472D01*
X108883386Y-153618405D01*
X108974049Y-153544000D01*
X128081928Y-153544000D01*
X128081928Y-155344000D01*
X128094188Y-155468482D01*
X128130498Y-155588180D01*
X128189463Y-155698494D01*
X128268815Y-155795185D01*
X128365506Y-155874537D01*
X128475820Y-155933502D01*
X128595518Y-155969812D01*
X128720000Y-155982072D01*
X130520000Y-155982072D01*
X130644482Y-155969812D01*
X130764180Y-155933502D01*
X130874494Y-155874537D01*
X130971185Y-155795185D01*
X131050537Y-155698494D01*
X131109502Y-155588180D01*
X131112813Y-155577265D01*
X131159578Y-155624030D01*
X131275526Y-155508082D01*
X131359208Y-155762261D01*
X131631775Y-155893158D01*
X131924642Y-155968365D01*
X132226553Y-155984991D01*
X132525907Y-155942397D01*
X132811199Y-155842222D01*
X132960792Y-155762261D01*
X133044475Y-155508080D01*
X132160000Y-154623605D01*
X132145858Y-154637748D01*
X131966253Y-154458143D01*
X131980395Y-154444000D01*
X132339605Y-154444000D01*
X133224080Y-155328475D01*
X133478261Y-155244792D01*
X133609158Y-154972225D01*
X133684365Y-154679358D01*
X133700991Y-154377447D01*
X133658397Y-154078093D01*
X133558222Y-153792801D01*
X133478261Y-153643208D01*
X133224080Y-153559525D01*
X132339605Y-154444000D01*
X131980395Y-154444000D01*
X131966253Y-154429858D01*
X132145858Y-154250253D01*
X132160000Y-154264395D01*
X133044475Y-153379920D01*
X132960792Y-153125739D01*
X132688225Y-152994842D01*
X132395358Y-152919635D01*
X132093447Y-152903009D01*
X131794093Y-152945603D01*
X131508801Y-153045778D01*
X131359208Y-153125739D01*
X131275526Y-153379918D01*
X131159578Y-153263970D01*
X131112813Y-153310735D01*
X131109502Y-153299820D01*
X131050537Y-153189506D01*
X130971185Y-153092815D01*
X130874494Y-153013463D01*
X130764180Y-152954498D01*
X130644482Y-152918188D01*
X130520000Y-152905928D01*
X128720000Y-152905928D01*
X128595518Y-152918188D01*
X128475820Y-152954498D01*
X128365506Y-153013463D01*
X128268815Y-153092815D01*
X128189463Y-153189506D01*
X128130498Y-153299820D01*
X128094188Y-153419518D01*
X128081928Y-153544000D01*
X108974049Y-153544000D01*
X109017962Y-153507962D01*
X109128405Y-153373386D01*
X109210472Y-153219850D01*
X109261008Y-153053254D01*
X109267878Y-152983501D01*
X109307852Y-152908715D01*
X109401343Y-152600516D01*
X109432911Y-152280000D01*
X143677089Y-152280000D01*
X143708657Y-152600516D01*
X143802148Y-152908715D01*
X143953969Y-153192752D01*
X144158286Y-153441714D01*
X144407248Y-153646031D01*
X144691285Y-153797852D01*
X144999484Y-153891343D01*
X145239678Y-153915000D01*
X262940322Y-153915000D01*
X263180516Y-153891343D01*
X263488715Y-153797852D01*
X263772752Y-153646031D01*
X264021714Y-153441714D01*
X264226031Y-153192752D01*
X264377852Y-152908715D01*
X264471343Y-152600516D01*
X264502911Y-152280000D01*
X264471343Y-151959484D01*
X264377852Y-151651285D01*
X264226031Y-151367248D01*
X264021714Y-151118286D01*
X263772752Y-150913969D01*
X263679032Y-150863875D01*
X263708792Y-150768397D01*
X262860000Y-149919605D01*
X262845858Y-149933748D01*
X262666253Y-149754143D01*
X262680395Y-149740000D01*
X263039605Y-149740000D01*
X263888397Y-150588792D01*
X264137472Y-150511157D01*
X264263371Y-150247117D01*
X264335339Y-149963589D01*
X264350611Y-149671469D01*
X264308599Y-149381981D01*
X264210919Y-149106253D01*
X264137472Y-148968843D01*
X263888397Y-148891208D01*
X263039605Y-149740000D01*
X262680395Y-149740000D01*
X261831603Y-148891208D01*
X261590000Y-148966514D01*
X261348397Y-148891208D01*
X260499605Y-149740000D01*
X260513748Y-149754143D01*
X260334143Y-149933748D01*
X260320000Y-149919605D01*
X260305858Y-149933748D01*
X260126253Y-149754143D01*
X260140395Y-149740000D01*
X259291603Y-148891208D01*
X259042528Y-148968843D01*
X258916629Y-149232883D01*
X258844661Y-149516411D01*
X258829389Y-149808531D01*
X258871401Y-150098019D01*
X258969081Y-150373747D01*
X259042528Y-150511157D01*
X259291601Y-150588791D01*
X259235392Y-150645000D01*
X249900337Y-150645000D01*
X250505023Y-150586949D01*
X251153006Y-150392130D01*
X251750530Y-150074639D01*
X251764692Y-150065177D01*
X252076876Y-149616481D01*
X249840000Y-147379605D01*
X247603124Y-149616481D01*
X247915308Y-150065177D01*
X248511259Y-150385612D01*
X249158273Y-150583626D01*
X249766029Y-150645000D01*
X240944608Y-150645000D01*
X240888399Y-150588791D01*
X241137472Y-150511157D01*
X241263371Y-150247117D01*
X241335339Y-149963589D01*
X241350611Y-149671469D01*
X241308599Y-149381981D01*
X241210919Y-149106253D01*
X241137472Y-148968843D01*
X240888397Y-148891208D01*
X240039605Y-149740000D01*
X240053748Y-149754143D01*
X239874143Y-149933748D01*
X239860000Y-149919605D01*
X239845858Y-149933748D01*
X239666253Y-149754143D01*
X239680395Y-149740000D01*
X238831603Y-148891208D01*
X238590000Y-148966514D01*
X238348397Y-148891208D01*
X237499605Y-149740000D01*
X237513748Y-149754143D01*
X237334143Y-149933748D01*
X237320000Y-149919605D01*
X237305858Y-149933748D01*
X237126253Y-149754143D01*
X237140395Y-149740000D01*
X236291603Y-148891208D01*
X236042528Y-148968843D01*
X235916629Y-149232883D01*
X235844661Y-149516411D01*
X235829389Y-149808531D01*
X235871401Y-150098019D01*
X235969081Y-150373747D01*
X236042528Y-150511157D01*
X236291601Y-150588791D01*
X236235392Y-150645000D01*
X217944608Y-150645000D01*
X217888399Y-150588791D01*
X218137472Y-150511157D01*
X218263371Y-150247117D01*
X218335339Y-149963589D01*
X218350611Y-149671469D01*
X218308599Y-149381981D01*
X218210919Y-149106253D01*
X218137472Y-148968843D01*
X217888397Y-148891208D01*
X217039605Y-149740000D01*
X217053748Y-149754143D01*
X216874143Y-149933748D01*
X216860000Y-149919605D01*
X216845858Y-149933748D01*
X216666253Y-149754143D01*
X216680395Y-149740000D01*
X215831603Y-148891208D01*
X215590000Y-148966514D01*
X215348397Y-148891208D01*
X214499605Y-149740000D01*
X214513748Y-149754143D01*
X214334143Y-149933748D01*
X214320000Y-149919605D01*
X214305858Y-149933748D01*
X214126253Y-149754143D01*
X214140395Y-149740000D01*
X213291603Y-148891208D01*
X213042528Y-148968843D01*
X212916629Y-149232883D01*
X212844661Y-149516411D01*
X212829389Y-149808531D01*
X212871401Y-150098019D01*
X212969081Y-150373747D01*
X213042528Y-150511157D01*
X213291601Y-150588791D01*
X213235392Y-150645000D01*
X194944608Y-150645000D01*
X194888399Y-150588791D01*
X195137472Y-150511157D01*
X195263371Y-150247117D01*
X195335339Y-149963589D01*
X195350611Y-149671469D01*
X195308599Y-149381981D01*
X195210919Y-149106253D01*
X195137472Y-148968843D01*
X194888397Y-148891208D01*
X194039605Y-149740000D01*
X194053748Y-149754143D01*
X193874143Y-149933748D01*
X193860000Y-149919605D01*
X193845858Y-149933748D01*
X193666253Y-149754143D01*
X193680395Y-149740000D01*
X192831603Y-148891208D01*
X192590000Y-148966514D01*
X192348397Y-148891208D01*
X191499605Y-149740000D01*
X191513748Y-149754143D01*
X191334143Y-149933748D01*
X191320000Y-149919605D01*
X191305858Y-149933748D01*
X191126253Y-149754143D01*
X191140395Y-149740000D01*
X190291603Y-148891208D01*
X190042528Y-148968843D01*
X189916629Y-149232883D01*
X189844661Y-149516411D01*
X189829389Y-149808531D01*
X189871401Y-150098019D01*
X189969081Y-150373747D01*
X190042528Y-150511157D01*
X190291601Y-150588791D01*
X190235392Y-150645000D01*
X171944608Y-150645000D01*
X171888399Y-150588791D01*
X172137472Y-150511157D01*
X172263371Y-150247117D01*
X172335339Y-149963589D01*
X172350611Y-149671469D01*
X172339729Y-149596481D01*
X179113124Y-149596481D01*
X179425308Y-150045177D01*
X180021259Y-150365612D01*
X180668273Y-150563626D01*
X181341484Y-150631610D01*
X182015023Y-150566949D01*
X182663006Y-150372130D01*
X183260530Y-150054639D01*
X183274692Y-150045177D01*
X183586876Y-149596481D01*
X181350000Y-147359605D01*
X179113124Y-149596481D01*
X172339729Y-149596481D01*
X172308599Y-149381981D01*
X172210919Y-149106253D01*
X172137472Y-148968843D01*
X171888397Y-148891208D01*
X171039605Y-149740000D01*
X171053748Y-149754143D01*
X170874143Y-149933748D01*
X170860000Y-149919605D01*
X170845858Y-149933748D01*
X170666253Y-149754143D01*
X170680395Y-149740000D01*
X169831603Y-148891208D01*
X169590000Y-148966514D01*
X169348397Y-148891208D01*
X168499605Y-149740000D01*
X168513748Y-149754143D01*
X168334143Y-149933748D01*
X168320000Y-149919605D01*
X168305858Y-149933748D01*
X168126253Y-149754143D01*
X168140395Y-149740000D01*
X167291603Y-148891208D01*
X167042528Y-148968843D01*
X166916629Y-149232883D01*
X166844661Y-149516411D01*
X166829389Y-149808531D01*
X166871401Y-150098019D01*
X166969081Y-150373747D01*
X167042528Y-150511157D01*
X167291601Y-150588791D01*
X167235392Y-150645000D01*
X148944608Y-150645000D01*
X148888399Y-150588791D01*
X149137472Y-150511157D01*
X149263371Y-150247117D01*
X149335339Y-149963589D01*
X149350611Y-149671469D01*
X149308599Y-149381981D01*
X149210919Y-149106253D01*
X149137472Y-148968843D01*
X148888397Y-148891208D01*
X148039605Y-149740000D01*
X148053748Y-149754143D01*
X147874143Y-149933748D01*
X147860000Y-149919605D01*
X147845858Y-149933748D01*
X147666253Y-149754143D01*
X147680395Y-149740000D01*
X146831603Y-148891208D01*
X146590000Y-148966514D01*
X146348397Y-148891208D01*
X145499605Y-149740000D01*
X145513748Y-149754143D01*
X145334143Y-149933748D01*
X145320000Y-149919605D01*
X144471208Y-150768397D01*
X144500968Y-150863875D01*
X144407248Y-150913969D01*
X144158286Y-151118286D01*
X143953969Y-151367248D01*
X143802148Y-151651285D01*
X143708657Y-151959484D01*
X143677089Y-152280000D01*
X109432911Y-152280000D01*
X109401343Y-151959484D01*
X109307852Y-151651285D01*
X109267878Y-151576499D01*
X109261008Y-151506746D01*
X109210472Y-151340150D01*
X109128405Y-151186614D01*
X109017962Y-151052038D01*
X108883386Y-150941595D01*
X108729850Y-150859528D01*
X108620707Y-150826420D01*
X108638792Y-150768397D01*
X107790000Y-149919605D01*
X107775858Y-149933748D01*
X107596253Y-149754143D01*
X107610395Y-149740000D01*
X107969605Y-149740000D01*
X108818397Y-150588792D01*
X109067472Y-150511157D01*
X109193371Y-150247117D01*
X109265339Y-149963589D01*
X109280611Y-149671469D01*
X109238599Y-149381981D01*
X109140919Y-149106253D01*
X109067472Y-148968843D01*
X108818397Y-148891208D01*
X107969605Y-149740000D01*
X107610395Y-149740000D01*
X106761603Y-148891208D01*
X106520000Y-148966514D01*
X106278397Y-148891208D01*
X105429605Y-149740000D01*
X105443748Y-149754143D01*
X105264143Y-149933748D01*
X105250000Y-149919605D01*
X104401208Y-150768397D01*
X104430968Y-150863875D01*
X104337248Y-150913969D01*
X104088286Y-151118286D01*
X103883969Y-151367248D01*
X103732148Y-151651285D01*
X103638657Y-151959484D01*
X103607089Y-152280000D01*
X97100000Y-152280000D01*
X97100000Y-149808531D01*
X103759389Y-149808531D01*
X103801401Y-150098019D01*
X103899081Y-150373747D01*
X103972528Y-150511157D01*
X104221603Y-150588792D01*
X105070395Y-149740000D01*
X104221603Y-148891208D01*
X103972528Y-148968843D01*
X103846629Y-149232883D01*
X103774661Y-149516411D01*
X103759389Y-149808531D01*
X97100000Y-149808531D01*
X97100000Y-148228397D01*
X104401208Y-148228397D01*
X104476514Y-148470000D01*
X104401208Y-148711603D01*
X105250000Y-149560395D01*
X106098792Y-148711603D01*
X106023486Y-148470000D01*
X106098792Y-148228397D01*
X106941208Y-148228397D01*
X107016514Y-148470000D01*
X106941208Y-148711603D01*
X107790000Y-149560395D01*
X108638792Y-148711603D01*
X108563486Y-148470000D01*
X108638792Y-148228397D01*
X107790000Y-147379605D01*
X106941208Y-148228397D01*
X106098792Y-148228397D01*
X105250000Y-147379605D01*
X104401208Y-148228397D01*
X97100000Y-148228397D01*
X97100000Y-147268531D01*
X103759389Y-147268531D01*
X103801401Y-147558019D01*
X103899081Y-147833747D01*
X103972528Y-147971157D01*
X104221603Y-148048792D01*
X105070395Y-147200000D01*
X105429605Y-147200000D01*
X106278397Y-148048792D01*
X106520000Y-147973486D01*
X106761603Y-148048792D01*
X107610395Y-147200000D01*
X107969605Y-147200000D01*
X108818397Y-148048792D01*
X109067472Y-147971157D01*
X109193371Y-147707117D01*
X109265339Y-147423589D01*
X109280611Y-147131469D01*
X109238599Y-146841981D01*
X109140919Y-146566253D01*
X109067472Y-146428843D01*
X108818397Y-146351208D01*
X107969605Y-147200000D01*
X107610395Y-147200000D01*
X106761603Y-146351208D01*
X106520000Y-146426514D01*
X106278397Y-146351208D01*
X105429605Y-147200000D01*
X105070395Y-147200000D01*
X104221603Y-146351208D01*
X103972528Y-146428843D01*
X103846629Y-146692883D01*
X103774661Y-146976411D01*
X103759389Y-147268531D01*
X97100000Y-147268531D01*
X97100000Y-145688397D01*
X104401208Y-145688397D01*
X104476514Y-145930000D01*
X104401208Y-146171603D01*
X105250000Y-147020395D01*
X106098792Y-146171603D01*
X106023486Y-145930000D01*
X106098792Y-145688397D01*
X106941208Y-145688397D01*
X107016514Y-145930000D01*
X106941208Y-146171603D01*
X107790000Y-147020395D01*
X108638792Y-146171603D01*
X108563486Y-145930000D01*
X108638792Y-145688397D01*
X107790000Y-144839605D01*
X106941208Y-145688397D01*
X106098792Y-145688397D01*
X105250000Y-144839605D01*
X104401208Y-145688397D01*
X97100000Y-145688397D01*
X97100000Y-144728531D01*
X103759389Y-144728531D01*
X103801401Y-145018019D01*
X103899081Y-145293747D01*
X103972528Y-145431157D01*
X104221603Y-145508792D01*
X105070395Y-144660000D01*
X104221603Y-143811208D01*
X103972528Y-143888843D01*
X103846629Y-144152883D01*
X103774661Y-144436411D01*
X103759389Y-144728531D01*
X97100000Y-144728531D01*
X97100000Y-142120000D01*
X103607089Y-142120000D01*
X103638657Y-142440516D01*
X103732148Y-142748715D01*
X103883969Y-143032752D01*
X104088286Y-143281714D01*
X104337248Y-143486031D01*
X104430968Y-143536125D01*
X104401208Y-143631603D01*
X105250000Y-144480395D01*
X105264143Y-144466253D01*
X105443748Y-144645858D01*
X105429605Y-144660000D01*
X106278397Y-145508792D01*
X106520000Y-145433486D01*
X106761603Y-145508792D01*
X107610395Y-144660000D01*
X107969605Y-144660000D01*
X108818397Y-145508792D01*
X109067472Y-145431157D01*
X109193371Y-145167117D01*
X109265339Y-144883589D01*
X109280611Y-144591469D01*
X109238599Y-144301981D01*
X109174212Y-144120231D01*
X113184000Y-144120231D01*
X113184000Y-145543770D01*
X113212505Y-145833187D01*
X113325153Y-146204534D01*
X113508081Y-146546768D01*
X113754261Y-146846740D01*
X114054233Y-147092920D01*
X114342496Y-147247000D01*
X114054232Y-147401080D01*
X113754260Y-147647260D01*
X113508080Y-147947232D01*
X113325152Y-148289467D01*
X113212505Y-148660814D01*
X113184000Y-148950231D01*
X113184000Y-150373770D01*
X113212505Y-150663187D01*
X113325153Y-151034534D01*
X113508081Y-151376768D01*
X113754261Y-151676740D01*
X114054233Y-151922920D01*
X114396467Y-152105848D01*
X114767814Y-152218495D01*
X115154000Y-152256531D01*
X115540187Y-152218495D01*
X115911534Y-152105848D01*
X116253768Y-151922920D01*
X116553740Y-151676740D01*
X116799920Y-151376768D01*
X116982848Y-151034534D01*
X117095495Y-150663186D01*
X117124000Y-150373769D01*
X117124000Y-148950230D01*
X117095495Y-148660813D01*
X116982848Y-148289466D01*
X116799920Y-147947232D01*
X116553740Y-147647260D01*
X116253768Y-147401080D01*
X115965504Y-147247000D01*
X116253768Y-147092920D01*
X116553740Y-146846740D01*
X116799920Y-146546768D01*
X116982848Y-146204534D01*
X117095495Y-145833186D01*
X117124000Y-145543769D01*
X117124000Y-144120231D01*
X117884000Y-144120231D01*
X117884000Y-145543770D01*
X117912505Y-145833187D01*
X118025153Y-146204534D01*
X118208081Y-146546768D01*
X118454261Y-146846740D01*
X118754233Y-147092920D01*
X119042496Y-147247000D01*
X118754232Y-147401080D01*
X118454260Y-147647260D01*
X118208080Y-147947232D01*
X118025152Y-148289467D01*
X117912505Y-148660814D01*
X117884000Y-148950231D01*
X117884000Y-150373770D01*
X117912505Y-150663187D01*
X118025153Y-151034534D01*
X118208081Y-151376768D01*
X118454261Y-151676740D01*
X118754233Y-151922920D01*
X119096467Y-152105848D01*
X119467814Y-152218495D01*
X119854000Y-152256531D01*
X120240187Y-152218495D01*
X120611534Y-152105848D01*
X120953768Y-151922920D01*
X121253740Y-151676740D01*
X121499920Y-151376768D01*
X121682848Y-151034534D01*
X121795495Y-150663186D01*
X121824000Y-150373769D01*
X121824000Y-148950230D01*
X121795495Y-148660813D01*
X121682848Y-148289466D01*
X121499920Y-147947232D01*
X121306871Y-147712000D01*
X122580928Y-147712000D01*
X122580928Y-151612000D01*
X122593188Y-151736482D01*
X122629498Y-151856180D01*
X122688463Y-151966494D01*
X122767815Y-152063185D01*
X122864506Y-152142537D01*
X122974820Y-152201502D01*
X123094518Y-152237812D01*
X123219000Y-152250072D01*
X125889000Y-152250072D01*
X126013482Y-152237812D01*
X126133180Y-152201502D01*
X126243494Y-152142537D01*
X126340185Y-152063185D01*
X126419537Y-151966494D01*
X126478502Y-151856180D01*
X126514812Y-151736482D01*
X126527072Y-151612000D01*
X126527072Y-150684894D01*
X128940033Y-149808531D01*
X143829389Y-149808531D01*
X143871401Y-150098019D01*
X143969081Y-150373747D01*
X144042528Y-150511157D01*
X144291603Y-150588792D01*
X145140395Y-149740000D01*
X144291603Y-148891208D01*
X144042528Y-148968843D01*
X143916629Y-149232883D01*
X143844661Y-149516411D01*
X143829389Y-149808531D01*
X128940033Y-149808531D01*
X133290744Y-148228397D01*
X144471208Y-148228397D01*
X144546514Y-148470000D01*
X144471208Y-148711603D01*
X145320000Y-149560395D01*
X146168792Y-148711603D01*
X146093486Y-148470000D01*
X146168792Y-148228397D01*
X147011208Y-148228397D01*
X147086514Y-148470000D01*
X147011208Y-148711603D01*
X147860000Y-149560395D01*
X148708792Y-148711603D01*
X148633486Y-148470000D01*
X148708792Y-148228397D01*
X167471208Y-148228397D01*
X167546514Y-148470000D01*
X167471208Y-148711603D01*
X168320000Y-149560395D01*
X169168792Y-148711603D01*
X169093486Y-148470000D01*
X169168792Y-148228397D01*
X170011208Y-148228397D01*
X170086514Y-148470000D01*
X170011208Y-148711603D01*
X170860000Y-149560395D01*
X171708792Y-148711603D01*
X171633486Y-148470000D01*
X171708792Y-148228397D01*
X170860000Y-147379605D01*
X170011208Y-148228397D01*
X169168792Y-148228397D01*
X168320000Y-147379605D01*
X167471208Y-148228397D01*
X148708792Y-148228397D01*
X147860000Y-147379605D01*
X147011208Y-148228397D01*
X146168792Y-148228397D01*
X145320000Y-147379605D01*
X144471208Y-148228397D01*
X133290744Y-148228397D01*
X135933622Y-147268531D01*
X143829389Y-147268531D01*
X143871401Y-147558019D01*
X143969081Y-147833747D01*
X144042528Y-147971157D01*
X144291603Y-148048792D01*
X145140395Y-147200000D01*
X145499605Y-147200000D01*
X146348397Y-148048792D01*
X146590000Y-147973486D01*
X146831603Y-148048792D01*
X147680395Y-147200000D01*
X148039605Y-147200000D01*
X148888397Y-148048792D01*
X149137472Y-147971157D01*
X149263371Y-147707117D01*
X149335339Y-147423589D01*
X149343445Y-147268531D01*
X166829389Y-147268531D01*
X166871401Y-147558019D01*
X166969081Y-147833747D01*
X167042528Y-147971157D01*
X167291603Y-148048792D01*
X168140395Y-147200000D01*
X168499605Y-147200000D01*
X169348397Y-148048792D01*
X169590000Y-147973486D01*
X169831603Y-148048792D01*
X170680395Y-147200000D01*
X171039605Y-147200000D01*
X171888397Y-148048792D01*
X172137472Y-147971157D01*
X172263371Y-147707117D01*
X172335339Y-147423589D01*
X172348519Y-147171484D01*
X177898390Y-147171484D01*
X177963051Y-147845023D01*
X178157870Y-148493006D01*
X178475361Y-149090530D01*
X178484823Y-149104692D01*
X178933519Y-149416876D01*
X181170395Y-147180000D01*
X181529605Y-147180000D01*
X183766481Y-149416876D01*
X184215177Y-149104692D01*
X184535612Y-148508741D01*
X184621409Y-148228397D01*
X190471208Y-148228397D01*
X190546514Y-148470000D01*
X190471208Y-148711603D01*
X191320000Y-149560395D01*
X192168792Y-148711603D01*
X192093486Y-148470000D01*
X192168792Y-148228397D01*
X193011208Y-148228397D01*
X193086514Y-148470000D01*
X193011208Y-148711603D01*
X193860000Y-149560395D01*
X194708792Y-148711603D01*
X194633486Y-148470000D01*
X194708792Y-148228397D01*
X213471208Y-148228397D01*
X213546514Y-148470000D01*
X213471208Y-148711603D01*
X214320000Y-149560395D01*
X215168792Y-148711603D01*
X215093486Y-148470000D01*
X215168792Y-148228397D01*
X216011208Y-148228397D01*
X216086514Y-148470000D01*
X216011208Y-148711603D01*
X216860000Y-149560395D01*
X217708792Y-148711603D01*
X217633486Y-148470000D01*
X217708792Y-148228397D01*
X236471208Y-148228397D01*
X236546514Y-148470000D01*
X236471208Y-148711603D01*
X237320000Y-149560395D01*
X238168792Y-148711603D01*
X238093486Y-148470000D01*
X238168792Y-148228397D01*
X239011208Y-148228397D01*
X239086514Y-148470000D01*
X239011208Y-148711603D01*
X239860000Y-149560395D01*
X240708792Y-148711603D01*
X240633486Y-148470000D01*
X240708792Y-148228397D01*
X239860000Y-147379605D01*
X239011208Y-148228397D01*
X238168792Y-148228397D01*
X237320000Y-147379605D01*
X236471208Y-148228397D01*
X217708792Y-148228397D01*
X216860000Y-147379605D01*
X216011208Y-148228397D01*
X215168792Y-148228397D01*
X214320000Y-147379605D01*
X213471208Y-148228397D01*
X194708792Y-148228397D01*
X193860000Y-147379605D01*
X193011208Y-148228397D01*
X192168792Y-148228397D01*
X191320000Y-147379605D01*
X190471208Y-148228397D01*
X184621409Y-148228397D01*
X184733626Y-147861727D01*
X184793529Y-147268531D01*
X189829389Y-147268531D01*
X189871401Y-147558019D01*
X189969081Y-147833747D01*
X190042528Y-147971157D01*
X190291603Y-148048792D01*
X191140395Y-147200000D01*
X191499605Y-147200000D01*
X192348397Y-148048792D01*
X192590000Y-147973486D01*
X192831603Y-148048792D01*
X193680395Y-147200000D01*
X194039605Y-147200000D01*
X194888397Y-148048792D01*
X195137472Y-147971157D01*
X195263371Y-147707117D01*
X195335339Y-147423589D01*
X195343445Y-147268531D01*
X212829389Y-147268531D01*
X212871401Y-147558019D01*
X212969081Y-147833747D01*
X213042528Y-147971157D01*
X213291603Y-148048792D01*
X214140395Y-147200000D01*
X214499605Y-147200000D01*
X215348397Y-148048792D01*
X215590000Y-147973486D01*
X215831603Y-148048792D01*
X216680395Y-147200000D01*
X217039605Y-147200000D01*
X217888397Y-148048792D01*
X218137472Y-147971157D01*
X218263371Y-147707117D01*
X218335339Y-147423589D01*
X218343445Y-147268531D01*
X235829389Y-147268531D01*
X235871401Y-147558019D01*
X235969081Y-147833747D01*
X236042528Y-147971157D01*
X236291603Y-148048792D01*
X237140395Y-147200000D01*
X237499605Y-147200000D01*
X238348397Y-148048792D01*
X238590000Y-147973486D01*
X238831603Y-148048792D01*
X239680395Y-147200000D01*
X240039605Y-147200000D01*
X240888397Y-148048792D01*
X241137472Y-147971157D01*
X241263371Y-147707117D01*
X241335339Y-147423589D01*
X241347473Y-147191484D01*
X246388390Y-147191484D01*
X246453051Y-147865023D01*
X246647870Y-148513006D01*
X246965361Y-149110530D01*
X246974823Y-149124692D01*
X247423519Y-149436876D01*
X249660395Y-147200000D01*
X250019605Y-147200000D01*
X252256481Y-149436876D01*
X252705177Y-149124692D01*
X253025612Y-148528741D01*
X253117530Y-148228397D01*
X259471208Y-148228397D01*
X259546514Y-148470000D01*
X259471208Y-148711603D01*
X260320000Y-149560395D01*
X261168792Y-148711603D01*
X261093486Y-148470000D01*
X261168792Y-148228397D01*
X262011208Y-148228397D01*
X262086514Y-148470000D01*
X262011208Y-148711603D01*
X262860000Y-149560395D01*
X263708792Y-148711603D01*
X263633486Y-148470000D01*
X263708792Y-148228397D01*
X262860000Y-147379605D01*
X262011208Y-148228397D01*
X261168792Y-148228397D01*
X260320000Y-147379605D01*
X259471208Y-148228397D01*
X253117530Y-148228397D01*
X253223626Y-147881727D01*
X253285549Y-147268531D01*
X258829389Y-147268531D01*
X258871401Y-147558019D01*
X258969081Y-147833747D01*
X259042528Y-147971157D01*
X259291603Y-148048792D01*
X260140395Y-147200000D01*
X260499605Y-147200000D01*
X261348397Y-148048792D01*
X261590000Y-147973486D01*
X261831603Y-148048792D01*
X262680395Y-147200000D01*
X263039605Y-147200000D01*
X263888397Y-148048792D01*
X264137472Y-147971157D01*
X264263371Y-147707117D01*
X264335339Y-147423589D01*
X264350611Y-147131469D01*
X264308599Y-146841981D01*
X264210919Y-146566253D01*
X264137472Y-146428843D01*
X263888397Y-146351208D01*
X263039605Y-147200000D01*
X262680395Y-147200000D01*
X261831603Y-146351208D01*
X261590000Y-146426514D01*
X261348397Y-146351208D01*
X260499605Y-147200000D01*
X260140395Y-147200000D01*
X259291603Y-146351208D01*
X259042528Y-146428843D01*
X258916629Y-146692883D01*
X258844661Y-146976411D01*
X258829389Y-147268531D01*
X253285549Y-147268531D01*
X253291610Y-147208516D01*
X253226949Y-146534977D01*
X253032130Y-145886994D01*
X252926607Y-145688397D01*
X259471208Y-145688397D01*
X259546514Y-145930000D01*
X259471208Y-146171603D01*
X260320000Y-147020395D01*
X261168792Y-146171603D01*
X261093486Y-145930000D01*
X261168792Y-145688397D01*
X262011208Y-145688397D01*
X262086514Y-145930000D01*
X262011208Y-146171603D01*
X262860000Y-147020395D01*
X263708792Y-146171603D01*
X263633486Y-145930000D01*
X263708792Y-145688397D01*
X262860000Y-144839605D01*
X262011208Y-145688397D01*
X261168792Y-145688397D01*
X260320000Y-144839605D01*
X259471208Y-145688397D01*
X252926607Y-145688397D01*
X252714639Y-145289470D01*
X252705177Y-145275308D01*
X252256481Y-144963124D01*
X250019605Y-147200000D01*
X249660395Y-147200000D01*
X247423519Y-144963124D01*
X246974823Y-145275308D01*
X246654388Y-145871259D01*
X246456374Y-146518273D01*
X246388390Y-147191484D01*
X241347473Y-147191484D01*
X241350611Y-147131469D01*
X241308599Y-146841981D01*
X241210919Y-146566253D01*
X241137472Y-146428843D01*
X240888397Y-146351208D01*
X240039605Y-147200000D01*
X239680395Y-147200000D01*
X238831603Y-146351208D01*
X238590000Y-146426514D01*
X238348397Y-146351208D01*
X237499605Y-147200000D01*
X237140395Y-147200000D01*
X236291603Y-146351208D01*
X236042528Y-146428843D01*
X235916629Y-146692883D01*
X235844661Y-146976411D01*
X235829389Y-147268531D01*
X218343445Y-147268531D01*
X218350611Y-147131469D01*
X218308599Y-146841981D01*
X218210919Y-146566253D01*
X218137472Y-146428843D01*
X217888397Y-146351208D01*
X217039605Y-147200000D01*
X216680395Y-147200000D01*
X215831603Y-146351208D01*
X215590000Y-146426514D01*
X215348397Y-146351208D01*
X214499605Y-147200000D01*
X214140395Y-147200000D01*
X213291603Y-146351208D01*
X213042528Y-146428843D01*
X212916629Y-146692883D01*
X212844661Y-146976411D01*
X212829389Y-147268531D01*
X195343445Y-147268531D01*
X195350611Y-147131469D01*
X195308599Y-146841981D01*
X195210919Y-146566253D01*
X195137472Y-146428843D01*
X194888397Y-146351208D01*
X194039605Y-147200000D01*
X193680395Y-147200000D01*
X192831603Y-146351208D01*
X192590000Y-146426514D01*
X192348397Y-146351208D01*
X191499605Y-147200000D01*
X191140395Y-147200000D01*
X190291603Y-146351208D01*
X190042528Y-146428843D01*
X189916629Y-146692883D01*
X189844661Y-146976411D01*
X189829389Y-147268531D01*
X184793529Y-147268531D01*
X184801610Y-147188516D01*
X184736949Y-146514977D01*
X184542130Y-145866994D01*
X184447234Y-145688397D01*
X190471208Y-145688397D01*
X190546514Y-145930000D01*
X190471208Y-146171603D01*
X191320000Y-147020395D01*
X192168792Y-146171603D01*
X192093486Y-145930000D01*
X192168792Y-145688397D01*
X193011208Y-145688397D01*
X193086514Y-145930000D01*
X193011208Y-146171603D01*
X193860000Y-147020395D01*
X194708792Y-146171603D01*
X194633486Y-145930000D01*
X194708792Y-145688397D01*
X213471208Y-145688397D01*
X213546514Y-145930000D01*
X213471208Y-146171603D01*
X214320000Y-147020395D01*
X215168792Y-146171603D01*
X215093486Y-145930000D01*
X215168792Y-145688397D01*
X216011208Y-145688397D01*
X216086514Y-145930000D01*
X216011208Y-146171603D01*
X216860000Y-147020395D01*
X217708792Y-146171603D01*
X217633486Y-145930000D01*
X217708792Y-145688397D01*
X236471208Y-145688397D01*
X236546514Y-145930000D01*
X236471208Y-146171603D01*
X237320000Y-147020395D01*
X238168792Y-146171603D01*
X238093486Y-145930000D01*
X238168792Y-145688397D01*
X239011208Y-145688397D01*
X239086514Y-145930000D01*
X239011208Y-146171603D01*
X239860000Y-147020395D01*
X240708792Y-146171603D01*
X240633486Y-145930000D01*
X240708792Y-145688397D01*
X239860000Y-144839605D01*
X239011208Y-145688397D01*
X238168792Y-145688397D01*
X237320000Y-144839605D01*
X236471208Y-145688397D01*
X217708792Y-145688397D01*
X216860000Y-144839605D01*
X216011208Y-145688397D01*
X215168792Y-145688397D01*
X214320000Y-144839605D01*
X213471208Y-145688397D01*
X194708792Y-145688397D01*
X193860000Y-144839605D01*
X193011208Y-145688397D01*
X192168792Y-145688397D01*
X191320000Y-144839605D01*
X190471208Y-145688397D01*
X184447234Y-145688397D01*
X184224639Y-145269470D01*
X184215177Y-145255308D01*
X183766481Y-144943124D01*
X181529605Y-147180000D01*
X181170395Y-147180000D01*
X178933519Y-144943124D01*
X178484823Y-145255308D01*
X178164388Y-145851259D01*
X177966374Y-146498273D01*
X177898390Y-147171484D01*
X172348519Y-147171484D01*
X172350611Y-147131469D01*
X172308599Y-146841981D01*
X172210919Y-146566253D01*
X172137472Y-146428843D01*
X171888397Y-146351208D01*
X171039605Y-147200000D01*
X170680395Y-147200000D01*
X169831603Y-146351208D01*
X169590000Y-146426514D01*
X169348397Y-146351208D01*
X168499605Y-147200000D01*
X168140395Y-147200000D01*
X167291603Y-146351208D01*
X167042528Y-146428843D01*
X166916629Y-146692883D01*
X166844661Y-146976411D01*
X166829389Y-147268531D01*
X149343445Y-147268531D01*
X149350611Y-147131469D01*
X149308599Y-146841981D01*
X149210919Y-146566253D01*
X149137472Y-146428843D01*
X148888397Y-146351208D01*
X148039605Y-147200000D01*
X147680395Y-147200000D01*
X146831603Y-146351208D01*
X146590000Y-146426514D01*
X146348397Y-146351208D01*
X145499605Y-147200000D01*
X145140395Y-147200000D01*
X144291603Y-146351208D01*
X144042528Y-146428843D01*
X143916629Y-146692883D01*
X143844661Y-146976411D01*
X143829389Y-147268531D01*
X135933622Y-147268531D01*
X140284333Y-145688397D01*
X144471208Y-145688397D01*
X144546514Y-145930000D01*
X144471208Y-146171603D01*
X145320000Y-147020395D01*
X146168792Y-146171603D01*
X146093486Y-145930000D01*
X146168792Y-145688397D01*
X147011208Y-145688397D01*
X147086514Y-145930000D01*
X147011208Y-146171603D01*
X147860000Y-147020395D01*
X148708792Y-146171603D01*
X148633486Y-145930000D01*
X148708792Y-145688397D01*
X167471208Y-145688397D01*
X167546514Y-145930000D01*
X167471208Y-146171603D01*
X168320000Y-147020395D01*
X169168792Y-146171603D01*
X169093486Y-145930000D01*
X169168792Y-145688397D01*
X170011208Y-145688397D01*
X170086514Y-145930000D01*
X170011208Y-146171603D01*
X170860000Y-147020395D01*
X171708792Y-146171603D01*
X171633486Y-145930000D01*
X171708792Y-145688397D01*
X170860000Y-144839605D01*
X170011208Y-145688397D01*
X169168792Y-145688397D01*
X168320000Y-144839605D01*
X167471208Y-145688397D01*
X148708792Y-145688397D01*
X147860000Y-144839605D01*
X147011208Y-145688397D01*
X146168792Y-145688397D01*
X145320000Y-144839605D01*
X144471208Y-145688397D01*
X140284333Y-145688397D01*
X143856150Y-144391150D01*
X143844661Y-144436411D01*
X143829389Y-144728531D01*
X143871401Y-145018019D01*
X143969081Y-145293747D01*
X144042528Y-145431157D01*
X144291603Y-145508792D01*
X145140395Y-144660000D01*
X145126253Y-144645858D01*
X145305858Y-144466253D01*
X145320000Y-144480395D01*
X145334143Y-144466253D01*
X145513748Y-144645858D01*
X145499605Y-144660000D01*
X146348397Y-145508792D01*
X146590000Y-145433486D01*
X146831603Y-145508792D01*
X147680395Y-144660000D01*
X147666253Y-144645858D01*
X147845858Y-144466253D01*
X147860000Y-144480395D01*
X147874143Y-144466253D01*
X148053748Y-144645858D01*
X148039605Y-144660000D01*
X148888397Y-145508792D01*
X149137472Y-145431157D01*
X149263371Y-145167117D01*
X149335339Y-144883589D01*
X149350611Y-144591469D01*
X149308599Y-144301981D01*
X149210919Y-144026253D01*
X149137472Y-143888843D01*
X148888399Y-143811209D01*
X148944608Y-143755000D01*
X167235392Y-143755000D01*
X167291601Y-143811209D01*
X167042528Y-143888843D01*
X166916629Y-144152883D01*
X166844661Y-144436411D01*
X166829389Y-144728531D01*
X166871401Y-145018019D01*
X166969081Y-145293747D01*
X167042528Y-145431157D01*
X167291603Y-145508792D01*
X168140395Y-144660000D01*
X168126253Y-144645858D01*
X168305858Y-144466253D01*
X168320000Y-144480395D01*
X168334143Y-144466253D01*
X168513748Y-144645858D01*
X168499605Y-144660000D01*
X169348397Y-145508792D01*
X169590000Y-145433486D01*
X169831603Y-145508792D01*
X170680395Y-144660000D01*
X170666253Y-144645858D01*
X170845858Y-144466253D01*
X170860000Y-144480395D01*
X170874143Y-144466253D01*
X171053748Y-144645858D01*
X171039605Y-144660000D01*
X171888397Y-145508792D01*
X172137472Y-145431157D01*
X172263371Y-145167117D01*
X172335339Y-144883589D01*
X172350611Y-144591469D01*
X172308599Y-144301981D01*
X172210919Y-144026253D01*
X172137472Y-143888843D01*
X171888399Y-143811209D01*
X171944608Y-143755000D01*
X181081334Y-143755000D01*
X180684977Y-143793051D01*
X180036994Y-143987870D01*
X179439470Y-144305361D01*
X179425308Y-144314823D01*
X179113124Y-144763519D01*
X181350000Y-147000395D01*
X183586876Y-144763519D01*
X183274692Y-144314823D01*
X182678741Y-143994388D01*
X182031727Y-143796374D01*
X181622021Y-143755000D01*
X190235392Y-143755000D01*
X190291601Y-143811209D01*
X190042528Y-143888843D01*
X189916629Y-144152883D01*
X189844661Y-144436411D01*
X189829389Y-144728531D01*
X189871401Y-145018019D01*
X189969081Y-145293747D01*
X190042528Y-145431157D01*
X190291603Y-145508792D01*
X191140395Y-144660000D01*
X191126253Y-144645858D01*
X191305858Y-144466253D01*
X191320000Y-144480395D01*
X191334143Y-144466253D01*
X191513748Y-144645858D01*
X191499605Y-144660000D01*
X192348397Y-145508792D01*
X192590000Y-145433486D01*
X192831603Y-145508792D01*
X193680395Y-144660000D01*
X193666253Y-144645858D01*
X193845858Y-144466253D01*
X193860000Y-144480395D01*
X193874143Y-144466253D01*
X194053748Y-144645858D01*
X194039605Y-144660000D01*
X194888397Y-145508792D01*
X195137472Y-145431157D01*
X195263371Y-145167117D01*
X195335339Y-144883589D01*
X195350611Y-144591469D01*
X195308599Y-144301981D01*
X195210919Y-144026253D01*
X195137472Y-143888843D01*
X194888399Y-143811209D01*
X194944608Y-143755000D01*
X213235392Y-143755000D01*
X213291601Y-143811209D01*
X213042528Y-143888843D01*
X212916629Y-144152883D01*
X212844661Y-144436411D01*
X212829389Y-144728531D01*
X212871401Y-145018019D01*
X212969081Y-145293747D01*
X213042528Y-145431157D01*
X213291603Y-145508792D01*
X214140395Y-144660000D01*
X214126253Y-144645858D01*
X214305858Y-144466253D01*
X214320000Y-144480395D01*
X214334143Y-144466253D01*
X214513748Y-144645858D01*
X214499605Y-144660000D01*
X215348397Y-145508792D01*
X215590000Y-145433486D01*
X215831603Y-145508792D01*
X216680395Y-144660000D01*
X216666253Y-144645858D01*
X216845858Y-144466253D01*
X216860000Y-144480395D01*
X216874143Y-144466253D01*
X217053748Y-144645858D01*
X217039605Y-144660000D01*
X217888397Y-145508792D01*
X218137472Y-145431157D01*
X218263371Y-145167117D01*
X218335339Y-144883589D01*
X218350611Y-144591469D01*
X218308599Y-144301981D01*
X218210919Y-144026253D01*
X218137472Y-143888843D01*
X217888399Y-143811209D01*
X217944608Y-143755000D01*
X236235392Y-143755000D01*
X236291601Y-143811209D01*
X236042528Y-143888843D01*
X235916629Y-144152883D01*
X235844661Y-144436411D01*
X235829389Y-144728531D01*
X235871401Y-145018019D01*
X235969081Y-145293747D01*
X236042528Y-145431157D01*
X236291603Y-145508792D01*
X237140395Y-144660000D01*
X237126253Y-144645858D01*
X237305858Y-144466253D01*
X237320000Y-144480395D01*
X237334143Y-144466253D01*
X237513748Y-144645858D01*
X237499605Y-144660000D01*
X238348397Y-145508792D01*
X238590000Y-145433486D01*
X238831603Y-145508792D01*
X239680395Y-144660000D01*
X239666253Y-144645858D01*
X239845858Y-144466253D01*
X239860000Y-144480395D01*
X239874143Y-144466253D01*
X240053748Y-144645858D01*
X240039605Y-144660000D01*
X240888397Y-145508792D01*
X241137472Y-145431157D01*
X241263371Y-145167117D01*
X241335339Y-144883589D01*
X241350611Y-144591469D01*
X241308599Y-144301981D01*
X241210919Y-144026253D01*
X241137472Y-143888843D01*
X240888399Y-143811209D01*
X240944608Y-143755000D01*
X249779663Y-143755000D01*
X249174977Y-143813051D01*
X248526994Y-144007870D01*
X247929470Y-144325361D01*
X247915308Y-144334823D01*
X247603124Y-144783519D01*
X249840000Y-147020395D01*
X252076876Y-144783519D01*
X251764692Y-144334823D01*
X251168741Y-144014388D01*
X250521727Y-143816374D01*
X249913971Y-143755000D01*
X259235392Y-143755000D01*
X259291601Y-143811209D01*
X259042528Y-143888843D01*
X258916629Y-144152883D01*
X258844661Y-144436411D01*
X258829389Y-144728531D01*
X258871401Y-145018019D01*
X258969081Y-145293747D01*
X259042528Y-145431157D01*
X259291603Y-145508792D01*
X260140395Y-144660000D01*
X260126253Y-144645858D01*
X260305858Y-144466253D01*
X260320000Y-144480395D01*
X260334143Y-144466253D01*
X260513748Y-144645858D01*
X260499605Y-144660000D01*
X261348397Y-145508792D01*
X261590000Y-145433486D01*
X261831603Y-145508792D01*
X262680395Y-144660000D01*
X263039605Y-144660000D01*
X263888397Y-145508792D01*
X264137472Y-145431157D01*
X264263371Y-145167117D01*
X264335339Y-144883589D01*
X264350611Y-144591469D01*
X264308599Y-144301981D01*
X264210919Y-144026253D01*
X264137472Y-143888843D01*
X263888397Y-143811208D01*
X263039605Y-144660000D01*
X262680395Y-144660000D01*
X262666253Y-144645858D01*
X262845858Y-144466253D01*
X262860000Y-144480395D01*
X263708792Y-143631603D01*
X263679032Y-143536125D01*
X263772752Y-143486031D01*
X264021714Y-143281714D01*
X264226031Y-143032752D01*
X264377852Y-142748715D01*
X264471343Y-142440516D01*
X264502911Y-142120000D01*
X264471343Y-141799484D01*
X264377852Y-141491285D01*
X264226031Y-141207248D01*
X264021714Y-140958286D01*
X263772752Y-140753969D01*
X263488715Y-140602148D01*
X263180516Y-140508657D01*
X262940322Y-140485000D01*
X145436685Y-140485000D01*
X145392794Y-140478703D01*
X145275978Y-140485000D01*
X145239678Y-140485000D01*
X145195790Y-140489323D01*
X145071193Y-140496039D01*
X145035823Y-140505078D01*
X144999484Y-140508657D01*
X144880056Y-140544885D01*
X144837353Y-140555798D01*
X144803250Y-140568184D01*
X144691285Y-140602148D01*
X144652175Y-140623053D01*
X144593409Y-140644396D01*
X144546746Y-140648992D01*
X144380150Y-140699528D01*
X144249861Y-140769169D01*
X126348383Y-147270805D01*
X126340185Y-147260815D01*
X126243494Y-147181463D01*
X126133180Y-147122498D01*
X126013482Y-147086188D01*
X125889000Y-147073928D01*
X125676910Y-147073928D01*
X125953740Y-146846740D01*
X126199920Y-146546768D01*
X126382848Y-146204534D01*
X126495495Y-145833186D01*
X126524000Y-145543769D01*
X126524000Y-144120230D01*
X126495495Y-143830813D01*
X126382848Y-143459466D01*
X126199920Y-143117232D01*
X125953740Y-142817260D01*
X125653768Y-142571080D01*
X125311533Y-142388152D01*
X124940186Y-142275505D01*
X124554000Y-142237469D01*
X124167813Y-142275505D01*
X123796466Y-142388152D01*
X123454232Y-142571080D01*
X123154260Y-142817260D01*
X122908080Y-143117232D01*
X122725152Y-143459467D01*
X122612505Y-143830814D01*
X122584000Y-144120231D01*
X122584000Y-145543770D01*
X122612505Y-145833187D01*
X122725153Y-146204534D01*
X122908081Y-146546768D01*
X123154261Y-146846740D01*
X123431091Y-147073928D01*
X123219000Y-147073928D01*
X123094518Y-147086188D01*
X122974820Y-147122498D01*
X122864506Y-147181463D01*
X122767815Y-147260815D01*
X122688463Y-147357506D01*
X122629498Y-147467820D01*
X122593188Y-147587518D01*
X122580928Y-147712000D01*
X121306871Y-147712000D01*
X121253740Y-147647260D01*
X120953768Y-147401080D01*
X120665504Y-147247000D01*
X120953768Y-147092920D01*
X121253740Y-146846740D01*
X121499920Y-146546768D01*
X121682848Y-146204534D01*
X121795495Y-145833186D01*
X121824000Y-145543769D01*
X121824000Y-144120230D01*
X121795495Y-143830813D01*
X121682848Y-143459466D01*
X121499920Y-143117232D01*
X121253740Y-142817260D01*
X120953768Y-142571080D01*
X120611533Y-142388152D01*
X120240186Y-142275505D01*
X119854000Y-142237469D01*
X119467813Y-142275505D01*
X119096466Y-142388152D01*
X118754232Y-142571080D01*
X118454260Y-142817260D01*
X118208080Y-143117232D01*
X118025152Y-143459467D01*
X117912505Y-143830814D01*
X117884000Y-144120231D01*
X117124000Y-144120231D01*
X117124000Y-144120230D01*
X117095495Y-143830813D01*
X116982848Y-143459466D01*
X116799920Y-143117232D01*
X116553740Y-142817260D01*
X116253768Y-142571080D01*
X115911533Y-142388152D01*
X115540186Y-142275505D01*
X115154000Y-142237469D01*
X114767813Y-142275505D01*
X114396466Y-142388152D01*
X114054232Y-142571080D01*
X113754260Y-142817260D01*
X113508080Y-143117232D01*
X113325152Y-143459467D01*
X113212505Y-143830814D01*
X113184000Y-144120231D01*
X109174212Y-144120231D01*
X109140919Y-144026253D01*
X109067472Y-143888843D01*
X108818397Y-143811208D01*
X107969605Y-144660000D01*
X107610395Y-144660000D01*
X107596253Y-144645858D01*
X107775858Y-144466253D01*
X107790000Y-144480395D01*
X108638792Y-143631603D01*
X108609032Y-143536125D01*
X108702752Y-143486031D01*
X108951714Y-143281714D01*
X109156031Y-143032752D01*
X109307852Y-142748715D01*
X109401343Y-142440516D01*
X109432911Y-142120000D01*
X109401343Y-141799484D01*
X109307852Y-141491285D01*
X109156031Y-141207248D01*
X108951714Y-140958286D01*
X108702752Y-140753969D01*
X108437147Y-140612000D01*
X128081928Y-140612000D01*
X128094188Y-140736482D01*
X128130498Y-140856180D01*
X128189463Y-140966494D01*
X128268815Y-141063185D01*
X128365506Y-141142537D01*
X128475820Y-141201502D01*
X128595518Y-141237812D01*
X128720000Y-141250072D01*
X129334250Y-141247000D01*
X129493000Y-141088250D01*
X129493000Y-139839000D01*
X128243750Y-139839000D01*
X128085000Y-139997750D01*
X128081928Y-140612000D01*
X108437147Y-140612000D01*
X108418715Y-140602148D01*
X108110516Y-140508657D01*
X107870322Y-140485000D01*
X105169678Y-140485000D01*
X104929484Y-140508657D01*
X104621285Y-140602148D01*
X104337248Y-140753969D01*
X104088286Y-140958286D01*
X103883969Y-141207248D01*
X103732148Y-141491285D01*
X103638657Y-141799484D01*
X103607089Y-142120000D01*
X97100000Y-142120000D01*
X97100000Y-136870000D01*
X120273050Y-136870000D01*
X120100595Y-136904304D01*
G37*
%TD.AperFunction*%
%TD*%
M02*
