%TF.GenerationSoftware,KiCad,Pcbnew,(5.1.7)-1*%
%TF.CreationDate,2020-12-29T17:02:45+00:00*%
%TF.ProjectId,BussBar,42757373-4261-4722-9e6b-696361645f70,rev?*%
%TF.SameCoordinates,Original*%
%TF.FileFunction,Legend,Bot*%
%TF.FilePolarity,Positive*%
%FSLAX46Y46*%
G04 Gerber Fmt 4.6, Leading zero omitted, Abs format (unit mm)*
G04 Created by KiCad (PCBNEW (5.1.7)-1) date 2020-12-29 17:02:45*
%MOMM*%
%LPD*%
G01*
G04 APERTURE LIST*
%ADD10C,0.010000*%
%ADD11C,0.120000*%
%ADD12C,0.150000*%
G04 APERTURE END LIST*
D10*
%TO.C,GIJO1*%
G36*
X210943611Y-147330000D02*
G01*
X211120000Y-147153611D01*
X210943611Y-146977222D01*
X210767223Y-147153611D01*
X210943611Y-147330000D01*
G37*
X210943611Y-147330000D02*
X211120000Y-147153611D01*
X210943611Y-146977222D01*
X210767223Y-147153611D01*
X210943611Y-147330000D01*
G36*
X203829260Y-150740185D02*
G01*
X204038986Y-150691759D01*
X204064445Y-150505000D01*
X203935369Y-150214624D01*
X203829260Y-150269814D01*
X203787039Y-150688479D01*
X203829260Y-150740185D01*
G37*
X203829260Y-150740185D02*
X204038986Y-150691759D01*
X204064445Y-150505000D01*
X203935369Y-150214624D01*
X203829260Y-150269814D01*
X203787039Y-150688479D01*
X203829260Y-150740185D01*
G36*
X205299167Y-149093889D02*
G01*
X205475556Y-148917500D01*
X205299167Y-148741111D01*
X205122778Y-148917500D01*
X205299167Y-149093889D01*
G37*
X205299167Y-149093889D02*
X205475556Y-148917500D01*
X205299167Y-148741111D01*
X205122778Y-148917500D01*
X205299167Y-149093889D01*
G36*
X207415834Y-144860555D02*
G01*
X207592223Y-144684166D01*
X207415834Y-144507777D01*
X207239445Y-144684166D01*
X207415834Y-144860555D01*
G37*
X207415834Y-144860555D02*
X207592223Y-144684166D01*
X207415834Y-144507777D01*
X207239445Y-144684166D01*
X207415834Y-144860555D01*
G36*
X198734819Y-147952148D02*
G01*
X199100855Y-148740571D01*
X199435179Y-149540056D01*
X199982929Y-150371188D01*
X200753038Y-150943176D01*
X201528149Y-151137340D01*
X202003976Y-150942691D01*
X202220034Y-150386859D01*
X202341936Y-149397242D01*
X202352673Y-148726806D01*
X202311533Y-146900759D01*
X203628961Y-147127864D01*
X204437824Y-147253889D01*
X204619863Y-147215812D01*
X204241408Y-146981229D01*
X204092303Y-146901512D01*
X203303453Y-146347029D01*
X203213675Y-145867354D01*
X203825289Y-145426186D01*
X204196094Y-145277545D01*
X205420868Y-144631962D01*
X206502310Y-143715537D01*
X207215217Y-142733797D01*
X207336269Y-142411733D01*
X207413525Y-141996728D01*
X207231338Y-141951541D01*
X206639078Y-142277483D01*
X206404810Y-142419841D01*
X205544360Y-142870375D01*
X204884615Y-143090943D01*
X204824295Y-143095348D01*
X203760103Y-143260282D01*
X202379359Y-143678495D01*
X200971470Y-144241841D01*
X199825841Y-144842179D01*
X199474235Y-145094528D01*
X198624980Y-146098203D01*
X198458750Y-147148807D01*
X198734819Y-147952148D01*
G37*
X198734819Y-147952148D02*
X199100855Y-148740571D01*
X199435179Y-149540056D01*
X199982929Y-150371188D01*
X200753038Y-150943176D01*
X201528149Y-151137340D01*
X202003976Y-150942691D01*
X202220034Y-150386859D01*
X202341936Y-149397242D01*
X202352673Y-148726806D01*
X202311533Y-146900759D01*
X203628961Y-147127864D01*
X204437824Y-147253889D01*
X204619863Y-147215812D01*
X204241408Y-146981229D01*
X204092303Y-146901512D01*
X203303453Y-146347029D01*
X203213675Y-145867354D01*
X203825289Y-145426186D01*
X204196094Y-145277545D01*
X205420868Y-144631962D01*
X206502310Y-143715537D01*
X207215217Y-142733797D01*
X207336269Y-142411733D01*
X207413525Y-141996728D01*
X207231338Y-141951541D01*
X206639078Y-142277483D01*
X206404810Y-142419841D01*
X205544360Y-142870375D01*
X204884615Y-143090943D01*
X204824295Y-143095348D01*
X203760103Y-143260282D01*
X202379359Y-143678495D01*
X200971470Y-144241841D01*
X199825841Y-144842179D01*
X199474235Y-145094528D01*
X198624980Y-146098203D01*
X198458750Y-147148807D01*
X198734819Y-147952148D01*
G36*
X207889676Y-147809699D02*
G01*
X208151809Y-148374316D01*
X208340361Y-148591039D01*
X208577681Y-148708481D01*
X208572334Y-148512200D01*
X208313569Y-147837625D01*
X208286785Y-147770972D01*
X207987267Y-147163614D01*
X207813006Y-146977222D01*
X207742178Y-147238228D01*
X207889676Y-147809699D01*
G37*
X207889676Y-147809699D02*
X208151809Y-148374316D01*
X208340361Y-148591039D01*
X208577681Y-148708481D01*
X208572334Y-148512200D01*
X208313569Y-147837625D01*
X208286785Y-147770972D01*
X207987267Y-147163614D01*
X207813006Y-146977222D01*
X207742178Y-147238228D01*
X207889676Y-147809699D01*
G36*
X208826945Y-145918889D02*
G01*
X209003334Y-145742500D01*
X208826945Y-145566111D01*
X208650556Y-145742500D01*
X208826945Y-145918889D01*
G37*
X208826945Y-145918889D02*
X209003334Y-145742500D01*
X208826945Y-145566111D01*
X208650556Y-145742500D01*
X208826945Y-145918889D01*
G36*
X208300247Y-142191835D02*
G01*
X208915139Y-141737345D01*
X209807849Y-141004133D01*
X210304103Y-140526065D01*
X210367842Y-140360931D01*
X209963006Y-140566520D01*
X209412974Y-140939510D01*
X208564992Y-141622391D01*
X207919307Y-142272620D01*
X207913669Y-142279688D01*
X207880221Y-142432837D01*
X208300247Y-142191835D01*
G37*
X208300247Y-142191835D02*
X208915139Y-141737345D01*
X209807849Y-141004133D01*
X210304103Y-140526065D01*
X210367842Y-140360931D01*
X209963006Y-140566520D01*
X209412974Y-140939510D01*
X208564992Y-141622391D01*
X207919307Y-142272620D01*
X207913669Y-142279688D01*
X207880221Y-142432837D01*
X208300247Y-142191835D01*
G36*
X210952587Y-140163734D02*
G01*
X211208195Y-139966665D01*
X211756651Y-139451748D01*
X211754266Y-139221903D01*
X211692363Y-139216111D01*
X211397886Y-139457190D01*
X211075002Y-139833472D01*
X210769903Y-140251335D01*
X210952587Y-140163734D01*
G37*
X210952587Y-140163734D02*
X211208195Y-139966665D01*
X211756651Y-139451748D01*
X211754266Y-139221903D01*
X211692363Y-139216111D01*
X211397886Y-139457190D01*
X211075002Y-139833472D01*
X210769903Y-140251335D01*
X210952587Y-140163734D01*
G36*
X212766781Y-140470871D02*
G01*
X213041956Y-140409049D01*
X213538513Y-140124372D01*
X213455330Y-139940294D01*
X213257487Y-139921666D01*
X212779113Y-140177882D01*
X212709998Y-140270403D01*
X212766781Y-140470871D01*
G37*
X212766781Y-140470871D02*
X213041956Y-140409049D01*
X213538513Y-140124372D01*
X213455330Y-139940294D01*
X213257487Y-139921666D01*
X212779113Y-140177882D01*
X212709998Y-140270403D01*
X212766781Y-140470871D01*
G36*
X214551739Y-137794255D02*
G01*
X214808952Y-137926735D01*
X215306036Y-138017004D01*
X215209557Y-137780023D01*
X214977085Y-137614105D01*
X214515365Y-137505667D01*
X214432704Y-137549703D01*
X214551739Y-137794255D01*
G37*
X214551739Y-137794255D02*
X214808952Y-137926735D01*
X215306036Y-138017004D01*
X215209557Y-137780023D01*
X214977085Y-137614105D01*
X214515365Y-137505667D01*
X214432704Y-137549703D01*
X214551739Y-137794255D01*
G36*
X215882500Y-138510555D02*
G01*
X216058889Y-138334166D01*
X215882500Y-138157777D01*
X215706112Y-138334166D01*
X215882500Y-138510555D01*
G37*
X215882500Y-138510555D02*
X216058889Y-138334166D01*
X215882500Y-138157777D01*
X215706112Y-138334166D01*
X215882500Y-138510555D01*
G36*
X219939445Y-140936211D02*
G01*
X220794379Y-141586866D01*
X221511107Y-141976348D01*
X221713033Y-142023996D01*
X222396198Y-142227904D01*
X223045037Y-142593869D01*
X223741055Y-142967165D01*
X224170334Y-143034841D01*
X224159141Y-142825009D01*
X223720274Y-142538855D01*
X223008524Y-142175074D01*
X221924531Y-141602880D01*
X220821389Y-141010097D01*
X218704723Y-139862762D01*
X219939445Y-140936211D01*
G37*
X219939445Y-140936211D02*
X220794379Y-141586866D01*
X221511107Y-141976348D01*
X221713033Y-142023996D01*
X222396198Y-142227904D01*
X223045037Y-142593869D01*
X223741055Y-142967165D01*
X224170334Y-143034841D01*
X224159141Y-142825009D01*
X223720274Y-142538855D01*
X223008524Y-142175074D01*
X221924531Y-141602880D01*
X220821389Y-141010097D01*
X218704723Y-139862762D01*
X219939445Y-140936211D01*
G36*
X261390834Y-147682777D02*
G01*
X261567223Y-147506389D01*
X261390834Y-147330000D01*
X261214445Y-147506389D01*
X261390834Y-147682777D01*
G37*
X261390834Y-147682777D02*
X261567223Y-147506389D01*
X261390834Y-147330000D01*
X261214445Y-147506389D01*
X261390834Y-147682777D01*
G36*
X210163831Y-148606964D02*
G01*
X210719462Y-149153981D01*
X211916770Y-149956346D01*
X213049600Y-150105153D01*
X213991139Y-149773265D01*
X214657639Y-149599086D01*
X215583049Y-149741984D01*
X216416523Y-150011839D01*
X217411746Y-150407185D01*
X217854773Y-150727573D01*
X217871940Y-151091438D01*
X217780161Y-151290186D01*
X217547762Y-152146175D01*
X217536446Y-152903696D01*
X217752988Y-153609485D01*
X218309879Y-153817820D01*
X218528334Y-153815183D01*
X219265805Y-153882638D01*
X219590201Y-154051797D01*
X220032367Y-154318584D01*
X220824923Y-154562508D01*
X221477956Y-154670449D01*
X221516707Y-154550934D01*
X221350556Y-154419491D01*
X221077085Y-154112960D01*
X221194935Y-154038179D01*
X221745635Y-154229685D01*
X222253269Y-154550725D01*
X223377210Y-155027485D01*
X224727545Y-154892503D01*
X225866775Y-154421193D01*
X227385893Y-153704846D01*
X229487245Y-152819547D01*
X232210518Y-151748800D01*
X233229342Y-151360686D01*
X234738298Y-150872754D01*
X236332613Y-150483719D01*
X237286286Y-150326725D01*
X238468855Y-150120318D01*
X240051925Y-149744489D01*
X241770738Y-149264846D01*
X242548094Y-149022881D01*
X245930354Y-147928900D01*
X250132816Y-148887385D01*
X252138766Y-149301386D01*
X254254171Y-149666299D01*
X256189621Y-149935570D01*
X257333889Y-150045753D01*
X258977340Y-150211988D01*
X260214882Y-150451847D01*
X260898217Y-150736409D01*
X260905029Y-150742198D01*
X261366151Y-151044728D01*
X261582883Y-150780499D01*
X261628849Y-150607297D01*
X261693392Y-149719941D01*
X261651513Y-149377673D01*
X261287311Y-148933308D01*
X260367255Y-148701696D01*
X260045748Y-148672117D01*
X259033996Y-148500876D01*
X258653936Y-148192018D01*
X258656806Y-148123750D01*
X258464327Y-147781966D01*
X257856475Y-147697510D01*
X257071544Y-147862142D01*
X256431177Y-148200725D01*
X255475170Y-148649827D01*
X254321458Y-148624185D01*
X252829840Y-148115377D01*
X252499025Y-147964497D01*
X250846849Y-147187883D01*
X253157762Y-146761376D01*
X254720564Y-146400617D01*
X256319141Y-145919100D01*
X257251083Y-145568097D01*
X258405979Y-145129770D01*
X259172956Y-145016788D01*
X259771190Y-145196130D01*
X260370011Y-145370234D01*
X260508865Y-145027222D01*
X260177004Y-144194046D01*
X260173431Y-144187362D01*
X259869353Y-143847456D01*
X259306484Y-143669782D01*
X258314586Y-143620107D01*
X257439404Y-143637607D01*
X256007613Y-143685773D01*
X255139874Y-143738971D01*
X254695230Y-143829950D01*
X254532722Y-143991457D01*
X254511391Y-144256241D01*
X254511667Y-144317791D01*
X254170374Y-144800788D01*
X253175869Y-145167925D01*
X251572211Y-145411136D01*
X249403461Y-145522355D01*
X247925440Y-145523515D01*
X245298998Y-145486724D01*
X243271015Y-145468075D01*
X241734430Y-145478377D01*
X240582185Y-145528442D01*
X239707221Y-145629079D01*
X239002478Y-145791100D01*
X238360897Y-146025316D01*
X238283889Y-146060953D01*
X238283889Y-148035555D01*
X238574265Y-148164631D01*
X238519074Y-148270740D01*
X238100410Y-148312961D01*
X238048704Y-148270740D01*
X238097130Y-148061014D01*
X238283889Y-148035555D01*
X238283889Y-146060953D01*
X237675419Y-146342536D01*
X237401945Y-146477130D01*
X237401945Y-148399137D01*
X237465049Y-148544710D01*
X237225556Y-148741111D01*
X236582436Y-149039627D01*
X236343612Y-149083084D01*
X236280507Y-148937512D01*
X236520000Y-148741111D01*
X237163121Y-148442595D01*
X237401945Y-148399137D01*
X237401945Y-146477130D01*
X237123241Y-146614300D01*
X235243260Y-147420639D01*
X233823593Y-147738272D01*
X232808104Y-147559209D01*
X232140659Y-146875461D01*
X231797920Y-145856405D01*
X231769929Y-145762179D01*
X231769929Y-148145826D01*
X231906955Y-148222782D01*
X231713405Y-148764833D01*
X231368562Y-149392235D01*
X230934948Y-149824865D01*
X230121180Y-150423706D01*
X229078022Y-151100608D01*
X227956236Y-151767424D01*
X226906588Y-152336005D01*
X226079839Y-152718203D01*
X225626755Y-152825870D01*
X225583889Y-152774412D01*
X225860762Y-152527852D01*
X226599780Y-152004908D01*
X227663544Y-151301158D01*
X228141528Y-150995305D01*
X229399026Y-150155310D01*
X230479667Y-149356764D01*
X231196317Y-148740230D01*
X231308684Y-148616368D01*
X231769929Y-148145826D01*
X231769929Y-145762179D01*
X231520070Y-144921074D01*
X231183043Y-144276817D01*
X230535803Y-143900286D01*
X229698248Y-143824587D01*
X229025564Y-144062883D01*
X228912001Y-144192663D01*
X228603602Y-144377919D01*
X228582500Y-144354387D01*
X228582500Y-144860555D01*
X228758889Y-145036944D01*
X228582500Y-145213333D01*
X228406111Y-145036944D01*
X228582500Y-144860555D01*
X228582500Y-144354387D01*
X228411448Y-144163634D01*
X227911911Y-143917515D01*
X226844179Y-143945657D01*
X226690714Y-143966421D01*
X226690714Y-144860555D01*
X227228206Y-145076646D01*
X227275048Y-145477916D01*
X227372339Y-145936556D01*
X227979503Y-146006946D01*
X228004071Y-146004344D01*
X228464851Y-146011090D01*
X228670465Y-146246688D01*
X228629704Y-146840462D01*
X228351362Y-147921733D01*
X228175176Y-148520706D01*
X228118014Y-148990200D01*
X228321509Y-148959381D01*
X228674215Y-148527395D01*
X229064689Y-147793387D01*
X229108532Y-147690346D01*
X229546797Y-146956662D01*
X230009806Y-146625958D01*
X230036411Y-146624444D01*
X230398644Y-146911676D01*
X230506521Y-147593406D01*
X230343005Y-148399686D01*
X230170000Y-148741111D01*
X229896611Y-149065423D01*
X229823765Y-148732003D01*
X229822625Y-148652916D01*
X229651500Y-148129222D01*
X229464445Y-148035555D01*
X229141172Y-148316518D01*
X229111667Y-148503228D01*
X228870819Y-149038953D01*
X228281284Y-149734209D01*
X228184374Y-149826144D01*
X227257080Y-150681388D01*
X227422272Y-148878851D01*
X227473431Y-147725062D01*
X227331726Y-147059885D01*
X226986696Y-146701128D01*
X226597224Y-146274438D01*
X226597224Y-147341086D01*
X226901218Y-147417822D01*
X226718603Y-147788733D01*
X226597224Y-147947361D01*
X226049041Y-148564574D01*
X225853979Y-148739753D01*
X225853979Y-149141246D01*
X226386122Y-149143854D01*
X226642223Y-149457738D01*
X226352797Y-149853516D01*
X226024861Y-150009046D01*
X225483001Y-150195453D01*
X225483001Y-151970937D01*
X225373800Y-152168684D01*
X225231111Y-152268888D01*
X224478021Y-152561391D01*
X224172778Y-152591469D01*
X223961817Y-152490742D01*
X224349167Y-152268888D01*
X225097102Y-152004338D01*
X225483001Y-151970937D01*
X225483001Y-150195453D01*
X225360833Y-150237481D01*
X224808943Y-150441408D01*
X224808943Y-150996706D01*
X224878334Y-151043458D01*
X224600063Y-151288491D01*
X223921675Y-151686658D01*
X223837519Y-151730662D01*
X222893223Y-152171111D01*
X222493420Y-152224859D01*
X222563810Y-151950847D01*
X222941304Y-151670525D01*
X223618668Y-151348534D01*
X224329885Y-151089165D01*
X224808943Y-150996706D01*
X224808943Y-150441408D01*
X224314920Y-150623953D01*
X223537695Y-150920993D01*
X222488747Y-151280937D01*
X221879723Y-151421358D01*
X221879723Y-152974444D01*
X222056112Y-153150833D01*
X221879723Y-153327222D01*
X221703334Y-153150833D01*
X221879723Y-152974444D01*
X221879723Y-151421358D01*
X221723093Y-151457472D01*
X221460297Y-151437888D01*
X221598567Y-151188171D01*
X222216299Y-150864355D01*
X222271123Y-150843093D01*
X223220100Y-150379533D01*
X223885320Y-149916720D01*
X224487670Y-149576159D01*
X224831728Y-149594251D01*
X225305106Y-149563340D01*
X225403944Y-149452421D01*
X225853979Y-149141246D01*
X225853979Y-148739753D01*
X225760278Y-148823903D01*
X225220240Y-149096146D01*
X225118716Y-148865121D01*
X225479225Y-148223030D01*
X226077962Y-147597766D01*
X226597224Y-147341086D01*
X226597224Y-146274438D01*
X226398043Y-146056222D01*
X226194325Y-145593249D01*
X226193497Y-145015736D01*
X226690714Y-144860555D01*
X226690714Y-143966421D01*
X226479696Y-143994972D01*
X225760278Y-144144964D01*
X225760278Y-147262489D01*
X224172778Y-148353067D01*
X223215316Y-148962893D01*
X222458970Y-149359384D01*
X222177333Y-149445156D01*
X221916647Y-149158827D01*
X221942784Y-148652916D01*
X222032634Y-148145146D01*
X221899451Y-148149641D01*
X221436031Y-148683457D01*
X221388435Y-148741111D01*
X220881892Y-149426598D01*
X220653723Y-149876470D01*
X220652845Y-149887638D01*
X220373226Y-150145174D01*
X220292223Y-150152222D01*
X220059047Y-149842102D01*
X219942492Y-149079540D01*
X219939445Y-148917500D01*
X219977631Y-148143338D01*
X220223869Y-147786996D01*
X220875672Y-147685302D01*
X221438750Y-147678895D01*
X222814960Y-147622419D01*
X224200437Y-147489413D01*
X224349167Y-147468751D01*
X225760278Y-147262489D01*
X225760278Y-144144964D01*
X225480684Y-144203257D01*
X225175989Y-144426698D01*
X225283734Y-144547765D01*
X225533660Y-144805645D01*
X225340126Y-144855153D01*
X224782991Y-144696117D01*
X224773171Y-144301699D01*
X225271321Y-143828480D01*
X225647204Y-143633072D01*
X226284603Y-143307295D01*
X226426272Y-143123959D01*
X226356819Y-143110475D01*
X226081320Y-142881624D01*
X226146743Y-142689381D01*
X226190892Y-142450381D01*
X225951732Y-142558189D01*
X225404906Y-142558316D01*
X225197072Y-142348113D01*
X224960204Y-142127695D01*
X224884415Y-142556274D01*
X224883736Y-142612498D01*
X224697627Y-143326148D01*
X224278027Y-143851962D01*
X223817076Y-143983921D01*
X223682794Y-143900201D01*
X223327464Y-143992518D01*
X222689661Y-144500282D01*
X222233933Y-144961595D01*
X221033749Y-146271666D01*
X222144653Y-146271666D01*
X222846848Y-146348346D01*
X222910387Y-146552327D01*
X222382268Y-146844524D01*
X221309491Y-147185848D01*
X220929756Y-147282036D01*
X219611441Y-147575035D01*
X218874803Y-147661850D01*
X218627570Y-147545098D01*
X218695200Y-147345407D01*
X219154127Y-147153220D01*
X219421576Y-147206761D01*
X219869729Y-147225511D01*
X219939445Y-147099304D01*
X220154420Y-146680404D01*
X220705581Y-145937720D01*
X221167399Y-145385866D01*
X221893989Y-144486886D01*
X222307040Y-143846393D01*
X222374359Y-143548922D01*
X222063751Y-143679006D01*
X221703334Y-143978611D01*
X221192565Y-144394030D01*
X221017120Y-144259346D01*
X220997778Y-143713536D01*
X221099397Y-143067059D01*
X221528380Y-142942362D01*
X221791528Y-142990895D01*
X221966211Y-142952211D01*
X221590844Y-142663822D01*
X220997778Y-142324789D01*
X220044620Y-141840653D01*
X219473779Y-141678251D01*
X219280042Y-141741385D01*
X219280042Y-142209523D01*
X219775545Y-142373831D01*
X219931439Y-142467981D01*
X220471181Y-143096429D01*
X220604078Y-144151665D01*
X220541298Y-144794083D01*
X220435330Y-144869630D01*
X220400990Y-144768042D01*
X220130753Y-144337354D01*
X219930446Y-144336950D01*
X219586667Y-144246565D01*
X219586667Y-145213333D01*
X219877043Y-145342409D01*
X219821852Y-145448518D01*
X219403188Y-145490739D01*
X219351482Y-145448518D01*
X219399908Y-145238792D01*
X219586667Y-145213333D01*
X219586667Y-144246565D01*
X219559527Y-144239429D01*
X219200872Y-143714796D01*
X218989184Y-143030794D01*
X219022329Y-142531944D01*
X219280042Y-142209523D01*
X219280042Y-141741385D01*
X219051203Y-141815958D01*
X218681986Y-142110810D01*
X218629456Y-142148904D01*
X218629456Y-145622977D01*
X218826604Y-145708812D01*
X219205327Y-146064022D01*
X219127638Y-146268232D01*
X219078320Y-146271666D01*
X218779935Y-146021095D01*
X218671035Y-145864381D01*
X218629456Y-145622977D01*
X218629456Y-142148904D01*
X218029854Y-142583727D01*
X217923900Y-142626912D01*
X217923900Y-152678533D01*
X218121049Y-152764368D01*
X218499772Y-153119578D01*
X218422082Y-153323788D01*
X218372765Y-153327222D01*
X218074379Y-153076651D01*
X217965480Y-152919937D01*
X217923900Y-152678533D01*
X217923900Y-142626912D01*
X217623652Y-142749291D01*
X217059279Y-142926225D01*
X216787129Y-143075181D01*
X216464625Y-143429179D01*
X216709957Y-143912547D01*
X216742131Y-143951724D01*
X216989466Y-144412500D01*
X216807641Y-144507777D01*
X216456618Y-144792806D01*
X216411667Y-145036944D01*
X216705776Y-145467895D01*
X217117223Y-145566111D01*
X217695864Y-145803219D01*
X217822778Y-146333160D01*
X217822778Y-147100210D01*
X217029028Y-146370463D01*
X216265674Y-145754955D01*
X215199248Y-145000562D01*
X214000425Y-144214936D01*
X212839876Y-143505731D01*
X211888276Y-142980598D01*
X211316296Y-142747192D01*
X211279439Y-142743889D01*
X210766395Y-143023054D01*
X210673208Y-143185603D01*
X210830104Y-143524194D01*
X211572026Y-143626575D01*
X212398832Y-143776234D01*
X212810255Y-144123020D01*
X212765099Y-144463499D01*
X212419522Y-144405070D01*
X212279674Y-144431917D01*
X212279674Y-145389722D01*
X211458488Y-146889027D01*
X210916931Y-147763563D01*
X210461874Y-148303834D01*
X210306288Y-148388333D01*
X210194562Y-148182614D01*
X210341250Y-147947361D01*
X210632602Y-147462283D01*
X210649029Y-147321720D01*
X210829068Y-146971337D01*
X211346445Y-146356636D01*
X211435254Y-146263387D01*
X212279674Y-145389722D01*
X212279674Y-144431917D01*
X212045141Y-144476943D01*
X212045141Y-144507777D01*
X212150736Y-144679380D01*
X211697557Y-145148353D01*
X211560973Y-145258332D01*
X211143109Y-145563431D01*
X211230710Y-145380747D01*
X211427779Y-145125139D01*
X211862965Y-144636555D01*
X212045141Y-144507777D01*
X212045141Y-144476943D01*
X211833281Y-144517617D01*
X211114626Y-145095869D01*
X210424241Y-145963735D01*
X209922808Y-146945124D01*
X209831849Y-147240893D01*
X209792301Y-147952769D01*
X210163831Y-148606964D01*
G37*
X210163831Y-148606964D02*
X210719462Y-149153981D01*
X211916770Y-149956346D01*
X213049600Y-150105153D01*
X213991139Y-149773265D01*
X214657639Y-149599086D01*
X215583049Y-149741984D01*
X216416523Y-150011839D01*
X217411746Y-150407185D01*
X217854773Y-150727573D01*
X217871940Y-151091438D01*
X217780161Y-151290186D01*
X217547762Y-152146175D01*
X217536446Y-152903696D01*
X217752988Y-153609485D01*
X218309879Y-153817820D01*
X218528334Y-153815183D01*
X219265805Y-153882638D01*
X219590201Y-154051797D01*
X220032367Y-154318584D01*
X220824923Y-154562508D01*
X221477956Y-154670449D01*
X221516707Y-154550934D01*
X221350556Y-154419491D01*
X221077085Y-154112960D01*
X221194935Y-154038179D01*
X221745635Y-154229685D01*
X222253269Y-154550725D01*
X223377210Y-155027485D01*
X224727545Y-154892503D01*
X225866775Y-154421193D01*
X227385893Y-153704846D01*
X229487245Y-152819547D01*
X232210518Y-151748800D01*
X233229342Y-151360686D01*
X234738298Y-150872754D01*
X236332613Y-150483719D01*
X237286286Y-150326725D01*
X238468855Y-150120318D01*
X240051925Y-149744489D01*
X241770738Y-149264846D01*
X242548094Y-149022881D01*
X245930354Y-147928900D01*
X250132816Y-148887385D01*
X252138766Y-149301386D01*
X254254171Y-149666299D01*
X256189621Y-149935570D01*
X257333889Y-150045753D01*
X258977340Y-150211988D01*
X260214882Y-150451847D01*
X260898217Y-150736409D01*
X260905029Y-150742198D01*
X261366151Y-151044728D01*
X261582883Y-150780499D01*
X261628849Y-150607297D01*
X261693392Y-149719941D01*
X261651513Y-149377673D01*
X261287311Y-148933308D01*
X260367255Y-148701696D01*
X260045748Y-148672117D01*
X259033996Y-148500876D01*
X258653936Y-148192018D01*
X258656806Y-148123750D01*
X258464327Y-147781966D01*
X257856475Y-147697510D01*
X257071544Y-147862142D01*
X256431177Y-148200725D01*
X255475170Y-148649827D01*
X254321458Y-148624185D01*
X252829840Y-148115377D01*
X252499025Y-147964497D01*
X250846849Y-147187883D01*
X253157762Y-146761376D01*
X254720564Y-146400617D01*
X256319141Y-145919100D01*
X257251083Y-145568097D01*
X258405979Y-145129770D01*
X259172956Y-145016788D01*
X259771190Y-145196130D01*
X260370011Y-145370234D01*
X260508865Y-145027222D01*
X260177004Y-144194046D01*
X260173431Y-144187362D01*
X259869353Y-143847456D01*
X259306484Y-143669782D01*
X258314586Y-143620107D01*
X257439404Y-143637607D01*
X256007613Y-143685773D01*
X255139874Y-143738971D01*
X254695230Y-143829950D01*
X254532722Y-143991457D01*
X254511391Y-144256241D01*
X254511667Y-144317791D01*
X254170374Y-144800788D01*
X253175869Y-145167925D01*
X251572211Y-145411136D01*
X249403461Y-145522355D01*
X247925440Y-145523515D01*
X245298998Y-145486724D01*
X243271015Y-145468075D01*
X241734430Y-145478377D01*
X240582185Y-145528442D01*
X239707221Y-145629079D01*
X239002478Y-145791100D01*
X238360897Y-146025316D01*
X238283889Y-146060953D01*
X238283889Y-148035555D01*
X238574265Y-148164631D01*
X238519074Y-148270740D01*
X238100410Y-148312961D01*
X238048704Y-148270740D01*
X238097130Y-148061014D01*
X238283889Y-148035555D01*
X238283889Y-146060953D01*
X237675419Y-146342536D01*
X237401945Y-146477130D01*
X237401945Y-148399137D01*
X237465049Y-148544710D01*
X237225556Y-148741111D01*
X236582436Y-149039627D01*
X236343612Y-149083084D01*
X236280507Y-148937512D01*
X236520000Y-148741111D01*
X237163121Y-148442595D01*
X237401945Y-148399137D01*
X237401945Y-146477130D01*
X237123241Y-146614300D01*
X235243260Y-147420639D01*
X233823593Y-147738272D01*
X232808104Y-147559209D01*
X232140659Y-146875461D01*
X231797920Y-145856405D01*
X231769929Y-145762179D01*
X231769929Y-148145826D01*
X231906955Y-148222782D01*
X231713405Y-148764833D01*
X231368562Y-149392235D01*
X230934948Y-149824865D01*
X230121180Y-150423706D01*
X229078022Y-151100608D01*
X227956236Y-151767424D01*
X226906588Y-152336005D01*
X226079839Y-152718203D01*
X225626755Y-152825870D01*
X225583889Y-152774412D01*
X225860762Y-152527852D01*
X226599780Y-152004908D01*
X227663544Y-151301158D01*
X228141528Y-150995305D01*
X229399026Y-150155310D01*
X230479667Y-149356764D01*
X231196317Y-148740230D01*
X231308684Y-148616368D01*
X231769929Y-148145826D01*
X231769929Y-145762179D01*
X231520070Y-144921074D01*
X231183043Y-144276817D01*
X230535803Y-143900286D01*
X229698248Y-143824587D01*
X229025564Y-144062883D01*
X228912001Y-144192663D01*
X228603602Y-144377919D01*
X228582500Y-144354387D01*
X228582500Y-144860555D01*
X228758889Y-145036944D01*
X228582500Y-145213333D01*
X228406111Y-145036944D01*
X228582500Y-144860555D01*
X228582500Y-144354387D01*
X228411448Y-144163634D01*
X227911911Y-143917515D01*
X226844179Y-143945657D01*
X226690714Y-143966421D01*
X226690714Y-144860555D01*
X227228206Y-145076646D01*
X227275048Y-145477916D01*
X227372339Y-145936556D01*
X227979503Y-146006946D01*
X228004071Y-146004344D01*
X228464851Y-146011090D01*
X228670465Y-146246688D01*
X228629704Y-146840462D01*
X228351362Y-147921733D01*
X228175176Y-148520706D01*
X228118014Y-148990200D01*
X228321509Y-148959381D01*
X228674215Y-148527395D01*
X229064689Y-147793387D01*
X229108532Y-147690346D01*
X229546797Y-146956662D01*
X230009806Y-146625958D01*
X230036411Y-146624444D01*
X230398644Y-146911676D01*
X230506521Y-147593406D01*
X230343005Y-148399686D01*
X230170000Y-148741111D01*
X229896611Y-149065423D01*
X229823765Y-148732003D01*
X229822625Y-148652916D01*
X229651500Y-148129222D01*
X229464445Y-148035555D01*
X229141172Y-148316518D01*
X229111667Y-148503228D01*
X228870819Y-149038953D01*
X228281284Y-149734209D01*
X228184374Y-149826144D01*
X227257080Y-150681388D01*
X227422272Y-148878851D01*
X227473431Y-147725062D01*
X227331726Y-147059885D01*
X226986696Y-146701128D01*
X226597224Y-146274438D01*
X226597224Y-147341086D01*
X226901218Y-147417822D01*
X226718603Y-147788733D01*
X226597224Y-147947361D01*
X226049041Y-148564574D01*
X225853979Y-148739753D01*
X225853979Y-149141246D01*
X226386122Y-149143854D01*
X226642223Y-149457738D01*
X226352797Y-149853516D01*
X226024861Y-150009046D01*
X225483001Y-150195453D01*
X225483001Y-151970937D01*
X225373800Y-152168684D01*
X225231111Y-152268888D01*
X224478021Y-152561391D01*
X224172778Y-152591469D01*
X223961817Y-152490742D01*
X224349167Y-152268888D01*
X225097102Y-152004338D01*
X225483001Y-151970937D01*
X225483001Y-150195453D01*
X225360833Y-150237481D01*
X224808943Y-150441408D01*
X224808943Y-150996706D01*
X224878334Y-151043458D01*
X224600063Y-151288491D01*
X223921675Y-151686658D01*
X223837519Y-151730662D01*
X222893223Y-152171111D01*
X222493420Y-152224859D01*
X222563810Y-151950847D01*
X222941304Y-151670525D01*
X223618668Y-151348534D01*
X224329885Y-151089165D01*
X224808943Y-150996706D01*
X224808943Y-150441408D01*
X224314920Y-150623953D01*
X223537695Y-150920993D01*
X222488747Y-151280937D01*
X221879723Y-151421358D01*
X221879723Y-152974444D01*
X222056112Y-153150833D01*
X221879723Y-153327222D01*
X221703334Y-153150833D01*
X221879723Y-152974444D01*
X221879723Y-151421358D01*
X221723093Y-151457472D01*
X221460297Y-151437888D01*
X221598567Y-151188171D01*
X222216299Y-150864355D01*
X222271123Y-150843093D01*
X223220100Y-150379533D01*
X223885320Y-149916720D01*
X224487670Y-149576159D01*
X224831728Y-149594251D01*
X225305106Y-149563340D01*
X225403944Y-149452421D01*
X225853979Y-149141246D01*
X225853979Y-148739753D01*
X225760278Y-148823903D01*
X225220240Y-149096146D01*
X225118716Y-148865121D01*
X225479225Y-148223030D01*
X226077962Y-147597766D01*
X226597224Y-147341086D01*
X226597224Y-146274438D01*
X226398043Y-146056222D01*
X226194325Y-145593249D01*
X226193497Y-145015736D01*
X226690714Y-144860555D01*
X226690714Y-143966421D01*
X226479696Y-143994972D01*
X225760278Y-144144964D01*
X225760278Y-147262489D01*
X224172778Y-148353067D01*
X223215316Y-148962893D01*
X222458970Y-149359384D01*
X222177333Y-149445156D01*
X221916647Y-149158827D01*
X221942784Y-148652916D01*
X222032634Y-148145146D01*
X221899451Y-148149641D01*
X221436031Y-148683457D01*
X221388435Y-148741111D01*
X220881892Y-149426598D01*
X220653723Y-149876470D01*
X220652845Y-149887638D01*
X220373226Y-150145174D01*
X220292223Y-150152222D01*
X220059047Y-149842102D01*
X219942492Y-149079540D01*
X219939445Y-148917500D01*
X219977631Y-148143338D01*
X220223869Y-147786996D01*
X220875672Y-147685302D01*
X221438750Y-147678895D01*
X222814960Y-147622419D01*
X224200437Y-147489413D01*
X224349167Y-147468751D01*
X225760278Y-147262489D01*
X225760278Y-144144964D01*
X225480684Y-144203257D01*
X225175989Y-144426698D01*
X225283734Y-144547765D01*
X225533660Y-144805645D01*
X225340126Y-144855153D01*
X224782991Y-144696117D01*
X224773171Y-144301699D01*
X225271321Y-143828480D01*
X225647204Y-143633072D01*
X226284603Y-143307295D01*
X226426272Y-143123959D01*
X226356819Y-143110475D01*
X226081320Y-142881624D01*
X226146743Y-142689381D01*
X226190892Y-142450381D01*
X225951732Y-142558189D01*
X225404906Y-142558316D01*
X225197072Y-142348113D01*
X224960204Y-142127695D01*
X224884415Y-142556274D01*
X224883736Y-142612498D01*
X224697627Y-143326148D01*
X224278027Y-143851962D01*
X223817076Y-143983921D01*
X223682794Y-143900201D01*
X223327464Y-143992518D01*
X222689661Y-144500282D01*
X222233933Y-144961595D01*
X221033749Y-146271666D01*
X222144653Y-146271666D01*
X222846848Y-146348346D01*
X222910387Y-146552327D01*
X222382268Y-146844524D01*
X221309491Y-147185848D01*
X220929756Y-147282036D01*
X219611441Y-147575035D01*
X218874803Y-147661850D01*
X218627570Y-147545098D01*
X218695200Y-147345407D01*
X219154127Y-147153220D01*
X219421576Y-147206761D01*
X219869729Y-147225511D01*
X219939445Y-147099304D01*
X220154420Y-146680404D01*
X220705581Y-145937720D01*
X221167399Y-145385866D01*
X221893989Y-144486886D01*
X222307040Y-143846393D01*
X222374359Y-143548922D01*
X222063751Y-143679006D01*
X221703334Y-143978611D01*
X221192565Y-144394030D01*
X221017120Y-144259346D01*
X220997778Y-143713536D01*
X221099397Y-143067059D01*
X221528380Y-142942362D01*
X221791528Y-142990895D01*
X221966211Y-142952211D01*
X221590844Y-142663822D01*
X220997778Y-142324789D01*
X220044620Y-141840653D01*
X219473779Y-141678251D01*
X219280042Y-141741385D01*
X219280042Y-142209523D01*
X219775545Y-142373831D01*
X219931439Y-142467981D01*
X220471181Y-143096429D01*
X220604078Y-144151665D01*
X220541298Y-144794083D01*
X220435330Y-144869630D01*
X220400990Y-144768042D01*
X220130753Y-144337354D01*
X219930446Y-144336950D01*
X219586667Y-144246565D01*
X219586667Y-145213333D01*
X219877043Y-145342409D01*
X219821852Y-145448518D01*
X219403188Y-145490739D01*
X219351482Y-145448518D01*
X219399908Y-145238792D01*
X219586667Y-145213333D01*
X219586667Y-144246565D01*
X219559527Y-144239429D01*
X219200872Y-143714796D01*
X218989184Y-143030794D01*
X219022329Y-142531944D01*
X219280042Y-142209523D01*
X219280042Y-141741385D01*
X219051203Y-141815958D01*
X218681986Y-142110810D01*
X218629456Y-142148904D01*
X218629456Y-145622977D01*
X218826604Y-145708812D01*
X219205327Y-146064022D01*
X219127638Y-146268232D01*
X219078320Y-146271666D01*
X218779935Y-146021095D01*
X218671035Y-145864381D01*
X218629456Y-145622977D01*
X218629456Y-142148904D01*
X218029854Y-142583727D01*
X217923900Y-142626912D01*
X217923900Y-152678533D01*
X218121049Y-152764368D01*
X218499772Y-153119578D01*
X218422082Y-153323788D01*
X218372765Y-153327222D01*
X218074379Y-153076651D01*
X217965480Y-152919937D01*
X217923900Y-152678533D01*
X217923900Y-142626912D01*
X217623652Y-142749291D01*
X217059279Y-142926225D01*
X216787129Y-143075181D01*
X216464625Y-143429179D01*
X216709957Y-143912547D01*
X216742131Y-143951724D01*
X216989466Y-144412500D01*
X216807641Y-144507777D01*
X216456618Y-144792806D01*
X216411667Y-145036944D01*
X216705776Y-145467895D01*
X217117223Y-145566111D01*
X217695864Y-145803219D01*
X217822778Y-146333160D01*
X217822778Y-147100210D01*
X217029028Y-146370463D01*
X216265674Y-145754955D01*
X215199248Y-145000562D01*
X214000425Y-144214936D01*
X212839876Y-143505731D01*
X211888276Y-142980598D01*
X211316296Y-142747192D01*
X211279439Y-142743889D01*
X210766395Y-143023054D01*
X210673208Y-143185603D01*
X210830104Y-143524194D01*
X211572026Y-143626575D01*
X212398832Y-143776234D01*
X212810255Y-144123020D01*
X212765099Y-144463499D01*
X212419522Y-144405070D01*
X212279674Y-144431917D01*
X212279674Y-145389722D01*
X211458488Y-146889027D01*
X210916931Y-147763563D01*
X210461874Y-148303834D01*
X210306288Y-148388333D01*
X210194562Y-148182614D01*
X210341250Y-147947361D01*
X210632602Y-147462283D01*
X210649029Y-147321720D01*
X210829068Y-146971337D01*
X211346445Y-146356636D01*
X211435254Y-146263387D01*
X212279674Y-145389722D01*
X212279674Y-144431917D01*
X212045141Y-144476943D01*
X212045141Y-144507777D01*
X212150736Y-144679380D01*
X211697557Y-145148353D01*
X211560973Y-145258332D01*
X211143109Y-145563431D01*
X211230710Y-145380747D01*
X211427779Y-145125139D01*
X211862965Y-144636555D01*
X212045141Y-144507777D01*
X212045141Y-144476943D01*
X211833281Y-144517617D01*
X211114626Y-145095869D01*
X210424241Y-145963735D01*
X209922808Y-146945124D01*
X209831849Y-147240893D01*
X209792301Y-147952769D01*
X210163831Y-148606964D01*
D11*
%TO.C,D1*%
X133390000Y-154444000D02*
G75*
G03*
X133390000Y-154444000I-2500000J0D01*
G01*
X128330000Y-155989000D02*
X128330000Y-152899000D01*
X133880000Y-154443538D02*
G75*
G02*
X128330000Y-155988830I-2990000J-462D01*
G01*
X133880000Y-154444462D02*
G75*
G03*
X128330000Y-152899170I-2990000J462D01*
G01*
%TO.C,D2*%
X128330000Y-141257000D02*
X128330000Y-138167000D01*
X133390000Y-139712000D02*
G75*
G03*
X133390000Y-139712000I-2500000J0D01*
G01*
X133880000Y-139712462D02*
G75*
G03*
X128330000Y-138167170I-2990000J462D01*
G01*
X133880000Y-139711538D02*
G75*
G02*
X128330000Y-141256830I-2990000J-462D01*
G01*
%TO.C,ON/OFF1*%
X126574000Y-153192000D02*
X125554000Y-153192000D01*
X126574000Y-153192000D02*
X126574000Y-152162000D01*
X126324000Y-141302000D02*
X113384000Y-141302000D01*
X126324000Y-152942000D02*
X113384000Y-152942000D01*
X113384000Y-152942000D02*
X113384000Y-141302000D01*
X126324000Y-152942000D02*
X126324000Y-141302000D01*
%TO.C,D1*%
D12*
X134058095Y-149252380D02*
X134058095Y-148252380D01*
X133820000Y-148252380D01*
X133677142Y-148300000D01*
X133581904Y-148395238D01*
X133534285Y-148490476D01*
X133486666Y-148680952D01*
X133486666Y-148823809D01*
X133534285Y-149014285D01*
X133581904Y-149109523D01*
X133677142Y-149204761D01*
X133820000Y-149252380D01*
X134058095Y-149252380D01*
X132534285Y-149252380D02*
X133105714Y-149252380D01*
X132820000Y-149252380D02*
X132820000Y-148252380D01*
X132915238Y-148395238D01*
X133010476Y-148490476D01*
X133105714Y-148538095D01*
X135462380Y-151864761D02*
X135462380Y-151388571D01*
X134462380Y-151388571D01*
X134938571Y-152198095D02*
X134938571Y-152531428D01*
X135462380Y-152674285D02*
X135462380Y-152198095D01*
X134462380Y-152198095D01*
X134462380Y-152674285D01*
X135462380Y-153102857D02*
X134462380Y-153102857D01*
X134462380Y-153340952D01*
X134510000Y-153483809D01*
X134605238Y-153579047D01*
X134700476Y-153626666D01*
X134890952Y-153674285D01*
X135033809Y-153674285D01*
X135224285Y-153626666D01*
X135319523Y-153579047D01*
X135414761Y-153483809D01*
X135462380Y-153340952D01*
X135462380Y-153102857D01*
X135081428Y-154864761D02*
X135081428Y-155626666D01*
X135462380Y-156626666D02*
X135462380Y-156055238D01*
X135462380Y-156340952D02*
X134462380Y-156340952D01*
X134605238Y-156245714D01*
X134700476Y-156150476D01*
X134748095Y-156055238D01*
X134557619Y-157007619D02*
X134510000Y-157055238D01*
X134462380Y-157150476D01*
X134462380Y-157388571D01*
X134510000Y-157483809D01*
X134557619Y-157531428D01*
X134652857Y-157579047D01*
X134748095Y-157579047D01*
X134890952Y-157531428D01*
X135462380Y-156960000D01*
X135462380Y-157579047D01*
%TO.C,D2*%
X131628095Y-144124380D02*
X131628095Y-143124380D01*
X131390000Y-143124380D01*
X131247142Y-143172000D01*
X131151904Y-143267238D01*
X131104285Y-143362476D01*
X131056666Y-143552952D01*
X131056666Y-143695809D01*
X131104285Y-143886285D01*
X131151904Y-143981523D01*
X131247142Y-144076761D01*
X131390000Y-144124380D01*
X131628095Y-144124380D01*
X130675714Y-143219619D02*
X130628095Y-143172000D01*
X130532857Y-143124380D01*
X130294761Y-143124380D01*
X130199523Y-143172000D01*
X130151904Y-143219619D01*
X130104285Y-143314857D01*
X130104285Y-143410095D01*
X130151904Y-143552952D01*
X130723333Y-144124380D01*
X130104285Y-144124380D01*
X135582380Y-137204761D02*
X135582380Y-136728571D01*
X134582380Y-136728571D01*
X135058571Y-137538095D02*
X135058571Y-137871428D01*
X135582380Y-138014285D02*
X135582380Y-137538095D01*
X134582380Y-137538095D01*
X134582380Y-138014285D01*
X135582380Y-138442857D02*
X134582380Y-138442857D01*
X134582380Y-138680952D01*
X134630000Y-138823809D01*
X134725238Y-138919047D01*
X134820476Y-138966666D01*
X135010952Y-139014285D01*
X135153809Y-139014285D01*
X135344285Y-138966666D01*
X135439523Y-138919047D01*
X135534761Y-138823809D01*
X135582380Y-138680952D01*
X135582380Y-138442857D01*
X135201428Y-140204761D02*
X135201428Y-140966666D01*
X135582380Y-140585714D02*
X134820476Y-140585714D01*
X135582380Y-141966666D02*
X135582380Y-141395238D01*
X135582380Y-141680952D02*
X134582380Y-141680952D01*
X134725238Y-141585714D01*
X134820476Y-141490476D01*
X134868095Y-141395238D01*
X134677619Y-142347619D02*
X134630000Y-142395238D01*
X134582380Y-142490476D01*
X134582380Y-142728571D01*
X134630000Y-142823809D01*
X134677619Y-142871428D01*
X134772857Y-142919047D01*
X134868095Y-142919047D01*
X135010952Y-142871428D01*
X135582380Y-142300000D01*
X135582380Y-142919047D01*
%TO.C,ON/OFF1*%
X119520000Y-139882380D02*
X119329523Y-139882380D01*
X119234285Y-139930000D01*
X119139047Y-140025238D01*
X119091428Y-140215714D01*
X119091428Y-140549047D01*
X119139047Y-140739523D01*
X119234285Y-140834761D01*
X119329523Y-140882380D01*
X119520000Y-140882380D01*
X119615238Y-140834761D01*
X119710476Y-140739523D01*
X119758095Y-140549047D01*
X119758095Y-140215714D01*
X119710476Y-140025238D01*
X119615238Y-139930000D01*
X119520000Y-139882380D01*
X118662857Y-140882380D02*
X118662857Y-139882380D01*
X118091428Y-140882380D01*
X118091428Y-139882380D01*
X116900952Y-139834761D02*
X117758095Y-141120476D01*
X116377142Y-139882380D02*
X116186666Y-139882380D01*
X116091428Y-139930000D01*
X115996190Y-140025238D01*
X115948571Y-140215714D01*
X115948571Y-140549047D01*
X115996190Y-140739523D01*
X116091428Y-140834761D01*
X116186666Y-140882380D01*
X116377142Y-140882380D01*
X116472380Y-140834761D01*
X116567619Y-140739523D01*
X116615238Y-140549047D01*
X116615238Y-140215714D01*
X116567619Y-140025238D01*
X116472380Y-139930000D01*
X116377142Y-139882380D01*
X115186666Y-140358571D02*
X115520000Y-140358571D01*
X115520000Y-140882380D02*
X115520000Y-139882380D01*
X115043809Y-139882380D01*
X114329523Y-140358571D02*
X114662857Y-140358571D01*
X114662857Y-140882380D02*
X114662857Y-139882380D01*
X114186666Y-139882380D01*
X113281904Y-140882380D02*
X113853333Y-140882380D01*
X113567619Y-140882380D02*
X113567619Y-139882380D01*
X113662857Y-140025238D01*
X113758095Y-140120476D01*
X113853333Y-140168095D01*
%TD*%
M02*
