G04 #@! TF.GenerationSoftware,KiCad,Pcbnew,(5.1.7)-1*
G04 #@! TF.CreationDate,2020-12-29T17:03:43+00:00*
G04 #@! TF.ProjectId,Panel,50616e65-6c2e-46b6-9963-61645f706362,rev?*
G04 #@! TF.SameCoordinates,Original*
G04 #@! TF.FileFunction,Soldermask,Bot*
G04 #@! TF.FilePolarity,Negative*
%FSLAX46Y46*%
G04 Gerber Fmt 4.6, Leading zero omitted, Abs format (unit mm)*
G04 Created by KiCad (PCBNEW (5.1.7)-1) date 2020-12-29 17:03:43*
%MOMM*%
%LPD*%
G01*
G04 APERTURE LIST*
%ADD10C,0.010000*%
%ADD11C,7.102000*%
%ADD12C,5.502000*%
%ADD13C,5.702000*%
G04 APERTURE END LIST*
D10*
G36*
X87401132Y-125221615D02*
G01*
X87564448Y-125377238D01*
X87713122Y-125547030D01*
X87885192Y-125754659D01*
X87649807Y-125547030D01*
X87530603Y-125443853D01*
X87469389Y-125402495D01*
X87469331Y-125435835D01*
X87533595Y-125556750D01*
X87665345Y-125778118D01*
X87734868Y-125893079D01*
X87959556Y-126288521D01*
X88172207Y-126716426D01*
X88377205Y-127189827D01*
X88578934Y-127721754D01*
X88781777Y-128325238D01*
X88990119Y-129013309D01*
X89208344Y-129798998D01*
X89440836Y-130695336D01*
X89687773Y-131697926D01*
X89869349Y-132400192D01*
X90047085Y-132988032D01*
X90218735Y-133455149D01*
X90382054Y-133795247D01*
X90493995Y-133958838D01*
X90602607Y-134063548D01*
X90772267Y-134205158D01*
X90856329Y-134270282D01*
X90999298Y-134370538D01*
X91128695Y-134430772D01*
X91285985Y-134460449D01*
X91512632Y-134469032D01*
X91721452Y-134467724D01*
X92035711Y-134455305D01*
X92309155Y-134419902D01*
X92593927Y-134351183D01*
X92942168Y-134238812D01*
X93027918Y-134208816D01*
X93348043Y-134098570D01*
X93566672Y-134032792D01*
X93711589Y-134006487D01*
X93810579Y-134014665D01*
X93891427Y-134052330D01*
X93893041Y-134053344D01*
X94037426Y-134123705D01*
X94263277Y-134212161D01*
X94495232Y-134290951D01*
X95169808Y-134504943D01*
X95723766Y-134686000D01*
X96169286Y-134840234D01*
X96518548Y-134973757D01*
X96783731Y-135092684D01*
X96977014Y-135203127D01*
X97110578Y-135311199D01*
X97196603Y-135423013D01*
X97247267Y-135544682D01*
X97274750Y-135682319D01*
X97275279Y-135686267D01*
X97273969Y-135789277D01*
X97217151Y-135862745D01*
X97075620Y-135931221D01*
X96917575Y-135986963D01*
X96721026Y-136041209D01*
X96419676Y-136109976D01*
X96045515Y-136186620D01*
X95630534Y-136264497D01*
X95330668Y-136316558D01*
X94938849Y-136383664D01*
X94596322Y-136445211D01*
X94325673Y-136496904D01*
X94149488Y-136534452D01*
X94090659Y-136552239D01*
X94129224Y-136573441D01*
X94266673Y-136585172D01*
X94324514Y-136585995D01*
X94486718Y-136599246D01*
X94535720Y-136635073D01*
X94526376Y-136648529D01*
X94442304Y-136666470D01*
X94242282Y-136684493D01*
X93948778Y-136701995D01*
X93584260Y-136718371D01*
X93171195Y-136733015D01*
X92732051Y-136745322D01*
X92289297Y-136754688D01*
X91865401Y-136760509D01*
X91482829Y-136762179D01*
X91164050Y-136759093D01*
X90931532Y-136750647D01*
X90879019Y-136746713D01*
X90687390Y-136718533D01*
X90568906Y-136680384D01*
X90550273Y-136659809D01*
X90493188Y-136596935D01*
X90354652Y-136521843D01*
X90343390Y-136517094D01*
X90121086Y-136375547D01*
X89883106Y-136145249D01*
X89665129Y-135865987D01*
X89504729Y-135581851D01*
X89451109Y-135432085D01*
X89370939Y-135170723D01*
X89270659Y-134820599D01*
X89156711Y-134404548D01*
X89035532Y-133945405D01*
X88959015Y-133646821D01*
X88813184Y-133080986D01*
X88689613Y-132627372D01*
X88580847Y-132263008D01*
X88479427Y-131964924D01*
X88377899Y-131710148D01*
X88268804Y-131475709D01*
X88228349Y-131395944D01*
X87988616Y-130985583D01*
X87731040Y-130637905D01*
X87469244Y-130363717D01*
X87216853Y-130173827D01*
X86987490Y-130079041D01*
X86794779Y-130090166D01*
X86684887Y-130171600D01*
X86666584Y-130259092D01*
X86647066Y-130468110D01*
X86626879Y-130781775D01*
X86606568Y-131183205D01*
X86586681Y-131655519D01*
X86567763Y-132181835D01*
X86550362Y-132745272D01*
X86535022Y-133328950D01*
X86522292Y-133915988D01*
X86512716Y-134489503D01*
X86506842Y-135032615D01*
X86505216Y-135528443D01*
X86505841Y-135703570D01*
X86506244Y-136031967D01*
X86499850Y-136246225D01*
X86482147Y-136370602D01*
X86448620Y-136429361D01*
X86394757Y-136446761D01*
X86367421Y-136447575D01*
X86330160Y-136444765D01*
X86300010Y-136427487D01*
X86276206Y-136382470D01*
X86257982Y-136296440D01*
X86244573Y-136156127D01*
X86235214Y-135948258D01*
X86229141Y-135659562D01*
X86225587Y-135276766D01*
X86223789Y-134786599D01*
X86222980Y-134175788D01*
X86222795Y-133938719D01*
X86216289Y-133007148D01*
X86198656Y-132137127D01*
X86170587Y-131340213D01*
X86132770Y-130627959D01*
X86085897Y-130011918D01*
X86030658Y-129503646D01*
X85967743Y-129114695D01*
X85923804Y-128933846D01*
X85883969Y-128641008D01*
X85899881Y-128257934D01*
X85964528Y-127817762D01*
X86070897Y-127353630D01*
X86079226Y-127326769D01*
X87032708Y-127326769D01*
X87032744Y-127524395D01*
X87144339Y-127710249D01*
X87356802Y-127859166D01*
X87479439Y-127906489D01*
X87742877Y-127978804D01*
X87889900Y-127997062D01*
X87920300Y-127977319D01*
X87880370Y-127842779D01*
X87777830Y-127646594D01*
X87638560Y-127433566D01*
X87518274Y-127281332D01*
X87379438Y-127130257D01*
X87292621Y-127070672D01*
X87220518Y-127088327D01*
X87154922Y-127142539D01*
X87032708Y-127326769D01*
X86079226Y-127326769D01*
X86211973Y-126898674D01*
X86380745Y-126486033D01*
X86483950Y-126287168D01*
X86601071Y-126096701D01*
X86752160Y-125870336D01*
X86916634Y-125636430D01*
X87073907Y-125423342D01*
X87203395Y-125259428D01*
X87284514Y-125173047D01*
X87297532Y-125166376D01*
X87401132Y-125221615D01*
G37*
X87401132Y-125221615D02*
X87564448Y-125377238D01*
X87713122Y-125547030D01*
X87885192Y-125754659D01*
X87649807Y-125547030D01*
X87530603Y-125443853D01*
X87469389Y-125402495D01*
X87469331Y-125435835D01*
X87533595Y-125556750D01*
X87665345Y-125778118D01*
X87734868Y-125893079D01*
X87959556Y-126288521D01*
X88172207Y-126716426D01*
X88377205Y-127189827D01*
X88578934Y-127721754D01*
X88781777Y-128325238D01*
X88990119Y-129013309D01*
X89208344Y-129798998D01*
X89440836Y-130695336D01*
X89687773Y-131697926D01*
X89869349Y-132400192D01*
X90047085Y-132988032D01*
X90218735Y-133455149D01*
X90382054Y-133795247D01*
X90493995Y-133958838D01*
X90602607Y-134063548D01*
X90772267Y-134205158D01*
X90856329Y-134270282D01*
X90999298Y-134370538D01*
X91128695Y-134430772D01*
X91285985Y-134460449D01*
X91512632Y-134469032D01*
X91721452Y-134467724D01*
X92035711Y-134455305D01*
X92309155Y-134419902D01*
X92593927Y-134351183D01*
X92942168Y-134238812D01*
X93027918Y-134208816D01*
X93348043Y-134098570D01*
X93566672Y-134032792D01*
X93711589Y-134006487D01*
X93810579Y-134014665D01*
X93891427Y-134052330D01*
X93893041Y-134053344D01*
X94037426Y-134123705D01*
X94263277Y-134212161D01*
X94495232Y-134290951D01*
X95169808Y-134504943D01*
X95723766Y-134686000D01*
X96169286Y-134840234D01*
X96518548Y-134973757D01*
X96783731Y-135092684D01*
X96977014Y-135203127D01*
X97110578Y-135311199D01*
X97196603Y-135423013D01*
X97247267Y-135544682D01*
X97274750Y-135682319D01*
X97275279Y-135686267D01*
X97273969Y-135789277D01*
X97217151Y-135862745D01*
X97075620Y-135931221D01*
X96917575Y-135986963D01*
X96721026Y-136041209D01*
X96419676Y-136109976D01*
X96045515Y-136186620D01*
X95630534Y-136264497D01*
X95330668Y-136316558D01*
X94938849Y-136383664D01*
X94596322Y-136445211D01*
X94325673Y-136496904D01*
X94149488Y-136534452D01*
X94090659Y-136552239D01*
X94129224Y-136573441D01*
X94266673Y-136585172D01*
X94324514Y-136585995D01*
X94486718Y-136599246D01*
X94535720Y-136635073D01*
X94526376Y-136648529D01*
X94442304Y-136666470D01*
X94242282Y-136684493D01*
X93948778Y-136701995D01*
X93584260Y-136718371D01*
X93171195Y-136733015D01*
X92732051Y-136745322D01*
X92289297Y-136754688D01*
X91865401Y-136760509D01*
X91482829Y-136762179D01*
X91164050Y-136759093D01*
X90931532Y-136750647D01*
X90879019Y-136746713D01*
X90687390Y-136718533D01*
X90568906Y-136680384D01*
X90550273Y-136659809D01*
X90493188Y-136596935D01*
X90354652Y-136521843D01*
X90343390Y-136517094D01*
X90121086Y-136375547D01*
X89883106Y-136145249D01*
X89665129Y-135865987D01*
X89504729Y-135581851D01*
X89451109Y-135432085D01*
X89370939Y-135170723D01*
X89270659Y-134820599D01*
X89156711Y-134404548D01*
X89035532Y-133945405D01*
X88959015Y-133646821D01*
X88813184Y-133080986D01*
X88689613Y-132627372D01*
X88580847Y-132263008D01*
X88479427Y-131964924D01*
X88377899Y-131710148D01*
X88268804Y-131475709D01*
X88228349Y-131395944D01*
X87988616Y-130985583D01*
X87731040Y-130637905D01*
X87469244Y-130363717D01*
X87216853Y-130173827D01*
X86987490Y-130079041D01*
X86794779Y-130090166D01*
X86684887Y-130171600D01*
X86666584Y-130259092D01*
X86647066Y-130468110D01*
X86626879Y-130781775D01*
X86606568Y-131183205D01*
X86586681Y-131655519D01*
X86567763Y-132181835D01*
X86550362Y-132745272D01*
X86535022Y-133328950D01*
X86522292Y-133915988D01*
X86512716Y-134489503D01*
X86506842Y-135032615D01*
X86505216Y-135528443D01*
X86505841Y-135703570D01*
X86506244Y-136031967D01*
X86499850Y-136246225D01*
X86482147Y-136370602D01*
X86448620Y-136429361D01*
X86394757Y-136446761D01*
X86367421Y-136447575D01*
X86330160Y-136444765D01*
X86300010Y-136427487D01*
X86276206Y-136382470D01*
X86257982Y-136296440D01*
X86244573Y-136156127D01*
X86235214Y-135948258D01*
X86229141Y-135659562D01*
X86225587Y-135276766D01*
X86223789Y-134786599D01*
X86222980Y-134175788D01*
X86222795Y-133938719D01*
X86216289Y-133007148D01*
X86198656Y-132137127D01*
X86170587Y-131340213D01*
X86132770Y-130627959D01*
X86085897Y-130011918D01*
X86030658Y-129503646D01*
X85967743Y-129114695D01*
X85923804Y-128933846D01*
X85883969Y-128641008D01*
X85899881Y-128257934D01*
X85964528Y-127817762D01*
X86070897Y-127353630D01*
X86079226Y-127326769D01*
X87032708Y-127326769D01*
X87032744Y-127524395D01*
X87144339Y-127710249D01*
X87356802Y-127859166D01*
X87479439Y-127906489D01*
X87742877Y-127978804D01*
X87889900Y-127997062D01*
X87920300Y-127977319D01*
X87880370Y-127842779D01*
X87777830Y-127646594D01*
X87638560Y-127433566D01*
X87518274Y-127281332D01*
X87379438Y-127130257D01*
X87292621Y-127070672D01*
X87220518Y-127088327D01*
X87154922Y-127142539D01*
X87032708Y-127326769D01*
X86079226Y-127326769D01*
X86211973Y-126898674D01*
X86380745Y-126486033D01*
X86483950Y-126287168D01*
X86601071Y-126096701D01*
X86752160Y-125870336D01*
X86916634Y-125636430D01*
X87073907Y-125423342D01*
X87203395Y-125259428D01*
X87284514Y-125173047D01*
X87297532Y-125166376D01*
X87401132Y-125221615D01*
G36*
X93567409Y-133835369D02*
G01*
X93576658Y-133836303D01*
X93642148Y-133849136D01*
X93582853Y-133858871D01*
X93412400Y-133863813D01*
X93353270Y-133864102D01*
X93151233Y-133861052D01*
X93051286Y-133852468D01*
X93069730Y-133840050D01*
X93092189Y-133836861D01*
X93321058Y-133825242D01*
X93567409Y-133835369D01*
G37*
X93567409Y-133835369D02*
X93576658Y-133836303D01*
X93642148Y-133849136D01*
X93582853Y-133858871D01*
X93412400Y-133863813D01*
X93353270Y-133864102D01*
X93151233Y-133861052D01*
X93051286Y-133852468D01*
X93069730Y-133840050D01*
X93092189Y-133836861D01*
X93321058Y-133825242D01*
X93567409Y-133835369D01*
G36*
X92072888Y-133782997D02*
G01*
X92038283Y-133817602D01*
X92003679Y-133782997D01*
X92038283Y-133748392D01*
X92072888Y-133782997D01*
G37*
X92072888Y-133782997D02*
X92038283Y-133817602D01*
X92003679Y-133782997D01*
X92038283Y-133748392D01*
X92072888Y-133782997D01*
G36*
X90065804Y-130045668D02*
G01*
X90031199Y-130080273D01*
X89996594Y-130045668D01*
X90031199Y-130011063D01*
X90065804Y-130045668D01*
G37*
X90065804Y-130045668D02*
X90031199Y-130080273D01*
X89996594Y-130045668D01*
X90031199Y-130011063D01*
X90065804Y-130045668D01*
G36*
X89858174Y-129491989D02*
G01*
X89823570Y-129526594D01*
X89788965Y-129491989D01*
X89823570Y-129457384D01*
X89858174Y-129491989D01*
G37*
X89858174Y-129491989D02*
X89823570Y-129526594D01*
X89788965Y-129491989D01*
X89823570Y-129457384D01*
X89858174Y-129491989D01*
G36*
X89788965Y-129353570D02*
G01*
X89754360Y-129388174D01*
X89719755Y-129353570D01*
X89754360Y-129318965D01*
X89788965Y-129353570D01*
G37*
X89788965Y-129353570D02*
X89754360Y-129388174D01*
X89719755Y-129353570D01*
X89754360Y-129318965D01*
X89788965Y-129353570D01*
G36*
X89696685Y-129134405D02*
G01*
X89704968Y-129216541D01*
X89696685Y-129226685D01*
X89655540Y-129217185D01*
X89650545Y-129180545D01*
X89675868Y-129123578D01*
X89696685Y-129134405D01*
G37*
X89696685Y-129134405D02*
X89704968Y-129216541D01*
X89696685Y-129226685D01*
X89655540Y-129217185D01*
X89650545Y-129180545D01*
X89675868Y-129123578D01*
X89696685Y-129134405D01*
G36*
X89650545Y-129007521D02*
G01*
X89615940Y-129042125D01*
X89581335Y-129007521D01*
X89615940Y-128972916D01*
X89650545Y-129007521D01*
G37*
X89650545Y-129007521D02*
X89615940Y-129042125D01*
X89581335Y-129007521D01*
X89615940Y-128972916D01*
X89650545Y-129007521D01*
G36*
X89581335Y-128869101D02*
G01*
X89546730Y-128903706D01*
X89512125Y-128869101D01*
X89546730Y-128834496D01*
X89581335Y-128869101D01*
G37*
X89581335Y-128869101D02*
X89546730Y-128903706D01*
X89512125Y-128869101D01*
X89546730Y-128834496D01*
X89581335Y-128869101D01*
G36*
X89489056Y-128649937D02*
G01*
X89497339Y-128732072D01*
X89489056Y-128742216D01*
X89447910Y-128732716D01*
X89442916Y-128696076D01*
X89468238Y-128639109D01*
X89489056Y-128649937D01*
G37*
X89489056Y-128649937D02*
X89497339Y-128732072D01*
X89489056Y-128742216D01*
X89447910Y-128732716D01*
X89442916Y-128696076D01*
X89468238Y-128639109D01*
X89489056Y-128649937D01*
G36*
X89442916Y-128523052D02*
G01*
X89408311Y-128557657D01*
X89373706Y-128523052D01*
X89408311Y-128488447D01*
X89442916Y-128523052D01*
G37*
X89442916Y-128523052D02*
X89408311Y-128557657D01*
X89373706Y-128523052D01*
X89408311Y-128488447D01*
X89442916Y-128523052D01*
G36*
X89373706Y-128384632D02*
G01*
X89339101Y-128419237D01*
X89304496Y-128384632D01*
X89339101Y-128350027D01*
X89373706Y-128384632D01*
G37*
X89373706Y-128384632D02*
X89339101Y-128419237D01*
X89304496Y-128384632D01*
X89339101Y-128350027D01*
X89373706Y-128384632D01*
G36*
X89096867Y-127761744D02*
G01*
X89062262Y-127796349D01*
X89027657Y-127761744D01*
X89062262Y-127727139D01*
X89096867Y-127761744D01*
G37*
X89096867Y-127761744D02*
X89062262Y-127796349D01*
X89027657Y-127761744D01*
X89062262Y-127727139D01*
X89096867Y-127761744D01*
G36*
X89027657Y-127623324D02*
G01*
X88993052Y-127657929D01*
X88958447Y-127623324D01*
X88993052Y-127588719D01*
X89027657Y-127623324D01*
G37*
X89027657Y-127623324D02*
X88993052Y-127657929D01*
X88958447Y-127623324D01*
X88993052Y-127588719D01*
X89027657Y-127623324D01*
G36*
X88958447Y-127484905D02*
G01*
X88923842Y-127519510D01*
X88889237Y-127484905D01*
X88923842Y-127450300D01*
X88958447Y-127484905D01*
G37*
X88958447Y-127484905D02*
X88923842Y-127519510D01*
X88889237Y-127484905D01*
X88923842Y-127450300D01*
X88958447Y-127484905D01*
G36*
X88889237Y-127346485D02*
G01*
X88854632Y-127381090D01*
X88820027Y-127346485D01*
X88854632Y-127311880D01*
X88889237Y-127346485D01*
G37*
X88889237Y-127346485D02*
X88854632Y-127381090D01*
X88820027Y-127346485D01*
X88854632Y-127311880D01*
X88889237Y-127346485D01*
G36*
X88820027Y-127208065D02*
G01*
X88785422Y-127242670D01*
X88750818Y-127208065D01*
X88785422Y-127173461D01*
X88820027Y-127208065D01*
G37*
X88820027Y-127208065D02*
X88785422Y-127242670D01*
X88750818Y-127208065D01*
X88785422Y-127173461D01*
X88820027Y-127208065D01*
G36*
X88132676Y-126120335D02*
G01*
X88233823Y-126263530D01*
X88365971Y-126466434D01*
X88386232Y-126498665D01*
X88555726Y-126770090D01*
X88663374Y-126945313D01*
X88720976Y-127045337D01*
X88740332Y-127091162D01*
X88733243Y-127103788D01*
X88726501Y-127104251D01*
X88676861Y-127050019D01*
X88575714Y-126906825D01*
X88443566Y-126703920D01*
X88423305Y-126671689D01*
X88253811Y-126400265D01*
X88146163Y-126225041D01*
X88088561Y-126125017D01*
X88069205Y-126079193D01*
X88076294Y-126066566D01*
X88083036Y-126066104D01*
X88132676Y-126120335D01*
G37*
X88132676Y-126120335D02*
X88233823Y-126263530D01*
X88365971Y-126466434D01*
X88386232Y-126498665D01*
X88555726Y-126770090D01*
X88663374Y-126945313D01*
X88720976Y-127045337D01*
X88740332Y-127091162D01*
X88733243Y-127103788D01*
X88726501Y-127104251D01*
X88676861Y-127050019D01*
X88575714Y-126906825D01*
X88443566Y-126703920D01*
X88423305Y-126671689D01*
X88253811Y-126400265D01*
X88146163Y-126225041D01*
X88088561Y-126125017D01*
X88069205Y-126079193D01*
X88076294Y-126066566D01*
X88083036Y-126066104D01*
X88132676Y-126120335D01*
G36*
X87909606Y-125817260D02*
G01*
X87983323Y-125881597D01*
X87989510Y-125897164D01*
X87956664Y-125925610D01*
X87888281Y-125861869D01*
X87879086Y-125847781D01*
X87870929Y-125800421D01*
X87909606Y-125817260D01*
G37*
X87909606Y-125817260D02*
X87983323Y-125881597D01*
X87989510Y-125897164D01*
X87956664Y-125925610D01*
X87888281Y-125861869D01*
X87879086Y-125847781D01*
X87870929Y-125800421D01*
X87909606Y-125817260D01*
G36*
X87401132Y-125221615D02*
G01*
X87564448Y-125377238D01*
X87713122Y-125547030D01*
X87885192Y-125754659D01*
X87649807Y-125547030D01*
X87530603Y-125443853D01*
X87469389Y-125402495D01*
X87469331Y-125435835D01*
X87533595Y-125556750D01*
X87665345Y-125778118D01*
X87734868Y-125893079D01*
X87959556Y-126288521D01*
X88172207Y-126716426D01*
X88377205Y-127189827D01*
X88578934Y-127721754D01*
X88781777Y-128325238D01*
X88990119Y-129013309D01*
X89208344Y-129798998D01*
X89440836Y-130695336D01*
X89687773Y-131697926D01*
X89869349Y-132400192D01*
X90047085Y-132988032D01*
X90218735Y-133455149D01*
X90382054Y-133795247D01*
X90493995Y-133958838D01*
X90602607Y-134063548D01*
X90772267Y-134205158D01*
X90856329Y-134270282D01*
X90999298Y-134370538D01*
X91128695Y-134430772D01*
X91285985Y-134460449D01*
X91512632Y-134469032D01*
X91721452Y-134467724D01*
X92035711Y-134455305D01*
X92309155Y-134419902D01*
X92593927Y-134351183D01*
X92942168Y-134238812D01*
X93027918Y-134208816D01*
X93348043Y-134098570D01*
X93566672Y-134032792D01*
X93711589Y-134006487D01*
X93810579Y-134014665D01*
X93891427Y-134052330D01*
X93893041Y-134053344D01*
X94037426Y-134123705D01*
X94263277Y-134212161D01*
X94495232Y-134290951D01*
X95169808Y-134504943D01*
X95723766Y-134686000D01*
X96169286Y-134840234D01*
X96518548Y-134973757D01*
X96783731Y-135092684D01*
X96977014Y-135203127D01*
X97110578Y-135311199D01*
X97196603Y-135423013D01*
X97247267Y-135544682D01*
X97274750Y-135682319D01*
X97275279Y-135686267D01*
X97273969Y-135789277D01*
X97217151Y-135862745D01*
X97075620Y-135931221D01*
X96917575Y-135986963D01*
X96721026Y-136041209D01*
X96419676Y-136109976D01*
X96045515Y-136186620D01*
X95630534Y-136264497D01*
X95330668Y-136316558D01*
X94938849Y-136383664D01*
X94596322Y-136445211D01*
X94325673Y-136496904D01*
X94149488Y-136534452D01*
X94090659Y-136552239D01*
X94129224Y-136573441D01*
X94266673Y-136585172D01*
X94324514Y-136585995D01*
X94486718Y-136599246D01*
X94535720Y-136635073D01*
X94526376Y-136648529D01*
X94442304Y-136666470D01*
X94242282Y-136684493D01*
X93948778Y-136701995D01*
X93584260Y-136718371D01*
X93171195Y-136733015D01*
X92732051Y-136745322D01*
X92289297Y-136754688D01*
X91865401Y-136760509D01*
X91482829Y-136762179D01*
X91164050Y-136759093D01*
X90931532Y-136750647D01*
X90879019Y-136746713D01*
X90687390Y-136718533D01*
X90568906Y-136680384D01*
X90550273Y-136659809D01*
X90493188Y-136596935D01*
X90354652Y-136521843D01*
X90343390Y-136517094D01*
X90121086Y-136375547D01*
X89883106Y-136145249D01*
X89665129Y-135865987D01*
X89504729Y-135581851D01*
X89451109Y-135432085D01*
X89370939Y-135170723D01*
X89270659Y-134820599D01*
X89156711Y-134404548D01*
X89035532Y-133945405D01*
X88959015Y-133646821D01*
X88813184Y-133080986D01*
X88689613Y-132627372D01*
X88580847Y-132263008D01*
X88479427Y-131964924D01*
X88377899Y-131710148D01*
X88268804Y-131475709D01*
X88228349Y-131395944D01*
X87988616Y-130985583D01*
X87731040Y-130637905D01*
X87469244Y-130363717D01*
X87216853Y-130173827D01*
X86987490Y-130079041D01*
X86794779Y-130090166D01*
X86684887Y-130171600D01*
X86666584Y-130259092D01*
X86647066Y-130468110D01*
X86626879Y-130781775D01*
X86606568Y-131183205D01*
X86586681Y-131655519D01*
X86567763Y-132181835D01*
X86550362Y-132745272D01*
X86535022Y-133328950D01*
X86522292Y-133915988D01*
X86512716Y-134489503D01*
X86506842Y-135032615D01*
X86505216Y-135528443D01*
X86505841Y-135703570D01*
X86506244Y-136031967D01*
X86499850Y-136246225D01*
X86482147Y-136370602D01*
X86448620Y-136429361D01*
X86394757Y-136446761D01*
X86367421Y-136447575D01*
X86330160Y-136444765D01*
X86300010Y-136427487D01*
X86276206Y-136382470D01*
X86257982Y-136296440D01*
X86244573Y-136156127D01*
X86235214Y-135948258D01*
X86229141Y-135659562D01*
X86225587Y-135276766D01*
X86223789Y-134786599D01*
X86222980Y-134175788D01*
X86222795Y-133938719D01*
X86216289Y-133007148D01*
X86198656Y-132137127D01*
X86170587Y-131340213D01*
X86132770Y-130627959D01*
X86085897Y-130011918D01*
X86030658Y-129503646D01*
X85967743Y-129114695D01*
X85923804Y-128933846D01*
X85883969Y-128641008D01*
X85899881Y-128257934D01*
X85964528Y-127817762D01*
X86070897Y-127353630D01*
X86079226Y-127326769D01*
X87032708Y-127326769D01*
X87032744Y-127524395D01*
X87144339Y-127710249D01*
X87356802Y-127859166D01*
X87479439Y-127906489D01*
X87742877Y-127978804D01*
X87889900Y-127997062D01*
X87920300Y-127977319D01*
X87880370Y-127842779D01*
X87777830Y-127646594D01*
X87638560Y-127433566D01*
X87518274Y-127281332D01*
X87379438Y-127130257D01*
X87292621Y-127070672D01*
X87220518Y-127088327D01*
X87154922Y-127142539D01*
X87032708Y-127326769D01*
X86079226Y-127326769D01*
X86211973Y-126898674D01*
X86380745Y-126486033D01*
X86483950Y-126287168D01*
X86601071Y-126096701D01*
X86752160Y-125870336D01*
X86916634Y-125636430D01*
X87073907Y-125423342D01*
X87203395Y-125259428D01*
X87284514Y-125173047D01*
X87297532Y-125166376D01*
X87401132Y-125221615D01*
G37*
X87401132Y-125221615D02*
X87564448Y-125377238D01*
X87713122Y-125547030D01*
X87885192Y-125754659D01*
X87649807Y-125547030D01*
X87530603Y-125443853D01*
X87469389Y-125402495D01*
X87469331Y-125435835D01*
X87533595Y-125556750D01*
X87665345Y-125778118D01*
X87734868Y-125893079D01*
X87959556Y-126288521D01*
X88172207Y-126716426D01*
X88377205Y-127189827D01*
X88578934Y-127721754D01*
X88781777Y-128325238D01*
X88990119Y-129013309D01*
X89208344Y-129798998D01*
X89440836Y-130695336D01*
X89687773Y-131697926D01*
X89869349Y-132400192D01*
X90047085Y-132988032D01*
X90218735Y-133455149D01*
X90382054Y-133795247D01*
X90493995Y-133958838D01*
X90602607Y-134063548D01*
X90772267Y-134205158D01*
X90856329Y-134270282D01*
X90999298Y-134370538D01*
X91128695Y-134430772D01*
X91285985Y-134460449D01*
X91512632Y-134469032D01*
X91721452Y-134467724D01*
X92035711Y-134455305D01*
X92309155Y-134419902D01*
X92593927Y-134351183D01*
X92942168Y-134238812D01*
X93027918Y-134208816D01*
X93348043Y-134098570D01*
X93566672Y-134032792D01*
X93711589Y-134006487D01*
X93810579Y-134014665D01*
X93891427Y-134052330D01*
X93893041Y-134053344D01*
X94037426Y-134123705D01*
X94263277Y-134212161D01*
X94495232Y-134290951D01*
X95169808Y-134504943D01*
X95723766Y-134686000D01*
X96169286Y-134840234D01*
X96518548Y-134973757D01*
X96783731Y-135092684D01*
X96977014Y-135203127D01*
X97110578Y-135311199D01*
X97196603Y-135423013D01*
X97247267Y-135544682D01*
X97274750Y-135682319D01*
X97275279Y-135686267D01*
X97273969Y-135789277D01*
X97217151Y-135862745D01*
X97075620Y-135931221D01*
X96917575Y-135986963D01*
X96721026Y-136041209D01*
X96419676Y-136109976D01*
X96045515Y-136186620D01*
X95630534Y-136264497D01*
X95330668Y-136316558D01*
X94938849Y-136383664D01*
X94596322Y-136445211D01*
X94325673Y-136496904D01*
X94149488Y-136534452D01*
X94090659Y-136552239D01*
X94129224Y-136573441D01*
X94266673Y-136585172D01*
X94324514Y-136585995D01*
X94486718Y-136599246D01*
X94535720Y-136635073D01*
X94526376Y-136648529D01*
X94442304Y-136666470D01*
X94242282Y-136684493D01*
X93948778Y-136701995D01*
X93584260Y-136718371D01*
X93171195Y-136733015D01*
X92732051Y-136745322D01*
X92289297Y-136754688D01*
X91865401Y-136760509D01*
X91482829Y-136762179D01*
X91164050Y-136759093D01*
X90931532Y-136750647D01*
X90879019Y-136746713D01*
X90687390Y-136718533D01*
X90568906Y-136680384D01*
X90550273Y-136659809D01*
X90493188Y-136596935D01*
X90354652Y-136521843D01*
X90343390Y-136517094D01*
X90121086Y-136375547D01*
X89883106Y-136145249D01*
X89665129Y-135865987D01*
X89504729Y-135581851D01*
X89451109Y-135432085D01*
X89370939Y-135170723D01*
X89270659Y-134820599D01*
X89156711Y-134404548D01*
X89035532Y-133945405D01*
X88959015Y-133646821D01*
X88813184Y-133080986D01*
X88689613Y-132627372D01*
X88580847Y-132263008D01*
X88479427Y-131964924D01*
X88377899Y-131710148D01*
X88268804Y-131475709D01*
X88228349Y-131395944D01*
X87988616Y-130985583D01*
X87731040Y-130637905D01*
X87469244Y-130363717D01*
X87216853Y-130173827D01*
X86987490Y-130079041D01*
X86794779Y-130090166D01*
X86684887Y-130171600D01*
X86666584Y-130259092D01*
X86647066Y-130468110D01*
X86626879Y-130781775D01*
X86606568Y-131183205D01*
X86586681Y-131655519D01*
X86567763Y-132181835D01*
X86550362Y-132745272D01*
X86535022Y-133328950D01*
X86522292Y-133915988D01*
X86512716Y-134489503D01*
X86506842Y-135032615D01*
X86505216Y-135528443D01*
X86505841Y-135703570D01*
X86506244Y-136031967D01*
X86499850Y-136246225D01*
X86482147Y-136370602D01*
X86448620Y-136429361D01*
X86394757Y-136446761D01*
X86367421Y-136447575D01*
X86330160Y-136444765D01*
X86300010Y-136427487D01*
X86276206Y-136382470D01*
X86257982Y-136296440D01*
X86244573Y-136156127D01*
X86235214Y-135948258D01*
X86229141Y-135659562D01*
X86225587Y-135276766D01*
X86223789Y-134786599D01*
X86222980Y-134175788D01*
X86222795Y-133938719D01*
X86216289Y-133007148D01*
X86198656Y-132137127D01*
X86170587Y-131340213D01*
X86132770Y-130627959D01*
X86085897Y-130011918D01*
X86030658Y-129503646D01*
X85967743Y-129114695D01*
X85923804Y-128933846D01*
X85883969Y-128641008D01*
X85899881Y-128257934D01*
X85964528Y-127817762D01*
X86070897Y-127353630D01*
X86079226Y-127326769D01*
X87032708Y-127326769D01*
X87032744Y-127524395D01*
X87144339Y-127710249D01*
X87356802Y-127859166D01*
X87479439Y-127906489D01*
X87742877Y-127978804D01*
X87889900Y-127997062D01*
X87920300Y-127977319D01*
X87880370Y-127842779D01*
X87777830Y-127646594D01*
X87638560Y-127433566D01*
X87518274Y-127281332D01*
X87379438Y-127130257D01*
X87292621Y-127070672D01*
X87220518Y-127088327D01*
X87154922Y-127142539D01*
X87032708Y-127326769D01*
X86079226Y-127326769D01*
X86211973Y-126898674D01*
X86380745Y-126486033D01*
X86483950Y-126287168D01*
X86601071Y-126096701D01*
X86752160Y-125870336D01*
X86916634Y-125636430D01*
X87073907Y-125423342D01*
X87203395Y-125259428D01*
X87284514Y-125173047D01*
X87297532Y-125166376D01*
X87401132Y-125221615D01*
G36*
X93567409Y-133835369D02*
G01*
X93576658Y-133836303D01*
X93642148Y-133849136D01*
X93582853Y-133858871D01*
X93412400Y-133863813D01*
X93353270Y-133864102D01*
X93151233Y-133861052D01*
X93051286Y-133852468D01*
X93069730Y-133840050D01*
X93092189Y-133836861D01*
X93321058Y-133825242D01*
X93567409Y-133835369D01*
G37*
X93567409Y-133835369D02*
X93576658Y-133836303D01*
X93642148Y-133849136D01*
X93582853Y-133858871D01*
X93412400Y-133863813D01*
X93353270Y-133864102D01*
X93151233Y-133861052D01*
X93051286Y-133852468D01*
X93069730Y-133840050D01*
X93092189Y-133836861D01*
X93321058Y-133825242D01*
X93567409Y-133835369D01*
G36*
X92072888Y-133782997D02*
G01*
X92038283Y-133817602D01*
X92003679Y-133782997D01*
X92038283Y-133748392D01*
X92072888Y-133782997D01*
G37*
X92072888Y-133782997D02*
X92038283Y-133817602D01*
X92003679Y-133782997D01*
X92038283Y-133748392D01*
X92072888Y-133782997D01*
G36*
X90065804Y-130045668D02*
G01*
X90031199Y-130080273D01*
X89996594Y-130045668D01*
X90031199Y-130011063D01*
X90065804Y-130045668D01*
G37*
X90065804Y-130045668D02*
X90031199Y-130080273D01*
X89996594Y-130045668D01*
X90031199Y-130011063D01*
X90065804Y-130045668D01*
G36*
X89858174Y-129491989D02*
G01*
X89823570Y-129526594D01*
X89788965Y-129491989D01*
X89823570Y-129457384D01*
X89858174Y-129491989D01*
G37*
X89858174Y-129491989D02*
X89823570Y-129526594D01*
X89788965Y-129491989D01*
X89823570Y-129457384D01*
X89858174Y-129491989D01*
G36*
X89788965Y-129353570D02*
G01*
X89754360Y-129388174D01*
X89719755Y-129353570D01*
X89754360Y-129318965D01*
X89788965Y-129353570D01*
G37*
X89788965Y-129353570D02*
X89754360Y-129388174D01*
X89719755Y-129353570D01*
X89754360Y-129318965D01*
X89788965Y-129353570D01*
G36*
X89696685Y-129134405D02*
G01*
X89704968Y-129216541D01*
X89696685Y-129226685D01*
X89655540Y-129217185D01*
X89650545Y-129180545D01*
X89675868Y-129123578D01*
X89696685Y-129134405D01*
G37*
X89696685Y-129134405D02*
X89704968Y-129216541D01*
X89696685Y-129226685D01*
X89655540Y-129217185D01*
X89650545Y-129180545D01*
X89675868Y-129123578D01*
X89696685Y-129134405D01*
G36*
X89650545Y-129007521D02*
G01*
X89615940Y-129042125D01*
X89581335Y-129007521D01*
X89615940Y-128972916D01*
X89650545Y-129007521D01*
G37*
X89650545Y-129007521D02*
X89615940Y-129042125D01*
X89581335Y-129007521D01*
X89615940Y-128972916D01*
X89650545Y-129007521D01*
G36*
X89581335Y-128869101D02*
G01*
X89546730Y-128903706D01*
X89512125Y-128869101D01*
X89546730Y-128834496D01*
X89581335Y-128869101D01*
G37*
X89581335Y-128869101D02*
X89546730Y-128903706D01*
X89512125Y-128869101D01*
X89546730Y-128834496D01*
X89581335Y-128869101D01*
G36*
X89489056Y-128649937D02*
G01*
X89497339Y-128732072D01*
X89489056Y-128742216D01*
X89447910Y-128732716D01*
X89442916Y-128696076D01*
X89468238Y-128639109D01*
X89489056Y-128649937D01*
G37*
X89489056Y-128649937D02*
X89497339Y-128732072D01*
X89489056Y-128742216D01*
X89447910Y-128732716D01*
X89442916Y-128696076D01*
X89468238Y-128639109D01*
X89489056Y-128649937D01*
G36*
X89442916Y-128523052D02*
G01*
X89408311Y-128557657D01*
X89373706Y-128523052D01*
X89408311Y-128488447D01*
X89442916Y-128523052D01*
G37*
X89442916Y-128523052D02*
X89408311Y-128557657D01*
X89373706Y-128523052D01*
X89408311Y-128488447D01*
X89442916Y-128523052D01*
G36*
X89373706Y-128384632D02*
G01*
X89339101Y-128419237D01*
X89304496Y-128384632D01*
X89339101Y-128350027D01*
X89373706Y-128384632D01*
G37*
X89373706Y-128384632D02*
X89339101Y-128419237D01*
X89304496Y-128384632D01*
X89339101Y-128350027D01*
X89373706Y-128384632D01*
G36*
X89096867Y-127761744D02*
G01*
X89062262Y-127796349D01*
X89027657Y-127761744D01*
X89062262Y-127727139D01*
X89096867Y-127761744D01*
G37*
X89096867Y-127761744D02*
X89062262Y-127796349D01*
X89027657Y-127761744D01*
X89062262Y-127727139D01*
X89096867Y-127761744D01*
G36*
X89027657Y-127623324D02*
G01*
X88993052Y-127657929D01*
X88958447Y-127623324D01*
X88993052Y-127588719D01*
X89027657Y-127623324D01*
G37*
X89027657Y-127623324D02*
X88993052Y-127657929D01*
X88958447Y-127623324D01*
X88993052Y-127588719D01*
X89027657Y-127623324D01*
G36*
X88958447Y-127484905D02*
G01*
X88923842Y-127519510D01*
X88889237Y-127484905D01*
X88923842Y-127450300D01*
X88958447Y-127484905D01*
G37*
X88958447Y-127484905D02*
X88923842Y-127519510D01*
X88889237Y-127484905D01*
X88923842Y-127450300D01*
X88958447Y-127484905D01*
G36*
X88889237Y-127346485D02*
G01*
X88854632Y-127381090D01*
X88820027Y-127346485D01*
X88854632Y-127311880D01*
X88889237Y-127346485D01*
G37*
X88889237Y-127346485D02*
X88854632Y-127381090D01*
X88820027Y-127346485D01*
X88854632Y-127311880D01*
X88889237Y-127346485D01*
G36*
X88820027Y-127208065D02*
G01*
X88785422Y-127242670D01*
X88750818Y-127208065D01*
X88785422Y-127173461D01*
X88820027Y-127208065D01*
G37*
X88820027Y-127208065D02*
X88785422Y-127242670D01*
X88750818Y-127208065D01*
X88785422Y-127173461D01*
X88820027Y-127208065D01*
G36*
X88132676Y-126120335D02*
G01*
X88233823Y-126263530D01*
X88365971Y-126466434D01*
X88386232Y-126498665D01*
X88555726Y-126770090D01*
X88663374Y-126945313D01*
X88720976Y-127045337D01*
X88740332Y-127091162D01*
X88733243Y-127103788D01*
X88726501Y-127104251D01*
X88676861Y-127050019D01*
X88575714Y-126906825D01*
X88443566Y-126703920D01*
X88423305Y-126671689D01*
X88253811Y-126400265D01*
X88146163Y-126225041D01*
X88088561Y-126125017D01*
X88069205Y-126079193D01*
X88076294Y-126066566D01*
X88083036Y-126066104D01*
X88132676Y-126120335D01*
G37*
X88132676Y-126120335D02*
X88233823Y-126263530D01*
X88365971Y-126466434D01*
X88386232Y-126498665D01*
X88555726Y-126770090D01*
X88663374Y-126945313D01*
X88720976Y-127045337D01*
X88740332Y-127091162D01*
X88733243Y-127103788D01*
X88726501Y-127104251D01*
X88676861Y-127050019D01*
X88575714Y-126906825D01*
X88443566Y-126703920D01*
X88423305Y-126671689D01*
X88253811Y-126400265D01*
X88146163Y-126225041D01*
X88088561Y-126125017D01*
X88069205Y-126079193D01*
X88076294Y-126066566D01*
X88083036Y-126066104D01*
X88132676Y-126120335D01*
G36*
X87909606Y-125817260D02*
G01*
X87983323Y-125881597D01*
X87989510Y-125897164D01*
X87956664Y-125925610D01*
X87888281Y-125861869D01*
X87879086Y-125847781D01*
X87870929Y-125800421D01*
X87909606Y-125817260D01*
G37*
X87909606Y-125817260D02*
X87983323Y-125881597D01*
X87989510Y-125897164D01*
X87956664Y-125925610D01*
X87888281Y-125861869D01*
X87879086Y-125847781D01*
X87870929Y-125800421D01*
X87909606Y-125817260D01*
D11*
X91660000Y-54660000D03*
D12*
X84242000Y-65710000D03*
X98974000Y-65710000D03*
D13*
X100744000Y-215208000D03*
X82744000Y-215208000D03*
X82744000Y-22208000D03*
X91730000Y-184660000D03*
X91710000Y-116170000D03*
X100744000Y-22208000D03*
M02*
