G04 #@! TF.GenerationSoftware,KiCad,Pcbnew,(5.1.7)-1*
G04 #@! TF.CreationDate,2020-12-29T17:03:43+00:00*
G04 #@! TF.ProjectId,Panel,50616e65-6c2e-46b6-9963-61645f706362,rev?*
G04 #@! TF.SameCoordinates,Original*
G04 #@! TF.FileFunction,Legend,Bot*
G04 #@! TF.FilePolarity,Positive*
%FSLAX46Y46*%
G04 Gerber Fmt 4.6, Leading zero omitted, Abs format (unit mm)*
G04 Created by KiCad (PCBNEW (5.1.7)-1) date 2020-12-29 17:03:43*
%MOMM*%
%LPD*%
G01*
G04 APERTURE LIST*
%ADD10C,0.500000*%
G04 APERTURE END LIST*
D10*
X96843333Y-36877142D02*
X97510000Y-36877142D01*
X97510000Y-37924761D02*
X97510000Y-35924761D01*
X96557619Y-35924761D01*
X95510000Y-37924761D02*
X95700476Y-37829523D01*
X95795714Y-37734285D01*
X95890952Y-37543809D01*
X95890952Y-36972380D01*
X95795714Y-36781904D01*
X95700476Y-36686666D01*
X95510000Y-36591428D01*
X95224285Y-36591428D01*
X95033809Y-36686666D01*
X94938571Y-36781904D01*
X94843333Y-36972380D01*
X94843333Y-37543809D01*
X94938571Y-37734285D01*
X95033809Y-37829523D01*
X95224285Y-37924761D01*
X95510000Y-37924761D01*
X93986190Y-37924761D02*
X93986190Y-36591428D01*
X93986190Y-36972380D02*
X93890952Y-36781904D01*
X93795714Y-36686666D01*
X93605238Y-36591428D01*
X93414761Y-36591428D01*
X91224285Y-37924761D02*
X91224285Y-35924761D01*
X90081428Y-37924761D02*
X90938571Y-36781904D01*
X90081428Y-35924761D02*
X91224285Y-37067619D01*
X88367142Y-37924761D02*
X88367142Y-36877142D01*
X88462380Y-36686666D01*
X88652857Y-36591428D01*
X89033809Y-36591428D01*
X89224285Y-36686666D01*
X88367142Y-37829523D02*
X88557619Y-37924761D01*
X89033809Y-37924761D01*
X89224285Y-37829523D01*
X89319523Y-37639047D01*
X89319523Y-37448571D01*
X89224285Y-37258095D01*
X89033809Y-37162857D01*
X88557619Y-37162857D01*
X88367142Y-37067619D01*
X87700476Y-36591428D02*
X86938571Y-36591428D01*
X87414761Y-35924761D02*
X87414761Y-37639047D01*
X87319523Y-37829523D01*
X87129047Y-37924761D01*
X86938571Y-37924761D01*
X85510000Y-37829523D02*
X85700476Y-37924761D01*
X86081428Y-37924761D01*
X86271904Y-37829523D01*
X86367142Y-37639047D01*
X86367142Y-36877142D01*
X86271904Y-36686666D01*
X86081428Y-36591428D01*
X85700476Y-36591428D01*
X85510000Y-36686666D01*
X85414761Y-36877142D01*
X85414761Y-37067619D01*
X86367142Y-37258095D01*
X92890952Y-40377142D02*
X92605238Y-40472380D01*
X92510000Y-40567619D01*
X92414761Y-40758095D01*
X92414761Y-41043809D01*
X92510000Y-41234285D01*
X92605238Y-41329523D01*
X92795714Y-41424761D01*
X93557619Y-41424761D01*
X93557619Y-39424761D01*
X92890952Y-39424761D01*
X92700476Y-39520000D01*
X92605238Y-39615238D01*
X92510000Y-39805714D01*
X92510000Y-39996190D01*
X92605238Y-40186666D01*
X92700476Y-40281904D01*
X92890952Y-40377142D01*
X93557619Y-40377142D01*
X91748095Y-40091428D02*
X91271904Y-41424761D01*
X90795714Y-40091428D02*
X91271904Y-41424761D01*
X91462380Y-41900952D01*
X91557619Y-41996190D01*
X91748095Y-42091428D01*
X98605238Y-42924761D02*
X97462380Y-42924761D01*
X98033809Y-44924761D02*
X98033809Y-42924761D01*
X96986190Y-43591428D02*
X96605238Y-44924761D01*
X96224285Y-43972380D01*
X95843333Y-44924761D01*
X95462380Y-43591428D01*
X94700476Y-44924761D02*
X94700476Y-43591428D01*
X94700476Y-42924761D02*
X94795714Y-43020000D01*
X94700476Y-43115238D01*
X94605238Y-43020000D01*
X94700476Y-42924761D01*
X94700476Y-43115238D01*
X93748095Y-43591428D02*
X93748095Y-44924761D01*
X93748095Y-43781904D02*
X93652857Y-43686666D01*
X93462380Y-43591428D01*
X93176666Y-43591428D01*
X92986190Y-43686666D01*
X92890952Y-43877142D01*
X92890952Y-44924761D01*
X92224285Y-42924761D02*
X91081428Y-42924761D01*
X91652857Y-44924761D02*
X91652857Y-42924761D01*
X89557619Y-43591428D02*
X89557619Y-44924761D01*
X90414761Y-43591428D02*
X90414761Y-44639047D01*
X90319523Y-44829523D01*
X90129047Y-44924761D01*
X89843333Y-44924761D01*
X89652857Y-44829523D01*
X89557619Y-44734285D01*
X88605238Y-44924761D02*
X88605238Y-43591428D01*
X88605238Y-43972380D02*
X88510000Y-43781904D01*
X88414761Y-43686666D01*
X88224285Y-43591428D01*
X88033809Y-43591428D01*
X87367142Y-44924761D02*
X87367142Y-42924761D01*
X87367142Y-43686666D02*
X87176666Y-43591428D01*
X86795714Y-43591428D01*
X86605238Y-43686666D01*
X86510000Y-43781904D01*
X86414761Y-43972380D01*
X86414761Y-44543809D01*
X86510000Y-44734285D01*
X86605238Y-44829523D01*
X86795714Y-44924761D01*
X87176666Y-44924761D01*
X87367142Y-44829523D01*
X85271904Y-44924761D02*
X85462380Y-44829523D01*
X85557619Y-44734285D01*
X85652857Y-44543809D01*
X85652857Y-43972380D01*
X85557619Y-43781904D01*
X85462380Y-43686666D01*
X85271904Y-43591428D01*
X84986190Y-43591428D01*
X84795714Y-43686666D01*
X84700476Y-43781904D01*
X84605238Y-43972380D01*
X84605238Y-44543809D01*
X84700476Y-44734285D01*
X84795714Y-44829523D01*
X84986190Y-44924761D01*
X85271904Y-44924761D01*
M02*
