G04 #@! TF.GenerationSoftware,KiCad,Pcbnew,(5.1.7)-1*
G04 #@! TF.CreationDate,2020-12-29T17:03:43+00:00*
G04 #@! TF.ProjectId,Panel,50616e65-6c2e-46b6-9963-61645f706362,rev?*
G04 #@! TF.SameCoordinates,Original*
G04 #@! TF.FileFunction,Copper,L2,Bot*
G04 #@! TF.FilePolarity,Positive*
%FSLAX46Y46*%
G04 Gerber Fmt 4.6, Leading zero omitted, Abs format (unit mm)*
G04 Created by KiCad (PCBNEW (5.1.7)-1) date 2020-12-29 17:03:43*
%MOMM*%
%LPD*%
G01*
G04 APERTURE LIST*
G04 #@! TA.AperFunction,NonConductor*
%ADD10C,0.300000*%
G04 #@! TD*
G04 #@! TA.AperFunction,ComponentPad*
%ADD11C,7.000000*%
G04 #@! TD*
G04 #@! TA.AperFunction,ComponentPad*
%ADD12C,5.400000*%
G04 #@! TD*
G04 #@! TA.AperFunction,ComponentPad*
%ADD13C,5.600000*%
G04 #@! TD*
G04 #@! TA.AperFunction,Conductor*
%ADD14C,0.254000*%
G04 #@! TD*
G04 #@! TA.AperFunction,Conductor*
%ADD15C,0.100000*%
G04 #@! TD*
G04 APERTURE END LIST*
D10*
X103139714Y-165589071D02*
X103211142Y-165669428D01*
X103282571Y-165892642D01*
X103282571Y-166035500D01*
X103211142Y-166240857D01*
X103068285Y-166365857D01*
X102925428Y-166419428D01*
X102639714Y-166455142D01*
X102425428Y-166428357D01*
X102139714Y-166321214D01*
X101996857Y-166231928D01*
X101854000Y-166071214D01*
X101782571Y-165848000D01*
X101782571Y-165705142D01*
X101854000Y-165499785D01*
X101925428Y-165437285D01*
X103282571Y-164249785D02*
X103282571Y-164964071D01*
X101782571Y-164776571D01*
X102854000Y-163767642D02*
X102854000Y-163053357D01*
X103282571Y-163964071D02*
X101782571Y-163276571D01*
X103282571Y-162964071D01*
X102568285Y-162089071D02*
X103282571Y-162178357D01*
X101782571Y-162490857D02*
X102568285Y-162089071D01*
X101782571Y-161490857D01*
X101782571Y-161205142D02*
X101782571Y-160348000D01*
X103282571Y-160964071D02*
X101782571Y-160776571D01*
X101782571Y-159848000D02*
X102996857Y-159999785D01*
X103139714Y-159946214D01*
X103211142Y-159883714D01*
X103282571Y-159749785D01*
X103282571Y-159464071D01*
X103211142Y-159312285D01*
X103139714Y-159231928D01*
X102996857Y-159142642D01*
X101782571Y-158990857D01*
X103282571Y-158464071D02*
X101782571Y-158276571D01*
X103282571Y-157606928D01*
X101782571Y-157419428D01*
X102496857Y-156794428D02*
X102496857Y-156294428D01*
X103282571Y-156178357D02*
X103282571Y-156892642D01*
X101782571Y-156705142D01*
X101782571Y-155990857D01*
X102711142Y-154321214D02*
X102711142Y-153178357D01*
X102496857Y-150794428D02*
X102568285Y-150589071D01*
X102639714Y-150526571D01*
X102782571Y-150473000D01*
X102996857Y-150499785D01*
X103139714Y-150589071D01*
X103211142Y-150669428D01*
X103282571Y-150821214D01*
X103282571Y-151392642D01*
X101782571Y-151205142D01*
X101782571Y-150705142D01*
X101854000Y-150571214D01*
X101925428Y-150508714D01*
X102068285Y-150455142D01*
X102211142Y-150473000D01*
X102354000Y-150562285D01*
X102425428Y-150642642D01*
X102496857Y-150794428D01*
X102496857Y-151294428D01*
X103282571Y-149892642D02*
X102282571Y-149767642D01*
X101782571Y-149705142D02*
X101854000Y-149785500D01*
X101925428Y-149723000D01*
X101854000Y-149642642D01*
X101782571Y-149705142D01*
X101925428Y-149723000D01*
X102282571Y-148410500D02*
X103496857Y-148562285D01*
X103639714Y-148651571D01*
X103711142Y-148731928D01*
X103782571Y-148883714D01*
X103782571Y-149098000D01*
X103711142Y-149231928D01*
X103211142Y-148526571D02*
X103282571Y-148678357D01*
X103282571Y-148964071D01*
X103211142Y-149098000D01*
X103139714Y-149160500D01*
X102996857Y-149214071D01*
X102568285Y-149160500D01*
X102425428Y-149071214D01*
X102354000Y-148990857D01*
X102282571Y-148839071D01*
X102282571Y-148553357D01*
X102354000Y-148419428D01*
X103282571Y-145821214D02*
X102568285Y-146231928D01*
X103282571Y-146678357D02*
X101782571Y-146490857D01*
X101782571Y-145919428D01*
X101854000Y-145785500D01*
X101925428Y-145723000D01*
X102068285Y-145669428D01*
X102282571Y-145696214D01*
X102425428Y-145785500D01*
X102496857Y-145865857D01*
X102568285Y-146017642D01*
X102568285Y-146589071D01*
X103211142Y-144598000D02*
X103282571Y-144749785D01*
X103282571Y-145035500D01*
X103211142Y-145169428D01*
X103068285Y-145223000D01*
X102496857Y-145151571D01*
X102354000Y-145062285D01*
X102282571Y-144910500D01*
X102282571Y-144624785D01*
X102354000Y-144490857D01*
X102496857Y-144437285D01*
X102639714Y-144455142D01*
X102782571Y-145187285D01*
X103282571Y-143249785D02*
X101782571Y-143062285D01*
X103211142Y-143240857D02*
X103282571Y-143392642D01*
X103282571Y-143678357D01*
X103211142Y-143812285D01*
X103139714Y-143874785D01*
X102996857Y-143928357D01*
X102568285Y-143874785D01*
X102425428Y-143785500D01*
X102354000Y-143705142D01*
X102282571Y-143553357D01*
X102282571Y-143267642D01*
X102354000Y-143133714D01*
X102496857Y-140794428D02*
X102568285Y-140589071D01*
X102639714Y-140526571D01*
X102782571Y-140473000D01*
X102996857Y-140499785D01*
X103139714Y-140589071D01*
X103211142Y-140669428D01*
X103282571Y-140821214D01*
X103282571Y-141392642D01*
X101782571Y-141205142D01*
X101782571Y-140705142D01*
X101854000Y-140571214D01*
X101925428Y-140508714D01*
X102068285Y-140455142D01*
X102211142Y-140473000D01*
X102354000Y-140562285D01*
X102425428Y-140642642D01*
X102496857Y-140794428D01*
X102496857Y-141294428D01*
X102282571Y-139124785D02*
X103282571Y-139249785D01*
X102282571Y-139767642D02*
X103068285Y-139865857D01*
X103211142Y-139812285D01*
X103282571Y-139678357D01*
X103282571Y-139464071D01*
X103211142Y-139312285D01*
X103139714Y-139231928D01*
X103211142Y-138598000D02*
X103282571Y-138464071D01*
X103282571Y-138178357D01*
X103211142Y-138026571D01*
X103068285Y-137937285D01*
X102996857Y-137928357D01*
X102854000Y-137981928D01*
X102782571Y-138115857D01*
X102782571Y-138330142D01*
X102711142Y-138464071D01*
X102568285Y-138517642D01*
X102496857Y-138508714D01*
X102354000Y-138419428D01*
X102282571Y-138267642D01*
X102282571Y-138053357D01*
X102354000Y-137919428D01*
X103211142Y-137383714D02*
X103282571Y-137249785D01*
X103282571Y-136964071D01*
X103211142Y-136812285D01*
X103068285Y-136723000D01*
X102996857Y-136714071D01*
X102854000Y-136767642D01*
X102782571Y-136901571D01*
X102782571Y-137115857D01*
X102711142Y-137249785D01*
X102568285Y-137303357D01*
X102496857Y-137294428D01*
X102354000Y-137205142D01*
X102282571Y-137053357D01*
X102282571Y-136839071D01*
X102354000Y-136705142D01*
X101782571Y-134990857D02*
X103282571Y-134678357D01*
X101782571Y-133990857D01*
X101782571Y-133205142D02*
X101782571Y-133062285D01*
X101854000Y-132928357D01*
X101925428Y-132865857D01*
X102068285Y-132812285D01*
X102354000Y-132776571D01*
X102711142Y-132821214D01*
X102996857Y-132928357D01*
X103139714Y-133017642D01*
X103211142Y-133098000D01*
X103282571Y-133249785D01*
X103282571Y-133392642D01*
X103211142Y-133526571D01*
X103139714Y-133589071D01*
X102996857Y-133642642D01*
X102711142Y-133678357D01*
X102354000Y-133633714D01*
X102068285Y-133526571D01*
X101925428Y-133437285D01*
X101854000Y-133356928D01*
X101782571Y-133205142D01*
X103139714Y-132231928D02*
X103211142Y-132169428D01*
X103282571Y-132249785D01*
X103211142Y-132312285D01*
X103139714Y-132231928D01*
X103282571Y-132249785D01*
X103282571Y-130749785D02*
X103282571Y-131606928D01*
X103282571Y-131178357D02*
X101782571Y-130990857D01*
X101996857Y-131160499D01*
X102139714Y-131321214D01*
X102211142Y-131473000D01*
X103139714Y-130089071D02*
X103211142Y-130026571D01*
X103282571Y-130106928D01*
X103211142Y-130169428D01*
X103139714Y-130089071D01*
X103282571Y-130106928D01*
X101782571Y-128919428D02*
X101782571Y-128776571D01*
X101854000Y-128642642D01*
X101925428Y-128580142D01*
X102068285Y-128526571D01*
X102354000Y-128490857D01*
X102711142Y-128535500D01*
X102996857Y-128642642D01*
X103139714Y-128731928D01*
X103211142Y-128812285D01*
X103282571Y-128964071D01*
X103282571Y-129106928D01*
X103211142Y-129240857D01*
X103139714Y-129303357D01*
X102996857Y-129356928D01*
X102711142Y-129392642D01*
X102354000Y-129348000D01*
X102068285Y-129240857D01*
X101925428Y-129151571D01*
X101854000Y-129071214D01*
X101782571Y-128919428D01*
X102711142Y-126749785D02*
X102711142Y-125606928D01*
X102496857Y-123223000D02*
X102568285Y-123017642D01*
X102639714Y-122955142D01*
X102782571Y-122901571D01*
X102996857Y-122928357D01*
X103139714Y-123017642D01*
X103211142Y-123098000D01*
X103282571Y-123249785D01*
X103282571Y-123821214D01*
X101782571Y-123633714D01*
X101782571Y-123133714D01*
X101854000Y-122999785D01*
X101925428Y-122937285D01*
X102068285Y-122883714D01*
X102211142Y-122901571D01*
X102354000Y-122990857D01*
X102425428Y-123071214D01*
X102496857Y-123223000D01*
X102496857Y-123723000D01*
X102282571Y-122339071D02*
X103282571Y-122106928D01*
X102282571Y-121624785D02*
X103282571Y-122106928D01*
X103639714Y-122294428D01*
X103711142Y-122374785D01*
X103782571Y-122526571D01*
X101782571Y-120062285D02*
X101782571Y-119205142D01*
X103282571Y-119821214D02*
X101782571Y-119633714D01*
X102282571Y-118910500D02*
X103282571Y-118749785D01*
X102568285Y-118374785D01*
X103282571Y-118178357D01*
X102282571Y-117767642D01*
X103282571Y-117321214D02*
X102282571Y-117196214D01*
X101782571Y-117133714D02*
X101854000Y-117214071D01*
X101925428Y-117151571D01*
X101854000Y-117071214D01*
X101782571Y-117133714D01*
X101925428Y-117151571D01*
X102282571Y-116481928D02*
X103282571Y-116606928D01*
X102425428Y-116499785D02*
X102354000Y-116419428D01*
X102282571Y-116267642D01*
X102282571Y-116053357D01*
X102354000Y-115919428D01*
X102496857Y-115865857D01*
X103282571Y-115964071D01*
X101782571Y-115276571D02*
X101782571Y-114419428D01*
X103282571Y-115035499D02*
X101782571Y-114847999D01*
X102282571Y-113339071D02*
X103282571Y-113464071D01*
X102282571Y-113981928D02*
X103068285Y-114080142D01*
X103211142Y-114026571D01*
X103282571Y-113892642D01*
X103282571Y-113678357D01*
X103211142Y-113526571D01*
X103139714Y-113446214D01*
X103282571Y-112749785D02*
X102282571Y-112624785D01*
X102568285Y-112660500D02*
X102425428Y-112571214D01*
X102354000Y-112490857D01*
X102282571Y-112339071D01*
X102282571Y-112196214D01*
X103282571Y-111821214D02*
X101782571Y-111633714D01*
X102354000Y-111705142D02*
X102282571Y-111553357D01*
X102282571Y-111267642D01*
X102354000Y-111133714D01*
X102425428Y-111071214D01*
X102568285Y-111017642D01*
X102996857Y-111071214D01*
X103139714Y-111160500D01*
X103211142Y-111240857D01*
X103282571Y-111392642D01*
X103282571Y-111678357D01*
X103211142Y-111812285D01*
X103282571Y-110249785D02*
X103211142Y-110383714D01*
X103139714Y-110446214D01*
X102996857Y-110499785D01*
X102568285Y-110446214D01*
X102425428Y-110356928D01*
X102354000Y-110276571D01*
X102282571Y-110124785D01*
X102282571Y-109910500D01*
X102354000Y-109776571D01*
X102425428Y-109714071D01*
X102568285Y-109660500D01*
X102996857Y-109714071D01*
X103139714Y-109803357D01*
X103211142Y-109883714D01*
X103282571Y-110035500D01*
X103282571Y-110249785D01*
X102711142Y-105606928D02*
X102711142Y-104464071D01*
X101782571Y-102062285D02*
X102854000Y-102196214D01*
X103068285Y-102294428D01*
X103211142Y-102455142D01*
X103282571Y-102678357D01*
X103282571Y-102821214D01*
X103282571Y-100821214D02*
X103282571Y-101535500D01*
X101782571Y-101348000D01*
X103139714Y-99446214D02*
X103211142Y-99526571D01*
X103282571Y-99749785D01*
X103282571Y-99892642D01*
X103211142Y-100098000D01*
X103068285Y-100223000D01*
X102925428Y-100276571D01*
X102639714Y-100312285D01*
X102425428Y-100285500D01*
X102139714Y-100178357D01*
X101996857Y-100089071D01*
X101854000Y-99928357D01*
X101782571Y-99705142D01*
X101782571Y-99562285D01*
X101854000Y-99356928D01*
X101925428Y-99294428D01*
X101782571Y-98205142D02*
X102854000Y-98339071D01*
X103068285Y-98437285D01*
X103211142Y-98598000D01*
X103282571Y-98821214D01*
X103282571Y-98964071D01*
X103282571Y-96964071D02*
X103282571Y-97678357D01*
X101782571Y-97490857D01*
X103139714Y-95589071D02*
X103211142Y-95669428D01*
X103282571Y-95892642D01*
X103282571Y-96035500D01*
X103211142Y-96240857D01*
X103068285Y-96365857D01*
X102925428Y-96419428D01*
X102639714Y-96455142D01*
X102425428Y-96428357D01*
X102139714Y-96321214D01*
X101996857Y-96231928D01*
X101854000Y-96071214D01*
X101782571Y-95848000D01*
X101782571Y-95705142D01*
X101854000Y-95499785D01*
X101925428Y-95437285D01*
X101782571Y-94348000D02*
X102854000Y-94481928D01*
X103068285Y-94580142D01*
X103211142Y-94740857D01*
X103282571Y-94964071D01*
X103282571Y-95106928D01*
X103282571Y-93106928D02*
X103282571Y-93821214D01*
X101782571Y-93633714D01*
X103139714Y-91731928D02*
X103211142Y-91812285D01*
X103282571Y-92035499D01*
X103282571Y-92178357D01*
X103211142Y-92383714D01*
X103068285Y-92508714D01*
X102925428Y-92562285D01*
X102639714Y-92597999D01*
X102425428Y-92571214D01*
X102139714Y-92464071D01*
X101996857Y-92374785D01*
X101854000Y-92214071D01*
X101782571Y-91990857D01*
X101782571Y-91847999D01*
X101854000Y-91642642D01*
X101925428Y-91580142D01*
X101782571Y-90490857D02*
X102854000Y-90624785D01*
X103068285Y-90722999D01*
X103211142Y-90883714D01*
X103282571Y-91106928D01*
X103282571Y-91249785D01*
X103282571Y-89249785D02*
X103282571Y-89964071D01*
X101782571Y-89776571D01*
X103139714Y-87874785D02*
X103211142Y-87955142D01*
X103282571Y-88178357D01*
X103282571Y-88321214D01*
X103211142Y-88526571D01*
X103068285Y-88651571D01*
X102925428Y-88705142D01*
X102639714Y-88740857D01*
X102425428Y-88714071D01*
X102139714Y-88606928D01*
X101996857Y-88517642D01*
X101854000Y-88356928D01*
X101782571Y-88133714D01*
X101782571Y-87990857D01*
X101854000Y-87785499D01*
X101925428Y-87722999D01*
D11*
X91660000Y-54660000D03*
D12*
X84242000Y-65710000D03*
X98974000Y-65710000D03*
D13*
X100744000Y-215208000D03*
X82744000Y-215208000D03*
X82744000Y-22208000D03*
X91730000Y-184660000D03*
X91710000Y-116170000D03*
X100744000Y-22208000D03*
D14*
X80507124Y-19791519D02*
X82744000Y-22028395D01*
X84980876Y-19791519D01*
X84686209Y-19368000D01*
X98801791Y-19368000D01*
X98507124Y-19791519D01*
X100744000Y-22028395D01*
X102980876Y-19791519D01*
X102686209Y-19368000D01*
X103584001Y-19368000D01*
X103584001Y-20265792D01*
X103160481Y-19971124D01*
X100923605Y-22208000D01*
X103160481Y-24444876D01*
X103584001Y-24150208D01*
X103584001Y-86665857D01*
X100814000Y-86665857D01*
X100814000Y-167450143D01*
X103584000Y-167450143D01*
X103584000Y-213265791D01*
X103160481Y-212971124D01*
X100923605Y-215208000D01*
X103160481Y-217444876D01*
X103584000Y-217150209D01*
X103584000Y-218048000D01*
X102686209Y-218048000D01*
X102980876Y-217624481D01*
X100744000Y-215387605D01*
X98507124Y-217624481D01*
X98801791Y-218048000D01*
X84686209Y-218048000D01*
X84980876Y-217624481D01*
X82744000Y-215387605D01*
X80507124Y-217624481D01*
X80801791Y-218048000D01*
X79904000Y-218048000D01*
X79904000Y-217150209D01*
X80327519Y-217444876D01*
X82564395Y-215208000D01*
X82923605Y-215208000D01*
X85160481Y-217444876D01*
X85609177Y-217132692D01*
X85929612Y-216536741D01*
X86127626Y-215889727D01*
X86195610Y-215216516D01*
X86193975Y-215199484D01*
X97292390Y-215199484D01*
X97357051Y-215873023D01*
X97551870Y-216521006D01*
X97869361Y-217118530D01*
X97878823Y-217132692D01*
X98327519Y-217444876D01*
X100564395Y-215208000D01*
X98327519Y-212971124D01*
X97878823Y-213283308D01*
X97558388Y-213879259D01*
X97360374Y-214526273D01*
X97292390Y-215199484D01*
X86193975Y-215199484D01*
X86130949Y-214542977D01*
X85936130Y-213894994D01*
X85618639Y-213297470D01*
X85609177Y-213283308D01*
X85160481Y-212971124D01*
X82923605Y-215208000D01*
X82564395Y-215208000D01*
X80327519Y-212971124D01*
X79904000Y-213265791D01*
X79904000Y-212791519D01*
X80507124Y-212791519D01*
X82744000Y-215028395D01*
X84980876Y-212791519D01*
X98507124Y-212791519D01*
X100744000Y-215028395D01*
X102980876Y-212791519D01*
X102668692Y-212342823D01*
X102072741Y-212022388D01*
X101425727Y-211824374D01*
X100752516Y-211756390D01*
X100078977Y-211821051D01*
X99430994Y-212015870D01*
X98833470Y-212333361D01*
X98819308Y-212342823D01*
X98507124Y-212791519D01*
X84980876Y-212791519D01*
X84668692Y-212342823D01*
X84072741Y-212022388D01*
X83425727Y-211824374D01*
X82752516Y-211756390D01*
X82078977Y-211821051D01*
X81430994Y-212015870D01*
X80833470Y-212333361D01*
X80819308Y-212342823D01*
X80507124Y-212791519D01*
X79904000Y-212791519D01*
X79904000Y-187076481D01*
X89493124Y-187076481D01*
X89805308Y-187525177D01*
X90401259Y-187845612D01*
X91048273Y-188043626D01*
X91721484Y-188111610D01*
X92395023Y-188046949D01*
X93043006Y-187852130D01*
X93640530Y-187534639D01*
X93654692Y-187525177D01*
X93966876Y-187076481D01*
X91730000Y-184839605D01*
X89493124Y-187076481D01*
X79904000Y-187076481D01*
X79904000Y-184651484D01*
X88278390Y-184651484D01*
X88343051Y-185325023D01*
X88537870Y-185973006D01*
X88855361Y-186570530D01*
X88864823Y-186584692D01*
X89313519Y-186896876D01*
X91550395Y-184660000D01*
X91909605Y-184660000D01*
X94146481Y-186896876D01*
X94595177Y-186584692D01*
X94915612Y-185988741D01*
X95113626Y-185341727D01*
X95181610Y-184668516D01*
X95116949Y-183994977D01*
X94922130Y-183346994D01*
X94604639Y-182749470D01*
X94595177Y-182735308D01*
X94146481Y-182423124D01*
X91909605Y-184660000D01*
X91550395Y-184660000D01*
X89313519Y-182423124D01*
X88864823Y-182735308D01*
X88544388Y-183331259D01*
X88346374Y-183978273D01*
X88278390Y-184651484D01*
X79904000Y-184651484D01*
X79904000Y-182243519D01*
X89493124Y-182243519D01*
X91730000Y-184480395D01*
X93966876Y-182243519D01*
X93654692Y-181794823D01*
X93058741Y-181474388D01*
X92411727Y-181276374D01*
X91738516Y-181208390D01*
X91064977Y-181273051D01*
X90416994Y-181467870D01*
X89819470Y-181785361D01*
X89805308Y-181794823D01*
X89493124Y-182243519D01*
X79904000Y-182243519D01*
X79904000Y-118586481D01*
X89473124Y-118586481D01*
X89785308Y-119035177D01*
X90381259Y-119355612D01*
X91028273Y-119553626D01*
X91701484Y-119621610D01*
X92375023Y-119556949D01*
X93023006Y-119362130D01*
X93620530Y-119044639D01*
X93634692Y-119035177D01*
X93946876Y-118586481D01*
X91710000Y-116349605D01*
X89473124Y-118586481D01*
X79904000Y-118586481D01*
X79904000Y-116161484D01*
X88258390Y-116161484D01*
X88323051Y-116835023D01*
X88517870Y-117483006D01*
X88835361Y-118080530D01*
X88844823Y-118094692D01*
X89293519Y-118406876D01*
X91530395Y-116170000D01*
X91889605Y-116170000D01*
X94126481Y-118406876D01*
X94575177Y-118094692D01*
X94895612Y-117498741D01*
X95093626Y-116851727D01*
X95161610Y-116178516D01*
X95096949Y-115504977D01*
X94902130Y-114856994D01*
X94584639Y-114259470D01*
X94575177Y-114245308D01*
X94126481Y-113933124D01*
X91889605Y-116170000D01*
X91530395Y-116170000D01*
X89293519Y-113933124D01*
X88844823Y-114245308D01*
X88524388Y-114841259D01*
X88326374Y-115488273D01*
X88258390Y-116161484D01*
X79904000Y-116161484D01*
X79904000Y-113753519D01*
X89473124Y-113753519D01*
X91710000Y-115990395D01*
X93946876Y-113753519D01*
X93634692Y-113304823D01*
X93038741Y-112984388D01*
X92391727Y-112786374D01*
X91718516Y-112718390D01*
X91044977Y-112783051D01*
X90396994Y-112977870D01*
X89799470Y-113295361D01*
X89785308Y-113304823D01*
X89473124Y-113753519D01*
X79904000Y-113753519D01*
X79904000Y-68055374D01*
X82076231Y-68055374D01*
X82376411Y-68493828D01*
X82955356Y-68804296D01*
X83583746Y-68995852D01*
X84237431Y-69061134D01*
X84891293Y-68997634D01*
X85520203Y-68807792D01*
X86099992Y-68498904D01*
X86107589Y-68493828D01*
X86407769Y-68055374D01*
X96808231Y-68055374D01*
X97108411Y-68493828D01*
X97687356Y-68804296D01*
X98315746Y-68995852D01*
X98969431Y-69061134D01*
X99623293Y-68997634D01*
X100252203Y-68807792D01*
X100831992Y-68498904D01*
X100839589Y-68493828D01*
X101139769Y-68055374D01*
X98974000Y-65889605D01*
X96808231Y-68055374D01*
X86407769Y-68055374D01*
X84242000Y-65889605D01*
X82076231Y-68055374D01*
X79904000Y-68055374D01*
X79904000Y-65705431D01*
X80890866Y-65705431D01*
X80954366Y-66359293D01*
X81144208Y-66988203D01*
X81453096Y-67567992D01*
X81458172Y-67575589D01*
X81896626Y-67875769D01*
X84062395Y-65710000D01*
X84421605Y-65710000D01*
X86587374Y-67875769D01*
X87025828Y-67575589D01*
X87336296Y-66996644D01*
X87527852Y-66368254D01*
X87593134Y-65714569D01*
X87592247Y-65705431D01*
X95622866Y-65705431D01*
X95686366Y-66359293D01*
X95876208Y-66988203D01*
X96185096Y-67567992D01*
X96190172Y-67575589D01*
X96628626Y-67875769D01*
X98794395Y-65710000D01*
X99153605Y-65710000D01*
X101319374Y-67875769D01*
X101757828Y-67575589D01*
X102068296Y-66996644D01*
X102259852Y-66368254D01*
X102325134Y-65714569D01*
X102261634Y-65060707D01*
X102071792Y-64431797D01*
X101762904Y-63852008D01*
X101757828Y-63844411D01*
X101319374Y-63544231D01*
X99153605Y-65710000D01*
X98794395Y-65710000D01*
X96628626Y-63544231D01*
X96190172Y-63844411D01*
X95879704Y-64423356D01*
X95688148Y-65051746D01*
X95622866Y-65705431D01*
X87592247Y-65705431D01*
X87529634Y-65060707D01*
X87339792Y-64431797D01*
X87030904Y-63852008D01*
X87025828Y-63844411D01*
X86587374Y-63544231D01*
X84421605Y-65710000D01*
X84062395Y-65710000D01*
X81896626Y-63544231D01*
X81458172Y-63844411D01*
X81147704Y-64423356D01*
X80956148Y-65051746D01*
X80890866Y-65705431D01*
X79904000Y-65705431D01*
X79904000Y-63364626D01*
X82076231Y-63364626D01*
X84242000Y-65530395D01*
X86407769Y-63364626D01*
X96808231Y-63364626D01*
X98974000Y-65530395D01*
X101139769Y-63364626D01*
X100839589Y-62926172D01*
X100260644Y-62615704D01*
X99632254Y-62424148D01*
X98978569Y-62358866D01*
X98324707Y-62422366D01*
X97695797Y-62612208D01*
X97116008Y-62921096D01*
X97108411Y-62926172D01*
X96808231Y-63364626D01*
X86407769Y-63364626D01*
X86107589Y-62926172D01*
X85528644Y-62615704D01*
X84900254Y-62424148D01*
X84246569Y-62358866D01*
X83592707Y-62422366D01*
X82963797Y-62612208D01*
X82384008Y-62921096D01*
X82376411Y-62926172D01*
X82076231Y-63364626D01*
X79904000Y-63364626D01*
X79904000Y-57574155D01*
X88925450Y-57574155D01*
X89321634Y-58094550D01*
X90036612Y-58484748D01*
X90813976Y-58727964D01*
X91623853Y-58814851D01*
X92435118Y-58742069D01*
X93216597Y-58512415D01*
X93938256Y-58134715D01*
X93998366Y-58094550D01*
X94394550Y-57574155D01*
X91660000Y-54839605D01*
X88925450Y-57574155D01*
X79904000Y-57574155D01*
X79904000Y-54623853D01*
X87505149Y-54623853D01*
X87577931Y-55435118D01*
X87807585Y-56216597D01*
X88185285Y-56938256D01*
X88225450Y-56998366D01*
X88745845Y-57394550D01*
X91480395Y-54660000D01*
X91839605Y-54660000D01*
X94574155Y-57394550D01*
X95094550Y-56998366D01*
X95484748Y-56283388D01*
X95727964Y-55506024D01*
X95814851Y-54696147D01*
X95742069Y-53884882D01*
X95512415Y-53103403D01*
X95134715Y-52381744D01*
X95094550Y-52321634D01*
X94574155Y-51925450D01*
X91839605Y-54660000D01*
X91480395Y-54660000D01*
X88745845Y-51925450D01*
X88225450Y-52321634D01*
X87835252Y-53036612D01*
X87592036Y-53813976D01*
X87505149Y-54623853D01*
X79904000Y-54623853D01*
X79904000Y-51745845D01*
X88925450Y-51745845D01*
X91660000Y-54480395D01*
X94394550Y-51745845D01*
X93998366Y-51225450D01*
X93283388Y-50835252D01*
X92506024Y-50592036D01*
X91696147Y-50505149D01*
X90884882Y-50577931D01*
X90103403Y-50807585D01*
X89381744Y-51185285D01*
X89321634Y-51225450D01*
X88925450Y-51745845D01*
X79904000Y-51745845D01*
X79904000Y-24624481D01*
X80507124Y-24624481D01*
X80819308Y-25073177D01*
X81415259Y-25393612D01*
X82062273Y-25591626D01*
X82735484Y-25659610D01*
X83409023Y-25594949D01*
X84057006Y-25400130D01*
X84654530Y-25082639D01*
X84668692Y-25073177D01*
X84980876Y-24624481D01*
X98507124Y-24624481D01*
X98819308Y-25073177D01*
X99415259Y-25393612D01*
X100062273Y-25591626D01*
X100735484Y-25659610D01*
X101409023Y-25594949D01*
X102057006Y-25400130D01*
X102654530Y-25082639D01*
X102668692Y-25073177D01*
X102980876Y-24624481D01*
X100744000Y-22387605D01*
X98507124Y-24624481D01*
X84980876Y-24624481D01*
X82744000Y-22387605D01*
X80507124Y-24624481D01*
X79904000Y-24624481D01*
X79904000Y-24150209D01*
X80327519Y-24444876D01*
X82564395Y-22208000D01*
X82923605Y-22208000D01*
X85160481Y-24444876D01*
X85609177Y-24132692D01*
X85929612Y-23536741D01*
X86127626Y-22889727D01*
X86195610Y-22216516D01*
X86193975Y-22199484D01*
X97292390Y-22199484D01*
X97357051Y-22873023D01*
X97551870Y-23521006D01*
X97869361Y-24118530D01*
X97878823Y-24132692D01*
X98327519Y-24444876D01*
X100564395Y-22208000D01*
X98327519Y-19971124D01*
X97878823Y-20283308D01*
X97558388Y-20879259D01*
X97360374Y-21526273D01*
X97292390Y-22199484D01*
X86193975Y-22199484D01*
X86130949Y-21542977D01*
X85936130Y-20894994D01*
X85618639Y-20297470D01*
X85609177Y-20283308D01*
X85160481Y-19971124D01*
X82923605Y-22208000D01*
X82564395Y-22208000D01*
X80327519Y-19971124D01*
X79904000Y-20265791D01*
X79904000Y-19368000D01*
X80801791Y-19368000D01*
X80507124Y-19791519D01*
G04 #@! TA.AperFunction,Conductor*
D15*
G36*
X80507124Y-19791519D02*
G01*
X82744000Y-22028395D01*
X84980876Y-19791519D01*
X84686209Y-19368000D01*
X98801791Y-19368000D01*
X98507124Y-19791519D01*
X100744000Y-22028395D01*
X102980876Y-19791519D01*
X102686209Y-19368000D01*
X103584001Y-19368000D01*
X103584001Y-20265792D01*
X103160481Y-19971124D01*
X100923605Y-22208000D01*
X103160481Y-24444876D01*
X103584001Y-24150208D01*
X103584001Y-86665857D01*
X100814000Y-86665857D01*
X100814000Y-167450143D01*
X103584000Y-167450143D01*
X103584000Y-213265791D01*
X103160481Y-212971124D01*
X100923605Y-215208000D01*
X103160481Y-217444876D01*
X103584000Y-217150209D01*
X103584000Y-218048000D01*
X102686209Y-218048000D01*
X102980876Y-217624481D01*
X100744000Y-215387605D01*
X98507124Y-217624481D01*
X98801791Y-218048000D01*
X84686209Y-218048000D01*
X84980876Y-217624481D01*
X82744000Y-215387605D01*
X80507124Y-217624481D01*
X80801791Y-218048000D01*
X79904000Y-218048000D01*
X79904000Y-217150209D01*
X80327519Y-217444876D01*
X82564395Y-215208000D01*
X82923605Y-215208000D01*
X85160481Y-217444876D01*
X85609177Y-217132692D01*
X85929612Y-216536741D01*
X86127626Y-215889727D01*
X86195610Y-215216516D01*
X86193975Y-215199484D01*
X97292390Y-215199484D01*
X97357051Y-215873023D01*
X97551870Y-216521006D01*
X97869361Y-217118530D01*
X97878823Y-217132692D01*
X98327519Y-217444876D01*
X100564395Y-215208000D01*
X98327519Y-212971124D01*
X97878823Y-213283308D01*
X97558388Y-213879259D01*
X97360374Y-214526273D01*
X97292390Y-215199484D01*
X86193975Y-215199484D01*
X86130949Y-214542977D01*
X85936130Y-213894994D01*
X85618639Y-213297470D01*
X85609177Y-213283308D01*
X85160481Y-212971124D01*
X82923605Y-215208000D01*
X82564395Y-215208000D01*
X80327519Y-212971124D01*
X79904000Y-213265791D01*
X79904000Y-212791519D01*
X80507124Y-212791519D01*
X82744000Y-215028395D01*
X84980876Y-212791519D01*
X98507124Y-212791519D01*
X100744000Y-215028395D01*
X102980876Y-212791519D01*
X102668692Y-212342823D01*
X102072741Y-212022388D01*
X101425727Y-211824374D01*
X100752516Y-211756390D01*
X100078977Y-211821051D01*
X99430994Y-212015870D01*
X98833470Y-212333361D01*
X98819308Y-212342823D01*
X98507124Y-212791519D01*
X84980876Y-212791519D01*
X84668692Y-212342823D01*
X84072741Y-212022388D01*
X83425727Y-211824374D01*
X82752516Y-211756390D01*
X82078977Y-211821051D01*
X81430994Y-212015870D01*
X80833470Y-212333361D01*
X80819308Y-212342823D01*
X80507124Y-212791519D01*
X79904000Y-212791519D01*
X79904000Y-187076481D01*
X89493124Y-187076481D01*
X89805308Y-187525177D01*
X90401259Y-187845612D01*
X91048273Y-188043626D01*
X91721484Y-188111610D01*
X92395023Y-188046949D01*
X93043006Y-187852130D01*
X93640530Y-187534639D01*
X93654692Y-187525177D01*
X93966876Y-187076481D01*
X91730000Y-184839605D01*
X89493124Y-187076481D01*
X79904000Y-187076481D01*
X79904000Y-184651484D01*
X88278390Y-184651484D01*
X88343051Y-185325023D01*
X88537870Y-185973006D01*
X88855361Y-186570530D01*
X88864823Y-186584692D01*
X89313519Y-186896876D01*
X91550395Y-184660000D01*
X91909605Y-184660000D01*
X94146481Y-186896876D01*
X94595177Y-186584692D01*
X94915612Y-185988741D01*
X95113626Y-185341727D01*
X95181610Y-184668516D01*
X95116949Y-183994977D01*
X94922130Y-183346994D01*
X94604639Y-182749470D01*
X94595177Y-182735308D01*
X94146481Y-182423124D01*
X91909605Y-184660000D01*
X91550395Y-184660000D01*
X89313519Y-182423124D01*
X88864823Y-182735308D01*
X88544388Y-183331259D01*
X88346374Y-183978273D01*
X88278390Y-184651484D01*
X79904000Y-184651484D01*
X79904000Y-182243519D01*
X89493124Y-182243519D01*
X91730000Y-184480395D01*
X93966876Y-182243519D01*
X93654692Y-181794823D01*
X93058741Y-181474388D01*
X92411727Y-181276374D01*
X91738516Y-181208390D01*
X91064977Y-181273051D01*
X90416994Y-181467870D01*
X89819470Y-181785361D01*
X89805308Y-181794823D01*
X89493124Y-182243519D01*
X79904000Y-182243519D01*
X79904000Y-118586481D01*
X89473124Y-118586481D01*
X89785308Y-119035177D01*
X90381259Y-119355612D01*
X91028273Y-119553626D01*
X91701484Y-119621610D01*
X92375023Y-119556949D01*
X93023006Y-119362130D01*
X93620530Y-119044639D01*
X93634692Y-119035177D01*
X93946876Y-118586481D01*
X91710000Y-116349605D01*
X89473124Y-118586481D01*
X79904000Y-118586481D01*
X79904000Y-116161484D01*
X88258390Y-116161484D01*
X88323051Y-116835023D01*
X88517870Y-117483006D01*
X88835361Y-118080530D01*
X88844823Y-118094692D01*
X89293519Y-118406876D01*
X91530395Y-116170000D01*
X91889605Y-116170000D01*
X94126481Y-118406876D01*
X94575177Y-118094692D01*
X94895612Y-117498741D01*
X95093626Y-116851727D01*
X95161610Y-116178516D01*
X95096949Y-115504977D01*
X94902130Y-114856994D01*
X94584639Y-114259470D01*
X94575177Y-114245308D01*
X94126481Y-113933124D01*
X91889605Y-116170000D01*
X91530395Y-116170000D01*
X89293519Y-113933124D01*
X88844823Y-114245308D01*
X88524388Y-114841259D01*
X88326374Y-115488273D01*
X88258390Y-116161484D01*
X79904000Y-116161484D01*
X79904000Y-113753519D01*
X89473124Y-113753519D01*
X91710000Y-115990395D01*
X93946876Y-113753519D01*
X93634692Y-113304823D01*
X93038741Y-112984388D01*
X92391727Y-112786374D01*
X91718516Y-112718390D01*
X91044977Y-112783051D01*
X90396994Y-112977870D01*
X89799470Y-113295361D01*
X89785308Y-113304823D01*
X89473124Y-113753519D01*
X79904000Y-113753519D01*
X79904000Y-68055374D01*
X82076231Y-68055374D01*
X82376411Y-68493828D01*
X82955356Y-68804296D01*
X83583746Y-68995852D01*
X84237431Y-69061134D01*
X84891293Y-68997634D01*
X85520203Y-68807792D01*
X86099992Y-68498904D01*
X86107589Y-68493828D01*
X86407769Y-68055374D01*
X96808231Y-68055374D01*
X97108411Y-68493828D01*
X97687356Y-68804296D01*
X98315746Y-68995852D01*
X98969431Y-69061134D01*
X99623293Y-68997634D01*
X100252203Y-68807792D01*
X100831992Y-68498904D01*
X100839589Y-68493828D01*
X101139769Y-68055374D01*
X98974000Y-65889605D01*
X96808231Y-68055374D01*
X86407769Y-68055374D01*
X84242000Y-65889605D01*
X82076231Y-68055374D01*
X79904000Y-68055374D01*
X79904000Y-65705431D01*
X80890866Y-65705431D01*
X80954366Y-66359293D01*
X81144208Y-66988203D01*
X81453096Y-67567992D01*
X81458172Y-67575589D01*
X81896626Y-67875769D01*
X84062395Y-65710000D01*
X84421605Y-65710000D01*
X86587374Y-67875769D01*
X87025828Y-67575589D01*
X87336296Y-66996644D01*
X87527852Y-66368254D01*
X87593134Y-65714569D01*
X87592247Y-65705431D01*
X95622866Y-65705431D01*
X95686366Y-66359293D01*
X95876208Y-66988203D01*
X96185096Y-67567992D01*
X96190172Y-67575589D01*
X96628626Y-67875769D01*
X98794395Y-65710000D01*
X99153605Y-65710000D01*
X101319374Y-67875769D01*
X101757828Y-67575589D01*
X102068296Y-66996644D01*
X102259852Y-66368254D01*
X102325134Y-65714569D01*
X102261634Y-65060707D01*
X102071792Y-64431797D01*
X101762904Y-63852008D01*
X101757828Y-63844411D01*
X101319374Y-63544231D01*
X99153605Y-65710000D01*
X98794395Y-65710000D01*
X96628626Y-63544231D01*
X96190172Y-63844411D01*
X95879704Y-64423356D01*
X95688148Y-65051746D01*
X95622866Y-65705431D01*
X87592247Y-65705431D01*
X87529634Y-65060707D01*
X87339792Y-64431797D01*
X87030904Y-63852008D01*
X87025828Y-63844411D01*
X86587374Y-63544231D01*
X84421605Y-65710000D01*
X84062395Y-65710000D01*
X81896626Y-63544231D01*
X81458172Y-63844411D01*
X81147704Y-64423356D01*
X80956148Y-65051746D01*
X80890866Y-65705431D01*
X79904000Y-65705431D01*
X79904000Y-63364626D01*
X82076231Y-63364626D01*
X84242000Y-65530395D01*
X86407769Y-63364626D01*
X96808231Y-63364626D01*
X98974000Y-65530395D01*
X101139769Y-63364626D01*
X100839589Y-62926172D01*
X100260644Y-62615704D01*
X99632254Y-62424148D01*
X98978569Y-62358866D01*
X98324707Y-62422366D01*
X97695797Y-62612208D01*
X97116008Y-62921096D01*
X97108411Y-62926172D01*
X96808231Y-63364626D01*
X86407769Y-63364626D01*
X86107589Y-62926172D01*
X85528644Y-62615704D01*
X84900254Y-62424148D01*
X84246569Y-62358866D01*
X83592707Y-62422366D01*
X82963797Y-62612208D01*
X82384008Y-62921096D01*
X82376411Y-62926172D01*
X82076231Y-63364626D01*
X79904000Y-63364626D01*
X79904000Y-57574155D01*
X88925450Y-57574155D01*
X89321634Y-58094550D01*
X90036612Y-58484748D01*
X90813976Y-58727964D01*
X91623853Y-58814851D01*
X92435118Y-58742069D01*
X93216597Y-58512415D01*
X93938256Y-58134715D01*
X93998366Y-58094550D01*
X94394550Y-57574155D01*
X91660000Y-54839605D01*
X88925450Y-57574155D01*
X79904000Y-57574155D01*
X79904000Y-54623853D01*
X87505149Y-54623853D01*
X87577931Y-55435118D01*
X87807585Y-56216597D01*
X88185285Y-56938256D01*
X88225450Y-56998366D01*
X88745845Y-57394550D01*
X91480395Y-54660000D01*
X91839605Y-54660000D01*
X94574155Y-57394550D01*
X95094550Y-56998366D01*
X95484748Y-56283388D01*
X95727964Y-55506024D01*
X95814851Y-54696147D01*
X95742069Y-53884882D01*
X95512415Y-53103403D01*
X95134715Y-52381744D01*
X95094550Y-52321634D01*
X94574155Y-51925450D01*
X91839605Y-54660000D01*
X91480395Y-54660000D01*
X88745845Y-51925450D01*
X88225450Y-52321634D01*
X87835252Y-53036612D01*
X87592036Y-53813976D01*
X87505149Y-54623853D01*
X79904000Y-54623853D01*
X79904000Y-51745845D01*
X88925450Y-51745845D01*
X91660000Y-54480395D01*
X94394550Y-51745845D01*
X93998366Y-51225450D01*
X93283388Y-50835252D01*
X92506024Y-50592036D01*
X91696147Y-50505149D01*
X90884882Y-50577931D01*
X90103403Y-50807585D01*
X89381744Y-51185285D01*
X89321634Y-51225450D01*
X88925450Y-51745845D01*
X79904000Y-51745845D01*
X79904000Y-24624481D01*
X80507124Y-24624481D01*
X80819308Y-25073177D01*
X81415259Y-25393612D01*
X82062273Y-25591626D01*
X82735484Y-25659610D01*
X83409023Y-25594949D01*
X84057006Y-25400130D01*
X84654530Y-25082639D01*
X84668692Y-25073177D01*
X84980876Y-24624481D01*
X98507124Y-24624481D01*
X98819308Y-25073177D01*
X99415259Y-25393612D01*
X100062273Y-25591626D01*
X100735484Y-25659610D01*
X101409023Y-25594949D01*
X102057006Y-25400130D01*
X102654530Y-25082639D01*
X102668692Y-25073177D01*
X102980876Y-24624481D01*
X100744000Y-22387605D01*
X98507124Y-24624481D01*
X84980876Y-24624481D01*
X82744000Y-22387605D01*
X80507124Y-24624481D01*
X79904000Y-24624481D01*
X79904000Y-24150209D01*
X80327519Y-24444876D01*
X82564395Y-22208000D01*
X82923605Y-22208000D01*
X85160481Y-24444876D01*
X85609177Y-24132692D01*
X85929612Y-23536741D01*
X86127626Y-22889727D01*
X86195610Y-22216516D01*
X86193975Y-22199484D01*
X97292390Y-22199484D01*
X97357051Y-22873023D01*
X97551870Y-23521006D01*
X97869361Y-24118530D01*
X97878823Y-24132692D01*
X98327519Y-24444876D01*
X100564395Y-22208000D01*
X98327519Y-19971124D01*
X97878823Y-20283308D01*
X97558388Y-20879259D01*
X97360374Y-21526273D01*
X97292390Y-22199484D01*
X86193975Y-22199484D01*
X86130949Y-21542977D01*
X85936130Y-20894994D01*
X85618639Y-20297470D01*
X85609177Y-20283308D01*
X85160481Y-19971124D01*
X82923605Y-22208000D01*
X82564395Y-22208000D01*
X80327519Y-19971124D01*
X79904000Y-20265791D01*
X79904000Y-19368000D01*
X80801791Y-19368000D01*
X80507124Y-19791519D01*
G37*
G04 #@! TD.AperFunction*
M02*
