%TF.GenerationSoftware,KiCad,Pcbnew,(5.1.7)-1*%
%TF.CreationDate,2020-12-29T17:02:45+00:00*%
%TF.ProjectId,BussBar,42757373-4261-4722-9e6b-696361645f70,rev?*%
%TF.SameCoordinates,Original*%
%TF.FileFunction,Legend,Top*%
%TF.FilePolarity,Positive*%
%FSLAX46Y46*%
G04 Gerber Fmt 4.6, Leading zero omitted, Abs format (unit mm)*
G04 Created by KiCad (PCBNEW (5.1.7)-1) date 2020-12-29 17:02:45*
%MOMM*%
%LPD*%
G01*
G04 APERTURE LIST*
%ADD10C,0.300000*%
%ADD11C,0.010000*%
%ADD12C,0.120000*%
%ADD13C,0.150000*%
G04 APERTURE END LIST*
D10*
X154690714Y-151148214D02*
X154762142Y-151228571D01*
X154833571Y-151451785D01*
X154833571Y-151594642D01*
X154762142Y-151800000D01*
X154619285Y-151925000D01*
X154476428Y-151978571D01*
X154190714Y-152014285D01*
X153976428Y-151987500D01*
X153690714Y-151880357D01*
X153547857Y-151791071D01*
X153405000Y-151630357D01*
X153333571Y-151407142D01*
X153333571Y-151264285D01*
X153405000Y-151058928D01*
X153476428Y-150996428D01*
X154833571Y-149808928D02*
X154833571Y-150523214D01*
X153333571Y-150335714D01*
X154405000Y-149326785D02*
X154405000Y-148612500D01*
X154833571Y-149523214D02*
X153333571Y-148835714D01*
X154833571Y-148523214D01*
X154119285Y-147648214D02*
X154833571Y-147737500D01*
X153333571Y-148050000D02*
X154119285Y-147648214D01*
X153333571Y-147050000D01*
X153333571Y-146764285D02*
X153333571Y-145907142D01*
X154833571Y-146523214D02*
X153333571Y-146335714D01*
X153333571Y-145407142D02*
X154547857Y-145558928D01*
X154690714Y-145505357D01*
X154762142Y-145442857D01*
X154833571Y-145308928D01*
X154833571Y-145023214D01*
X154762142Y-144871428D01*
X154690714Y-144791071D01*
X154547857Y-144701785D01*
X153333571Y-144550000D01*
X154833571Y-144023214D02*
X153333571Y-143835714D01*
X154833571Y-143166071D01*
X153333571Y-142978571D01*
X154047857Y-142353571D02*
X154047857Y-141853571D01*
X154833571Y-141737500D02*
X154833571Y-142451785D01*
X153333571Y-142264285D01*
X153333571Y-141550000D01*
X156597857Y-153603571D02*
X156669285Y-153398214D01*
X156740714Y-153335714D01*
X156883571Y-153282142D01*
X157097857Y-153308928D01*
X157240714Y-153398214D01*
X157312142Y-153478571D01*
X157383571Y-153630357D01*
X157383571Y-154201785D01*
X155883571Y-154014285D01*
X155883571Y-153514285D01*
X155955000Y-153380357D01*
X156026428Y-153317857D01*
X156169285Y-153264285D01*
X156312142Y-153282142D01*
X156455000Y-153371428D01*
X156526428Y-153451785D01*
X156597857Y-153603571D01*
X156597857Y-154103571D01*
X157383571Y-152701785D02*
X156383571Y-152576785D01*
X155883571Y-152514285D02*
X155955000Y-152594642D01*
X156026428Y-152532142D01*
X155955000Y-152451785D01*
X155883571Y-152514285D01*
X156026428Y-152532142D01*
X156383571Y-151219642D02*
X157597857Y-151371428D01*
X157740714Y-151460714D01*
X157812142Y-151541071D01*
X157883571Y-151692857D01*
X157883571Y-151907142D01*
X157812142Y-152041071D01*
X157312142Y-151335714D02*
X157383571Y-151487500D01*
X157383571Y-151773214D01*
X157312142Y-151907142D01*
X157240714Y-151969642D01*
X157097857Y-152023214D01*
X156669285Y-151969642D01*
X156526428Y-151880357D01*
X156455000Y-151800000D01*
X156383571Y-151648214D01*
X156383571Y-151362500D01*
X156455000Y-151228571D01*
X157383571Y-148630357D02*
X156669285Y-149041071D01*
X157383571Y-149487500D02*
X155883571Y-149300000D01*
X155883571Y-148728571D01*
X155955000Y-148594642D01*
X156026428Y-148532142D01*
X156169285Y-148478571D01*
X156383571Y-148505357D01*
X156526428Y-148594642D01*
X156597857Y-148675000D01*
X156669285Y-148826785D01*
X156669285Y-149398214D01*
X157312142Y-147407142D02*
X157383571Y-147558928D01*
X157383571Y-147844642D01*
X157312142Y-147978571D01*
X157169285Y-148032142D01*
X156597857Y-147960714D01*
X156455000Y-147871428D01*
X156383571Y-147719642D01*
X156383571Y-147433928D01*
X156455000Y-147300000D01*
X156597857Y-147246428D01*
X156740714Y-147264285D01*
X156883571Y-147996428D01*
X157383571Y-146058928D02*
X155883571Y-145871428D01*
X157312142Y-146050000D02*
X157383571Y-146201785D01*
X157383571Y-146487500D01*
X157312142Y-146621428D01*
X157240714Y-146683928D01*
X157097857Y-146737500D01*
X156669285Y-146683928D01*
X156526428Y-146594642D01*
X156455000Y-146514285D01*
X156383571Y-146362500D01*
X156383571Y-146076785D01*
X156455000Y-145942857D01*
X156597857Y-143603571D02*
X156669285Y-143398214D01*
X156740714Y-143335714D01*
X156883571Y-143282142D01*
X157097857Y-143308928D01*
X157240714Y-143398214D01*
X157312142Y-143478571D01*
X157383571Y-143630357D01*
X157383571Y-144201785D01*
X155883571Y-144014285D01*
X155883571Y-143514285D01*
X155955000Y-143380357D01*
X156026428Y-143317857D01*
X156169285Y-143264285D01*
X156312142Y-143282142D01*
X156455000Y-143371428D01*
X156526428Y-143451785D01*
X156597857Y-143603571D01*
X156597857Y-144103571D01*
X156383571Y-141933928D02*
X157383571Y-142058928D01*
X156383571Y-142576785D02*
X157169285Y-142675000D01*
X157312142Y-142621428D01*
X157383571Y-142487500D01*
X157383571Y-142273214D01*
X157312142Y-142121428D01*
X157240714Y-142041071D01*
X157312142Y-141407142D02*
X157383571Y-141273214D01*
X157383571Y-140987500D01*
X157312142Y-140835714D01*
X157169285Y-140746428D01*
X157097857Y-140737500D01*
X156955000Y-140791071D01*
X156883571Y-140925000D01*
X156883571Y-141139285D01*
X156812142Y-141273214D01*
X156669285Y-141326785D01*
X156597857Y-141317857D01*
X156455000Y-141228571D01*
X156383571Y-141076785D01*
X156383571Y-140862500D01*
X156455000Y-140728571D01*
X157312142Y-140192857D02*
X157383571Y-140058928D01*
X157383571Y-139773214D01*
X157312142Y-139621428D01*
X157169285Y-139532142D01*
X157097857Y-139523214D01*
X156955000Y-139576785D01*
X156883571Y-139710714D01*
X156883571Y-139925000D01*
X156812142Y-140058928D01*
X156669285Y-140112500D01*
X156597857Y-140103571D01*
X156455000Y-140014285D01*
X156383571Y-139862500D01*
X156383571Y-139648214D01*
X156455000Y-139514285D01*
X159147857Y-153889285D02*
X159219285Y-153683928D01*
X159290714Y-153621428D01*
X159433571Y-153567857D01*
X159647857Y-153594642D01*
X159790714Y-153683928D01*
X159862142Y-153764285D01*
X159933571Y-153916071D01*
X159933571Y-154487500D01*
X158433571Y-154300000D01*
X158433571Y-153800000D01*
X158505000Y-153666071D01*
X158576428Y-153603571D01*
X158719285Y-153550000D01*
X158862142Y-153567857D01*
X159005000Y-153657142D01*
X159076428Y-153737500D01*
X159147857Y-153889285D01*
X159147857Y-154389285D01*
X158933571Y-153005357D02*
X159933571Y-152773214D01*
X158933571Y-152291071D02*
X159933571Y-152773214D01*
X160290714Y-152960714D01*
X160362142Y-153041071D01*
X160433571Y-153192857D01*
X158433571Y-150728571D02*
X158433571Y-149871428D01*
X159933571Y-150487500D02*
X158433571Y-150300000D01*
X158933571Y-149576785D02*
X159933571Y-149416071D01*
X159219285Y-149041071D01*
X159933571Y-148844642D01*
X158933571Y-148433928D01*
X159933571Y-147987500D02*
X158933571Y-147862500D01*
X158433571Y-147800000D02*
X158505000Y-147880357D01*
X158576428Y-147817857D01*
X158505000Y-147737500D01*
X158433571Y-147800000D01*
X158576428Y-147817857D01*
X158933571Y-147148214D02*
X159933571Y-147273214D01*
X159076428Y-147166071D02*
X159005000Y-147085714D01*
X158933571Y-146933928D01*
X158933571Y-146719642D01*
X159005000Y-146585714D01*
X159147857Y-146532142D01*
X159933571Y-146630357D01*
X158433571Y-145942857D02*
X158433571Y-145085714D01*
X159933571Y-145701785D02*
X158433571Y-145514285D01*
X158933571Y-144005357D02*
X159933571Y-144130357D01*
X158933571Y-144648214D02*
X159719285Y-144746428D01*
X159862142Y-144692857D01*
X159933571Y-144558928D01*
X159933571Y-144344642D01*
X159862142Y-144192857D01*
X159790714Y-144112500D01*
X159933571Y-143416071D02*
X158933571Y-143291071D01*
X159219285Y-143326785D02*
X159076428Y-143237500D01*
X159005000Y-143157142D01*
X158933571Y-143005357D01*
X158933571Y-142862500D01*
X159933571Y-142487500D02*
X158433571Y-142300000D01*
X159005000Y-142371428D02*
X158933571Y-142219642D01*
X158933571Y-141933928D01*
X159005000Y-141800000D01*
X159076428Y-141737500D01*
X159219285Y-141683928D01*
X159647857Y-141737500D01*
X159790714Y-141826785D01*
X159862142Y-141907142D01*
X159933571Y-142058928D01*
X159933571Y-142344642D01*
X159862142Y-142478571D01*
X159933571Y-140916071D02*
X159862142Y-141050000D01*
X159790714Y-141112500D01*
X159647857Y-141166071D01*
X159219285Y-141112500D01*
X159076428Y-141023214D01*
X159005000Y-140942857D01*
X158933571Y-140791071D01*
X158933571Y-140576785D01*
X159005000Y-140442857D01*
X159076428Y-140380357D01*
X159219285Y-140326785D01*
X159647857Y-140380357D01*
X159790714Y-140469642D01*
X159862142Y-140550000D01*
X159933571Y-140701785D01*
X159933571Y-140916071D01*
X160983571Y-150085714D02*
X162483571Y-149773214D01*
X160983571Y-149085714D01*
X160983571Y-148300000D02*
X160983571Y-148157142D01*
X161055000Y-148023214D01*
X161126428Y-147960714D01*
X161269285Y-147907142D01*
X161555000Y-147871428D01*
X161912142Y-147916071D01*
X162197857Y-148023214D01*
X162340714Y-148112500D01*
X162412142Y-148192857D01*
X162483571Y-148344642D01*
X162483571Y-148487500D01*
X162412142Y-148621428D01*
X162340714Y-148683928D01*
X162197857Y-148737500D01*
X161912142Y-148773214D01*
X161555000Y-148728571D01*
X161269285Y-148621428D01*
X161126428Y-148532142D01*
X161055000Y-148451785D01*
X160983571Y-148300000D01*
X162340714Y-147326785D02*
X162412142Y-147264285D01*
X162483571Y-147344642D01*
X162412142Y-147407142D01*
X162340714Y-147326785D01*
X162483571Y-147344642D01*
X162483571Y-145844642D02*
X162483571Y-146701785D01*
X162483571Y-146273214D02*
X160983571Y-146085714D01*
X161197857Y-146255357D01*
X161340714Y-146416071D01*
X161412142Y-146567857D01*
X162340714Y-145183928D02*
X162412142Y-145121428D01*
X162483571Y-145201785D01*
X162412142Y-145264285D01*
X162340714Y-145183928D01*
X162483571Y-145201785D01*
X160983571Y-144014285D02*
X160983571Y-143871428D01*
X161055000Y-143737500D01*
X161126428Y-143675000D01*
X161269285Y-143621428D01*
X161555000Y-143585714D01*
X161912142Y-143630357D01*
X162197857Y-143737500D01*
X162340714Y-143826785D01*
X162412142Y-143907142D01*
X162483571Y-144058928D01*
X162483571Y-144201785D01*
X162412142Y-144335714D01*
X162340714Y-144398214D01*
X162197857Y-144451785D01*
X161912142Y-144487500D01*
X161555000Y-144442857D01*
X161269285Y-144335714D01*
X161126428Y-144246428D01*
X161055000Y-144166071D01*
X160983571Y-144014285D01*
D11*
%TO.C,GIJO*%
G36*
X209563831Y-145453036D02*
G01*
X210119462Y-144906019D01*
X211316770Y-144103654D01*
X212449600Y-143954847D01*
X213391139Y-144286735D01*
X214057639Y-144460914D01*
X214983049Y-144318016D01*
X215816523Y-144048161D01*
X216811746Y-143652815D01*
X217254773Y-143332427D01*
X217271940Y-142968562D01*
X217180161Y-142769814D01*
X216947762Y-141913825D01*
X216936446Y-141156304D01*
X217152988Y-140450515D01*
X217709879Y-140242180D01*
X217928334Y-140244817D01*
X218665805Y-140177362D01*
X218990201Y-140008203D01*
X219432367Y-139741416D01*
X220224923Y-139497492D01*
X220877956Y-139389551D01*
X220916707Y-139509066D01*
X220750556Y-139640509D01*
X220477085Y-139947040D01*
X220594935Y-140021821D01*
X221145635Y-139830315D01*
X221653269Y-139509275D01*
X222777210Y-139032515D01*
X224127545Y-139167497D01*
X225266775Y-139638807D01*
X226785893Y-140355154D01*
X228887245Y-141240453D01*
X231610518Y-142311200D01*
X232629342Y-142699314D01*
X234138298Y-143187246D01*
X235732613Y-143576281D01*
X236686286Y-143733275D01*
X237868855Y-143939682D01*
X239451925Y-144315511D01*
X241170738Y-144795154D01*
X241948094Y-145037119D01*
X245330354Y-146131100D01*
X249532816Y-145172615D01*
X251538766Y-144758614D01*
X253654171Y-144393701D01*
X255589621Y-144124430D01*
X256733889Y-144014247D01*
X258377340Y-143848012D01*
X259614882Y-143608153D01*
X260298217Y-143323591D01*
X260305029Y-143317802D01*
X260766151Y-143015272D01*
X260982883Y-143279501D01*
X261028849Y-143452703D01*
X261093392Y-144340059D01*
X261051513Y-144682327D01*
X260687311Y-145126692D01*
X259767255Y-145358304D01*
X259445748Y-145387883D01*
X258433996Y-145559124D01*
X258053936Y-145867982D01*
X258056806Y-145936250D01*
X257864327Y-146278034D01*
X257256475Y-146362490D01*
X256471544Y-146197858D01*
X255831177Y-145859275D01*
X254875170Y-145410173D01*
X253721458Y-145435815D01*
X252229840Y-145944623D01*
X251899025Y-146095503D01*
X250246849Y-146872117D01*
X252557762Y-147298624D01*
X254120564Y-147659383D01*
X255719141Y-148140900D01*
X256651083Y-148491903D01*
X257805979Y-148930230D01*
X258572956Y-149043212D01*
X259171190Y-148863870D01*
X259770011Y-148689766D01*
X259908865Y-149032778D01*
X259577004Y-149865954D01*
X259573431Y-149872638D01*
X259269353Y-150212544D01*
X258706484Y-150390218D01*
X257714586Y-150439893D01*
X256839404Y-150422393D01*
X255407613Y-150374227D01*
X254539874Y-150321029D01*
X254095230Y-150230050D01*
X253932722Y-150068543D01*
X253911391Y-149803759D01*
X253911667Y-149742209D01*
X253570374Y-149259212D01*
X252575869Y-148892075D01*
X250972211Y-148648864D01*
X248803461Y-148537645D01*
X247325440Y-148536485D01*
X244698998Y-148573276D01*
X242671015Y-148591925D01*
X241134430Y-148581623D01*
X239982185Y-148531558D01*
X239107221Y-148430921D01*
X238402478Y-148268900D01*
X237760897Y-148034684D01*
X237683889Y-147999047D01*
X237683889Y-146024445D01*
X237974265Y-145895369D01*
X237919074Y-145789260D01*
X237500410Y-145747039D01*
X237448704Y-145789260D01*
X237497130Y-145998986D01*
X237683889Y-146024445D01*
X237683889Y-147999047D01*
X237075419Y-147717464D01*
X236801945Y-147582870D01*
X236801945Y-145660863D01*
X236865049Y-145515290D01*
X236625556Y-145318889D01*
X235982436Y-145020373D01*
X235743612Y-144976916D01*
X235680507Y-145122488D01*
X235920000Y-145318889D01*
X236563121Y-145617405D01*
X236801945Y-145660863D01*
X236801945Y-147582870D01*
X236523241Y-147445700D01*
X234643260Y-146639361D01*
X233223593Y-146321728D01*
X232208104Y-146500791D01*
X231540659Y-147184539D01*
X231197920Y-148203595D01*
X231169929Y-148297821D01*
X231169929Y-145914174D01*
X231306955Y-145837218D01*
X231113405Y-145295167D01*
X230768562Y-144667765D01*
X230334948Y-144235135D01*
X229521180Y-143636294D01*
X228478022Y-142959392D01*
X227356236Y-142292576D01*
X226306588Y-141723995D01*
X225479839Y-141341797D01*
X225026755Y-141234130D01*
X224983889Y-141285588D01*
X225260762Y-141532148D01*
X225999780Y-142055092D01*
X227063544Y-142758842D01*
X227541528Y-143064695D01*
X228799026Y-143904690D01*
X229879667Y-144703236D01*
X230596317Y-145319770D01*
X230708684Y-145443632D01*
X231169929Y-145914174D01*
X231169929Y-148297821D01*
X230920070Y-149138926D01*
X230583043Y-149783183D01*
X229935803Y-150159714D01*
X229098248Y-150235413D01*
X228425564Y-149997117D01*
X228312001Y-149867337D01*
X228003602Y-149682081D01*
X227982500Y-149705613D01*
X227982500Y-149199445D01*
X228158889Y-149023056D01*
X227982500Y-148846667D01*
X227806111Y-149023056D01*
X227982500Y-149199445D01*
X227982500Y-149705613D01*
X227811448Y-149896366D01*
X227311911Y-150142485D01*
X226244179Y-150114343D01*
X226090714Y-150093579D01*
X226090714Y-149199445D01*
X226628206Y-148983354D01*
X226675048Y-148582084D01*
X226772339Y-148123444D01*
X227379503Y-148053054D01*
X227404071Y-148055656D01*
X227864851Y-148048910D01*
X228070465Y-147813312D01*
X228029704Y-147219538D01*
X227751362Y-146138267D01*
X227575176Y-145539294D01*
X227518014Y-145069800D01*
X227721509Y-145100619D01*
X228074215Y-145532605D01*
X228464689Y-146266613D01*
X228508532Y-146369654D01*
X228946797Y-147103338D01*
X229409806Y-147434042D01*
X229436411Y-147435556D01*
X229798644Y-147148324D01*
X229906521Y-146466594D01*
X229743005Y-145660314D01*
X229570000Y-145318889D01*
X229296611Y-144994577D01*
X229223765Y-145327997D01*
X229222625Y-145407084D01*
X229051500Y-145930778D01*
X228864445Y-146024445D01*
X228541172Y-145743482D01*
X228511667Y-145556772D01*
X228270819Y-145021047D01*
X227681284Y-144325791D01*
X227584374Y-144233856D01*
X226657080Y-143378612D01*
X226822272Y-145181149D01*
X226873431Y-146334938D01*
X226731726Y-147000115D01*
X226386696Y-147358872D01*
X225997224Y-147785562D01*
X225997224Y-146718914D01*
X226301218Y-146642178D01*
X226118603Y-146271267D01*
X225997224Y-146112639D01*
X225449041Y-145495426D01*
X225253979Y-145320247D01*
X225253979Y-144918754D01*
X225786122Y-144916146D01*
X226042223Y-144602262D01*
X225752797Y-144206484D01*
X225424861Y-144050954D01*
X224883001Y-143864547D01*
X224883001Y-142089063D01*
X224773800Y-141891316D01*
X224631111Y-141791112D01*
X223878021Y-141498609D01*
X223572778Y-141468531D01*
X223361817Y-141569258D01*
X223749167Y-141791112D01*
X224497102Y-142055662D01*
X224883001Y-142089063D01*
X224883001Y-143864547D01*
X224760833Y-143822519D01*
X224208943Y-143618592D01*
X224208943Y-143063294D01*
X224278334Y-143016542D01*
X224000063Y-142771509D01*
X223321675Y-142373342D01*
X223237519Y-142329338D01*
X222293223Y-141888889D01*
X221893420Y-141835141D01*
X221963810Y-142109153D01*
X222341304Y-142389475D01*
X223018668Y-142711466D01*
X223729885Y-142970835D01*
X224208943Y-143063294D01*
X224208943Y-143618592D01*
X223714920Y-143436047D01*
X222937695Y-143139007D01*
X221888747Y-142779063D01*
X221279723Y-142638642D01*
X221279723Y-141085556D01*
X221456112Y-140909167D01*
X221279723Y-140732778D01*
X221103334Y-140909167D01*
X221279723Y-141085556D01*
X221279723Y-142638642D01*
X221123093Y-142602528D01*
X220860297Y-142622112D01*
X220998567Y-142871829D01*
X221616299Y-143195645D01*
X221671123Y-143216907D01*
X222620100Y-143680467D01*
X223285320Y-144143280D01*
X223887670Y-144483841D01*
X224231728Y-144465749D01*
X224705106Y-144496660D01*
X224803944Y-144607579D01*
X225253979Y-144918754D01*
X225253979Y-145320247D01*
X225160278Y-145236097D01*
X224620240Y-144963854D01*
X224518716Y-145194879D01*
X224879225Y-145836970D01*
X225477962Y-146462234D01*
X225997224Y-146718914D01*
X225997224Y-147785562D01*
X225798043Y-148003778D01*
X225594325Y-148466751D01*
X225593497Y-149044264D01*
X226090714Y-149199445D01*
X226090714Y-150093579D01*
X225879696Y-150065028D01*
X225160278Y-149915036D01*
X225160278Y-146797511D01*
X223572778Y-145706933D01*
X222615316Y-145097107D01*
X221858970Y-144700616D01*
X221577333Y-144614844D01*
X221316647Y-144901173D01*
X221342784Y-145407084D01*
X221432634Y-145914854D01*
X221299451Y-145910359D01*
X220836031Y-145376543D01*
X220788435Y-145318889D01*
X220281892Y-144633402D01*
X220053723Y-144183530D01*
X220052845Y-144172362D01*
X219773226Y-143914826D01*
X219692223Y-143907778D01*
X219459047Y-144217898D01*
X219342492Y-144980460D01*
X219339445Y-145142500D01*
X219377631Y-145916662D01*
X219623869Y-146273004D01*
X220275672Y-146374698D01*
X220838750Y-146381105D01*
X222214960Y-146437581D01*
X223600437Y-146570587D01*
X223749167Y-146591249D01*
X225160278Y-146797511D01*
X225160278Y-149915036D01*
X224880684Y-149856743D01*
X224575989Y-149633302D01*
X224683734Y-149512235D01*
X224933660Y-149254355D01*
X224740126Y-149204847D01*
X224182991Y-149363883D01*
X224173171Y-149758301D01*
X224671321Y-150231520D01*
X225047204Y-150426928D01*
X225684603Y-150752705D01*
X225826272Y-150936041D01*
X225756819Y-150949525D01*
X225481320Y-151178376D01*
X225546743Y-151370619D01*
X225590892Y-151609619D01*
X225351732Y-151501811D01*
X224804906Y-151501684D01*
X224597072Y-151711887D01*
X224360204Y-151932305D01*
X224284415Y-151503726D01*
X224283736Y-151447502D01*
X224097627Y-150733852D01*
X223678027Y-150208038D01*
X223217076Y-150076079D01*
X223082794Y-150159799D01*
X222727464Y-150067482D01*
X222089661Y-149559718D01*
X221633933Y-149098405D01*
X220433749Y-147788334D01*
X221544653Y-147788334D01*
X222246848Y-147711654D01*
X222310387Y-147507673D01*
X221782268Y-147215476D01*
X220709491Y-146874152D01*
X220329756Y-146777964D01*
X219011441Y-146484965D01*
X218274803Y-146398150D01*
X218027570Y-146514902D01*
X218095200Y-146714593D01*
X218554127Y-146906780D01*
X218821576Y-146853239D01*
X219269729Y-146834489D01*
X219339445Y-146960696D01*
X219554420Y-147379596D01*
X220105581Y-148122280D01*
X220567399Y-148674134D01*
X221293989Y-149573114D01*
X221707040Y-150213607D01*
X221774359Y-150511078D01*
X221463751Y-150380994D01*
X221103334Y-150081389D01*
X220592565Y-149665970D01*
X220417120Y-149800654D01*
X220397778Y-150346464D01*
X220499397Y-150992941D01*
X220928380Y-151117638D01*
X221191528Y-151069105D01*
X221366211Y-151107789D01*
X220990844Y-151396178D01*
X220397778Y-151735211D01*
X219444620Y-152219347D01*
X218873779Y-152381749D01*
X218680042Y-152318615D01*
X218680042Y-151850477D01*
X219175545Y-151686169D01*
X219331439Y-151592019D01*
X219871181Y-150963571D01*
X220004078Y-149908335D01*
X219941298Y-149265917D01*
X219835330Y-149190370D01*
X219800990Y-149291958D01*
X219530753Y-149722646D01*
X219330446Y-149723050D01*
X218986667Y-149813435D01*
X218986667Y-148846667D01*
X219277043Y-148717591D01*
X219221852Y-148611482D01*
X218803188Y-148569261D01*
X218751482Y-148611482D01*
X218799908Y-148821208D01*
X218986667Y-148846667D01*
X218986667Y-149813435D01*
X218959527Y-149820571D01*
X218600872Y-150345204D01*
X218389184Y-151029206D01*
X218422329Y-151528056D01*
X218680042Y-151850477D01*
X218680042Y-152318615D01*
X218451203Y-152244042D01*
X218081986Y-151949190D01*
X218029456Y-151911096D01*
X218029456Y-148437023D01*
X218226604Y-148351188D01*
X218605327Y-147995978D01*
X218527638Y-147791768D01*
X218478320Y-147788334D01*
X218179935Y-148038905D01*
X218071035Y-148195619D01*
X218029456Y-148437023D01*
X218029456Y-151911096D01*
X217429854Y-151476273D01*
X217323900Y-151433088D01*
X217323900Y-141381467D01*
X217521049Y-141295632D01*
X217899772Y-140940422D01*
X217822082Y-140736212D01*
X217772765Y-140732778D01*
X217474379Y-140983349D01*
X217365480Y-141140063D01*
X217323900Y-141381467D01*
X217323900Y-151433088D01*
X217023652Y-151310709D01*
X216459279Y-151133775D01*
X216187129Y-150984819D01*
X215864625Y-150630821D01*
X216109957Y-150147453D01*
X216142131Y-150108276D01*
X216389466Y-149647500D01*
X216207641Y-149552223D01*
X215856618Y-149267194D01*
X215811667Y-149023056D01*
X216105776Y-148592105D01*
X216517223Y-148493889D01*
X217095864Y-148256781D01*
X217222778Y-147726840D01*
X217222778Y-146959790D01*
X216429028Y-147689537D01*
X215665674Y-148305045D01*
X214599248Y-149059438D01*
X213400425Y-149845064D01*
X212239876Y-150554269D01*
X211288276Y-151079402D01*
X210716296Y-151312808D01*
X210679439Y-151316111D01*
X210166395Y-151036946D01*
X210073208Y-150874397D01*
X210230104Y-150535806D01*
X210972026Y-150433425D01*
X211798832Y-150283766D01*
X212210255Y-149936980D01*
X212165099Y-149596501D01*
X211819522Y-149654930D01*
X211679674Y-149628083D01*
X211679674Y-148670278D01*
X210858488Y-147170973D01*
X210316931Y-146296437D01*
X209861874Y-145756166D01*
X209706288Y-145671667D01*
X209594562Y-145877386D01*
X209741250Y-146112639D01*
X210032602Y-146597717D01*
X210049029Y-146738280D01*
X210229068Y-147088663D01*
X210746445Y-147703364D01*
X210835254Y-147796613D01*
X211679674Y-148670278D01*
X211679674Y-149628083D01*
X211445141Y-149583057D01*
X211445141Y-149552223D01*
X211550736Y-149380620D01*
X211097557Y-148911647D01*
X210960973Y-148801668D01*
X210543109Y-148496569D01*
X210630710Y-148679253D01*
X210827779Y-148934861D01*
X211262965Y-149423445D01*
X211445141Y-149552223D01*
X211445141Y-149583057D01*
X211233281Y-149542383D01*
X210514626Y-148964131D01*
X209824241Y-148096265D01*
X209322808Y-147114876D01*
X209231849Y-146819107D01*
X209192301Y-146107231D01*
X209563831Y-145453036D01*
G37*
X209563831Y-145453036D02*
X210119462Y-144906019D01*
X211316770Y-144103654D01*
X212449600Y-143954847D01*
X213391139Y-144286735D01*
X214057639Y-144460914D01*
X214983049Y-144318016D01*
X215816523Y-144048161D01*
X216811746Y-143652815D01*
X217254773Y-143332427D01*
X217271940Y-142968562D01*
X217180161Y-142769814D01*
X216947762Y-141913825D01*
X216936446Y-141156304D01*
X217152988Y-140450515D01*
X217709879Y-140242180D01*
X217928334Y-140244817D01*
X218665805Y-140177362D01*
X218990201Y-140008203D01*
X219432367Y-139741416D01*
X220224923Y-139497492D01*
X220877956Y-139389551D01*
X220916707Y-139509066D01*
X220750556Y-139640509D01*
X220477085Y-139947040D01*
X220594935Y-140021821D01*
X221145635Y-139830315D01*
X221653269Y-139509275D01*
X222777210Y-139032515D01*
X224127545Y-139167497D01*
X225266775Y-139638807D01*
X226785893Y-140355154D01*
X228887245Y-141240453D01*
X231610518Y-142311200D01*
X232629342Y-142699314D01*
X234138298Y-143187246D01*
X235732613Y-143576281D01*
X236686286Y-143733275D01*
X237868855Y-143939682D01*
X239451925Y-144315511D01*
X241170738Y-144795154D01*
X241948094Y-145037119D01*
X245330354Y-146131100D01*
X249532816Y-145172615D01*
X251538766Y-144758614D01*
X253654171Y-144393701D01*
X255589621Y-144124430D01*
X256733889Y-144014247D01*
X258377340Y-143848012D01*
X259614882Y-143608153D01*
X260298217Y-143323591D01*
X260305029Y-143317802D01*
X260766151Y-143015272D01*
X260982883Y-143279501D01*
X261028849Y-143452703D01*
X261093392Y-144340059D01*
X261051513Y-144682327D01*
X260687311Y-145126692D01*
X259767255Y-145358304D01*
X259445748Y-145387883D01*
X258433996Y-145559124D01*
X258053936Y-145867982D01*
X258056806Y-145936250D01*
X257864327Y-146278034D01*
X257256475Y-146362490D01*
X256471544Y-146197858D01*
X255831177Y-145859275D01*
X254875170Y-145410173D01*
X253721458Y-145435815D01*
X252229840Y-145944623D01*
X251899025Y-146095503D01*
X250246849Y-146872117D01*
X252557762Y-147298624D01*
X254120564Y-147659383D01*
X255719141Y-148140900D01*
X256651083Y-148491903D01*
X257805979Y-148930230D01*
X258572956Y-149043212D01*
X259171190Y-148863870D01*
X259770011Y-148689766D01*
X259908865Y-149032778D01*
X259577004Y-149865954D01*
X259573431Y-149872638D01*
X259269353Y-150212544D01*
X258706484Y-150390218D01*
X257714586Y-150439893D01*
X256839404Y-150422393D01*
X255407613Y-150374227D01*
X254539874Y-150321029D01*
X254095230Y-150230050D01*
X253932722Y-150068543D01*
X253911391Y-149803759D01*
X253911667Y-149742209D01*
X253570374Y-149259212D01*
X252575869Y-148892075D01*
X250972211Y-148648864D01*
X248803461Y-148537645D01*
X247325440Y-148536485D01*
X244698998Y-148573276D01*
X242671015Y-148591925D01*
X241134430Y-148581623D01*
X239982185Y-148531558D01*
X239107221Y-148430921D01*
X238402478Y-148268900D01*
X237760897Y-148034684D01*
X237683889Y-147999047D01*
X237683889Y-146024445D01*
X237974265Y-145895369D01*
X237919074Y-145789260D01*
X237500410Y-145747039D01*
X237448704Y-145789260D01*
X237497130Y-145998986D01*
X237683889Y-146024445D01*
X237683889Y-147999047D01*
X237075419Y-147717464D01*
X236801945Y-147582870D01*
X236801945Y-145660863D01*
X236865049Y-145515290D01*
X236625556Y-145318889D01*
X235982436Y-145020373D01*
X235743612Y-144976916D01*
X235680507Y-145122488D01*
X235920000Y-145318889D01*
X236563121Y-145617405D01*
X236801945Y-145660863D01*
X236801945Y-147582870D01*
X236523241Y-147445700D01*
X234643260Y-146639361D01*
X233223593Y-146321728D01*
X232208104Y-146500791D01*
X231540659Y-147184539D01*
X231197920Y-148203595D01*
X231169929Y-148297821D01*
X231169929Y-145914174D01*
X231306955Y-145837218D01*
X231113405Y-145295167D01*
X230768562Y-144667765D01*
X230334948Y-144235135D01*
X229521180Y-143636294D01*
X228478022Y-142959392D01*
X227356236Y-142292576D01*
X226306588Y-141723995D01*
X225479839Y-141341797D01*
X225026755Y-141234130D01*
X224983889Y-141285588D01*
X225260762Y-141532148D01*
X225999780Y-142055092D01*
X227063544Y-142758842D01*
X227541528Y-143064695D01*
X228799026Y-143904690D01*
X229879667Y-144703236D01*
X230596317Y-145319770D01*
X230708684Y-145443632D01*
X231169929Y-145914174D01*
X231169929Y-148297821D01*
X230920070Y-149138926D01*
X230583043Y-149783183D01*
X229935803Y-150159714D01*
X229098248Y-150235413D01*
X228425564Y-149997117D01*
X228312001Y-149867337D01*
X228003602Y-149682081D01*
X227982500Y-149705613D01*
X227982500Y-149199445D01*
X228158889Y-149023056D01*
X227982500Y-148846667D01*
X227806111Y-149023056D01*
X227982500Y-149199445D01*
X227982500Y-149705613D01*
X227811448Y-149896366D01*
X227311911Y-150142485D01*
X226244179Y-150114343D01*
X226090714Y-150093579D01*
X226090714Y-149199445D01*
X226628206Y-148983354D01*
X226675048Y-148582084D01*
X226772339Y-148123444D01*
X227379503Y-148053054D01*
X227404071Y-148055656D01*
X227864851Y-148048910D01*
X228070465Y-147813312D01*
X228029704Y-147219538D01*
X227751362Y-146138267D01*
X227575176Y-145539294D01*
X227518014Y-145069800D01*
X227721509Y-145100619D01*
X228074215Y-145532605D01*
X228464689Y-146266613D01*
X228508532Y-146369654D01*
X228946797Y-147103338D01*
X229409806Y-147434042D01*
X229436411Y-147435556D01*
X229798644Y-147148324D01*
X229906521Y-146466594D01*
X229743005Y-145660314D01*
X229570000Y-145318889D01*
X229296611Y-144994577D01*
X229223765Y-145327997D01*
X229222625Y-145407084D01*
X229051500Y-145930778D01*
X228864445Y-146024445D01*
X228541172Y-145743482D01*
X228511667Y-145556772D01*
X228270819Y-145021047D01*
X227681284Y-144325791D01*
X227584374Y-144233856D01*
X226657080Y-143378612D01*
X226822272Y-145181149D01*
X226873431Y-146334938D01*
X226731726Y-147000115D01*
X226386696Y-147358872D01*
X225997224Y-147785562D01*
X225997224Y-146718914D01*
X226301218Y-146642178D01*
X226118603Y-146271267D01*
X225997224Y-146112639D01*
X225449041Y-145495426D01*
X225253979Y-145320247D01*
X225253979Y-144918754D01*
X225786122Y-144916146D01*
X226042223Y-144602262D01*
X225752797Y-144206484D01*
X225424861Y-144050954D01*
X224883001Y-143864547D01*
X224883001Y-142089063D01*
X224773800Y-141891316D01*
X224631111Y-141791112D01*
X223878021Y-141498609D01*
X223572778Y-141468531D01*
X223361817Y-141569258D01*
X223749167Y-141791112D01*
X224497102Y-142055662D01*
X224883001Y-142089063D01*
X224883001Y-143864547D01*
X224760833Y-143822519D01*
X224208943Y-143618592D01*
X224208943Y-143063294D01*
X224278334Y-143016542D01*
X224000063Y-142771509D01*
X223321675Y-142373342D01*
X223237519Y-142329338D01*
X222293223Y-141888889D01*
X221893420Y-141835141D01*
X221963810Y-142109153D01*
X222341304Y-142389475D01*
X223018668Y-142711466D01*
X223729885Y-142970835D01*
X224208943Y-143063294D01*
X224208943Y-143618592D01*
X223714920Y-143436047D01*
X222937695Y-143139007D01*
X221888747Y-142779063D01*
X221279723Y-142638642D01*
X221279723Y-141085556D01*
X221456112Y-140909167D01*
X221279723Y-140732778D01*
X221103334Y-140909167D01*
X221279723Y-141085556D01*
X221279723Y-142638642D01*
X221123093Y-142602528D01*
X220860297Y-142622112D01*
X220998567Y-142871829D01*
X221616299Y-143195645D01*
X221671123Y-143216907D01*
X222620100Y-143680467D01*
X223285320Y-144143280D01*
X223887670Y-144483841D01*
X224231728Y-144465749D01*
X224705106Y-144496660D01*
X224803944Y-144607579D01*
X225253979Y-144918754D01*
X225253979Y-145320247D01*
X225160278Y-145236097D01*
X224620240Y-144963854D01*
X224518716Y-145194879D01*
X224879225Y-145836970D01*
X225477962Y-146462234D01*
X225997224Y-146718914D01*
X225997224Y-147785562D01*
X225798043Y-148003778D01*
X225594325Y-148466751D01*
X225593497Y-149044264D01*
X226090714Y-149199445D01*
X226090714Y-150093579D01*
X225879696Y-150065028D01*
X225160278Y-149915036D01*
X225160278Y-146797511D01*
X223572778Y-145706933D01*
X222615316Y-145097107D01*
X221858970Y-144700616D01*
X221577333Y-144614844D01*
X221316647Y-144901173D01*
X221342784Y-145407084D01*
X221432634Y-145914854D01*
X221299451Y-145910359D01*
X220836031Y-145376543D01*
X220788435Y-145318889D01*
X220281892Y-144633402D01*
X220053723Y-144183530D01*
X220052845Y-144172362D01*
X219773226Y-143914826D01*
X219692223Y-143907778D01*
X219459047Y-144217898D01*
X219342492Y-144980460D01*
X219339445Y-145142500D01*
X219377631Y-145916662D01*
X219623869Y-146273004D01*
X220275672Y-146374698D01*
X220838750Y-146381105D01*
X222214960Y-146437581D01*
X223600437Y-146570587D01*
X223749167Y-146591249D01*
X225160278Y-146797511D01*
X225160278Y-149915036D01*
X224880684Y-149856743D01*
X224575989Y-149633302D01*
X224683734Y-149512235D01*
X224933660Y-149254355D01*
X224740126Y-149204847D01*
X224182991Y-149363883D01*
X224173171Y-149758301D01*
X224671321Y-150231520D01*
X225047204Y-150426928D01*
X225684603Y-150752705D01*
X225826272Y-150936041D01*
X225756819Y-150949525D01*
X225481320Y-151178376D01*
X225546743Y-151370619D01*
X225590892Y-151609619D01*
X225351732Y-151501811D01*
X224804906Y-151501684D01*
X224597072Y-151711887D01*
X224360204Y-151932305D01*
X224284415Y-151503726D01*
X224283736Y-151447502D01*
X224097627Y-150733852D01*
X223678027Y-150208038D01*
X223217076Y-150076079D01*
X223082794Y-150159799D01*
X222727464Y-150067482D01*
X222089661Y-149559718D01*
X221633933Y-149098405D01*
X220433749Y-147788334D01*
X221544653Y-147788334D01*
X222246848Y-147711654D01*
X222310387Y-147507673D01*
X221782268Y-147215476D01*
X220709491Y-146874152D01*
X220329756Y-146777964D01*
X219011441Y-146484965D01*
X218274803Y-146398150D01*
X218027570Y-146514902D01*
X218095200Y-146714593D01*
X218554127Y-146906780D01*
X218821576Y-146853239D01*
X219269729Y-146834489D01*
X219339445Y-146960696D01*
X219554420Y-147379596D01*
X220105581Y-148122280D01*
X220567399Y-148674134D01*
X221293989Y-149573114D01*
X221707040Y-150213607D01*
X221774359Y-150511078D01*
X221463751Y-150380994D01*
X221103334Y-150081389D01*
X220592565Y-149665970D01*
X220417120Y-149800654D01*
X220397778Y-150346464D01*
X220499397Y-150992941D01*
X220928380Y-151117638D01*
X221191528Y-151069105D01*
X221366211Y-151107789D01*
X220990844Y-151396178D01*
X220397778Y-151735211D01*
X219444620Y-152219347D01*
X218873779Y-152381749D01*
X218680042Y-152318615D01*
X218680042Y-151850477D01*
X219175545Y-151686169D01*
X219331439Y-151592019D01*
X219871181Y-150963571D01*
X220004078Y-149908335D01*
X219941298Y-149265917D01*
X219835330Y-149190370D01*
X219800990Y-149291958D01*
X219530753Y-149722646D01*
X219330446Y-149723050D01*
X218986667Y-149813435D01*
X218986667Y-148846667D01*
X219277043Y-148717591D01*
X219221852Y-148611482D01*
X218803188Y-148569261D01*
X218751482Y-148611482D01*
X218799908Y-148821208D01*
X218986667Y-148846667D01*
X218986667Y-149813435D01*
X218959527Y-149820571D01*
X218600872Y-150345204D01*
X218389184Y-151029206D01*
X218422329Y-151528056D01*
X218680042Y-151850477D01*
X218680042Y-152318615D01*
X218451203Y-152244042D01*
X218081986Y-151949190D01*
X218029456Y-151911096D01*
X218029456Y-148437023D01*
X218226604Y-148351188D01*
X218605327Y-147995978D01*
X218527638Y-147791768D01*
X218478320Y-147788334D01*
X218179935Y-148038905D01*
X218071035Y-148195619D01*
X218029456Y-148437023D01*
X218029456Y-151911096D01*
X217429854Y-151476273D01*
X217323900Y-151433088D01*
X217323900Y-141381467D01*
X217521049Y-141295632D01*
X217899772Y-140940422D01*
X217822082Y-140736212D01*
X217772765Y-140732778D01*
X217474379Y-140983349D01*
X217365480Y-141140063D01*
X217323900Y-141381467D01*
X217323900Y-151433088D01*
X217023652Y-151310709D01*
X216459279Y-151133775D01*
X216187129Y-150984819D01*
X215864625Y-150630821D01*
X216109957Y-150147453D01*
X216142131Y-150108276D01*
X216389466Y-149647500D01*
X216207641Y-149552223D01*
X215856618Y-149267194D01*
X215811667Y-149023056D01*
X216105776Y-148592105D01*
X216517223Y-148493889D01*
X217095864Y-148256781D01*
X217222778Y-147726840D01*
X217222778Y-146959790D01*
X216429028Y-147689537D01*
X215665674Y-148305045D01*
X214599248Y-149059438D01*
X213400425Y-149845064D01*
X212239876Y-150554269D01*
X211288276Y-151079402D01*
X210716296Y-151312808D01*
X210679439Y-151316111D01*
X210166395Y-151036946D01*
X210073208Y-150874397D01*
X210230104Y-150535806D01*
X210972026Y-150433425D01*
X211798832Y-150283766D01*
X212210255Y-149936980D01*
X212165099Y-149596501D01*
X211819522Y-149654930D01*
X211679674Y-149628083D01*
X211679674Y-148670278D01*
X210858488Y-147170973D01*
X210316931Y-146296437D01*
X209861874Y-145756166D01*
X209706288Y-145671667D01*
X209594562Y-145877386D01*
X209741250Y-146112639D01*
X210032602Y-146597717D01*
X210049029Y-146738280D01*
X210229068Y-147088663D01*
X210746445Y-147703364D01*
X210835254Y-147796613D01*
X211679674Y-148670278D01*
X211679674Y-149628083D01*
X211445141Y-149583057D01*
X211445141Y-149552223D01*
X211550736Y-149380620D01*
X211097557Y-148911647D01*
X210960973Y-148801668D01*
X210543109Y-148496569D01*
X210630710Y-148679253D01*
X210827779Y-148934861D01*
X211262965Y-149423445D01*
X211445141Y-149552223D01*
X211445141Y-149583057D01*
X211233281Y-149542383D01*
X210514626Y-148964131D01*
X209824241Y-148096265D01*
X209322808Y-147114876D01*
X209231849Y-146819107D01*
X209192301Y-146107231D01*
X209563831Y-145453036D01*
G36*
X260790834Y-146377223D02*
G01*
X260967223Y-146553611D01*
X260790834Y-146730000D01*
X260614445Y-146553611D01*
X260790834Y-146377223D01*
G37*
X260790834Y-146377223D02*
X260967223Y-146553611D01*
X260790834Y-146730000D01*
X260614445Y-146553611D01*
X260790834Y-146377223D01*
G36*
X219339445Y-153123789D02*
G01*
X220194379Y-152473134D01*
X220911107Y-152083652D01*
X221113033Y-152036004D01*
X221796198Y-151832096D01*
X222445037Y-151466131D01*
X223141055Y-151092835D01*
X223570334Y-151025159D01*
X223559141Y-151234991D01*
X223120274Y-151521145D01*
X222408524Y-151884926D01*
X221324531Y-152457120D01*
X220221389Y-153049903D01*
X218104723Y-154197238D01*
X219339445Y-153123789D01*
G37*
X219339445Y-153123789D02*
X220194379Y-152473134D01*
X220911107Y-152083652D01*
X221113033Y-152036004D01*
X221796198Y-151832096D01*
X222445037Y-151466131D01*
X223141055Y-151092835D01*
X223570334Y-151025159D01*
X223559141Y-151234991D01*
X223120274Y-151521145D01*
X222408524Y-151884926D01*
X221324531Y-152457120D01*
X220221389Y-153049903D01*
X218104723Y-154197238D01*
X219339445Y-153123789D01*
G36*
X215282500Y-155549445D02*
G01*
X215458889Y-155725834D01*
X215282500Y-155902223D01*
X215106112Y-155725834D01*
X215282500Y-155549445D01*
G37*
X215282500Y-155549445D02*
X215458889Y-155725834D01*
X215282500Y-155902223D01*
X215106112Y-155725834D01*
X215282500Y-155549445D01*
G36*
X213951739Y-156265745D02*
G01*
X214208952Y-156133265D01*
X214706036Y-156042996D01*
X214609557Y-156279977D01*
X214377085Y-156445895D01*
X213915365Y-156554333D01*
X213832704Y-156510297D01*
X213951739Y-156265745D01*
G37*
X213951739Y-156265745D02*
X214208952Y-156133265D01*
X214706036Y-156042996D01*
X214609557Y-156279977D01*
X214377085Y-156445895D01*
X213915365Y-156554333D01*
X213832704Y-156510297D01*
X213951739Y-156265745D01*
G36*
X212166781Y-153589129D02*
G01*
X212441956Y-153650951D01*
X212938513Y-153935628D01*
X212855330Y-154119706D01*
X212657487Y-154138334D01*
X212179113Y-153882118D01*
X212109998Y-153789597D01*
X212166781Y-153589129D01*
G37*
X212166781Y-153589129D02*
X212441956Y-153650951D01*
X212938513Y-153935628D01*
X212855330Y-154119706D01*
X212657487Y-154138334D01*
X212179113Y-153882118D01*
X212109998Y-153789597D01*
X212166781Y-153589129D01*
G36*
X210352587Y-153896266D02*
G01*
X210608195Y-154093335D01*
X211156651Y-154608252D01*
X211154266Y-154838097D01*
X211092363Y-154843889D01*
X210797886Y-154602810D01*
X210475002Y-154226528D01*
X210169903Y-153808665D01*
X210352587Y-153896266D01*
G37*
X210352587Y-153896266D02*
X210608195Y-154093335D01*
X211156651Y-154608252D01*
X211154266Y-154838097D01*
X211092363Y-154843889D01*
X210797886Y-154602810D01*
X210475002Y-154226528D01*
X210169903Y-153808665D01*
X210352587Y-153896266D01*
G36*
X207700247Y-151868165D02*
G01*
X208315139Y-152322655D01*
X209207849Y-153055867D01*
X209704103Y-153533935D01*
X209767842Y-153699069D01*
X209363006Y-153493480D01*
X208812974Y-153120490D01*
X207964992Y-152437609D01*
X207319307Y-151787380D01*
X207313669Y-151780312D01*
X207280221Y-151627163D01*
X207700247Y-151868165D01*
G37*
X207700247Y-151868165D02*
X208315139Y-152322655D01*
X209207849Y-153055867D01*
X209704103Y-153533935D01*
X209767842Y-153699069D01*
X209363006Y-153493480D01*
X208812974Y-153120490D01*
X207964992Y-152437609D01*
X207319307Y-151787380D01*
X207313669Y-151780312D01*
X207280221Y-151627163D01*
X207700247Y-151868165D01*
G36*
X208226945Y-148141111D02*
G01*
X208403334Y-148317500D01*
X208226945Y-148493889D01*
X208050556Y-148317500D01*
X208226945Y-148141111D01*
G37*
X208226945Y-148141111D02*
X208403334Y-148317500D01*
X208226945Y-148493889D01*
X208050556Y-148317500D01*
X208226945Y-148141111D01*
G36*
X207289676Y-146250301D02*
G01*
X207551809Y-145685684D01*
X207740361Y-145468961D01*
X207977681Y-145351519D01*
X207972334Y-145547800D01*
X207713569Y-146222375D01*
X207686785Y-146289028D01*
X207387267Y-146896386D01*
X207213006Y-147082778D01*
X207142178Y-146821772D01*
X207289676Y-146250301D01*
G37*
X207289676Y-146250301D02*
X207551809Y-145685684D01*
X207740361Y-145468961D01*
X207977681Y-145351519D01*
X207972334Y-145547800D01*
X207713569Y-146222375D01*
X207686785Y-146289028D01*
X207387267Y-146896386D01*
X207213006Y-147082778D01*
X207142178Y-146821772D01*
X207289676Y-146250301D01*
G36*
X198134819Y-146107852D02*
G01*
X198500855Y-145319429D01*
X198835179Y-144519944D01*
X199382929Y-143688812D01*
X200153038Y-143116824D01*
X200928149Y-142922660D01*
X201403976Y-143117309D01*
X201620034Y-143673141D01*
X201741936Y-144662758D01*
X201752673Y-145333194D01*
X201711533Y-147159241D01*
X203028961Y-146932136D01*
X203837824Y-146806111D01*
X204019863Y-146844188D01*
X203641408Y-147078771D01*
X203492303Y-147158488D01*
X202703453Y-147712971D01*
X202613675Y-148192646D01*
X203225289Y-148633814D01*
X203596094Y-148782455D01*
X204820868Y-149428038D01*
X205902310Y-150344463D01*
X206615217Y-151326203D01*
X206736269Y-151648267D01*
X206813525Y-152063272D01*
X206631338Y-152108459D01*
X206039078Y-151782517D01*
X205804810Y-151640159D01*
X204944360Y-151189625D01*
X204284615Y-150969057D01*
X204224295Y-150964652D01*
X203160103Y-150799718D01*
X201779359Y-150381505D01*
X200371470Y-149818159D01*
X199225841Y-149217821D01*
X198874235Y-148965472D01*
X198024980Y-147961797D01*
X197858750Y-146911193D01*
X198134819Y-146107852D01*
G37*
X198134819Y-146107852D02*
X198500855Y-145319429D01*
X198835179Y-144519944D01*
X199382929Y-143688812D01*
X200153038Y-143116824D01*
X200928149Y-142922660D01*
X201403976Y-143117309D01*
X201620034Y-143673141D01*
X201741936Y-144662758D01*
X201752673Y-145333194D01*
X201711533Y-147159241D01*
X203028961Y-146932136D01*
X203837824Y-146806111D01*
X204019863Y-146844188D01*
X203641408Y-147078771D01*
X203492303Y-147158488D01*
X202703453Y-147712971D01*
X202613675Y-148192646D01*
X203225289Y-148633814D01*
X203596094Y-148782455D01*
X204820868Y-149428038D01*
X205902310Y-150344463D01*
X206615217Y-151326203D01*
X206736269Y-151648267D01*
X206813525Y-152063272D01*
X206631338Y-152108459D01*
X206039078Y-151782517D01*
X205804810Y-151640159D01*
X204944360Y-151189625D01*
X204284615Y-150969057D01*
X204224295Y-150964652D01*
X203160103Y-150799718D01*
X201779359Y-150381505D01*
X200371470Y-149818159D01*
X199225841Y-149217821D01*
X198874235Y-148965472D01*
X198024980Y-147961797D01*
X197858750Y-146911193D01*
X198134819Y-146107852D01*
G36*
X206815834Y-149199445D02*
G01*
X206992223Y-149375834D01*
X206815834Y-149552223D01*
X206639445Y-149375834D01*
X206815834Y-149199445D01*
G37*
X206815834Y-149199445D02*
X206992223Y-149375834D01*
X206815834Y-149552223D01*
X206639445Y-149375834D01*
X206815834Y-149199445D01*
G36*
X204699167Y-144966111D02*
G01*
X204875556Y-145142500D01*
X204699167Y-145318889D01*
X204522778Y-145142500D01*
X204699167Y-144966111D01*
G37*
X204699167Y-144966111D02*
X204875556Y-145142500D01*
X204699167Y-145318889D01*
X204522778Y-145142500D01*
X204699167Y-144966111D01*
G36*
X203229260Y-143319815D02*
G01*
X203438986Y-143368241D01*
X203464445Y-143555000D01*
X203335369Y-143845376D01*
X203229260Y-143790186D01*
X203187039Y-143371521D01*
X203229260Y-143319815D01*
G37*
X203229260Y-143319815D02*
X203438986Y-143368241D01*
X203464445Y-143555000D01*
X203335369Y-143845376D01*
X203229260Y-143790186D01*
X203187039Y-143371521D01*
X203229260Y-143319815D01*
G36*
X210343611Y-146730000D02*
G01*
X210520000Y-146906389D01*
X210343611Y-147082778D01*
X210167223Y-146906389D01*
X210343611Y-146730000D01*
G37*
X210343611Y-146730000D02*
X210520000Y-146906389D01*
X210343611Y-147082778D01*
X210167223Y-146906389D01*
X210343611Y-146730000D01*
D12*
%TO.C,J1*%
X111080000Y-157490000D02*
X101960000Y-157490000D01*
X101960000Y-157490000D02*
X101960000Y-136910000D01*
X101960000Y-136910000D02*
X111080000Y-136910000D01*
X111080000Y-136910000D02*
X111080000Y-157490000D01*
X111080000Y-149250000D02*
X109770000Y-149250000D01*
X109770000Y-149250000D02*
X109770000Y-156190000D01*
X109770000Y-156190000D02*
X103270000Y-156190000D01*
X103270000Y-156190000D02*
X103270000Y-138210000D01*
X103270000Y-138210000D02*
X109770000Y-138210000D01*
X109770000Y-138210000D02*
X109770000Y-145150000D01*
X109770000Y-145150000D02*
X109770000Y-145150000D01*
X109770000Y-145150000D02*
X111080000Y-145150000D01*
X111470000Y-152280000D02*
X112470000Y-152780000D01*
X112470000Y-152780000D02*
X112470000Y-151780000D01*
X112470000Y-151780000D02*
X111470000Y-152280000D01*
%TO.C,J2*%
X255640000Y-142620000D02*
X256640000Y-142120000D01*
X255640000Y-141620000D02*
X255640000Y-142620000D01*
X256640000Y-142120000D02*
X255640000Y-141620000D01*
X258340000Y-149250000D02*
X257030000Y-149250000D01*
X258340000Y-149250000D02*
X258340000Y-149250000D01*
X258340000Y-156190000D02*
X258340000Y-149250000D01*
X264840000Y-156190000D02*
X258340000Y-156190000D01*
X264840000Y-138210000D02*
X264840000Y-156190000D01*
X258340000Y-138210000D02*
X264840000Y-138210000D01*
X258340000Y-145150000D02*
X258340000Y-138210000D01*
X257030000Y-145150000D02*
X258340000Y-145150000D01*
X257030000Y-157490000D02*
X257030000Y-136910000D01*
X266150000Y-157490000D02*
X257030000Y-157490000D01*
X266150000Y-136910000D02*
X266150000Y-157490000D01*
X257030000Y-136910000D02*
X266150000Y-136910000D01*
%TO.C,J3*%
X142030000Y-136910000D02*
X151150000Y-136910000D01*
X151150000Y-136910000D02*
X151150000Y-157490000D01*
X151150000Y-157490000D02*
X142030000Y-157490000D01*
X142030000Y-157490000D02*
X142030000Y-136910000D01*
X142030000Y-145150000D02*
X143340000Y-145150000D01*
X143340000Y-145150000D02*
X143340000Y-138210000D01*
X143340000Y-138210000D02*
X149840000Y-138210000D01*
X149840000Y-138210000D02*
X149840000Y-156190000D01*
X149840000Y-156190000D02*
X143340000Y-156190000D01*
X143340000Y-156190000D02*
X143340000Y-149250000D01*
X143340000Y-149250000D02*
X143340000Y-149250000D01*
X143340000Y-149250000D02*
X142030000Y-149250000D01*
X141640000Y-142120000D02*
X140640000Y-141620000D01*
X140640000Y-141620000D02*
X140640000Y-142620000D01*
X140640000Y-142620000D02*
X141640000Y-142120000D01*
%TO.C,J4*%
X163640000Y-142620000D02*
X164640000Y-142120000D01*
X163640000Y-141620000D02*
X163640000Y-142620000D01*
X164640000Y-142120000D02*
X163640000Y-141620000D01*
X166340000Y-149250000D02*
X165030000Y-149250000D01*
X166340000Y-149250000D02*
X166340000Y-149250000D01*
X166340000Y-156190000D02*
X166340000Y-149250000D01*
X172840000Y-156190000D02*
X166340000Y-156190000D01*
X172840000Y-138210000D02*
X172840000Y-156190000D01*
X166340000Y-138210000D02*
X172840000Y-138210000D01*
X166340000Y-145150000D02*
X166340000Y-138210000D01*
X165030000Y-145150000D02*
X166340000Y-145150000D01*
X165030000Y-157490000D02*
X165030000Y-136910000D01*
X174150000Y-157490000D02*
X165030000Y-157490000D01*
X174150000Y-136910000D02*
X174150000Y-157490000D01*
X165030000Y-136910000D02*
X174150000Y-136910000D01*
%TO.C,J5*%
X188030000Y-136910000D02*
X197150000Y-136910000D01*
X197150000Y-136910000D02*
X197150000Y-157490000D01*
X197150000Y-157490000D02*
X188030000Y-157490000D01*
X188030000Y-157490000D02*
X188030000Y-136910000D01*
X188030000Y-145150000D02*
X189340000Y-145150000D01*
X189340000Y-145150000D02*
X189340000Y-138210000D01*
X189340000Y-138210000D02*
X195840000Y-138210000D01*
X195840000Y-138210000D02*
X195840000Y-156190000D01*
X195840000Y-156190000D02*
X189340000Y-156190000D01*
X189340000Y-156190000D02*
X189340000Y-149250000D01*
X189340000Y-149250000D02*
X189340000Y-149250000D01*
X189340000Y-149250000D02*
X188030000Y-149250000D01*
X187640000Y-142120000D02*
X186640000Y-141620000D01*
X186640000Y-141620000D02*
X186640000Y-142620000D01*
X186640000Y-142620000D02*
X187640000Y-142120000D01*
%TO.C,J6*%
X232640000Y-142620000D02*
X233640000Y-142120000D01*
X232640000Y-141620000D02*
X232640000Y-142620000D01*
X233640000Y-142120000D02*
X232640000Y-141620000D01*
X235340000Y-149250000D02*
X234030000Y-149250000D01*
X235340000Y-149250000D02*
X235340000Y-149250000D01*
X235340000Y-156190000D02*
X235340000Y-149250000D01*
X241840000Y-156190000D02*
X235340000Y-156190000D01*
X241840000Y-138210000D02*
X241840000Y-156190000D01*
X235340000Y-138210000D02*
X241840000Y-138210000D01*
X235340000Y-145150000D02*
X235340000Y-138210000D01*
X234030000Y-145150000D02*
X235340000Y-145150000D01*
X234030000Y-157490000D02*
X234030000Y-136910000D01*
X243150000Y-157490000D02*
X234030000Y-157490000D01*
X243150000Y-136910000D02*
X243150000Y-157490000D01*
X234030000Y-136910000D02*
X243150000Y-136910000D01*
%TO.C,J7*%
X211030000Y-136910000D02*
X220150000Y-136910000D01*
X220150000Y-136910000D02*
X220150000Y-157490000D01*
X220150000Y-157490000D02*
X211030000Y-157490000D01*
X211030000Y-157490000D02*
X211030000Y-136910000D01*
X211030000Y-145150000D02*
X212340000Y-145150000D01*
X212340000Y-145150000D02*
X212340000Y-138210000D01*
X212340000Y-138210000D02*
X218840000Y-138210000D01*
X218840000Y-138210000D02*
X218840000Y-156190000D01*
X218840000Y-156190000D02*
X212340000Y-156190000D01*
X212340000Y-156190000D02*
X212340000Y-149250000D01*
X212340000Y-149250000D02*
X212340000Y-149250000D01*
X212340000Y-149250000D02*
X211030000Y-149250000D01*
X210640000Y-142120000D02*
X209640000Y-141620000D01*
X209640000Y-141620000D02*
X209640000Y-142620000D01*
X209640000Y-142620000D02*
X210640000Y-142120000D01*
%TO.C,R1*%
X121618000Y-155556000D02*
X125458000Y-155556000D01*
X121618000Y-157396000D02*
X125458000Y-157396000D01*
%TO.C,R2*%
X124950000Y-137268000D02*
X121110000Y-137268000D01*
X124950000Y-139108000D02*
X121110000Y-139108000D01*
%TO.C,J1*%
D13*
X100146666Y-156722380D02*
X100146666Y-157436666D01*
X100099047Y-157579523D01*
X100003809Y-157674761D01*
X99860952Y-157722380D01*
X99765714Y-157722380D01*
X101146666Y-157722380D02*
X100575238Y-157722380D01*
X100860952Y-157722380D02*
X100860952Y-156722380D01*
X100765714Y-156865238D01*
X100670476Y-156960476D01*
X100575238Y-157008095D01*
X100876380Y-151935142D02*
X99876380Y-151935142D01*
X100876380Y-151458952D02*
X99876380Y-151458952D01*
X100876380Y-150887523D01*
X99876380Y-150887523D01*
X100876380Y-150411333D02*
X99876380Y-150411333D01*
X99876380Y-150030380D01*
X99924000Y-149935142D01*
X99971619Y-149887523D01*
X100066857Y-149839904D01*
X100209714Y-149839904D01*
X100304952Y-149887523D01*
X100352571Y-149935142D01*
X100400190Y-150030380D01*
X100400190Y-150411333D01*
X99876380Y-149411333D02*
X100685904Y-149411333D01*
X100781142Y-149363714D01*
X100828761Y-149316095D01*
X100876380Y-149220857D01*
X100876380Y-149030380D01*
X100828761Y-148935142D01*
X100781142Y-148887523D01*
X100685904Y-148839904D01*
X99876380Y-148839904D01*
X99876380Y-148506571D02*
X99876380Y-147935142D01*
X100876380Y-148220857D02*
X99876380Y-148220857D01*
X100876380Y-146839904D02*
X99876380Y-146839904D01*
X99876380Y-146458952D01*
X99924000Y-146363714D01*
X99971619Y-146316095D01*
X100066857Y-146268476D01*
X100209714Y-146268476D01*
X100304952Y-146316095D01*
X100352571Y-146363714D01*
X100400190Y-146458952D01*
X100400190Y-146839904D01*
X99876380Y-145649428D02*
X99876380Y-145458952D01*
X99924000Y-145363714D01*
X100019238Y-145268476D01*
X100209714Y-145220857D01*
X100543047Y-145220857D01*
X100733523Y-145268476D01*
X100828761Y-145363714D01*
X100876380Y-145458952D01*
X100876380Y-145649428D01*
X100828761Y-145744666D01*
X100733523Y-145839904D01*
X100543047Y-145887523D01*
X100209714Y-145887523D01*
X100019238Y-145839904D01*
X99924000Y-145744666D01*
X99876380Y-145649428D01*
X99876380Y-144887523D02*
X100876380Y-144649428D01*
X100162095Y-144458952D01*
X100876380Y-144268476D01*
X99876380Y-144030380D01*
X100352571Y-143649428D02*
X100352571Y-143316095D01*
X100876380Y-143173238D02*
X100876380Y-143649428D01*
X99876380Y-143649428D01*
X99876380Y-143173238D01*
X100876380Y-142173238D02*
X100400190Y-142506571D01*
X100876380Y-142744666D02*
X99876380Y-142744666D01*
X99876380Y-142363714D01*
X99924000Y-142268476D01*
X99971619Y-142220857D01*
X100066857Y-142173238D01*
X100209714Y-142173238D01*
X100304952Y-142220857D01*
X100352571Y-142268476D01*
X100400190Y-142363714D01*
X100400190Y-142744666D01*
%TO.C,J2*%
X262666666Y-131222380D02*
X262666666Y-131936666D01*
X262619047Y-132079523D01*
X262523809Y-132174761D01*
X262380952Y-132222380D01*
X262285714Y-132222380D01*
X263095238Y-131317619D02*
X263142857Y-131270000D01*
X263238095Y-131222380D01*
X263476190Y-131222380D01*
X263571428Y-131270000D01*
X263619047Y-131317619D01*
X263666666Y-131412857D01*
X263666666Y-131508095D01*
X263619047Y-131650952D01*
X263047619Y-132222380D01*
X263666666Y-132222380D01*
%TO.C,J3*%
X152462380Y-134323333D02*
X153176666Y-134323333D01*
X153319523Y-134370952D01*
X153414761Y-134466190D01*
X153462380Y-134609047D01*
X153462380Y-134704285D01*
X152462380Y-133942380D02*
X152462380Y-133323333D01*
X152843333Y-133656666D01*
X152843333Y-133513809D01*
X152890952Y-133418571D01*
X152938571Y-133370952D01*
X153033809Y-133323333D01*
X153271904Y-133323333D01*
X153367142Y-133370952D01*
X153414761Y-133418571D01*
X153462380Y-133513809D01*
X153462380Y-133799523D01*
X153414761Y-133894761D01*
X153367142Y-133942380D01*
%TO.C,J4*%
X169266666Y-133142380D02*
X169266666Y-133856666D01*
X169219047Y-133999523D01*
X169123809Y-134094761D01*
X168980952Y-134142380D01*
X168885714Y-134142380D01*
X170171428Y-133475714D02*
X170171428Y-134142380D01*
X169933333Y-133094761D02*
X169695238Y-133809047D01*
X170314285Y-133809047D01*
%TO.C,J5*%
X192226666Y-133732380D02*
X192226666Y-134446666D01*
X192179047Y-134589523D01*
X192083809Y-134684761D01*
X191940952Y-134732380D01*
X191845714Y-134732380D01*
X193179047Y-133732380D02*
X192702857Y-133732380D01*
X192655238Y-134208571D01*
X192702857Y-134160952D01*
X192798095Y-134113333D01*
X193036190Y-134113333D01*
X193131428Y-134160952D01*
X193179047Y-134208571D01*
X193226666Y-134303809D01*
X193226666Y-134541904D01*
X193179047Y-134637142D01*
X193131428Y-134684761D01*
X193036190Y-134732380D01*
X192798095Y-134732380D01*
X192702857Y-134684761D01*
X192655238Y-134637142D01*
%TO.C,J6*%
X237446666Y-133862380D02*
X237446666Y-134576666D01*
X237399047Y-134719523D01*
X237303809Y-134814761D01*
X237160952Y-134862380D01*
X237065714Y-134862380D01*
X238351428Y-133862380D02*
X238160952Y-133862380D01*
X238065714Y-133910000D01*
X238018095Y-133957619D01*
X237922857Y-134100476D01*
X237875238Y-134290952D01*
X237875238Y-134671904D01*
X237922857Y-134767142D01*
X237970476Y-134814761D01*
X238065714Y-134862380D01*
X238256190Y-134862380D01*
X238351428Y-134814761D01*
X238399047Y-134767142D01*
X238446666Y-134671904D01*
X238446666Y-134433809D01*
X238399047Y-134338571D01*
X238351428Y-134290952D01*
X238256190Y-134243333D01*
X238065714Y-134243333D01*
X237970476Y-134290952D01*
X237922857Y-134338571D01*
X237875238Y-134433809D01*
%TO.C,J7*%
X222786666Y-133682380D02*
X222786666Y-134396666D01*
X222739047Y-134539523D01*
X222643809Y-134634761D01*
X222500952Y-134682380D01*
X222405714Y-134682380D01*
X223167619Y-133682380D02*
X223834285Y-133682380D01*
X223405714Y-134682380D01*
%TO.C,R1*%
X118783333Y-156842380D02*
X118450000Y-156366190D01*
X118211904Y-156842380D02*
X118211904Y-155842380D01*
X118592857Y-155842380D01*
X118688095Y-155890000D01*
X118735714Y-155937619D01*
X118783333Y-156032857D01*
X118783333Y-156175714D01*
X118735714Y-156270952D01*
X118688095Y-156318571D01*
X118592857Y-156366190D01*
X118211904Y-156366190D01*
X119735714Y-156842380D02*
X119164285Y-156842380D01*
X119450000Y-156842380D02*
X119450000Y-155842380D01*
X119354761Y-155985238D01*
X119259523Y-156080476D01*
X119164285Y-156128095D01*
X123175714Y-157022380D02*
X122604285Y-157022380D01*
X122890000Y-157022380D02*
X122890000Y-156022380D01*
X122794761Y-156165238D01*
X122699523Y-156260476D01*
X122604285Y-156308095D01*
X123604285Y-157022380D02*
X123604285Y-156022380D01*
X124175714Y-157022380D02*
X123747142Y-156450952D01*
X124175714Y-156022380D02*
X123604285Y-156593809D01*
%TO.C,R2*%
X118353333Y-139222380D02*
X118020000Y-138746190D01*
X117781904Y-139222380D02*
X117781904Y-138222380D01*
X118162857Y-138222380D01*
X118258095Y-138270000D01*
X118305714Y-138317619D01*
X118353333Y-138412857D01*
X118353333Y-138555714D01*
X118305714Y-138650952D01*
X118258095Y-138698571D01*
X118162857Y-138746190D01*
X117781904Y-138746190D01*
X118734285Y-138317619D02*
X118781904Y-138270000D01*
X118877142Y-138222380D01*
X119115238Y-138222380D01*
X119210476Y-138270000D01*
X119258095Y-138317619D01*
X119305714Y-138412857D01*
X119305714Y-138508095D01*
X119258095Y-138650952D01*
X118686666Y-139222380D01*
X119305714Y-139222380D01*
X122835714Y-138652380D02*
X122264285Y-138652380D01*
X122550000Y-138652380D02*
X122550000Y-137652380D01*
X122454761Y-137795238D01*
X122359523Y-137890476D01*
X122264285Y-137938095D01*
X123264285Y-138652380D02*
X123264285Y-137652380D01*
X123835714Y-138652380D02*
X123407142Y-138080952D01*
X123835714Y-137652380D02*
X123264285Y-138223809D01*
%TD*%
M02*
